G04 #@! TF.GenerationSoftware,KiCad,Pcbnew,(6.0.10)*
G04 #@! TF.CreationDate,2023-05-03T21:15:51-04:00*
G04 #@! TF.ProjectId,MiniCopterSchematic,4d696e69-436f-4707-9465-72536368656d,v01*
G04 #@! TF.SameCoordinates,Original*
G04 #@! TF.FileFunction,Copper,L2,Bot*
G04 #@! TF.FilePolarity,Positive*
%FSLAX46Y46*%
G04 Gerber Fmt 4.6, Leading zero omitted, Abs format (unit mm)*
G04 Created by KiCad (PCBNEW (6.0.10)) date 2023-05-03 21:15:51*
%MOMM*%
%LPD*%
G01*
G04 APERTURE LIST*
G04 #@! TA.AperFunction,ComponentPad*
%ADD10C,6.400000*%
G04 #@! TD*
G04 #@! TA.AperFunction,ComponentPad*
%ADD11R,1.700000X1.700000*%
G04 #@! TD*
G04 #@! TA.AperFunction,ComponentPad*
%ADD12O,1.700000X1.700000*%
G04 #@! TD*
G04 #@! TA.AperFunction,ComponentPad*
%ADD13C,1.700000*%
G04 #@! TD*
G04 #@! TA.AperFunction,ComponentPad*
%ADD14C,1.600000*%
G04 #@! TD*
G04 #@! TA.AperFunction,ComponentPad*
%ADD15O,1.600000X1.600000*%
G04 #@! TD*
G04 #@! TA.AperFunction,ComponentPad*
%ADD16R,1.800000X1.800000*%
G04 #@! TD*
G04 #@! TA.AperFunction,ComponentPad*
%ADD17C,1.800000*%
G04 #@! TD*
G04 #@! TA.AperFunction,ComponentPad*
%ADD18R,1.600000X1.600000*%
G04 #@! TD*
G04 #@! TA.AperFunction,SMDPad,CuDef*
%ADD19R,3.000000X3.000000*%
G04 #@! TD*
G04 #@! TA.AperFunction,SMDPad,CuDef*
%ADD20R,5.000000X5.000000*%
G04 #@! TD*
G04 #@! TA.AperFunction,ViaPad*
%ADD21C,0.800000*%
G04 #@! TD*
G04 #@! TA.AperFunction,Conductor*
%ADD22C,0.250000*%
G04 #@! TD*
G04 #@! TA.AperFunction,Conductor*
%ADD23C,2.000000*%
G04 #@! TD*
G04 #@! TA.AperFunction,Conductor*
%ADD24C,0.300000*%
G04 #@! TD*
G04 #@! TA.AperFunction,Conductor*
%ADD25C,2.500000*%
G04 #@! TD*
G04 #@! TA.AperFunction,Conductor*
%ADD26C,3.000000*%
G04 #@! TD*
G04 #@! TA.AperFunction,Conductor*
%ADD27C,1.250000*%
G04 #@! TD*
G04 APERTURE END LIST*
D10*
X77740000Y-77500000D03*
D11*
X97047000Y-113596000D03*
D12*
X94507000Y-113596000D03*
D13*
X91967000Y-113596000D03*
D14*
X104920000Y-105000000D03*
D15*
X115080000Y-105000000D03*
D11*
X124727013Y-123240000D03*
D13*
X124727013Y-125780000D03*
X139332013Y-113080000D03*
X136792013Y-113080000D03*
X134252013Y-113080000D03*
X131712013Y-113080000D03*
X129172013Y-113080000D03*
X126632013Y-113080000D03*
D14*
X104920000Y-116500000D03*
D15*
X115080000Y-116500000D03*
D11*
X102385000Y-88000000D03*
D13*
X102385000Y-90540000D03*
X102385000Y-93080000D03*
X102385000Y-95620000D03*
X102385000Y-98160000D03*
X102385000Y-100700000D03*
X102385000Y-103240000D03*
X102385000Y-105780000D03*
X102385000Y-108320000D03*
X102385000Y-110860000D03*
X102385000Y-113400000D03*
X102385000Y-115940000D03*
X102385000Y-118480000D03*
X102385000Y-121020000D03*
X102385000Y-123560000D03*
X117625000Y-123560000D03*
X117625000Y-121020000D03*
X117625000Y-118480000D03*
X117625000Y-115940000D03*
X117625000Y-113400000D03*
X117625000Y-110860000D03*
X117625000Y-108320000D03*
X117625000Y-105780000D03*
X117625000Y-103240000D03*
X117625000Y-100700000D03*
X117625000Y-98160000D03*
X117625000Y-95620000D03*
X117625000Y-93080000D03*
X117625000Y-90540000D03*
X117625000Y-88000000D03*
D14*
X104920000Y-94400000D03*
D15*
X115080000Y-94400000D03*
D16*
X88040000Y-76250000D03*
D17*
X85500000Y-76250000D03*
D11*
X78140000Y-90000000D03*
D12*
X75600000Y-90000000D03*
D18*
X137000000Y-122182380D03*
D14*
X137000000Y-119682380D03*
D16*
X137740000Y-76250000D03*
D17*
X135200000Y-76250000D03*
D14*
X104920000Y-89300000D03*
D15*
X115080000Y-89300000D03*
D10*
X145740000Y-77500000D03*
X145740000Y-128500000D03*
D11*
X78140000Y-86000000D03*
D12*
X75600000Y-86000000D03*
D11*
X84455000Y-119750000D03*
D12*
X81915000Y-119750000D03*
D13*
X79375000Y-119750000D03*
D11*
X97070000Y-119725000D03*
D12*
X94530000Y-119725000D03*
D13*
X91990000Y-119725000D03*
D10*
X77740000Y-128500000D03*
D14*
X104920000Y-99500000D03*
D15*
X115080000Y-99500000D03*
D14*
X104920000Y-110500000D03*
D15*
X115080000Y-110500000D03*
D11*
X95505290Y-104315290D03*
D13*
X95505290Y-101775290D03*
X95505290Y-99235290D03*
X95505290Y-96695290D03*
X95505290Y-94155290D03*
X95505290Y-91615290D03*
X95505290Y-89075290D03*
X95505290Y-86535290D03*
D11*
X84400000Y-113600000D03*
D12*
X81860000Y-113600000D03*
D13*
X79320000Y-113600000D03*
D19*
X144000000Y-111888000D03*
X144000000Y-119000000D03*
D20*
X96520000Y-76750000D03*
D19*
X87444000Y-128500000D03*
X94556000Y-128500000D03*
D20*
X144000000Y-91000000D03*
X144000000Y-101000000D03*
D19*
X80000000Y-96500000D03*
X80000000Y-103612000D03*
X127612000Y-78900000D03*
X120500000Y-78900000D03*
D21*
X82100000Y-89100000D03*
X82000000Y-86500000D03*
X98500000Y-93400000D03*
X93100000Y-87800000D03*
X81500000Y-87800000D03*
X98500000Y-96500000D03*
X86000000Y-106100000D03*
X77500000Y-108000000D03*
X93100000Y-106100000D03*
X82500000Y-108000000D03*
X98600000Y-101275500D03*
X98600000Y-103300000D03*
X100500000Y-95700000D03*
X99400000Y-110600000D03*
X99400000Y-116424500D03*
X99500000Y-94500000D03*
X103750000Y-112250000D03*
X123650000Y-112250000D03*
X106000000Y-112250000D03*
X119650000Y-112250000D03*
X135300000Y-115500000D03*
X106000000Y-114700000D03*
X123650000Y-114750000D03*
X119650000Y-114700000D03*
X103770023Y-114670023D03*
X128300000Y-115500000D03*
X131712013Y-125887987D03*
X131712013Y-117387987D03*
X129700000Y-127700049D03*
X129700000Y-117900000D03*
X133300000Y-117900000D03*
X133300000Y-124100000D03*
X136200000Y-94300000D03*
X137300000Y-83100000D03*
X108500000Y-86000000D03*
D22*
X80000000Y-90000000D02*
X78140000Y-90000000D01*
X82100000Y-89100000D02*
X80900000Y-89100000D01*
X80900000Y-89100000D02*
X80000000Y-90000000D01*
X80500000Y-86000000D02*
X78140000Y-86000000D01*
X81000000Y-86500000D02*
X80500000Y-86000000D01*
X82000000Y-86500000D02*
X81000000Y-86500000D01*
D23*
X124727013Y-123240000D02*
X124727013Y-120772987D01*
X124727013Y-120772987D02*
X125817620Y-119682380D01*
X125817620Y-119682380D02*
X137000000Y-119682380D01*
D22*
X98100000Y-90400000D02*
X94500000Y-90400000D01*
X93700000Y-87800000D02*
X93100000Y-87800000D01*
X99160000Y-98160000D02*
X102385000Y-98160000D01*
X98500000Y-93400000D02*
X98500000Y-90800000D01*
X94000000Y-88100000D02*
X93700000Y-87800000D01*
X94500000Y-90400000D02*
X94000000Y-89900000D01*
X76200000Y-87800000D02*
X75600000Y-87200000D01*
X98500000Y-90800000D02*
X98100000Y-90400000D01*
X81500000Y-87800000D02*
X76200000Y-87800000D01*
X94000000Y-89900000D02*
X94000000Y-88100000D01*
X75600000Y-87200000D02*
X75600000Y-86000000D01*
X98500000Y-97500000D02*
X99160000Y-98160000D01*
X98500000Y-96500000D02*
X98500000Y-97500000D01*
X98600000Y-103300000D02*
X98600000Y-105600000D01*
X98600000Y-101275500D02*
X98600000Y-100600000D01*
X83300000Y-108000000D02*
X85200000Y-106100000D01*
X84455000Y-121195000D02*
X84455000Y-119750000D01*
D24*
X105000000Y-100500000D02*
X104785000Y-100715000D01*
D22*
X85200000Y-106100000D02*
X86000000Y-106100000D01*
X84150000Y-121500000D02*
X84455000Y-121195000D01*
X76900000Y-108000000D02*
X76700000Y-108200000D01*
X98100000Y-106100000D02*
X93100000Y-106100000D01*
X98600000Y-100600000D02*
X98900000Y-100300000D01*
X78200000Y-121500000D02*
X84150000Y-121500000D01*
X76700000Y-120000000D02*
X78200000Y-121500000D01*
X100800000Y-100300000D02*
X101200000Y-100700000D01*
D24*
X105000000Y-99580000D02*
X105000000Y-100500000D01*
X104920000Y-99500000D02*
X105000000Y-99580000D01*
D22*
X77500000Y-108000000D02*
X76900000Y-108000000D01*
X98600000Y-105600000D02*
X98100000Y-106100000D01*
X82500000Y-108000000D02*
X83300000Y-108000000D01*
X98900000Y-100300000D02*
X100800000Y-100300000D01*
X76700000Y-108200000D02*
X76700000Y-120000000D01*
X101200000Y-100700000D02*
X102385000Y-100700000D01*
D24*
X104785000Y-100715000D02*
X102450000Y-100715000D01*
D22*
X101100000Y-94400000D02*
X104920000Y-94400000D01*
X100500000Y-95700000D02*
X100500000Y-95000000D01*
X100500000Y-95000000D02*
X101100000Y-94400000D01*
X97400000Y-117400000D02*
X99100000Y-117400000D01*
X99400000Y-110600000D02*
X99400000Y-106500000D01*
X102385000Y-105780000D02*
X104140000Y-105780000D01*
X104140000Y-105780000D02*
X104920000Y-105000000D01*
X99100000Y-117400000D02*
X99400000Y-117100000D01*
X99400000Y-106500000D02*
X100120000Y-105780000D01*
X97070000Y-119725000D02*
X97070000Y-117730000D01*
X99400000Y-117100000D02*
X99400000Y-116424500D01*
X97070000Y-117730000D02*
X97400000Y-117400000D01*
X100120000Y-105780000D02*
X102385000Y-105780000D01*
X99500000Y-91000000D02*
X99500000Y-94500000D01*
X104920000Y-89300000D02*
X101200000Y-89300000D01*
X101200000Y-89300000D02*
X99500000Y-91000000D01*
X138750000Y-111000000D02*
X139332013Y-111582013D01*
X125275156Y-112250000D02*
X126525156Y-111000000D01*
X118900000Y-112250000D02*
X118800000Y-112150000D01*
X118900000Y-112250000D02*
X119650000Y-112250000D01*
X102385000Y-111885000D02*
X102385000Y-110860000D01*
X102750000Y-112250000D02*
X102385000Y-111885000D01*
X118800000Y-112150000D02*
X106100000Y-112150000D01*
X123650000Y-112250000D02*
X125275156Y-112250000D01*
X139332013Y-111582013D02*
X139332013Y-113080000D01*
X106100000Y-112150000D02*
X106000000Y-112250000D01*
X103750000Y-112250000D02*
X102750000Y-112250000D01*
X126525156Y-111000000D02*
X138750000Y-111000000D01*
X102607523Y-114670023D02*
X102385000Y-114447500D01*
X136500000Y-115500000D02*
X136792013Y-115207987D01*
X106050000Y-114650000D02*
X118550000Y-114650000D01*
X123650000Y-114750000D02*
X124400000Y-115500000D01*
X135300000Y-115500000D02*
X136500000Y-115500000D01*
X103770023Y-114670023D02*
X102607523Y-114670023D01*
X106000000Y-114700000D02*
X106050000Y-114650000D01*
X136792013Y-115207987D02*
X136792013Y-113080000D01*
X124400000Y-115500000D02*
X128300000Y-115500000D01*
X102385000Y-114447500D02*
X102385000Y-113400000D01*
X118600000Y-114700000D02*
X119650000Y-114700000D01*
X118550000Y-114650000D02*
X118600000Y-114700000D01*
X97500000Y-111600000D02*
X100300000Y-111600000D01*
X97047000Y-112053000D02*
X97500000Y-111600000D01*
X100300000Y-111600000D02*
X100800000Y-112100000D01*
X100800000Y-112100000D02*
X100800000Y-115300000D01*
D24*
X103545000Y-115955000D02*
X104920000Y-114580000D01*
X102450000Y-115955000D02*
X103545000Y-115955000D01*
D22*
X101440000Y-115940000D02*
X102385000Y-115940000D01*
D24*
X104920000Y-114580000D02*
X104920000Y-109750000D01*
D22*
X97047000Y-113596000D02*
X97047000Y-112053000D01*
X100800000Y-115300000D02*
X101440000Y-115940000D01*
D24*
X104250000Y-118500000D02*
X104920000Y-117830000D01*
D22*
X90800000Y-115700000D02*
X100000000Y-115700000D01*
X100600000Y-118100000D02*
X100980000Y-118480000D01*
X100600000Y-116300000D02*
X100600000Y-118100000D01*
X84800000Y-112000000D02*
X87100000Y-112000000D01*
X84400000Y-112400000D02*
X84800000Y-112000000D01*
X100000000Y-115700000D02*
X100600000Y-116300000D01*
X100980000Y-118480000D02*
X102385000Y-118480000D01*
D24*
X102450000Y-118495000D02*
X103755000Y-118495000D01*
D22*
X84400000Y-113600000D02*
X84400000Y-112400000D01*
D24*
X103760000Y-118500000D02*
X104250000Y-118500000D01*
X104920000Y-117830000D02*
X104920000Y-116500000D01*
X103755000Y-118495000D02*
X103760000Y-118500000D01*
D22*
X87100000Y-112000000D02*
X90800000Y-115700000D01*
X126800000Y-128800000D02*
X115300000Y-128800000D01*
X128800000Y-126800000D02*
X126800000Y-128800000D01*
X131712013Y-125887987D02*
X131712013Y-126575974D01*
X131487987Y-126800000D02*
X128800000Y-126800000D01*
X131712013Y-126575974D02*
X131487987Y-126800000D01*
X107520000Y-121020000D02*
X102385000Y-121020000D01*
X115300000Y-128800000D02*
X107520000Y-121020000D01*
X131712013Y-117387987D02*
X131712013Y-113080000D01*
X129700000Y-117900000D02*
X129700000Y-117000000D01*
X128900000Y-129600000D02*
X112850000Y-129600000D01*
X129700000Y-117000000D02*
X129172013Y-116472013D01*
X112850000Y-129600000D02*
X106810000Y-123560000D01*
X129700000Y-127700049D02*
X129700000Y-128800000D01*
X106810000Y-123560000D02*
X102385000Y-123560000D01*
X129172013Y-116472013D02*
X129172013Y-113080000D01*
X129700000Y-128800000D02*
X128900000Y-129600000D01*
X119500000Y-127120000D02*
X119500000Y-124000000D01*
X119060000Y-123560000D02*
X117625000Y-123560000D01*
X133000000Y-125000000D02*
X129500000Y-125000000D01*
X133300000Y-124700000D02*
X133000000Y-125000000D01*
X134252013Y-116047987D02*
X134252013Y-113080000D01*
X126500000Y-128000000D02*
X120380000Y-128000000D01*
X133300000Y-124100000D02*
X133300000Y-124700000D01*
X133300000Y-117900000D02*
X133300000Y-117000000D01*
X120380000Y-128000000D02*
X119500000Y-127120000D01*
X119500000Y-124000000D02*
X119060000Y-123560000D01*
X133300000Y-117000000D02*
X134252013Y-116047987D01*
X129500000Y-125000000D02*
X126500000Y-128000000D01*
X114100000Y-106800000D02*
X115400000Y-106800000D01*
X112400000Y-102000000D02*
X113300000Y-102900000D01*
X97095290Y-96695290D02*
X97400000Y-97000000D01*
X113300000Y-106000000D02*
X114100000Y-106800000D01*
X116420000Y-105780000D02*
X117625000Y-105780000D01*
X97400000Y-101300000D02*
X98100000Y-102000000D01*
X97400000Y-97000000D02*
X97400000Y-101300000D01*
X115400000Y-106800000D02*
X116420000Y-105780000D01*
X113300000Y-102900000D02*
X113300000Y-106000000D01*
X95505290Y-96695290D02*
X97095290Y-96695290D01*
X98100000Y-102000000D02*
X112400000Y-102000000D01*
X95505290Y-99235290D02*
X93970580Y-99235290D01*
X93500000Y-96000000D02*
X94000000Y-95500000D01*
X115240000Y-103240000D02*
X117625000Y-103240000D01*
X113300000Y-101300000D02*
X115240000Y-103240000D01*
X99000000Y-95500000D02*
X100400000Y-96900000D01*
X100400000Y-96900000D02*
X105400000Y-96900000D01*
X93500000Y-98764710D02*
X93500000Y-96000000D01*
X106500000Y-98000000D02*
X106500000Y-101000000D01*
X106500000Y-101000000D02*
X106800000Y-101300000D01*
X93970580Y-99235290D02*
X93500000Y-98764710D01*
X94000000Y-95500000D02*
X99000000Y-95500000D01*
X105400000Y-96900000D02*
X106500000Y-98000000D01*
X106800000Y-101300000D02*
X113300000Y-101300000D01*
D25*
X120890000Y-87990000D02*
X117625000Y-87990000D01*
D26*
X121900000Y-89000000D02*
X120890000Y-87990000D01*
X144000000Y-91000000D02*
X137000000Y-91000000D01*
X135000000Y-89000000D02*
X121900000Y-89000000D01*
X137000000Y-91000000D02*
X135000000Y-89000000D01*
X91944000Y-124700000D02*
X91900000Y-124700000D01*
X94556000Y-127312000D02*
X91944000Y-124700000D01*
X94556000Y-128500000D02*
X94556000Y-127312000D01*
X86200000Y-116700000D02*
X82750000Y-116700000D01*
X88000000Y-120800000D02*
X88000000Y-118500000D01*
X91900000Y-124700000D02*
X88000000Y-120800000D01*
X82750000Y-116700000D02*
X81915000Y-117535000D01*
X88000000Y-118500000D02*
X86200000Y-116700000D01*
D25*
X81915000Y-119750000D02*
X81915000Y-117535000D01*
D27*
X109500000Y-96500000D02*
X116745000Y-96500000D01*
X91600000Y-86400000D02*
X93250000Y-84750000D01*
X95505290Y-104315290D02*
X93715290Y-104315290D01*
D23*
X121700000Y-124312987D02*
X123167013Y-125780000D01*
D27*
X93715290Y-104315290D02*
X91600000Y-102200000D01*
X107000000Y-86250000D02*
X107000000Y-94000000D01*
X91600000Y-102200000D02*
X91600000Y-86400000D01*
D23*
X136917620Y-122100000D02*
X137000000Y-122182380D01*
D27*
X116745000Y-96500000D02*
X117625000Y-95620000D01*
D23*
X121700000Y-97100000D02*
X121700000Y-124312987D01*
D27*
X105500000Y-84750000D02*
X107000000Y-86250000D01*
X107000000Y-94000000D02*
X109500000Y-96500000D01*
D23*
X120220000Y-95620000D02*
X121700000Y-97100000D01*
X129683506Y-122100000D02*
X136917620Y-122100000D01*
X124727013Y-125780000D02*
X126003506Y-125780000D01*
X117625000Y-95620000D02*
X120220000Y-95620000D01*
X126003506Y-125780000D02*
X129683506Y-122100000D01*
X123167013Y-125780000D02*
X124727013Y-125780000D01*
D27*
X93250000Y-84750000D02*
X105500000Y-84750000D01*
D26*
X127612000Y-78900000D02*
X127612000Y-76312000D01*
X85000000Y-123400000D02*
X87444000Y-125844000D01*
X144000000Y-101000000D02*
X147500000Y-101000000D01*
X147500000Y-101000000D02*
X149000000Y-99500000D01*
X111750000Y-76750000D02*
X96520000Y-76750000D01*
X146500000Y-85500000D02*
X129500000Y-85500000D01*
X149000000Y-88000000D02*
X146500000Y-85500000D01*
X92250000Y-76750000D02*
X84500000Y-84500000D01*
X149000000Y-99500000D02*
X149000000Y-88000000D01*
X113500000Y-75000000D02*
X111750000Y-76750000D01*
X76500000Y-96500000D02*
X74600000Y-98400000D01*
X127612000Y-83612000D02*
X127612000Y-78900000D01*
X84500000Y-84500000D02*
X84500000Y-94500000D01*
X126300000Y-75000000D02*
X113500000Y-75000000D01*
X127612000Y-76312000D02*
X126300000Y-75000000D01*
X74600000Y-120800000D02*
X77200000Y-123400000D01*
X82500000Y-96500000D02*
X80000000Y-96500000D01*
X84500000Y-94500000D02*
X82500000Y-96500000D01*
X74600000Y-98400000D02*
X74600000Y-120800000D01*
X96520000Y-76750000D02*
X92250000Y-76750000D01*
X129500000Y-85500000D02*
X127612000Y-83612000D01*
X77200000Y-123400000D02*
X85000000Y-123400000D01*
X144000000Y-101000000D02*
X144000000Y-111888000D01*
X87444000Y-125844000D02*
X87444000Y-128500000D01*
X80000000Y-96500000D02*
X76500000Y-96500000D01*
X94600000Y-122000000D02*
X104600000Y-132000000D01*
X144000000Y-121500000D02*
X144000000Y-119000000D01*
X133500000Y-132000000D02*
X144000000Y-121500000D01*
X104600000Y-132000000D02*
X133500000Y-132000000D01*
D25*
X94530000Y-119725000D02*
X94530000Y-121600000D01*
D26*
X116400000Y-78900000D02*
X113600000Y-81700000D01*
X120500000Y-78900000D02*
X116400000Y-78900000D01*
D25*
X94507000Y-111307000D02*
X94507000Y-113596000D01*
D26*
X88500000Y-105300000D02*
X94507000Y-111307000D01*
X113600000Y-81700000D02*
X92300000Y-81700000D01*
X88500000Y-85500000D02*
X88500000Y-105300000D01*
X92300000Y-81700000D02*
X88500000Y-85500000D01*
D25*
X81860000Y-111460000D02*
X81860000Y-113600000D01*
D26*
X80000000Y-103612000D02*
X80000000Y-109600000D01*
X80000000Y-109600000D02*
X81860000Y-111460000D01*
D22*
X119703350Y-92600000D02*
X118903350Y-91800000D01*
X134500000Y-92600000D02*
X119703350Y-92600000D01*
X115080000Y-92720000D02*
X115080000Y-94400000D01*
X116000000Y-91800000D02*
X115080000Y-92720000D01*
X137300000Y-83100000D02*
X137300000Y-81700000D01*
X137740000Y-81260000D02*
X137740000Y-76250000D01*
X118903350Y-91800000D02*
X116000000Y-91800000D01*
X136200000Y-94300000D02*
X134500000Y-92600000D01*
X137300000Y-81700000D02*
X137740000Y-81260000D01*
X115080000Y-87080000D02*
X114000000Y-86000000D01*
X115080000Y-89400000D02*
X115080000Y-87080000D01*
X114000000Y-86000000D02*
X108500000Y-86000000D01*
M02*
