G04 #@! TF.GenerationSoftware,KiCad,Pcbnew,(6.0.10)*
G04 #@! TF.CreationDate,2023-05-03T21:15:51-04:00*
G04 #@! TF.ProjectId,MiniCopterSchematic,4d696e69-436f-4707-9465-72536368656d,v01*
G04 #@! TF.SameCoordinates,Original*
G04 #@! TF.FileFunction,Legend,Top*
G04 #@! TF.FilePolarity,Positive*
%FSLAX46Y46*%
G04 Gerber Fmt 4.6, Leading zero omitted, Abs format (unit mm)*
G04 Created by KiCad (PCBNEW (6.0.10)) date 2023-05-03 21:15:51*
%MOMM*%
%LPD*%
G01*
G04 APERTURE LIST*
G04 Aperture macros list*
%AMRoundRect*
0 Rectangle with rounded corners*
0 $1 Rounding radius*
0 $2 $3 $4 $5 $6 $7 $8 $9 X,Y pos of 4 corners*
0 Add a 4 corners polygon primitive as box body*
4,1,4,$2,$3,$4,$5,$6,$7,$8,$9,$2,$3,0*
0 Add four circle primitives for the rounded corners*
1,1,$1+$1,$2,$3*
1,1,$1+$1,$4,$5*
1,1,$1+$1,$6,$7*
1,1,$1+$1,$8,$9*
0 Add four rect primitives between the rounded corners*
20,1,$1+$1,$2,$3,$4,$5,0*
20,1,$1+$1,$4,$5,$6,$7,0*
20,1,$1+$1,$6,$7,$8,$9,0*
20,1,$1+$1,$8,$9,$2,$3,0*%
G04 Aperture macros list end*
%ADD10C,0.200000*%
%ADD11C,0.250000*%
%ADD12C,0.150000*%
%ADD13C,0.120000*%
%ADD14C,0.973026*%
%ADD15C,0.793420*%
%ADD16C,6.500000*%
%ADD17RoundRect,0.050000X0.850000X-0.850000X0.850000X0.850000X-0.850000X0.850000X-0.850000X-0.850000X0*%
%ADD18O,1.800000X1.800000*%
%ADD19C,1.800000*%
%ADD20C,1.700000*%
%ADD21O,1.700000X1.700000*%
%ADD22RoundRect,0.050000X-0.850000X-0.850000X0.850000X-0.850000X0.850000X0.850000X-0.850000X0.850000X0*%
%ADD23RoundRect,0.050000X0.900000X0.900000X-0.900000X0.900000X-0.900000X-0.900000X0.900000X-0.900000X0*%
%ADD24C,1.900000*%
%ADD25RoundRect,0.050000X-0.850000X0.850000X-0.850000X-0.850000X0.850000X-0.850000X0.850000X0.850000X0*%
%ADD26RoundRect,0.050000X0.800000X-0.800000X0.800000X0.800000X-0.800000X0.800000X-0.800000X-0.800000X0*%
%ADD27RoundRect,0.050000X-2.500000X-2.500000X2.500000X-2.500000X2.500000X2.500000X-2.500000X2.500000X0*%
G04 APERTURE END LIST*
D10*
X143100000Y-91025000D02*
X150100000Y-91025000D01*
X150100000Y-91025000D02*
X150100000Y-114775000D01*
X150100000Y-114775000D02*
X143100000Y-114775000D01*
X143100000Y-114775000D02*
X143100000Y-91025000D01*
G36*
X143100000Y-91025000D02*
G01*
X150100000Y-91025000D01*
X150100000Y-114775000D01*
X143100000Y-114775000D01*
X143100000Y-91025000D01*
G37*
D11*
X101500000Y-76178571D02*
X100785714Y-76178571D01*
X100785714Y-74678571D01*
X101928571Y-74821428D02*
X102000000Y-74750000D01*
X102142857Y-74678571D01*
X102500000Y-74678571D01*
X102642857Y-74750000D01*
X102714285Y-74821428D01*
X102785714Y-74964285D01*
X102785714Y-75107142D01*
X102714285Y-75321428D01*
X101857142Y-76178571D01*
X102785714Y-76178571D01*
D12*
X88404761Y-114143619D02*
X88309523Y-114096000D01*
X88214285Y-114000761D01*
X88071428Y-113857904D01*
X87976190Y-113810285D01*
X87880952Y-113810285D01*
X87928571Y-114048380D02*
X87833333Y-114000761D01*
X87738095Y-113905523D01*
X87690476Y-113715047D01*
X87690476Y-113381714D01*
X87738095Y-113191238D01*
X87833333Y-113096000D01*
X87928571Y-113048380D01*
X88119047Y-113048380D01*
X88214285Y-113096000D01*
X88309523Y-113191238D01*
X88357142Y-113381714D01*
X88357142Y-113715047D01*
X88309523Y-113905523D01*
X88214285Y-114000761D01*
X88119047Y-114048380D01*
X87928571Y-114048380D01*
X88690476Y-113048380D02*
X89309523Y-113048380D01*
X88976190Y-113429333D01*
X89119047Y-113429333D01*
X89214285Y-113476952D01*
X89261904Y-113524571D01*
X89309523Y-113619809D01*
X89309523Y-113857904D01*
X89261904Y-113953142D01*
X89214285Y-114000761D01*
X89119047Y-114048380D01*
X88833333Y-114048380D01*
X88738095Y-114000761D01*
X88690476Y-113953142D01*
X109833333Y-105452380D02*
X109500000Y-104976190D01*
X109261904Y-105452380D02*
X109261904Y-104452380D01*
X109642857Y-104452380D01*
X109738095Y-104500000D01*
X109785714Y-104547619D01*
X109833333Y-104642857D01*
X109833333Y-104785714D01*
X109785714Y-104880952D01*
X109738095Y-104928571D01*
X109642857Y-104976190D01*
X109261904Y-104976190D01*
X110214285Y-104547619D02*
X110261904Y-104500000D01*
X110357142Y-104452380D01*
X110595238Y-104452380D01*
X110690476Y-104500000D01*
X110738095Y-104547619D01*
X110785714Y-104642857D01*
X110785714Y-104738095D01*
X110738095Y-104880952D01*
X110166666Y-105452380D01*
X110785714Y-105452380D01*
X132220108Y-106838893D02*
X132220108Y-107648417D01*
X132267727Y-107743655D01*
X132315346Y-107791274D01*
X132410584Y-107838893D01*
X132601060Y-107838893D01*
X132696298Y-107791274D01*
X132743917Y-107743655D01*
X132791536Y-107648417D01*
X132791536Y-106838893D01*
X133172489Y-106838893D02*
X133791536Y-106838893D01*
X133458203Y-107219846D01*
X133601060Y-107219846D01*
X133696298Y-107267465D01*
X133743917Y-107315084D01*
X133791536Y-107410322D01*
X133791536Y-107648417D01*
X133743917Y-107743655D01*
X133696298Y-107791274D01*
X133601060Y-107838893D01*
X133315346Y-107838893D01*
X133220108Y-107791274D01*
X133172489Y-107743655D01*
X109833333Y-116952380D02*
X109500000Y-116476190D01*
X109261904Y-116952380D02*
X109261904Y-115952380D01*
X109642857Y-115952380D01*
X109738095Y-116000000D01*
X109785714Y-116047619D01*
X109833333Y-116142857D01*
X109833333Y-116285714D01*
X109785714Y-116380952D01*
X109738095Y-116428571D01*
X109642857Y-116476190D01*
X109261904Y-116476190D01*
X110690476Y-116285714D02*
X110690476Y-116952380D01*
X110452380Y-115904761D02*
X110214285Y-116619047D01*
X110833333Y-116619047D01*
X116238095Y-84452380D02*
X116238095Y-85261904D01*
X116285714Y-85357142D01*
X116333333Y-85404761D01*
X116428571Y-85452380D01*
X116619047Y-85452380D01*
X116714285Y-85404761D01*
X116761904Y-85357142D01*
X116809523Y-85261904D01*
X116809523Y-84452380D01*
X117809523Y-85452380D02*
X117238095Y-85452380D01*
X117523809Y-85452380D02*
X117523809Y-84452380D01*
X117428571Y-84595238D01*
X117333333Y-84690476D01*
X117238095Y-84738095D01*
X108743095Y-123012380D02*
X108743095Y-123821904D01*
X108790714Y-123917142D01*
X108838333Y-123964761D01*
X108933571Y-124012380D01*
X109124047Y-124012380D01*
X109219285Y-123964761D01*
X109266904Y-123917142D01*
X109314523Y-123821904D01*
X109314523Y-123012380D01*
X109743095Y-123964761D02*
X109885952Y-124012380D01*
X110124047Y-124012380D01*
X110219285Y-123964761D01*
X110266904Y-123917142D01*
X110314523Y-123821904D01*
X110314523Y-123726666D01*
X110266904Y-123631428D01*
X110219285Y-123583809D01*
X110124047Y-123536190D01*
X109933571Y-123488571D01*
X109838333Y-123440952D01*
X109790714Y-123393333D01*
X109743095Y-123298095D01*
X109743095Y-123202857D01*
X109790714Y-123107619D01*
X109838333Y-123060000D01*
X109933571Y-123012380D01*
X110171666Y-123012380D01*
X110314523Y-123060000D01*
X111076428Y-123488571D02*
X111219285Y-123536190D01*
X111266904Y-123583809D01*
X111314523Y-123679047D01*
X111314523Y-123821904D01*
X111266904Y-123917142D01*
X111219285Y-123964761D01*
X111124047Y-124012380D01*
X110743095Y-124012380D01*
X110743095Y-123012380D01*
X111076428Y-123012380D01*
X111171666Y-123060000D01*
X111219285Y-123107619D01*
X111266904Y-123202857D01*
X111266904Y-123298095D01*
X111219285Y-123393333D01*
X111171666Y-123440952D01*
X111076428Y-123488571D01*
X110743095Y-123488571D01*
X109833333Y-94852380D02*
X109500000Y-94376190D01*
X109261904Y-94852380D02*
X109261904Y-93852380D01*
X109642857Y-93852380D01*
X109738095Y-93900000D01*
X109785714Y-93947619D01*
X109833333Y-94042857D01*
X109833333Y-94185714D01*
X109785714Y-94280952D01*
X109738095Y-94328571D01*
X109642857Y-94376190D01*
X109261904Y-94376190D01*
X110738095Y-93852380D02*
X110261904Y-93852380D01*
X110214285Y-94328571D01*
X110261904Y-94280952D01*
X110357142Y-94233333D01*
X110595238Y-94233333D01*
X110690476Y-94280952D01*
X110738095Y-94328571D01*
X110785714Y-94423809D01*
X110785714Y-94661904D01*
X110738095Y-94757142D01*
X110690476Y-94804761D01*
X110595238Y-94852380D01*
X110357142Y-94852380D01*
X110261904Y-94804761D01*
X110214285Y-94757142D01*
X82261904Y-73952380D02*
X82261904Y-72952380D01*
X82500000Y-72952380D01*
X82642857Y-73000000D01*
X82738095Y-73095238D01*
X82785714Y-73190476D01*
X82833333Y-73380952D01*
X82833333Y-73523809D01*
X82785714Y-73714285D01*
X82738095Y-73809523D01*
X82642857Y-73904761D01*
X82500000Y-73952380D01*
X82261904Y-73952380D01*
X83214285Y-73047619D02*
X83261904Y-73000000D01*
X83357142Y-72952380D01*
X83595238Y-72952380D01*
X83690476Y-73000000D01*
X83738095Y-73047619D01*
X83785714Y-73142857D01*
X83785714Y-73238095D01*
X83738095Y-73380952D01*
X83166666Y-73952380D01*
X83785714Y-73952380D01*
X74766666Y-92152380D02*
X74766666Y-92866666D01*
X74719047Y-93009523D01*
X74623809Y-93104761D01*
X74480952Y-93152380D01*
X74385714Y-93152380D01*
X75242857Y-93152380D02*
X75242857Y-92152380D01*
X75623809Y-92152380D01*
X75719047Y-92200000D01*
X75766666Y-92247619D01*
X75814285Y-92342857D01*
X75814285Y-92485714D01*
X75766666Y-92580952D01*
X75719047Y-92628571D01*
X75623809Y-92676190D01*
X75242857Y-92676190D01*
X76766666Y-93152380D02*
X76195238Y-93152380D01*
X76480952Y-93152380D02*
X76480952Y-92152380D01*
X76385714Y-92295238D01*
X76290476Y-92390476D01*
X76195238Y-92438095D01*
X139933333Y-118157142D02*
X139885714Y-118204761D01*
X139742857Y-118252380D01*
X139647619Y-118252380D01*
X139504761Y-118204761D01*
X139409523Y-118109523D01*
X139361904Y-118014285D01*
X139314285Y-117823809D01*
X139314285Y-117680952D01*
X139361904Y-117490476D01*
X139409523Y-117395238D01*
X139504761Y-117300000D01*
X139647619Y-117252380D01*
X139742857Y-117252380D01*
X139885714Y-117300000D01*
X139933333Y-117347619D01*
X140885714Y-118252380D02*
X140314285Y-118252380D01*
X140600000Y-118252380D02*
X140600000Y-117252380D01*
X140504761Y-117395238D01*
X140409523Y-117490476D01*
X140314285Y-117538095D01*
X139511904Y-73952380D02*
X139511904Y-72952380D01*
X139750000Y-72952380D01*
X139892857Y-73000000D01*
X139988095Y-73095238D01*
X140035714Y-73190476D01*
X140083333Y-73380952D01*
X140083333Y-73523809D01*
X140035714Y-73714285D01*
X139988095Y-73809523D01*
X139892857Y-73904761D01*
X139750000Y-73952380D01*
X139511904Y-73952380D01*
X141035714Y-73952380D02*
X140464285Y-73952380D01*
X140750000Y-73952380D02*
X140750000Y-72952380D01*
X140654761Y-73095238D01*
X140559523Y-73190476D01*
X140464285Y-73238095D01*
X109833333Y-89752380D02*
X109500000Y-89276190D01*
X109261904Y-89752380D02*
X109261904Y-88752380D01*
X109642857Y-88752380D01*
X109738095Y-88800000D01*
X109785714Y-88847619D01*
X109833333Y-88942857D01*
X109833333Y-89085714D01*
X109785714Y-89180952D01*
X109738095Y-89228571D01*
X109642857Y-89276190D01*
X109261904Y-89276190D01*
X110690476Y-88752380D02*
X110500000Y-88752380D01*
X110404761Y-88800000D01*
X110357142Y-88847619D01*
X110261904Y-88990476D01*
X110214285Y-89180952D01*
X110214285Y-89561904D01*
X110261904Y-89657142D01*
X110309523Y-89704761D01*
X110404761Y-89752380D01*
X110595238Y-89752380D01*
X110690476Y-89704761D01*
X110738095Y-89657142D01*
X110785714Y-89561904D01*
X110785714Y-89323809D01*
X110738095Y-89228571D01*
X110690476Y-89180952D01*
X110595238Y-89133333D01*
X110404761Y-89133333D01*
X110309523Y-89180952D01*
X110261904Y-89228571D01*
X110214285Y-89323809D01*
X74366666Y-82952380D02*
X74366666Y-83666666D01*
X74319047Y-83809523D01*
X74223809Y-83904761D01*
X74080952Y-83952380D01*
X73985714Y-83952380D01*
X74842857Y-83952380D02*
X74842857Y-82952380D01*
X75223809Y-82952380D01*
X75319047Y-83000000D01*
X75366666Y-83047619D01*
X75414285Y-83142857D01*
X75414285Y-83285714D01*
X75366666Y-83380952D01*
X75319047Y-83428571D01*
X75223809Y-83476190D01*
X74842857Y-83476190D01*
X75795238Y-83047619D02*
X75842857Y-83000000D01*
X75938095Y-82952380D01*
X76176190Y-82952380D01*
X76271428Y-83000000D01*
X76319047Y-83047619D01*
X76366666Y-83142857D01*
X76366666Y-83238095D01*
X76319047Y-83380952D01*
X75747619Y-83952380D01*
X76366666Y-83952380D01*
X75904761Y-120297619D02*
X75809523Y-120250000D01*
X75714285Y-120154761D01*
X75571428Y-120011904D01*
X75476190Y-119964285D01*
X75380952Y-119964285D01*
X75428571Y-120202380D02*
X75333333Y-120154761D01*
X75238095Y-120059523D01*
X75190476Y-119869047D01*
X75190476Y-119535714D01*
X75238095Y-119345238D01*
X75333333Y-119250000D01*
X75428571Y-119202380D01*
X75619047Y-119202380D01*
X75714285Y-119250000D01*
X75809523Y-119345238D01*
X75857142Y-119535714D01*
X75857142Y-119869047D01*
X75809523Y-120059523D01*
X75714285Y-120154761D01*
X75619047Y-120202380D01*
X75428571Y-120202380D01*
X76809523Y-120202380D02*
X76238095Y-120202380D01*
X76523809Y-120202380D02*
X76523809Y-119202380D01*
X76428571Y-119345238D01*
X76333333Y-119440476D01*
X76238095Y-119488095D01*
X88404761Y-120272619D02*
X88309523Y-120225000D01*
X88214285Y-120129761D01*
X88071428Y-119986904D01*
X87976190Y-119939285D01*
X87880952Y-119939285D01*
X87928571Y-120177380D02*
X87833333Y-120129761D01*
X87738095Y-120034523D01*
X87690476Y-119844047D01*
X87690476Y-119510714D01*
X87738095Y-119320238D01*
X87833333Y-119225000D01*
X87928571Y-119177380D01*
X88119047Y-119177380D01*
X88214285Y-119225000D01*
X88309523Y-119320238D01*
X88357142Y-119510714D01*
X88357142Y-119844047D01*
X88309523Y-120034523D01*
X88214285Y-120129761D01*
X88119047Y-120177380D01*
X87928571Y-120177380D01*
X88738095Y-119272619D02*
X88785714Y-119225000D01*
X88880952Y-119177380D01*
X89119047Y-119177380D01*
X89214285Y-119225000D01*
X89261904Y-119272619D01*
X89309523Y-119367857D01*
X89309523Y-119463095D01*
X89261904Y-119605952D01*
X88690476Y-120177380D01*
X89309523Y-120177380D01*
X109833333Y-99952380D02*
X109500000Y-99476190D01*
X109261904Y-99952380D02*
X109261904Y-98952380D01*
X109642857Y-98952380D01*
X109738095Y-99000000D01*
X109785714Y-99047619D01*
X109833333Y-99142857D01*
X109833333Y-99285714D01*
X109785714Y-99380952D01*
X109738095Y-99428571D01*
X109642857Y-99476190D01*
X109261904Y-99476190D01*
X110785714Y-99952380D02*
X110214285Y-99952380D01*
X110500000Y-99952380D02*
X110500000Y-98952380D01*
X110404761Y-99095238D01*
X110309523Y-99190476D01*
X110214285Y-99238095D01*
X109833333Y-110952380D02*
X109500000Y-110476190D01*
X109261904Y-110952380D02*
X109261904Y-109952380D01*
X109642857Y-109952380D01*
X109738095Y-110000000D01*
X109785714Y-110047619D01*
X109833333Y-110142857D01*
X109833333Y-110285714D01*
X109785714Y-110380952D01*
X109738095Y-110428571D01*
X109642857Y-110476190D01*
X109261904Y-110476190D01*
X110166666Y-109952380D02*
X110785714Y-109952380D01*
X110452380Y-110333333D01*
X110595238Y-110333333D01*
X110690476Y-110380952D01*
X110738095Y-110428571D01*
X110785714Y-110523809D01*
X110785714Y-110761904D01*
X110738095Y-110857142D01*
X110690476Y-110904761D01*
X110595238Y-110952380D01*
X110309523Y-110952380D01*
X110214285Y-110904761D01*
X110166666Y-110857142D01*
X88238095Y-95452380D02*
X88238095Y-96261904D01*
X88285714Y-96357142D01*
X88333333Y-96404761D01*
X88428571Y-96452380D01*
X88619047Y-96452380D01*
X88714285Y-96404761D01*
X88761904Y-96357142D01*
X88809523Y-96261904D01*
X88809523Y-95452380D01*
X89238095Y-95547619D02*
X89285714Y-95500000D01*
X89380952Y-95452380D01*
X89619047Y-95452380D01*
X89714285Y-95500000D01*
X89761904Y-95547619D01*
X89809523Y-95642857D01*
X89809523Y-95738095D01*
X89761904Y-95880952D01*
X89190476Y-96452380D01*
X89809523Y-96452380D01*
X75904761Y-114147619D02*
X75809523Y-114100000D01*
X75714285Y-114004761D01*
X75571428Y-113861904D01*
X75476190Y-113814285D01*
X75380952Y-113814285D01*
X75428571Y-114052380D02*
X75333333Y-114004761D01*
X75238095Y-113909523D01*
X75190476Y-113719047D01*
X75190476Y-113385714D01*
X75238095Y-113195238D01*
X75333333Y-113100000D01*
X75428571Y-113052380D01*
X75619047Y-113052380D01*
X75714285Y-113100000D01*
X75809523Y-113195238D01*
X75857142Y-113385714D01*
X75857142Y-113719047D01*
X75809523Y-113909523D01*
X75714285Y-114004761D01*
X75619047Y-114052380D01*
X75428571Y-114052380D01*
X76714285Y-113385714D02*
X76714285Y-114052380D01*
X76476190Y-113004761D02*
X76238095Y-113719047D01*
X76857142Y-113719047D01*
G36*
X91992125Y-110333313D02*
G01*
X91883205Y-110379085D01*
X91774461Y-110427504D01*
X91665894Y-110478569D01*
X91557326Y-110532279D01*
X91448583Y-110588635D01*
X91339662Y-110647637D01*
X91992125Y-110647637D01*
X91992125Y-110823850D01*
X91009462Y-110823850D01*
X91009462Y-110666687D01*
X91082289Y-110622237D01*
X91161069Y-110577788D01*
X91242627Y-110533933D01*
X91323787Y-110491269D01*
X91403559Y-110450788D01*
X91480950Y-110413481D01*
X91552387Y-110380342D01*
X91614300Y-110352363D01*
X91009462Y-110352363D01*
X91009462Y-110176150D01*
X91992125Y-110176150D01*
X91992125Y-110333313D01*
G37*
G36*
X91999269Y-109910244D02*
G01*
X91981012Y-110017400D01*
X91022162Y-110017400D01*
X91003112Y-109891987D01*
X90998350Y-109782450D01*
X90999696Y-109764987D01*
X91168212Y-109764987D01*
X91169006Y-109793563D01*
X91172975Y-109822137D01*
X91833375Y-109822137D01*
X91834962Y-109804675D01*
X91834962Y-109787212D01*
X91809562Y-109675294D01*
X91739712Y-109602269D01*
X91634144Y-109562581D01*
X91570048Y-109553652D01*
X91500000Y-109550675D01*
X91376175Y-109560200D01*
X91269812Y-109593537D01*
X91195994Y-109658625D01*
X91168212Y-109764987D01*
X90999696Y-109764987D01*
X91005494Y-109689780D01*
X91026925Y-109605444D01*
X91063636Y-109531427D01*
X91116619Y-109469712D01*
X91186072Y-109420302D01*
X91272194Y-109383194D01*
X91376373Y-109359977D01*
X91500000Y-109352237D01*
X91626405Y-109360770D01*
X91732569Y-109386369D01*
X91819683Y-109427048D01*
X91888937Y-109480825D01*
X91941127Y-109546905D01*
X91977044Y-109624494D01*
X91997880Y-109712005D01*
X92004595Y-109804675D01*
X92004825Y-109807850D01*
X91999269Y-109910244D01*
G37*
G36*
X91214250Y-111004825D02*
G01*
X91174562Y-111090550D01*
X91157100Y-111195325D01*
X91182500Y-111312800D01*
X91253144Y-111391381D01*
X91361094Y-111435831D01*
X91427173Y-111445952D01*
X91500000Y-111449325D01*
X91607156Y-111443151D01*
X91693675Y-111424631D01*
X91759556Y-111393763D01*
X91822064Y-111325103D01*
X91842900Y-111230250D01*
X91841312Y-111192150D01*
X91836550Y-111154050D01*
X91477775Y-111154050D01*
X91477775Y-110958788D01*
X91968312Y-110958788D01*
X91996887Y-111067531D01*
X92008794Y-111149089D01*
X92012762Y-111246125D01*
X92004627Y-111333636D01*
X91980219Y-111412019D01*
X91939737Y-111480480D01*
X91883381Y-111538225D01*
X91811150Y-111584659D01*
X91723044Y-111619188D01*
X91619261Y-111640619D01*
X91500000Y-111647763D01*
X91381930Y-111639428D01*
X91278544Y-111614425D01*
X91190239Y-111575134D01*
X91117412Y-111523938D01*
X91060461Y-111461628D01*
X91019781Y-111389000D01*
X90995373Y-111308434D01*
X90987237Y-111222313D01*
X90995969Y-111119919D01*
X91015812Y-111041337D01*
X91039625Y-110986569D01*
X91058675Y-110954025D01*
X91214250Y-111004825D01*
G37*
G36*
X130926644Y-91151181D02*
G01*
X130943255Y-91111152D01*
X131027685Y-90971010D01*
X131149620Y-90832017D01*
X131290548Y-90712740D01*
X131412947Y-90640031D01*
X131561770Y-90594540D01*
X131740742Y-90574091D01*
X131926962Y-90578684D01*
X132097534Y-90608319D01*
X132187052Y-90640031D01*
X132331892Y-90729316D01*
X132473907Y-90855700D01*
X132593874Y-90999961D01*
X132659968Y-91112947D01*
X132705459Y-91261770D01*
X132725908Y-91440742D01*
X132721315Y-91626962D01*
X132691680Y-91797534D01*
X132659968Y-91887052D01*
X132571640Y-92030745D01*
X132447179Y-92171032D01*
X132305291Y-92289297D01*
X132187052Y-92357679D01*
X132045223Y-92401457D01*
X131875827Y-92425526D01*
X131703513Y-92428371D01*
X131552932Y-92408480D01*
X131518321Y-92398728D01*
X131313149Y-92302688D01*
X131141806Y-92164954D01*
X131008124Y-91994105D01*
X130915934Y-91798723D01*
X130869069Y-91587388D01*
X130869985Y-91500000D01*
X131330715Y-91500000D01*
X131343856Y-91571173D01*
X131377095Y-91664106D01*
X131396709Y-91706429D01*
X131478469Y-91816320D01*
X131593226Y-91904719D01*
X131721184Y-91958725D01*
X131800000Y-91969284D01*
X131871173Y-91956143D01*
X131964106Y-91922904D01*
X132006429Y-91903291D01*
X132116320Y-91821530D01*
X132204719Y-91706773D01*
X132258725Y-91578815D01*
X132269284Y-91500000D01*
X132256143Y-91428826D01*
X132222904Y-91335893D01*
X132203291Y-91293570D01*
X132121530Y-91183679D01*
X132006773Y-91095280D01*
X131878815Y-91041274D01*
X131800000Y-91030715D01*
X131728826Y-91043856D01*
X131635893Y-91077095D01*
X131593570Y-91096709D01*
X131483679Y-91178469D01*
X131395280Y-91293226D01*
X131341274Y-91421184D01*
X131330715Y-91500000D01*
X130869985Y-91500000D01*
X130871362Y-91368680D01*
X130926644Y-91151181D01*
G37*
G36*
X134381062Y-97948666D02*
G01*
X134381062Y-97502056D01*
X134857003Y-97022942D01*
X135332945Y-96543828D01*
X135334346Y-96192754D01*
X135334635Y-96120168D01*
X135795696Y-96120168D01*
X135802948Y-96149806D01*
X135834361Y-96157501D01*
X135898629Y-96143652D01*
X135928212Y-96133870D01*
X136775380Y-96133870D01*
X136776366Y-96143956D01*
X136808560Y-96141478D01*
X136882912Y-96122899D01*
X136986288Y-96091716D01*
X137045046Y-96072393D01*
X137299422Y-95986527D01*
X138369976Y-94917569D01*
X138369976Y-94550346D01*
X138002754Y-94550346D01*
X136933796Y-95620900D01*
X136847929Y-95875276D01*
X136811734Y-95988278D01*
X136786385Y-96078854D01*
X136775380Y-96133870D01*
X135928212Y-96133870D01*
X136004445Y-96108662D01*
X136082217Y-96081012D01*
X136302194Y-96002194D01*
X136381012Y-95782217D01*
X136427291Y-95650255D01*
X136452645Y-95564553D01*
X136456674Y-95516416D01*
X136438976Y-95497151D01*
X136399151Y-95498064D01*
X136368187Y-95503911D01*
X136292843Y-95537540D01*
X136191441Y-95614010D01*
X136060529Y-95735955D01*
X136048216Y-95748216D01*
X135922374Y-95881735D01*
X135842226Y-95985457D01*
X135805137Y-96062835D01*
X135803911Y-96068187D01*
X135795696Y-96120168D01*
X135334635Y-96120168D01*
X135335746Y-95841680D01*
X134863488Y-95370072D01*
X134391230Y-94898465D01*
X134130242Y-95504615D01*
X134047721Y-95692098D01*
X133971469Y-95857407D01*
X133905180Y-95993061D01*
X133852548Y-96091579D01*
X133817265Y-96145483D01*
X133810664Y-96151802D01*
X133772719Y-96167857D01*
X133706644Y-96179446D01*
X133604982Y-96187111D01*
X133460273Y-96191392D01*
X133265059Y-96192831D01*
X133245321Y-96192840D01*
X132738568Y-96192840D01*
X132738568Y-96472811D01*
X132737373Y-96605240D01*
X132731867Y-96693134D01*
X132719163Y-96750600D01*
X132696375Y-96791747D01*
X132666575Y-96824774D01*
X132594583Y-96896766D01*
X131005416Y-96896766D01*
X130933424Y-96824774D01*
X130899678Y-96786384D01*
X130878492Y-96743784D01*
X130866982Y-96682869D01*
X130862261Y-96589528D01*
X130861431Y-96472811D01*
X130861431Y-96427482D01*
X131330715Y-96427482D01*
X132269284Y-96427482D01*
X132269284Y-96192840D01*
X131330715Y-96192840D01*
X131330715Y-96427482D01*
X130861431Y-96427482D01*
X130861431Y-96192840D01*
X130354678Y-96192840D01*
X130156603Y-96191700D01*
X130009323Y-96187890D01*
X129905008Y-96180830D01*
X129835830Y-96169937D01*
X129793961Y-96154630D01*
X129787788Y-96150719D01*
X129756730Y-96109964D01*
X129707266Y-96021139D01*
X129642587Y-95890714D01*
X129565885Y-95725158D01*
X129480350Y-95530943D01*
X129468468Y-95503273D01*
X129209285Y-94897949D01*
X128736769Y-95369815D01*
X128264253Y-95841680D01*
X128265653Y-96192754D01*
X128267054Y-96543828D01*
X128742996Y-97022942D01*
X129218937Y-97502056D01*
X129218937Y-97948666D01*
X129218573Y-98119767D01*
X129216544Y-98242341D01*
X129211442Y-98326523D01*
X129201862Y-98382447D01*
X129186395Y-98420245D01*
X129163636Y-98450053D01*
X129146945Y-98467268D01*
X129117178Y-98494780D01*
X129085173Y-98514208D01*
X129040801Y-98526957D01*
X128973933Y-98534431D01*
X128874442Y-98538035D01*
X128732200Y-98539175D01*
X128627965Y-98539261D01*
X128180978Y-98539261D01*
X127592740Y-97954127D01*
X127418925Y-97781721D01*
X127280698Y-97646263D01*
X127172411Y-97542981D01*
X127088416Y-97467104D01*
X127023065Y-97413859D01*
X126970710Y-97378474D01*
X126925702Y-97356177D01*
X126882394Y-97342197D01*
X126862997Y-97337577D01*
X126626313Y-97256026D01*
X126412208Y-97125567D01*
X126228564Y-96954083D01*
X126083263Y-96749456D01*
X126012199Y-96584563D01*
X126538448Y-96584563D01*
X126557460Y-96620180D01*
X126608545Y-96676789D01*
X126674338Y-96743404D01*
X126709381Y-96772332D01*
X126723336Y-96768405D01*
X126725865Y-96736453D01*
X126725866Y-96735450D01*
X126702422Y-96675863D01*
X126647160Y-96616209D01*
X126582684Y-96578314D01*
X126558796Y-96574133D01*
X126538448Y-96584563D01*
X126012199Y-96584563D01*
X125984188Y-96519569D01*
X125972799Y-96476366D01*
X127156043Y-96476366D01*
X127158521Y-96508560D01*
X127177100Y-96582912D01*
X127208283Y-96686288D01*
X127227606Y-96745046D01*
X127313472Y-96999422D01*
X128382430Y-98069976D01*
X128749653Y-98069976D01*
X128749653Y-97702754D01*
X127679099Y-96633796D01*
X127424723Y-96547929D01*
X127311721Y-96511734D01*
X127221145Y-96486385D01*
X127166129Y-96475380D01*
X127156043Y-96476366D01*
X125972799Y-96476366D01*
X125962422Y-96437003D01*
X125950541Y-96392697D01*
X125932384Y-96349107D01*
X125903181Y-96300585D01*
X125858158Y-96241483D01*
X125792543Y-96166153D01*
X125701565Y-96068946D01*
X125580452Y-95944214D01*
X125424431Y-95786310D01*
X125345872Y-95707259D01*
X124760739Y-95119021D01*
X124760739Y-94917569D01*
X125230023Y-94917569D01*
X126300577Y-95986749D01*
X126549884Y-96071296D01*
X126662545Y-96107614D01*
X126753542Y-96133421D01*
X126809204Y-96144998D01*
X126819167Y-96144530D01*
X126819163Y-96113763D01*
X126802565Y-96040635D01*
X126772569Y-95938009D01*
X126752673Y-95877059D01*
X126666203Y-95620900D01*
X126579793Y-95534361D01*
X127142498Y-95534361D01*
X127156347Y-95598629D01*
X127191337Y-95704445D01*
X127218987Y-95782217D01*
X127297806Y-96002194D01*
X127517782Y-96081012D01*
X127649744Y-96127291D01*
X127735446Y-96152645D01*
X127783583Y-96156674D01*
X127802848Y-96138976D01*
X127801935Y-96099151D01*
X127796088Y-96068187D01*
X127762502Y-95995761D01*
X127693243Y-95900808D01*
X127600167Y-95795181D01*
X127495127Y-95690736D01*
X127389978Y-95599327D01*
X127296576Y-95532810D01*
X127231812Y-95503911D01*
X127179831Y-95495696D01*
X127150193Y-95502948D01*
X127142498Y-95534361D01*
X126579793Y-95534361D01*
X126341925Y-95296138D01*
X127871297Y-95296138D01*
X127999145Y-95432226D01*
X128499787Y-94932198D01*
X129000429Y-94432169D01*
X128988936Y-94311655D01*
X128983676Y-94256503D01*
X129453579Y-94256503D01*
X129767247Y-94990030D01*
X130080915Y-95723556D01*
X133517000Y-95723556D01*
X133831710Y-94989734D01*
X134108987Y-94343196D01*
X134609840Y-94343196D01*
X134611891Y-94375723D01*
X134624867Y-94411263D01*
X134653450Y-94455788D01*
X134702323Y-94515269D01*
X134776169Y-94595678D01*
X134879669Y-94702987D01*
X135017507Y-94843168D01*
X135096904Y-94923543D01*
X135596113Y-95428726D01*
X135664182Y-95364778D01*
X135732251Y-95300831D01*
X135181310Y-94748944D01*
X134630369Y-94197058D01*
X134614032Y-94307709D01*
X134609840Y-94343196D01*
X134108987Y-94343196D01*
X134146420Y-94255911D01*
X134146420Y-88739234D01*
X134073107Y-88567830D01*
X134599570Y-88567830D01*
X134611063Y-88688344D01*
X134622556Y-88808857D01*
X135728702Y-87703861D01*
X135600854Y-87567773D01*
X135100212Y-88067801D01*
X134599570Y-88567830D01*
X134073107Y-88567830D01*
X133833585Y-88007838D01*
X133520750Y-87276443D01*
X130080286Y-87276443D01*
X129766933Y-88007993D01*
X129453579Y-88739542D01*
X129453579Y-94256503D01*
X128983676Y-94256503D01*
X128977443Y-94191142D01*
X127871297Y-95296138D01*
X126341925Y-95296138D01*
X125597245Y-94550346D01*
X125230023Y-94550346D01*
X125230023Y-94917569D01*
X124760739Y-94917569D01*
X124760739Y-94672034D01*
X124761102Y-94500852D01*
X124763127Y-94378203D01*
X124768221Y-94293956D01*
X124777787Y-94237986D01*
X124793230Y-94200163D01*
X124815957Y-94170360D01*
X124832731Y-94153054D01*
X124862508Y-94125533D01*
X124894527Y-94106102D01*
X124938919Y-94093355D01*
X125005819Y-94085884D01*
X125105358Y-94082283D01*
X125247669Y-94081147D01*
X125351390Y-94081062D01*
X125798056Y-94081062D01*
X126283958Y-94559686D01*
X126769861Y-95038311D01*
X127115712Y-95034871D01*
X127461564Y-95031431D01*
X128222930Y-94270488D01*
X128984295Y-93509545D01*
X128984295Y-89490454D01*
X128222930Y-88729511D01*
X127461564Y-87968568D01*
X127115712Y-87965128D01*
X126769861Y-87961689D01*
X126283958Y-88440313D01*
X125798056Y-88918937D01*
X125351390Y-88918937D01*
X125180277Y-88918573D01*
X125057691Y-88916545D01*
X124973499Y-88911444D01*
X124917569Y-88901866D01*
X124879767Y-88886403D01*
X124849960Y-88863648D01*
X124832731Y-88846945D01*
X124805219Y-88817178D01*
X124785791Y-88785173D01*
X124773042Y-88740801D01*
X124765568Y-88673933D01*
X124761964Y-88574442D01*
X124760964Y-88449653D01*
X125230023Y-88449653D01*
X125597245Y-88449653D01*
X126346611Y-87699168D01*
X127867748Y-87699168D01*
X128418689Y-88251055D01*
X128969630Y-88802941D01*
X128985967Y-88692290D01*
X128990159Y-88656803D01*
X128988108Y-88624276D01*
X128975132Y-88588736D01*
X128946549Y-88544211D01*
X128897676Y-88484730D01*
X128823830Y-88404321D01*
X128720330Y-88297012D01*
X128582492Y-88156831D01*
X128503095Y-88076456D01*
X128003886Y-87571273D01*
X127935817Y-87635221D01*
X127867748Y-87699168D01*
X126346611Y-87699168D01*
X126566316Y-87479135D01*
X127144130Y-87479135D01*
X127161678Y-87497895D01*
X127201174Y-87497383D01*
X127231812Y-87492234D01*
X127301251Y-87464150D01*
X127391787Y-87399121D01*
X127509344Y-87292680D01*
X127551783Y-87250992D01*
X127677287Y-87118343D01*
X127757294Y-87015272D01*
X127794625Y-86938097D01*
X127796088Y-86931812D01*
X127804304Y-86879831D01*
X127797051Y-86850193D01*
X127765638Y-86842498D01*
X127701370Y-86856347D01*
X127595554Y-86891337D01*
X127517782Y-86918987D01*
X127297806Y-86997806D01*
X127218987Y-87217782D01*
X127173202Y-87348021D01*
X127148110Y-87432157D01*
X127144130Y-87479135D01*
X126566316Y-87479135D01*
X126666203Y-87379099D01*
X126752070Y-87124723D01*
X126788265Y-87011721D01*
X126813614Y-86921145D01*
X126824619Y-86866129D01*
X126823633Y-86856043D01*
X126791439Y-86858521D01*
X126717087Y-86877100D01*
X126613711Y-86908283D01*
X126554953Y-86927606D01*
X126300577Y-87013472D01*
X125230023Y-88082430D01*
X125230023Y-88449653D01*
X124760964Y-88449653D01*
X124760824Y-88432200D01*
X124760739Y-88327965D01*
X124760739Y-87880978D01*
X125345872Y-87292740D01*
X125518278Y-87118925D01*
X125653736Y-86980698D01*
X125757018Y-86872411D01*
X125832895Y-86788416D01*
X125886140Y-86723065D01*
X125921525Y-86670710D01*
X125943822Y-86625702D01*
X125957802Y-86582394D01*
X125962422Y-86562997D01*
X125979460Y-86513547D01*
X127155057Y-86513547D01*
X127156043Y-86523633D01*
X127188237Y-86521155D01*
X127262589Y-86502576D01*
X127365964Y-86471393D01*
X127424723Y-86452070D01*
X127679099Y-86366203D01*
X128749653Y-85297245D01*
X128749653Y-84930023D01*
X128382430Y-84930023D01*
X127313472Y-86000577D01*
X127227606Y-86254953D01*
X127191411Y-86367955D01*
X127166062Y-86458530D01*
X127155057Y-86513547D01*
X125979460Y-86513547D01*
X126011529Y-86420474D01*
X126537533Y-86420474D01*
X126559062Y-86425866D01*
X126615499Y-86406267D01*
X126667205Y-86367205D01*
X126713382Y-86308273D01*
X126724799Y-86264811D01*
X126702023Y-86249884D01*
X126668546Y-86269283D01*
X126613764Y-86317779D01*
X126593879Y-86337875D01*
X126545011Y-86394015D01*
X126537533Y-86420474D01*
X126011529Y-86420474D01*
X126043973Y-86326313D01*
X126174432Y-86112208D01*
X126345916Y-85928564D01*
X126550543Y-85783263D01*
X126780430Y-85684188D01*
X126862997Y-85662422D01*
X126907302Y-85650541D01*
X126950892Y-85632384D01*
X126999414Y-85603181D01*
X127058516Y-85558158D01*
X127133846Y-85492543D01*
X127231053Y-85401565D01*
X127355785Y-85280452D01*
X127513689Y-85124431D01*
X127592740Y-85045872D01*
X128180978Y-84460739D01*
X128627965Y-84460739D01*
X128799147Y-84461102D01*
X128921797Y-84463127D01*
X129006043Y-84468221D01*
X129062013Y-84477787D01*
X129099836Y-84493230D01*
X129129639Y-84515957D01*
X129146945Y-84532731D01*
X129174467Y-84562510D01*
X129193899Y-84594531D01*
X129206646Y-84638927D01*
X129214117Y-84705832D01*
X129217717Y-84805380D01*
X129218853Y-84947703D01*
X129218937Y-85051333D01*
X129218937Y-85497943D01*
X128742745Y-85977309D01*
X128266552Y-86456676D01*
X128266128Y-86808222D01*
X128265704Y-87159767D01*
X128736997Y-87630411D01*
X129208289Y-88101055D01*
X129466958Y-87496938D01*
X129555829Y-87293922D01*
X129635044Y-87121944D01*
X129701713Y-86986846D01*
X129752949Y-86894471D01*
X129785863Y-86850661D01*
X129786775Y-86849990D01*
X129805919Y-86841367D01*
X129839635Y-86833951D01*
X129891992Y-86827656D01*
X129967059Y-86822394D01*
X130068904Y-86818081D01*
X130201596Y-86814629D01*
X130369203Y-86811951D01*
X130575795Y-86809962D01*
X130825439Y-86808575D01*
X131122205Y-86807704D01*
X131470161Y-86807262D01*
X131803276Y-86807159D01*
X132191132Y-86807239D01*
X132524581Y-86807552D01*
X132807877Y-86808207D01*
X133045272Y-86809310D01*
X133241020Y-86810972D01*
X133399376Y-86813299D01*
X133524591Y-86816401D01*
X133620920Y-86820385D01*
X133692616Y-86825360D01*
X133743932Y-86831434D01*
X133779122Y-86838716D01*
X133802439Y-86847313D01*
X133818136Y-86857334D01*
X133819532Y-86858487D01*
X133848629Y-86899852D01*
X133895869Y-86986796D01*
X133957036Y-87110665D01*
X134027913Y-87262807D01*
X134104284Y-87434566D01*
X134135204Y-87506303D01*
X134389971Y-88102792D01*
X134862133Y-87631279D01*
X135334295Y-87159767D01*
X135333935Y-86861008D01*
X135797185Y-86861008D01*
X135798156Y-86900827D01*
X135804052Y-86931812D01*
X135833572Y-86993849D01*
X135895924Y-87081003D01*
X135980223Y-87181688D01*
X136075582Y-87284317D01*
X136171112Y-87377301D01*
X136255928Y-87449052D01*
X136319143Y-87487984D01*
X136329499Y-87491081D01*
X136411901Y-87504677D01*
X136451405Y-87501368D01*
X136461776Y-87479417D01*
X136461670Y-87474422D01*
X136451389Y-87430834D01*
X136425798Y-87348310D01*
X136389949Y-87242928D01*
X136381012Y-87217782D01*
X136302194Y-86997806D01*
X136082217Y-86918987D01*
X135950247Y-86872705D01*
X135893933Y-86856043D01*
X136776366Y-86856043D01*
X136778844Y-86888237D01*
X136797423Y-86962589D01*
X136828606Y-87065964D01*
X136847929Y-87124723D01*
X136933796Y-87379099D01*
X138002754Y-88449653D01*
X138369976Y-88449653D01*
X138369976Y-88082430D01*
X137299422Y-87013472D01*
X137045046Y-86927606D01*
X136932044Y-86891411D01*
X136841469Y-86866062D01*
X136786452Y-86855057D01*
X136776366Y-86856043D01*
X135893933Y-86856043D01*
X135864543Y-86847347D01*
X135816418Y-86843314D01*
X135797185Y-86861008D01*
X135333935Y-86861008D01*
X135333871Y-86808222D01*
X135333447Y-86456676D01*
X134857254Y-85977309D01*
X134381062Y-85497943D01*
X134381062Y-85297245D01*
X134850346Y-85297245D01*
X135385623Y-85831835D01*
X135920900Y-86366426D01*
X136170207Y-86450972D01*
X136282869Y-86487291D01*
X136373865Y-86513097D01*
X136429527Y-86524675D01*
X136439490Y-86524207D01*
X136439486Y-86493439D01*
X136422888Y-86420312D01*
X136392893Y-86317685D01*
X136373668Y-86258796D01*
X136874133Y-86258796D01*
X136896770Y-86320507D01*
X136950128Y-86382289D01*
X137012384Y-86421536D01*
X137035450Y-86425866D01*
X137074590Y-86421011D01*
X137079445Y-86416954D01*
X137060340Y-86393274D01*
X137011662Y-86342877D01*
X136976789Y-86308545D01*
X136913944Y-86252687D01*
X136881940Y-86238928D01*
X136874133Y-86258796D01*
X136373668Y-86258796D01*
X136372996Y-86256736D01*
X136286527Y-86000577D01*
X135217569Y-84930023D01*
X134850346Y-84930023D01*
X134850346Y-85297245D01*
X134381062Y-85297245D01*
X134381062Y-85051333D01*
X134381426Y-84880232D01*
X134383455Y-84757658D01*
X134388557Y-84673476D01*
X134398137Y-84617552D01*
X134413604Y-84579754D01*
X134436363Y-84549946D01*
X134453054Y-84532731D01*
X134482821Y-84505219D01*
X134514826Y-84485791D01*
X134559198Y-84473042D01*
X134626066Y-84465568D01*
X134725557Y-84461964D01*
X134867799Y-84460824D01*
X134972034Y-84460739D01*
X135419021Y-84460739D01*
X136007259Y-85045872D01*
X136181074Y-85218278D01*
X136319301Y-85353736D01*
X136427588Y-85457018D01*
X136511583Y-85532895D01*
X136576934Y-85586140D01*
X136629289Y-85621525D01*
X136674297Y-85643822D01*
X136717605Y-85657802D01*
X136737003Y-85662422D01*
X136973686Y-85743973D01*
X137187791Y-85874432D01*
X137371435Y-86045916D01*
X137516736Y-86250543D01*
X137615811Y-86480430D01*
X137637577Y-86562997D01*
X137649459Y-86607302D01*
X137667615Y-86650892D01*
X137696818Y-86699414D01*
X137741841Y-86758516D01*
X137807456Y-86833846D01*
X137898434Y-86931053D01*
X138019547Y-87055785D01*
X138175569Y-87213689D01*
X138254127Y-87292740D01*
X138839261Y-87880978D01*
X138839261Y-88327965D01*
X138838897Y-88499147D01*
X138836872Y-88621797D01*
X138831778Y-88706043D01*
X138822212Y-88762013D01*
X138806769Y-88799836D01*
X138784042Y-88829639D01*
X138767268Y-88846945D01*
X138737491Y-88874466D01*
X138705472Y-88893897D01*
X138661080Y-88906644D01*
X138594180Y-88914115D01*
X138494641Y-88917716D01*
X138352330Y-88918853D01*
X138248609Y-88918937D01*
X137801943Y-88918937D01*
X137316041Y-88440449D01*
X136830138Y-87961960D01*
X136485501Y-87964050D01*
X136140865Y-87966139D01*
X135378284Y-88728297D01*
X134615704Y-89490454D01*
X134615704Y-93509545D01*
X135378284Y-94271702D01*
X136140865Y-95033860D01*
X136485501Y-95035949D01*
X136830138Y-95038039D01*
X137316041Y-94559550D01*
X137801943Y-94081062D01*
X138248609Y-94081062D01*
X138419722Y-94081426D01*
X138542308Y-94083454D01*
X138626500Y-94088555D01*
X138682430Y-94098133D01*
X138720232Y-94113596D01*
X138750039Y-94136351D01*
X138767268Y-94153054D01*
X138794780Y-94182821D01*
X138814208Y-94214826D01*
X138826957Y-94259198D01*
X138834431Y-94326066D01*
X138838035Y-94425557D01*
X138839175Y-94567799D01*
X138839261Y-94672034D01*
X138839261Y-95119021D01*
X138254127Y-95707259D01*
X138081721Y-95881074D01*
X137946263Y-96019301D01*
X137842981Y-96127588D01*
X137767104Y-96211583D01*
X137713859Y-96276934D01*
X137678474Y-96329289D01*
X137656177Y-96374297D01*
X137642197Y-96417605D01*
X137637577Y-96437003D01*
X137556026Y-96673686D01*
X137425567Y-96887791D01*
X137254083Y-97071435D01*
X137049456Y-97216736D01*
X136819569Y-97315811D01*
X136737003Y-97337577D01*
X136692697Y-97349459D01*
X136649107Y-97367615D01*
X136600585Y-97396818D01*
X136541483Y-97441841D01*
X136466153Y-97507456D01*
X136368946Y-97598434D01*
X136244214Y-97719547D01*
X136086310Y-97875569D01*
X136007259Y-97954127D01*
X135419021Y-98539261D01*
X134972034Y-98539261D01*
X134800852Y-98538897D01*
X134678203Y-98536872D01*
X134593956Y-98531778D01*
X134537986Y-98522212D01*
X134500163Y-98506769D01*
X134470360Y-98484042D01*
X134453054Y-98467268D01*
X134425532Y-98437489D01*
X134406100Y-98405468D01*
X134393353Y-98361072D01*
X134385882Y-98294167D01*
X134382283Y-98194620D01*
X134381287Y-98069976D01*
X134850346Y-98069976D01*
X135217569Y-98069976D01*
X136286527Y-96999422D01*
X136372393Y-96745046D01*
X136375467Y-96735450D01*
X136874133Y-96735450D01*
X136876517Y-96767976D01*
X136890108Y-96772587D01*
X136924571Y-96744451D01*
X136989567Y-96678737D01*
X136991455Y-96676789D01*
X137047313Y-96613944D01*
X137061071Y-96581940D01*
X137041204Y-96574133D01*
X136979492Y-96596770D01*
X136917710Y-96650128D01*
X136878463Y-96712384D01*
X136874133Y-96735450D01*
X136375467Y-96735450D01*
X136408588Y-96632044D01*
X136433937Y-96541469D01*
X136444942Y-96486452D01*
X136443956Y-96476366D01*
X136411762Y-96478844D01*
X136337411Y-96497423D01*
X136234035Y-96528606D01*
X136175276Y-96547929D01*
X135920900Y-96633796D01*
X134850346Y-97702754D01*
X134850346Y-98069976D01*
X134381287Y-98069976D01*
X134381146Y-98052296D01*
X134381062Y-97948666D01*
G37*
G36*
X90100965Y-76153798D02*
G01*
X90400050Y-76153798D01*
X90400050Y-76346202D01*
X90100965Y-76346202D01*
X90100965Y-76677673D01*
X89899035Y-76677673D01*
X89899035Y-76346202D01*
X89599950Y-76346202D01*
X89599950Y-76153798D01*
X89899035Y-76153798D01*
X89899035Y-75822327D01*
X90100965Y-75822327D01*
X90100965Y-76153798D01*
G37*
D13*
X90637000Y-114926000D02*
X95777000Y-114926000D01*
X90637000Y-114926000D02*
X90637000Y-112266000D01*
X95777000Y-114926000D02*
X95777000Y-112266000D01*
X96987000Y-112296000D02*
X98317000Y-112296000D01*
X98317000Y-112296000D02*
X98317000Y-113626000D01*
X90637000Y-112266000D02*
X95777000Y-112266000D01*
X113270000Y-106370000D02*
X113270000Y-103630000D01*
X113270000Y-103630000D02*
X106730000Y-103630000D01*
X106730000Y-106370000D02*
X113270000Y-106370000D01*
X105960000Y-105000000D02*
X106730000Y-105000000D01*
X114040000Y-105000000D02*
X113270000Y-105000000D01*
X106730000Y-103630000D02*
X106730000Y-106370000D01*
G36*
X94992125Y-108433175D02*
G01*
X94023750Y-108433175D01*
X94011844Y-108370469D01*
X94003906Y-108301413D01*
X93999937Y-108234737D01*
X93998350Y-108179175D01*
X94168212Y-108179175D01*
X94169006Y-108206162D01*
X94172975Y-108237913D01*
X94468250Y-108237913D01*
X94468250Y-108195050D01*
X94458527Y-108108928D01*
X94429356Y-108050588D01*
X94319025Y-108006137D01*
X94251556Y-108018044D01*
X94204725Y-108053763D01*
X94177341Y-108108928D01*
X94168212Y-108179175D01*
X93998350Y-108179175D01*
X94003112Y-108099006D01*
X94017400Y-108026775D01*
X94041609Y-107963275D01*
X94076137Y-107909300D01*
X94176944Y-107833894D01*
X94243420Y-107814248D01*
X94320612Y-107807700D01*
X94402369Y-107816431D01*
X94476187Y-107842625D01*
X94537703Y-107889059D01*
X94582550Y-107958512D01*
X94673831Y-107901362D01*
X94778606Y-107842625D01*
X94888144Y-107787856D01*
X94992125Y-107742612D01*
X94992125Y-107947400D01*
X94898661Y-107986889D01*
X94808769Y-108032331D01*
X94720067Y-108082536D01*
X94630175Y-108136312D01*
X94630175Y-108237913D01*
X94992125Y-108237913D01*
X94992125Y-108433175D01*
G37*
G36*
X94992125Y-111116050D02*
G01*
X94228537Y-111106525D01*
X94644462Y-111227175D01*
X94644462Y-111370050D01*
X94228537Y-111485938D01*
X94992125Y-111478000D01*
X94992125Y-111657388D01*
X94869094Y-111652427D01*
X94741300Y-111647069D01*
X94611522Y-111641314D01*
X94482537Y-111635163D01*
X94355934Y-111628217D01*
X94233300Y-111620081D01*
X94117016Y-111610755D01*
X94009462Y-111600238D01*
X94009462Y-111438313D01*
X94095187Y-111410531D01*
X94207900Y-111374813D01*
X94330137Y-111336713D01*
X94444437Y-111300200D01*
X94322994Y-111260513D01*
X94202344Y-111220825D01*
X94093600Y-111185900D01*
X94009462Y-111157325D01*
X94009462Y-110995400D01*
X94136462Y-110984486D01*
X94260287Y-110973969D01*
X94381930Y-110964444D01*
X94502381Y-110956506D01*
X94622634Y-110949958D01*
X94743681Y-110944600D01*
X94866514Y-110940234D01*
X94992125Y-110936663D01*
X94992125Y-111116050D01*
G37*
G36*
X94171387Y-109611100D02*
G01*
X94992125Y-109611100D01*
X94992125Y-109807950D01*
X94171387Y-109807950D01*
X94171387Y-110066713D01*
X94009462Y-110066713D01*
X94009462Y-109352338D01*
X94171387Y-109352338D01*
X94171387Y-109611100D01*
G37*
G36*
X94955260Y-109108568D02*
G01*
X94883381Y-109178506D01*
X94810902Y-109218442D01*
X94722845Y-109246967D01*
X94619211Y-109264082D01*
X94500000Y-109269787D01*
X94380789Y-109263934D01*
X94277155Y-109246372D01*
X94189098Y-109217102D01*
X94116619Y-109176125D01*
X94044740Y-109105569D01*
X94001613Y-109018786D01*
X93987237Y-108915775D01*
X94157100Y-108915775D01*
X94184087Y-108996738D01*
X94257906Y-109043569D01*
X94366650Y-109065794D01*
X94430944Y-109069961D01*
X94500000Y-109071350D01*
X94569255Y-109069961D01*
X94634144Y-109065794D01*
X94742887Y-109043569D01*
X94815912Y-108996738D01*
X94842900Y-108915775D01*
X94815912Y-108835606D01*
X94742094Y-108787981D01*
X94633350Y-108765756D01*
X94569056Y-108761589D01*
X94500000Y-108760200D01*
X94430745Y-108761589D01*
X94365856Y-108765756D01*
X94257112Y-108787981D01*
X94184087Y-108834812D01*
X94157100Y-108915775D01*
X93987237Y-108915775D01*
X94001613Y-108809589D01*
X94044740Y-108721747D01*
X94116619Y-108652250D01*
X94189098Y-108612662D01*
X94277155Y-108584384D01*
X94380789Y-108567418D01*
X94500000Y-108561762D01*
X94619211Y-108567517D01*
X94722845Y-108584781D01*
X94810902Y-108613555D01*
X94883381Y-108653838D01*
X94955260Y-108723687D01*
X94998387Y-108810471D01*
X95012762Y-108914188D01*
X95012548Y-108915775D01*
X94998387Y-109020462D01*
X94955260Y-109108568D01*
G37*
G36*
X94955260Y-110696068D02*
G01*
X94883381Y-110766006D01*
X94810902Y-110805942D01*
X94722845Y-110834467D01*
X94619211Y-110851582D01*
X94500000Y-110857288D01*
X94380789Y-110851434D01*
X94277155Y-110833872D01*
X94189098Y-110804602D01*
X94116619Y-110763625D01*
X94044740Y-110693069D01*
X94001613Y-110606286D01*
X93987237Y-110503275D01*
X94157100Y-110503275D01*
X94184087Y-110584238D01*
X94257906Y-110631069D01*
X94366650Y-110653294D01*
X94430944Y-110657461D01*
X94500000Y-110658850D01*
X94569255Y-110657461D01*
X94634144Y-110653294D01*
X94742887Y-110631069D01*
X94815912Y-110584238D01*
X94842900Y-110503275D01*
X94815912Y-110423106D01*
X94742094Y-110375481D01*
X94633350Y-110353256D01*
X94569056Y-110349089D01*
X94500000Y-110347700D01*
X94430745Y-110349089D01*
X94365856Y-110353256D01*
X94257112Y-110375481D01*
X94184087Y-110422313D01*
X94157100Y-110503275D01*
X93987237Y-110503275D01*
X94001613Y-110397089D01*
X94044740Y-110309247D01*
X94116619Y-110239750D01*
X94189098Y-110200162D01*
X94277155Y-110171884D01*
X94380789Y-110154918D01*
X94500000Y-110149263D01*
X94619211Y-110155017D01*
X94722845Y-110172281D01*
X94810902Y-110201055D01*
X94883381Y-110241338D01*
X94955260Y-110311188D01*
X94998387Y-110397971D01*
X95012762Y-110501688D01*
X95012548Y-110503275D01*
X94998387Y-110607962D01*
X94955260Y-110696068D01*
G37*
D12*
X124092013Y-102920000D02*
X122822013Y-102920000D01*
X124092013Y-128320000D02*
X122822013Y-128320000D01*
X141872013Y-102920000D02*
X141872013Y-128320000D01*
X122822013Y-102920000D02*
X122822013Y-128320000D01*
X124092013Y-128320000D02*
X141872013Y-128320000D01*
X124092013Y-102920000D02*
X141872013Y-102920000D01*
D13*
X125362013Y-111810000D02*
X140602013Y-111810000D01*
X140602013Y-111810000D02*
X140602013Y-114350000D01*
X140602013Y-114350000D02*
X125362013Y-114350000D01*
X125362013Y-114350000D02*
X125362013Y-111810000D01*
X125997013Y-127050000D02*
X123457013Y-127050000D01*
X123457013Y-127050000D02*
X123457013Y-121970000D01*
X123457013Y-121970000D02*
X125997013Y-121970000D01*
X125997013Y-121970000D02*
X125997013Y-127050000D01*
D14*
X123308526Y-128955000D02*
G75*
G03*
X123308526Y-128955000I-486513J0D01*
G01*
D13*
X113270000Y-117870000D02*
X113270000Y-115130000D01*
X114040000Y-116500000D02*
X113270000Y-116500000D01*
X113270000Y-115130000D02*
X106730000Y-115130000D01*
X106730000Y-115130000D02*
X106730000Y-117870000D01*
X106730000Y-117870000D02*
X113270000Y-117870000D01*
X105960000Y-116500000D02*
X106730000Y-116500000D01*
X116355000Y-86730000D02*
X119025000Y-86730000D01*
X116355000Y-86730000D02*
X116355000Y-124830000D01*
X106065000Y-119620000D02*
X113945000Y-119620000D01*
X100985000Y-84060000D02*
X100985000Y-86730000D01*
X119025000Y-127500000D02*
X119025000Y-84060000D01*
X113945000Y-119620000D02*
X113945000Y-130040000D01*
X113945000Y-130040000D02*
X106065000Y-130040000D01*
X103655000Y-124830000D02*
X100985000Y-124830000D01*
X119025000Y-127500000D02*
X113945000Y-127500000D01*
X103655000Y-89270000D02*
X100985000Y-89270000D01*
X119025000Y-84060000D02*
X100985000Y-84060000D01*
X100985000Y-127500000D02*
X106065000Y-127500000D01*
X116355000Y-124830000D02*
X119025000Y-124830000D01*
X100985000Y-89270000D02*
X100985000Y-127500000D01*
X106065000Y-130040000D02*
X106065000Y-119620000D01*
X103655000Y-86730000D02*
X100985000Y-86730000D01*
X103655000Y-89270000D02*
X103655000Y-86730000D01*
X103655000Y-89270000D02*
X103655000Y-124830000D01*
G36*
X139600965Y-76153798D02*
G01*
X139900050Y-76153798D01*
X139900050Y-76346202D01*
X139600965Y-76346202D01*
X139600965Y-76677673D01*
X139399035Y-76677673D01*
X139399035Y-76346202D01*
X139099950Y-76346202D01*
X139099950Y-76153798D01*
X139399035Y-76153798D01*
X139399035Y-75822327D01*
X139600965Y-75822327D01*
X139600965Y-76153798D01*
G37*
X113270000Y-93030000D02*
X106730000Y-93030000D01*
X105960000Y-94400000D02*
X106730000Y-94400000D01*
X106730000Y-93030000D02*
X106730000Y-95770000D01*
X106730000Y-95770000D02*
X113270000Y-95770000D01*
X114040000Y-94400000D02*
X113270000Y-94400000D01*
X113270000Y-95770000D02*
X113270000Y-93030000D01*
X89330000Y-77795000D02*
X89330000Y-74705000D01*
X83780000Y-76249538D02*
G75*
G03*
X89330000Y-77794830I2990000J-462D01*
G01*
X89330000Y-74705170D02*
G75*
G03*
X83780000Y-76250462I-2560000J-1544830D01*
G01*
X89270000Y-76250000D02*
G75*
G03*
X89270000Y-76250000I-2500000J0D01*
G01*
G36*
X144346635Y-118072767D02*
G01*
X144409319Y-117710175D01*
X144513128Y-117377813D01*
X144657913Y-117076063D01*
X144843523Y-116805309D01*
X145069807Y-116565935D01*
X145336617Y-116358323D01*
X145642057Y-116183707D01*
X145926530Y-116056843D01*
X146193154Y-115965038D01*
X146458239Y-115904500D01*
X146738094Y-115871438D01*
X147025865Y-115862026D01*
X147292987Y-115868927D01*
X147530929Y-115892167D01*
X147760565Y-115935023D01*
X148002770Y-116000766D01*
X148093335Y-116029451D01*
X148288182Y-116100910D01*
X148500626Y-116192340D01*
X148719114Y-116297664D01*
X148932093Y-116410802D01*
X149128011Y-116525673D01*
X149295314Y-116636201D01*
X149400884Y-116717489D01*
X149486799Y-116790326D01*
X149316784Y-116901867D01*
X149146539Y-117028793D01*
X148987454Y-117175877D01*
X148850855Y-117331203D01*
X148748069Y-117482859D01*
X148727608Y-117521582D01*
X148684792Y-117616134D01*
X148658179Y-117700161D01*
X148643067Y-117794056D01*
X148634756Y-117918210D01*
X148634426Y-117925780D01*
X148633193Y-118070305D01*
X148644652Y-118203525D01*
X148671654Y-118338590D01*
X148717055Y-118488648D01*
X148783708Y-118666848D01*
X148808715Y-118728837D01*
X148848955Y-118832110D01*
X148878105Y-118916311D01*
X148892766Y-118970989D01*
X148892400Y-118986238D01*
X148859774Y-118996375D01*
X148791785Y-119012325D01*
X148713820Y-119028490D01*
X148552385Y-119060206D01*
X148567097Y-119166814D01*
X148642454Y-119593064D01*
X148745222Y-119979843D01*
X148874819Y-120325302D01*
X149018980Y-120607983D01*
X149094632Y-120736290D01*
X149023807Y-120763218D01*
X148876049Y-120805980D01*
X148694879Y-120838046D01*
X148497794Y-120857910D01*
X148302291Y-120864067D01*
X148125865Y-120855011D01*
X148060489Y-120846110D01*
X147910303Y-120813441D01*
X147723379Y-120761189D01*
X147509507Y-120692383D01*
X147278477Y-120610051D01*
X147193992Y-120578069D01*
X147046542Y-120523491D01*
X146901202Y-120473418D01*
X146771283Y-120432182D01*
X146670095Y-120404116D01*
X146637882Y-120397014D01*
X146486590Y-120377650D01*
X146300979Y-120368254D01*
X146097450Y-120368629D01*
X145892407Y-120378581D01*
X145702253Y-120397913D01*
X145629124Y-120409065D01*
X145451420Y-120444459D01*
X145242840Y-120493722D01*
X145020790Y-120552153D01*
X144802676Y-120615050D01*
X144605904Y-120677711D01*
X144511571Y-120710928D01*
X144416894Y-120745367D01*
X144342364Y-120771595D01*
X144299982Y-120785423D01*
X144294910Y-120786558D01*
X144299787Y-120765565D01*
X144323520Y-120710373D01*
X144361063Y-120632658D01*
X144363447Y-120627925D01*
X144440887Y-120437148D01*
X144490443Y-120234328D01*
X144508233Y-120038342D01*
X144503698Y-119945927D01*
X144493524Y-119868155D01*
X144475990Y-119751710D01*
X144453045Y-119608806D01*
X144426633Y-119451658D01*
X144406836Y-119338086D01*
X144345243Y-118887105D01*
X144328475Y-118533686D01*
X144548130Y-118533686D01*
X144557024Y-118698389D01*
X144579363Y-118879816D01*
X144616100Y-119090496D01*
X144645129Y-119234623D01*
X144700180Y-119562658D01*
X144720790Y-119859460D01*
X144706879Y-120132471D01*
X144658364Y-120389130D01*
X144631444Y-120482016D01*
X144624806Y-120515755D01*
X144645092Y-120515601D01*
X144676116Y-120500259D01*
X144724870Y-120471531D01*
X144802521Y-120422620D01*
X144895143Y-120362361D01*
X144930753Y-120338735D01*
X145055888Y-120246634D01*
X145121114Y-120191650D01*
X145454436Y-120191650D01*
X145491693Y-120183938D01*
X145562036Y-120164127D01*
X145649724Y-120137204D01*
X145739015Y-120108155D01*
X145814167Y-120081967D01*
X145859438Y-120063628D01*
X145860804Y-120062916D01*
X145905775Y-120050091D01*
X145992023Y-120034962D01*
X146109230Y-120019000D01*
X146247078Y-120003678D01*
X146332076Y-119995694D01*
X146534437Y-119975286D01*
X146691805Y-119952386D01*
X146810917Y-119924809D01*
X146898511Y-119890369D01*
X146961324Y-119846882D01*
X147006093Y-119792162D01*
X147016812Y-119773601D01*
X147050685Y-119668740D01*
X147061763Y-119534502D01*
X147050418Y-119387763D01*
X147017022Y-119245402D01*
X147004427Y-119210300D01*
X146976991Y-119132826D01*
X146962285Y-119076523D01*
X146962358Y-119056719D01*
X146985841Y-119066540D01*
X147034314Y-119104900D01*
X147090176Y-119156679D01*
X147201701Y-119299874D01*
X147267150Y-119462875D01*
X147284521Y-119608805D01*
X147289455Y-119674989D01*
X147311107Y-119724988D01*
X147359760Y-119777019D01*
X147398087Y-119810044D01*
X147515739Y-119934142D01*
X147588094Y-120075392D01*
X147619004Y-120242283D01*
X147620774Y-120300582D01*
X147620774Y-120470779D01*
X147743635Y-120548969D01*
X147942030Y-120646000D01*
X148171728Y-120706409D01*
X148426331Y-120728999D01*
X148648721Y-120718511D01*
X148804827Y-120702194D01*
X148716646Y-120516510D01*
X148653660Y-120361497D01*
X148591317Y-120166618D01*
X148532699Y-119943681D01*
X148480886Y-119704495D01*
X148438961Y-119460867D01*
X148436128Y-119441548D01*
X148413434Y-119287282D01*
X148395686Y-119176947D01*
X148380839Y-119103220D01*
X148366844Y-119058775D01*
X148351655Y-119036288D01*
X148333225Y-119028435D01*
X148320472Y-119027699D01*
X148258897Y-119013025D01*
X148168907Y-118973612D01*
X148063004Y-118916372D01*
X147953690Y-118848220D01*
X147853468Y-118776067D01*
X147827698Y-118755222D01*
X147699464Y-118654572D01*
X147593734Y-118588512D01*
X147499493Y-118552232D01*
X147405725Y-118540922D01*
X147344492Y-118544182D01*
X147253789Y-118548226D01*
X147204257Y-118539787D01*
X147198818Y-118522169D01*
X147240398Y-118498677D01*
X147290207Y-118482844D01*
X147414603Y-118459601D01*
X147539839Y-118459974D01*
X147675187Y-118485966D01*
X147829917Y-118539581D01*
X148013300Y-118622822D01*
X148070586Y-118651478D01*
X148243910Y-118735970D01*
X148381681Y-118794636D01*
X148491344Y-118830413D01*
X148558401Y-118843828D01*
X148640122Y-118851235D01*
X148693458Y-118848951D01*
X148707128Y-118840925D01*
X148695275Y-118810930D01*
X148662808Y-118744854D01*
X148614368Y-118651770D01*
X148554592Y-118540745D01*
X148539487Y-118513187D01*
X148469743Y-118384471D01*
X148402555Y-118257120D01*
X148345416Y-118145542D01*
X148305821Y-118064146D01*
X148304801Y-118061925D01*
X148267448Y-117986000D01*
X148232064Y-117939736D01*
X148188095Y-117921116D01*
X148124982Y-117928125D01*
X148032172Y-117958750D01*
X147944094Y-117993076D01*
X147837868Y-118032638D01*
X147755641Y-118058281D01*
X147702814Y-118069182D01*
X147684792Y-118064519D01*
X147706976Y-118043469D01*
X147738784Y-118024323D01*
X147814903Y-117978391D01*
X147881045Y-117933598D01*
X147923217Y-117899379D01*
X147926024Y-117876609D01*
X147892362Y-117846640D01*
X147762469Y-117768372D01*
X147597176Y-117703774D01*
X147411992Y-117657329D01*
X147222426Y-117633519D01*
X147147454Y-117631340D01*
X146903528Y-117652188D01*
X146674776Y-117711131D01*
X146467993Y-117804549D01*
X146289978Y-117928823D01*
X146147526Y-118080333D01*
X146070482Y-118204883D01*
X146025479Y-118304656D01*
X146001312Y-118391523D01*
X145992090Y-118491322D01*
X145991242Y-118552413D01*
X145997162Y-118667660D01*
X146012611Y-118781420D01*
X146032015Y-118861464D01*
X146052143Y-118928342D01*
X146059645Y-118985710D01*
X146054398Y-119051933D01*
X146036276Y-119145378D01*
X146029892Y-119174366D01*
X145968769Y-119374000D01*
X145874631Y-119586798D01*
X145756313Y-119795512D01*
X145622648Y-119982895D01*
X145604417Y-120005013D01*
X145537603Y-120085374D01*
X145486476Y-120148376D01*
X145457939Y-120185431D01*
X145454436Y-120191650D01*
X145121114Y-120191650D01*
X145191158Y-120132604D01*
X145327514Y-120005742D01*
X145455912Y-119875147D01*
X145567303Y-119749915D01*
X145652642Y-119639146D01*
X145694065Y-119571114D01*
X145750930Y-119453745D01*
X145783459Y-119367147D01*
X145792516Y-119296909D01*
X145778964Y-119228623D01*
X145743664Y-119147879D01*
X145721937Y-119105595D01*
X145649730Y-118950102D01*
X145784318Y-118950102D01*
X145793781Y-118971392D01*
X145801561Y-118967346D01*
X145804657Y-118936649D01*
X145801561Y-118932858D01*
X145786184Y-118936409D01*
X145784318Y-118950102D01*
X145649730Y-118950102D01*
X145633674Y-118915526D01*
X145579848Y-118741727D01*
X145563699Y-118621949D01*
X145711050Y-118621949D01*
X145735255Y-118771983D01*
X145770640Y-118911304D01*
X145787636Y-118626782D01*
X145798335Y-118498093D01*
X145813681Y-118377235D01*
X145831334Y-118280508D01*
X145843664Y-118236283D01*
X145943867Y-118022261D01*
X146075031Y-117845087D01*
X146241146Y-117701181D01*
X146446202Y-117586964D01*
X146651919Y-117511210D01*
X146758437Y-117486170D01*
X146884307Y-117471630D01*
X147043258Y-117466221D01*
X147103462Y-117466196D01*
X147231017Y-117468098D01*
X147331593Y-117474014D01*
X147421496Y-117486765D01*
X147517030Y-117509176D01*
X147634499Y-117544069D01*
X147730076Y-117574695D01*
X147885305Y-117622281D01*
X148035434Y-117663272D01*
X148171931Y-117695835D01*
X148286264Y-117718132D01*
X148369901Y-117728331D01*
X148414307Y-117724594D01*
X148417274Y-117722509D01*
X148408053Y-117711171D01*
X148381653Y-117708429D01*
X148340664Y-117700198D01*
X148260835Y-117677612D01*
X148152049Y-117643696D01*
X148024193Y-117601471D01*
X147959448Y-117579312D01*
X147732195Y-117503774D01*
X147540489Y-117447835D01*
X147373039Y-117409138D01*
X147218551Y-117385326D01*
X147065733Y-117374041D01*
X146967726Y-117372302D01*
X146692196Y-117393042D01*
X146445471Y-117454611D01*
X146229268Y-117556032D01*
X146045307Y-117696326D01*
X145895305Y-117874516D01*
X145805574Y-118033610D01*
X145743546Y-118214740D01*
X145711362Y-118417949D01*
X145711050Y-118621949D01*
X145563699Y-118621949D01*
X145556178Y-118566163D01*
X145556283Y-118407906D01*
X145586349Y-118186513D01*
X145656658Y-117984552D01*
X145770893Y-117794356D01*
X145932732Y-117608258D01*
X145946979Y-117594167D01*
X146105940Y-117454036D01*
X146265295Y-117349764D01*
X146442827Y-117271436D01*
X146622620Y-117217517D01*
X146875864Y-117175727D01*
X147153834Y-117170344D01*
X147446069Y-117199850D01*
X147742110Y-117262728D01*
X148031499Y-117357461D01*
X148247276Y-117453193D01*
X148325430Y-117491541D01*
X148383508Y-117518375D01*
X148407554Y-117527495D01*
X148427048Y-117507679D01*
X148465815Y-117455960D01*
X148510914Y-117390289D01*
X148591912Y-117284125D01*
X148700214Y-117163757D01*
X148821997Y-117042812D01*
X148943437Y-116934919D01*
X149050710Y-116853705D01*
X149063734Y-116845289D01*
X149123892Y-116801261D01*
X149157024Y-116764582D01*
X149159126Y-116750476D01*
X149125296Y-116718128D01*
X149056008Y-116666941D01*
X148960979Y-116603279D01*
X148849931Y-116533501D01*
X148732581Y-116463971D01*
X148655397Y-116420760D01*
X148291462Y-116246236D01*
X147923902Y-116115614D01*
X147556482Y-116028625D01*
X147192966Y-115984999D01*
X146837121Y-115984465D01*
X146492710Y-116026752D01*
X146163500Y-116111592D01*
X145853255Y-116238712D01*
X145565740Y-116407844D01*
X145304720Y-116618717D01*
X145257235Y-116664672D01*
X145038468Y-116918748D01*
X144859542Y-117205316D01*
X144720330Y-117524657D01*
X144620705Y-117877052D01*
X144566875Y-118204343D01*
X144551731Y-118373180D01*
X144548130Y-118533686D01*
X144328475Y-118533686D01*
X144325226Y-118465205D01*
X144346635Y-118072767D01*
G37*
X76870000Y-88670000D02*
X74270000Y-88670000D01*
X76870000Y-91330000D02*
X74270000Y-91330000D01*
X78140000Y-88670000D02*
X79470000Y-88670000D01*
X76870000Y-88670000D02*
X76870000Y-91330000D01*
X74270000Y-88670000D02*
X74270000Y-91330000D01*
X79470000Y-88670000D02*
X79470000Y-90000000D01*
G36*
X94519290Y-128482673D02*
G01*
X94617219Y-128495175D01*
X94780334Y-128542800D01*
X94735091Y-128790450D01*
X94608884Y-128751159D01*
X94416003Y-128723775D01*
X94264794Y-128751159D01*
X94225503Y-128809500D01*
X94243363Y-128855934D01*
X94290988Y-128892844D01*
X94360044Y-128924991D01*
X94444578Y-128954756D01*
X94577928Y-129002381D01*
X94702944Y-129067866D01*
X94794622Y-129167878D01*
X94830341Y-129316706D01*
X94804147Y-129447675D01*
X94717231Y-129554831D01*
X94558878Y-129626269D01*
X94449936Y-129645914D01*
X94318372Y-129652462D01*
X94183831Y-129644128D01*
X94070722Y-129619125D01*
X93906416Y-129559594D01*
X93951659Y-129314325D01*
X94129063Y-129376237D01*
X94320753Y-129404812D01*
X94485059Y-129389334D01*
X94542209Y-129326231D01*
X94524350Y-129273844D01*
X94474344Y-129236934D01*
X94400525Y-129207169D01*
X94313609Y-129178594D01*
X94182641Y-129134541D01*
X94061197Y-129071437D01*
X93970709Y-128974997D01*
X93934991Y-128828550D01*
X93962375Y-128694009D01*
X94048100Y-128582091D01*
X94196928Y-128505891D01*
X94296345Y-128485352D01*
X94413622Y-128478506D01*
X94519290Y-128482673D01*
G37*
G36*
X87379409Y-129283369D02*
G01*
X87443703Y-129438150D01*
X87379409Y-129597694D01*
X87231772Y-129652462D01*
X87150809Y-129638175D01*
X87082944Y-129596503D01*
X87035319Y-129529828D01*
X87017459Y-129438150D01*
X87035319Y-129348853D01*
X87082944Y-129283369D01*
X87150809Y-129242887D01*
X87231772Y-129228600D01*
X87379409Y-129283369D01*
G37*
G36*
X84588584Y-129634603D02*
G01*
X84484405Y-129621209D01*
X84381416Y-129602456D01*
X84381416Y-129381000D01*
X84674309Y-129381000D01*
X84742175Y-129388144D01*
X84788609Y-129389666D01*
X84814803Y-129390525D01*
X84912434Y-129382191D01*
X84996969Y-129351234D01*
X85057691Y-129286941D01*
X85081503Y-129180975D01*
X85013637Y-129027384D01*
X84831472Y-128980950D01*
X84788609Y-128980950D01*
X84788609Y-129389666D01*
X84788609Y-128980950D01*
X84674309Y-128980950D01*
X84674309Y-129381000D01*
X84381416Y-129381000D01*
X84381416Y-128738062D01*
X84674309Y-128738062D01*
X84788609Y-128738062D01*
X84957678Y-128689247D01*
X85014828Y-128554706D01*
X84998159Y-128470172D01*
X84952916Y-128420166D01*
X84886241Y-128396353D01*
X84807659Y-128390400D01*
X84738603Y-128392781D01*
X84674309Y-128399925D01*
X84674309Y-128738062D01*
X84381416Y-128738062D01*
X84381416Y-128171325D01*
X84564772Y-128146322D01*
X84762416Y-128135606D01*
X84913625Y-128144238D01*
X85033878Y-128170134D01*
X85198184Y-128260622D01*
X85279147Y-128385637D01*
X85300578Y-128523750D01*
X85287779Y-128622572D01*
X85249381Y-128709487D01*
X85112459Y-128838075D01*
X85238368Y-128902369D01*
X85316056Y-128985712D01*
X85356240Y-129080962D01*
X85369634Y-129180975D01*
X85358323Y-129303312D01*
X85324391Y-129403622D01*
X85201756Y-129546497D01*
X85117222Y-129592336D01*
X85018400Y-129622697D01*
X84908565Y-129639663D01*
X84814803Y-129644173D01*
X84790991Y-129645319D01*
X84788609Y-129645255D01*
X84691573Y-129642640D01*
X84588584Y-129634603D01*
G37*
G36*
X90947415Y-128482673D02*
G01*
X91045344Y-128495175D01*
X91208459Y-128542800D01*
X91163216Y-128790450D01*
X91037009Y-128751159D01*
X90844128Y-128723775D01*
X90692919Y-128751159D01*
X90653628Y-128809500D01*
X90671488Y-128855934D01*
X90719112Y-128892844D01*
X90788169Y-128924991D01*
X90872703Y-128954756D01*
X91006053Y-129002381D01*
X91131069Y-129067866D01*
X91222747Y-129167878D01*
X91258466Y-129316706D01*
X91232272Y-129447675D01*
X91145356Y-129554831D01*
X90987003Y-129626269D01*
X90878061Y-129645914D01*
X90746497Y-129652462D01*
X90611956Y-129644128D01*
X90498847Y-129619125D01*
X90334541Y-129559594D01*
X90379784Y-129314325D01*
X90557188Y-129376237D01*
X90748878Y-129404812D01*
X90913184Y-129389334D01*
X90970334Y-129326231D01*
X90952475Y-129273844D01*
X90902469Y-129236934D01*
X90828650Y-129207169D01*
X90741734Y-129178594D01*
X90610766Y-129134541D01*
X90489322Y-129071437D01*
X90398834Y-128974997D01*
X90363116Y-128828550D01*
X90390500Y-128694009D01*
X90476225Y-128582091D01*
X90625053Y-128505891D01*
X90724470Y-128485352D01*
X90841747Y-128478506D01*
X90947415Y-128482673D01*
G37*
G36*
X87379409Y-128561850D02*
G01*
X87443703Y-128716631D01*
X87379409Y-128876175D01*
X87231772Y-128930944D01*
X87150809Y-128916656D01*
X87082944Y-128874984D01*
X87035319Y-128808309D01*
X87017459Y-128716631D01*
X87035319Y-128627334D01*
X87082944Y-128561850D01*
X87150809Y-128521369D01*
X87231772Y-128507081D01*
X87379409Y-128561850D01*
G37*
G36*
X89341559Y-129626269D02*
G01*
X89036759Y-129626269D01*
X89078765Y-129455057D01*
X89120960Y-129290036D01*
X89163347Y-129131207D01*
X89187989Y-129042862D01*
X89463003Y-129042862D01*
X89751134Y-129042862D01*
X89722559Y-128890462D01*
X89690413Y-128744016D01*
X89652313Y-128596378D01*
X89608259Y-128438025D01*
X89564206Y-128596378D01*
X89526106Y-128744016D01*
X89492769Y-128890462D01*
X89463003Y-129042862D01*
X89187989Y-129042862D01*
X89205923Y-128978569D01*
X89248691Y-128832122D01*
X89301822Y-128655240D01*
X89354061Y-128482971D01*
X89405407Y-128315316D01*
X89455859Y-128152275D01*
X89774947Y-128152275D01*
X89827260Y-128316656D01*
X89879424Y-128485948D01*
X89931440Y-128660151D01*
X89983306Y-128839266D01*
X90024502Y-128986951D01*
X90065221Y-129139494D01*
X90105464Y-129296894D01*
X90145231Y-129459153D01*
X90184522Y-129626269D01*
X89870197Y-129626269D01*
X89801141Y-129285750D01*
X89408234Y-129285750D01*
X89341559Y-129626269D01*
G37*
G36*
X93208709Y-128047500D02*
G01*
X93263478Y-128185612D01*
X93208709Y-128321344D01*
X93077741Y-128371350D01*
X92947963Y-128321344D01*
X92894384Y-128185612D01*
X92947963Y-128047500D01*
X93077741Y-127997494D01*
X93208709Y-128047500D01*
G37*
G36*
X95411366Y-128516606D02*
G01*
X95497091Y-128493984D01*
X95585197Y-128483269D01*
X95698902Y-128492496D01*
X95792366Y-128520178D01*
X95925716Y-128624953D01*
X95997153Y-128786878D01*
X96013227Y-128885998D01*
X96018584Y-128995237D01*
X96018584Y-129626269D01*
X95725691Y-129626269D01*
X95725691Y-129033337D01*
X95716761Y-128898202D01*
X95689972Y-128807119D01*
X95554241Y-128738062D01*
X95474469Y-128747587D01*
X95411366Y-128764256D01*
X95411366Y-129626269D01*
X95118472Y-129626269D01*
X95118472Y-128023687D01*
X95411366Y-127973681D01*
X95411366Y-128516606D01*
G37*
G36*
X91839491Y-128516606D02*
G01*
X91925216Y-128493984D01*
X92013322Y-128483269D01*
X92127027Y-128492496D01*
X92220491Y-128520178D01*
X92353841Y-128624953D01*
X92425278Y-128786878D01*
X92441352Y-128885998D01*
X92446709Y-128995237D01*
X92446709Y-129626269D01*
X92153816Y-129626269D01*
X92153816Y-129033337D01*
X92144886Y-128898202D01*
X92118097Y-128807119D01*
X91982366Y-128738062D01*
X91902594Y-128747587D01*
X91839491Y-128764256D01*
X91839491Y-129626269D01*
X91546597Y-129626269D01*
X91546597Y-128023687D01*
X91839491Y-127973681D01*
X91839491Y-128516606D01*
G37*
G36*
X93275384Y-129200025D02*
G01*
X93312294Y-129348853D01*
X93434928Y-129397669D01*
X93532559Y-129386953D01*
X93661147Y-129342900D01*
X93699247Y-129578644D01*
X93528988Y-129636984D01*
X93382541Y-129652462D01*
X93277468Y-129644128D01*
X93190850Y-129619125D01*
X93067025Y-129522684D01*
X93001541Y-129369094D01*
X92987253Y-129272058D01*
X92982491Y-129161925D01*
X92982491Y-128749969D01*
X92672928Y-128749969D01*
X92672928Y-128507081D01*
X93275384Y-128507081D01*
X93275384Y-129200025D01*
G37*
G36*
X85885175Y-128695200D02*
G01*
X85913452Y-128795212D01*
X85943516Y-128895225D01*
X85975365Y-128994345D01*
X86009000Y-129091678D01*
X86079247Y-129271462D01*
X86129253Y-129091678D01*
X86154852Y-128994642D01*
X86179259Y-128896416D01*
X86202774Y-128797296D01*
X86225694Y-128697581D01*
X86267366Y-128507081D01*
X86567403Y-128507081D01*
X86523052Y-128662755D01*
X86480488Y-128815453D01*
X86437923Y-128964877D01*
X86393572Y-129110728D01*
X86346840Y-129253305D01*
X86297131Y-129392906D01*
X86243851Y-129529233D01*
X86186403Y-129661987D01*
X86097106Y-129826294D01*
X85999475Y-129939403D01*
X85880412Y-130004887D01*
X85726822Y-130026319D01*
X85592281Y-130014412D01*
X85491078Y-129983456D01*
X85545847Y-129738187D01*
X85630381Y-129767953D01*
X85710153Y-129776287D01*
X85848266Y-129719137D01*
X85931609Y-129583406D01*
X85861759Y-129436959D01*
X85791909Y-129277019D01*
X85722059Y-129103584D01*
X85670863Y-128964951D01*
X85622047Y-128819323D01*
X85575613Y-128666699D01*
X85531559Y-128507081D01*
X85836359Y-128507081D01*
X85885175Y-128695200D01*
G37*
X134516000Y-118851380D02*
X135960000Y-118851380D01*
X136367000Y-117731380D02*
X137633000Y-117731380D01*
X138040000Y-119571380D02*
X139934000Y-119571380D01*
X138040000Y-120332380D02*
X140175000Y-120332380D01*
X136060000Y-117811380D02*
X137940000Y-117811380D01*
X133833000Y-120292380D02*
X135960000Y-120292380D01*
X138040000Y-118811380D02*
X139450000Y-118811380D01*
X133953000Y-119851380D02*
X135960000Y-119851380D01*
X133902000Y-120011380D02*
X135960000Y-120011380D01*
X134210000Y-119291380D02*
X135960000Y-119291380D01*
X133850000Y-120211380D02*
X135960000Y-120211380D01*
X138040000Y-119811380D02*
X140033000Y-119811380D01*
X134695000Y-118651380D02*
X135960000Y-118651380D01*
X138040000Y-119731380D02*
X140002000Y-119731380D01*
X135738000Y-117931380D02*
X138262000Y-117931380D01*
X134048000Y-119611380D02*
X135960000Y-119611380D01*
X138040000Y-120372380D02*
X140182000Y-120372380D01*
X134234000Y-119251380D02*
X135960000Y-119251380D01*
X138040000Y-119931380D02*
X140074000Y-119931380D01*
X134393000Y-119011380D02*
X135960000Y-119011380D01*
X134258000Y-119211380D02*
X135960000Y-119211380D01*
X138040000Y-120652380D02*
X140218000Y-120652380D01*
X138040000Y-118651380D02*
X139305000Y-118651380D01*
X134364000Y-119051380D02*
X135960000Y-119051380D01*
X134014000Y-119691380D02*
X135960000Y-119691380D01*
X138040000Y-120091380D02*
X140121000Y-120091380D01*
X138040000Y-118851380D02*
X139484000Y-118851380D01*
X133869000Y-120131380D02*
X135960000Y-120131380D01*
X138040000Y-120252380D02*
X140159000Y-120252380D01*
X135941000Y-117851380D02*
X138059000Y-117851380D01*
X133799000Y-120492380D02*
X135960000Y-120492380D01*
X138040000Y-119411380D02*
X139856000Y-119411380D01*
X138040000Y-119451380D02*
X139876000Y-119451380D01*
X133967000Y-119811380D02*
X135960000Y-119811380D01*
X138040000Y-120051380D02*
X140110000Y-120051380D01*
X133794000Y-120532380D02*
X135960000Y-120532380D01*
X138040000Y-118931380D02*
X139548000Y-118931380D01*
X138040000Y-119691380D02*
X139986000Y-119691380D01*
X135056000Y-118331380D02*
X138944000Y-118331380D01*
X138040000Y-120292380D02*
X140167000Y-120292380D01*
X134124000Y-119451380D02*
X135960000Y-119451380D01*
X138040000Y-119371380D02*
X139834000Y-119371380D01*
X133926000Y-119931380D02*
X135960000Y-119931380D01*
X134550000Y-118811380D02*
X135960000Y-118811380D01*
X134846000Y-124117621D02*
X135476000Y-124117621D01*
X138040000Y-119491380D02*
X139896000Y-119491380D01*
X138040000Y-118891380D02*
X139516000Y-118891380D01*
X134776000Y-118571380D02*
X139224000Y-118571380D01*
X134956000Y-118411380D02*
X139044000Y-118411380D01*
X133773000Y-120772380D02*
X140227000Y-120772380D01*
X138040000Y-120412380D02*
X140189000Y-120412380D01*
X138040000Y-119211380D02*
X139742000Y-119211380D01*
X134310000Y-119131380D02*
X135960000Y-119131380D01*
X134030000Y-119651380D02*
X135960000Y-119651380D01*
X133770000Y-120932380D02*
X140230000Y-120932380D01*
X138040000Y-118971380D02*
X139578000Y-118971380D01*
X134735000Y-118611380D02*
X139265000Y-118611380D01*
X138040000Y-119251380D02*
X139766000Y-119251380D01*
X138040000Y-120211380D02*
X140150000Y-120211380D01*
X133841000Y-120252380D02*
X135960000Y-120252380D01*
X133789000Y-120572380D02*
X135960000Y-120572380D01*
X134084000Y-119531380D02*
X135960000Y-119531380D01*
X133770000Y-120852380D02*
X140230000Y-120852380D01*
X135110000Y-118291380D02*
X138890000Y-118291380D01*
X133782000Y-120652380D02*
X135960000Y-120652380D01*
X135161000Y-124432621D02*
X135161000Y-123802621D01*
X134066000Y-119571380D02*
X135960000Y-119571380D01*
X138040000Y-118771380D02*
X139416000Y-118771380D01*
X138040000Y-119771380D02*
X140018000Y-119771380D01*
X138040000Y-120011380D02*
X140098000Y-120011380D01*
X138040000Y-119531380D02*
X139916000Y-119531380D01*
X138040000Y-120692380D02*
X140222000Y-120692380D01*
X138040000Y-120492380D02*
X140201000Y-120492380D01*
X134144000Y-119411380D02*
X135960000Y-119411380D01*
X134484000Y-118891380D02*
X135960000Y-118891380D01*
X135568000Y-118011380D02*
X138432000Y-118011380D01*
X135005000Y-118371380D02*
X138995000Y-118371380D01*
X134452000Y-118931380D02*
X135960000Y-118931380D01*
X135224000Y-118211380D02*
X138776000Y-118211380D01*
X138040000Y-119891380D02*
X140061000Y-119891380D01*
X133859000Y-120171380D02*
X135960000Y-120171380D01*
X135835000Y-117891380D02*
X138165000Y-117891380D01*
X138040000Y-119051380D02*
X139636000Y-119051380D01*
X133772000Y-120812380D02*
X140228000Y-120812380D01*
X135166000Y-118251380D02*
X138834000Y-118251380D01*
X133776000Y-120732380D02*
X140224000Y-120732380D01*
X134422000Y-118971380D02*
X135960000Y-118971380D01*
X135419000Y-118091380D02*
X138581000Y-118091380D01*
X133890000Y-120051380D02*
X135960000Y-120051380D01*
X133785000Y-120612380D02*
X135960000Y-120612380D01*
X138040000Y-119171380D02*
X139716000Y-119171380D01*
X138040000Y-119611380D02*
X139952000Y-119611380D01*
X135491000Y-118051380D02*
X138509000Y-118051380D01*
X138040000Y-120532380D02*
X140206000Y-120532380D01*
X138040000Y-120171380D02*
X140141000Y-120171380D01*
X134104000Y-119491380D02*
X135960000Y-119491380D01*
X138040000Y-119651380D02*
X139970000Y-119651380D01*
X133825000Y-120332380D02*
X135960000Y-120332380D01*
X135650000Y-117971380D02*
X138350000Y-117971380D01*
X134584000Y-118771380D02*
X135960000Y-118771380D01*
X138040000Y-120452380D02*
X140195000Y-120452380D01*
X133805000Y-120452380D02*
X135960000Y-120452380D01*
X138040000Y-119291380D02*
X139790000Y-119291380D01*
X138040000Y-120572380D02*
X140211000Y-120572380D01*
X138040000Y-118731380D02*
X139380000Y-118731380D01*
X138040000Y-118691380D02*
X139343000Y-118691380D01*
X138040000Y-119091380D02*
X139664000Y-119091380D01*
X138040000Y-119131380D02*
X139690000Y-119131380D01*
X134908000Y-118451380D02*
X139092000Y-118451380D01*
X134657000Y-118691380D02*
X135960000Y-118691380D01*
X138040000Y-119851380D02*
X140047000Y-119851380D01*
X134863000Y-118491380D02*
X139137000Y-118491380D01*
X133811000Y-120412380D02*
X135960000Y-120412380D01*
X134818000Y-118531380D02*
X139182000Y-118531380D01*
X134284000Y-119171380D02*
X135960000Y-119171380D01*
X133879000Y-120091380D02*
X135960000Y-120091380D01*
X138040000Y-120131380D02*
X140131000Y-120131380D01*
X135350000Y-118131380D02*
X138650000Y-118131380D01*
X136598000Y-117691380D02*
X137402000Y-117691380D01*
X138040000Y-119331380D02*
X139812000Y-119331380D01*
X134188000Y-119331380D02*
X135960000Y-119331380D01*
X138040000Y-119011380D02*
X139607000Y-119011380D01*
X135286000Y-118171380D02*
X138714000Y-118171380D01*
X138040000Y-120612380D02*
X140215000Y-120612380D01*
X133982000Y-119771380D02*
X135960000Y-119771380D01*
X133770000Y-120892380D02*
X140230000Y-120892380D01*
X133998000Y-119731380D02*
X135960000Y-119731380D01*
X134336000Y-119091380D02*
X135960000Y-119091380D01*
X133818000Y-120372380D02*
X135960000Y-120372380D01*
X133939000Y-119891380D02*
X135960000Y-119891380D01*
X136198000Y-117771380D02*
X137802000Y-117771380D01*
X134620000Y-118731380D02*
X135960000Y-118731380D01*
X133914000Y-119971380D02*
X135960000Y-119971380D01*
X134166000Y-119371380D02*
X135960000Y-119371380D01*
X138040000Y-119971380D02*
X140086000Y-119971380D01*
X133778000Y-120692380D02*
X135960000Y-120692380D01*
X140270000Y-120932380D02*
G75*
G03*
X140270000Y-120932380I-3270000J0D01*
G01*
G36*
X133372703Y-130650019D02*
G01*
X133039328Y-130650019D01*
X133110766Y-130514287D01*
X133195300Y-130377366D01*
X133284597Y-130247587D01*
X133372703Y-130130906D01*
X133372703Y-130650019D01*
G37*
G36*
X129737130Y-130016011D02*
G01*
X129819878Y-130057087D01*
X129873456Y-130127334D01*
X129891316Y-130228537D01*
X129824641Y-130394034D01*
X129737130Y-130437790D01*
X129607947Y-130452375D01*
X129543653Y-130452375D01*
X129543653Y-130009462D01*
X129591278Y-130003509D01*
X129631759Y-130002319D01*
X129737130Y-130016011D01*
G37*
G36*
X135670609Y-131016731D02*
G01*
X135565239Y-130983691D01*
X135487253Y-130884572D01*
X135451534Y-130782840D01*
X135430103Y-130653855D01*
X135422959Y-130497619D01*
X135424057Y-130473806D01*
X135539641Y-130473806D01*
X135575359Y-130584534D01*
X135672991Y-130630969D01*
X135767050Y-130584534D01*
X135803959Y-130473806D01*
X135767050Y-130361887D01*
X135672991Y-130314262D01*
X135575359Y-130361887D01*
X135539641Y-130473806D01*
X135424057Y-130473806D01*
X135430103Y-130342705D01*
X135451534Y-130214515D01*
X135487253Y-130113047D01*
X135565239Y-130013927D01*
X135670609Y-129980887D01*
X135777468Y-130013927D01*
X135855156Y-130113047D01*
X135890214Y-130214515D01*
X135911248Y-130342705D01*
X135918259Y-130497619D01*
X135911248Y-130653855D01*
X135890214Y-130782840D01*
X135855156Y-130884572D01*
X135777468Y-130983691D01*
X135672991Y-131015995D01*
X135670609Y-131016731D01*
G37*
G36*
X127544991Y-129234762D02*
G01*
X137855009Y-129234762D01*
X137855009Y-131765237D01*
X127544991Y-131765237D01*
X127544991Y-131238187D01*
X128041084Y-131238187D01*
X128305403Y-131238187D01*
X128305403Y-130259494D01*
X128393906Y-130422874D01*
X128478441Y-130585990D01*
X128559006Y-130748841D01*
X128635603Y-130911692D01*
X128708231Y-131074807D01*
X128776891Y-131238187D01*
X129012634Y-131238187D01*
X129250759Y-131238187D01*
X129543653Y-131238187D01*
X129543653Y-130695262D01*
X129696053Y-130695262D01*
X129776718Y-130830101D01*
X129852025Y-130963153D01*
X129920188Y-131097991D01*
X129979422Y-131238187D01*
X130286603Y-131238187D01*
X130462816Y-131238187D01*
X130755709Y-131238187D01*
X130755709Y-130607156D01*
X131289109Y-130607156D01*
X131289109Y-130364269D01*
X130755709Y-130364269D01*
X130755709Y-130007081D01*
X131365309Y-130007081D01*
X131365309Y-129926119D01*
X131605816Y-129926119D01*
X131751072Y-130130906D01*
X131901091Y-130018987D01*
X132046347Y-129985650D01*
X132184459Y-130034466D01*
X132239228Y-130173769D01*
X132195175Y-130299975D01*
X132083256Y-130428562D01*
X132013009Y-130496726D01*
X131938000Y-130567866D01*
X131862991Y-130643470D01*
X131792744Y-130725028D01*
X131730831Y-130813432D01*
X131680825Y-130909575D01*
X131647785Y-131014350D01*
X131636772Y-131128650D01*
X131635581Y-131178656D01*
X131641534Y-131238187D01*
X132603559Y-131238187D01*
X132603559Y-130995300D01*
X131970147Y-130995300D01*
X131995150Y-130916719D01*
X132013965Y-130890525D01*
X132758341Y-130890525D01*
X133372703Y-130890525D01*
X133372703Y-131238187D01*
X133665597Y-131238187D01*
X134053741Y-131238187D01*
X134980047Y-131238187D01*
X134980047Y-130995300D01*
X134349016Y-130995300D01*
X134349016Y-130497619D01*
X135158641Y-130497619D01*
X135166826Y-130680380D01*
X135191383Y-130838138D01*
X135232311Y-130970892D01*
X135289609Y-131078644D01*
X135390151Y-131184477D01*
X135517151Y-131247977D01*
X135670609Y-131269144D01*
X135824068Y-131247977D01*
X135951068Y-131184477D01*
X136051609Y-131078644D01*
X136108908Y-130970892D01*
X136149836Y-130838138D01*
X136174393Y-130680380D01*
X136182578Y-130497619D01*
X136174393Y-130315974D01*
X136149836Y-130159184D01*
X136122597Y-130071375D01*
X136380222Y-130071375D01*
X136475472Y-130314262D01*
X136620728Y-130255922D01*
X136773128Y-130171387D01*
X136773128Y-130995300D01*
X136463566Y-130995300D01*
X136463566Y-131238187D01*
X137358916Y-131238187D01*
X137358916Y-130995300D01*
X137066022Y-130995300D01*
X137066022Y-129764194D01*
X136865997Y-129764194D01*
X136763603Y-129857062D01*
X136637397Y-129942787D01*
X136504047Y-130016606D01*
X136380222Y-130071375D01*
X136122597Y-130071375D01*
X136108908Y-130027247D01*
X136051609Y-129920166D01*
X135951068Y-129814994D01*
X135824068Y-129751891D01*
X135670609Y-129730856D01*
X135519532Y-129752023D01*
X135393326Y-129815523D01*
X135291991Y-129921356D01*
X135233650Y-130028810D01*
X135191978Y-130160672D01*
X135166975Y-130316941D01*
X135158641Y-130497619D01*
X134349016Y-130497619D01*
X134349016Y-129764194D01*
X134053741Y-129764194D01*
X134053741Y-131238187D01*
X133665597Y-131238187D01*
X133665597Y-130890525D01*
X133825141Y-130890525D01*
X133825141Y-130650019D01*
X133665597Y-130650019D01*
X133665597Y-129764194D01*
X133403659Y-129764194D01*
X133308409Y-129865695D01*
X133213159Y-129979697D01*
X133120291Y-130100843D01*
X133032184Y-130223775D01*
X132950031Y-130346112D01*
X132875022Y-130465472D01*
X132810133Y-130577093D01*
X132758341Y-130676212D01*
X132758341Y-130890525D01*
X132013965Y-130890525D01*
X132055872Y-130832184D01*
X132132072Y-130751222D01*
X132203509Y-130683356D01*
X132324953Y-130564294D01*
X132432109Y-130435706D01*
X132508309Y-130298784D01*
X132536884Y-130152337D01*
X132498784Y-129967791D01*
X132396391Y-129835631D01*
X132248753Y-129757050D01*
X132074922Y-129730856D01*
X131950799Y-129742762D01*
X131826081Y-129778481D01*
X131708507Y-129839203D01*
X131605816Y-129926119D01*
X131365309Y-129926119D01*
X131365309Y-129764194D01*
X130462816Y-129764194D01*
X130462816Y-131238187D01*
X130286603Y-131238187D01*
X130218737Y-131082216D01*
X130136584Y-130917909D01*
X130048478Y-130760747D01*
X129962753Y-130623825D01*
X130066933Y-130556555D01*
X130136584Y-130464281D01*
X130175875Y-130353553D01*
X130188972Y-130230919D01*
X130179149Y-130115130D01*
X130149681Y-130015416D01*
X130036572Y-129864206D01*
X129955609Y-129812414D01*
X129860359Y-129776100D01*
X129752012Y-129754669D01*
X129631759Y-129747525D01*
X129548416Y-129749906D01*
X129448403Y-129755859D01*
X129344819Y-129767766D01*
X129250759Y-129785625D01*
X129250759Y-131238187D01*
X129012634Y-131238187D01*
X129012634Y-129764194D01*
X128748316Y-129764194D01*
X128748316Y-130671450D01*
X128706346Y-130578581D01*
X128656638Y-130471425D01*
X128600678Y-130355339D01*
X128539956Y-130235681D01*
X128475960Y-130113940D01*
X128410178Y-129991603D01*
X128343503Y-129873434D01*
X128276828Y-129764194D01*
X128041084Y-129764194D01*
X128041084Y-131238187D01*
X127544991Y-131238187D01*
X127544991Y-129234762D01*
G37*
X139030000Y-77795000D02*
X139030000Y-74705000D01*
X139030000Y-74705170D02*
G75*
G03*
X133480000Y-76250462I-2560000J-1544830D01*
G01*
X133480000Y-76249538D02*
G75*
G03*
X139030000Y-77794830I2990000J-462D01*
G01*
X138970000Y-76250000D02*
G75*
G03*
X138970000Y-76250000I-2500000J0D01*
G01*
X113270000Y-87930000D02*
X106730000Y-87930000D01*
X114040000Y-89300000D02*
X113270000Y-89300000D01*
X106730000Y-87930000D02*
X106730000Y-90670000D01*
X113270000Y-90670000D02*
X113270000Y-87930000D01*
X106730000Y-90670000D02*
X113270000Y-90670000D01*
X105960000Y-89300000D02*
X106730000Y-89300000D01*
G36*
X82204891Y-123772528D02*
G01*
X82258469Y-123941597D01*
X82315619Y-124124953D01*
X82370387Y-124296403D01*
X82429919Y-124114238D01*
X82489450Y-123933263D01*
X82541837Y-123770147D01*
X82584700Y-123643941D01*
X82827587Y-123643941D01*
X82843959Y-123834441D01*
X82859734Y-124020178D01*
X82874022Y-124202641D01*
X82885928Y-124383319D01*
X82895751Y-124563698D01*
X82903787Y-124745269D01*
X82910336Y-124929518D01*
X82915694Y-125117934D01*
X82646613Y-125117934D01*
X82660900Y-123972553D01*
X82479925Y-124596441D01*
X82265612Y-124596441D01*
X82091781Y-123972553D01*
X82103687Y-125117934D01*
X81834606Y-125117934D01*
X81842048Y-124933388D01*
X81850084Y-124741697D01*
X81858716Y-124547030D01*
X81867944Y-124353553D01*
X81878362Y-124163648D01*
X81890566Y-123979697D01*
X81904555Y-123805270D01*
X81920331Y-123643941D01*
X82163219Y-123643941D01*
X82204891Y-123772528D01*
G37*
G36*
X90557125Y-125089359D02*
G01*
X90557125Y-125510841D01*
X90264231Y-125510841D01*
X90264231Y-124848853D01*
X90557125Y-124848853D01*
X90633325Y-124879809D01*
X90728575Y-124891716D01*
X90819658Y-124870582D01*
X90883356Y-124807181D01*
X90920861Y-124705085D01*
X90933362Y-124567866D01*
X90918480Y-124431241D01*
X90873831Y-124321406D01*
X90798822Y-124249076D01*
X90692856Y-124224966D01*
X90621419Y-124228538D01*
X90557125Y-124234491D01*
X90557125Y-124848853D01*
X90264231Y-124848853D01*
X90264231Y-124034466D01*
X90354421Y-124010653D01*
X90463066Y-123991603D01*
X90580045Y-123979102D01*
X90695237Y-123974934D01*
X90854781Y-123992397D01*
X90987337Y-124044784D01*
X91092906Y-124132097D01*
X91169635Y-124249307D01*
X91215673Y-124391389D01*
X91231019Y-124558341D01*
X91223875Y-124681868D01*
X91202444Y-124795275D01*
X91167320Y-124895883D01*
X91119100Y-124981013D01*
X90980987Y-125101266D01*
X90891095Y-125133413D01*
X90788106Y-125144128D01*
X90728575Y-125136959D01*
X90674402Y-125130436D01*
X90557125Y-125089359D01*
G37*
G36*
X88608072Y-123623700D02*
G01*
X88718800Y-123653466D01*
X88798572Y-123689184D01*
X88847387Y-123717759D01*
X88771187Y-123951122D01*
X88639028Y-123890400D01*
X88461625Y-123865397D01*
X88327084Y-123890400D01*
X88210403Y-123973744D01*
X88127059Y-124129716D01*
X88102949Y-124239253D01*
X88094912Y-124372603D01*
X88104570Y-124527781D01*
X88133542Y-124656766D01*
X88181828Y-124759556D01*
X88296426Y-124860462D01*
X88466387Y-124894097D01*
X88655697Y-124867903D01*
X88775950Y-124815516D01*
X88849769Y-125046497D01*
X88681891Y-125116744D01*
X88567888Y-125140854D01*
X88437812Y-125148891D01*
X88246254Y-125126666D01*
X88087504Y-125059991D01*
X87961562Y-124948866D01*
X87889679Y-124838286D01*
X87838333Y-124706573D01*
X87807525Y-124553727D01*
X87797256Y-124379747D01*
X87809758Y-124206511D01*
X87847262Y-124053516D01*
X87907091Y-123921654D01*
X87986566Y-123811819D01*
X88084197Y-123724903D01*
X88198497Y-123661800D01*
X88326787Y-123623402D01*
X88466387Y-123610603D01*
X88608072Y-123623700D01*
G37*
G36*
X83591969Y-123539166D02*
G01*
X83646737Y-123677278D01*
X83591969Y-123813009D01*
X83461000Y-123863016D01*
X83331222Y-123813009D01*
X83277644Y-123677278D01*
X83331222Y-123539166D01*
X83461000Y-123489159D01*
X83591969Y-123539166D01*
G37*
G36*
X98784344Y-125126269D02*
G01*
X98680164Y-125112874D01*
X98577175Y-125094122D01*
X98577175Y-124872666D01*
X98870069Y-124872666D01*
X98937934Y-124879809D01*
X98984369Y-124881332D01*
X99010562Y-124882191D01*
X99108194Y-124873856D01*
X99192728Y-124842900D01*
X99253450Y-124778606D01*
X99277262Y-124672641D01*
X99209397Y-124519050D01*
X99027231Y-124472616D01*
X98984369Y-124472616D01*
X98984369Y-124881332D01*
X98984369Y-124472616D01*
X98870069Y-124472616D01*
X98870069Y-124872666D01*
X98577175Y-124872666D01*
X98577175Y-124229728D01*
X98870069Y-124229728D01*
X98984369Y-124229728D01*
X99153438Y-124180913D01*
X99210588Y-124046372D01*
X99193919Y-123961838D01*
X99148675Y-123911831D01*
X99082000Y-123888019D01*
X99003419Y-123882066D01*
X98934362Y-123884447D01*
X98870069Y-123891591D01*
X98870069Y-124229728D01*
X98577175Y-124229728D01*
X98577175Y-123662991D01*
X98760531Y-123637988D01*
X98958175Y-123627272D01*
X99109384Y-123635904D01*
X99229638Y-123661800D01*
X99393944Y-123752288D01*
X99474906Y-123877303D01*
X99496337Y-124015416D01*
X99483538Y-124114238D01*
X99445141Y-124201153D01*
X99308219Y-124329741D01*
X99434127Y-124394034D01*
X99511816Y-124477378D01*
X99551999Y-124572628D01*
X99565394Y-124672641D01*
X99554083Y-124794977D01*
X99520150Y-124895288D01*
X99397516Y-125038163D01*
X99312981Y-125084002D01*
X99214159Y-125114363D01*
X99104324Y-125131329D01*
X99010562Y-125135839D01*
X98986750Y-125136984D01*
X98984369Y-125136920D01*
X98887333Y-125134305D01*
X98784344Y-125126269D01*
G37*
G36*
X94492141Y-123979697D02*
G01*
X94586200Y-123988031D01*
X94687403Y-124002319D01*
X94779081Y-124024941D01*
X94726694Y-124296403D01*
X94658828Y-124282116D01*
X94579056Y-124269019D01*
X94500475Y-124260684D01*
X94436181Y-124258303D01*
X94314737Y-124264256D01*
X94193294Y-124286878D01*
X94193294Y-125117934D01*
X93898019Y-125117934D01*
X93898019Y-124072566D01*
X94016188Y-124033870D01*
X94137334Y-124003509D01*
X94270387Y-123983864D01*
X94424275Y-123977316D01*
X94492141Y-123979697D01*
G37*
G36*
X87463881Y-124651209D02*
G01*
X86811419Y-124651209D01*
X86811419Y-124363078D01*
X87463881Y-124363078D01*
X87463881Y-124651209D01*
G37*
G36*
X96488819Y-125117934D02*
G01*
X96195925Y-125117934D01*
X96195925Y-124365459D01*
X96488819Y-124365459D01*
X96607881Y-124365459D01*
X96731111Y-124351470D01*
X96819812Y-124309500D01*
X96873391Y-124233598D01*
X96891250Y-124117809D01*
X96873688Y-124007974D01*
X96821003Y-123935644D01*
X96739148Y-123895460D01*
X96634075Y-123882066D01*
X96561447Y-123883256D01*
X96488819Y-123889209D01*
X96488819Y-124365459D01*
X96195925Y-124365459D01*
X96195925Y-123662991D01*
X96292366Y-123646322D01*
X96400713Y-123635606D01*
X96507869Y-123629653D01*
X96600737Y-123627272D01*
X96774040Y-123640104D01*
X96919296Y-123678601D01*
X97036506Y-123742763D01*
X97122496Y-123836028D01*
X97174090Y-123961838D01*
X97191287Y-124120191D01*
X97173957Y-124280131D01*
X97121967Y-124407528D01*
X97035316Y-124502381D01*
X96916915Y-124567866D01*
X96769674Y-124607156D01*
X96593594Y-124620253D01*
X96488819Y-124620253D01*
X96488819Y-125117934D01*
G37*
G36*
X84878439Y-123984162D02*
G01*
X84977856Y-124011844D01*
X85117159Y-124116619D01*
X85189787Y-124278544D01*
X85205861Y-124377663D01*
X85211219Y-124486903D01*
X85211219Y-125117934D01*
X84918325Y-125117934D01*
X84918325Y-124525003D01*
X84909395Y-124389867D01*
X84882606Y-124298784D01*
X84737350Y-124229728D01*
X84671866Y-124232109D01*
X84604000Y-124239253D01*
X84604000Y-125117934D01*
X84311106Y-125117934D01*
X84311106Y-124034466D01*
X84398915Y-124013630D01*
X84505178Y-123993984D01*
X84625729Y-123979697D01*
X84756400Y-123974934D01*
X84878439Y-123984162D01*
G37*
G36*
X98133072Y-123623700D02*
G01*
X98243800Y-123653466D01*
X98323572Y-123689184D01*
X98372387Y-123717759D01*
X98296187Y-123951122D01*
X98164028Y-123890400D01*
X97986625Y-123865397D01*
X97852084Y-123890400D01*
X97735403Y-123973744D01*
X97652059Y-124129716D01*
X97627949Y-124239253D01*
X97619912Y-124372603D01*
X97629570Y-124527781D01*
X97658542Y-124656766D01*
X97706828Y-124759556D01*
X97821426Y-124860462D01*
X97991387Y-124894097D01*
X98180697Y-124867903D01*
X98300950Y-124815516D01*
X98374769Y-125046497D01*
X98206891Y-125116744D01*
X98092888Y-125140854D01*
X97962813Y-125148891D01*
X97771254Y-125126666D01*
X97612504Y-125059991D01*
X97486562Y-124948866D01*
X97414679Y-124838286D01*
X97363333Y-124706573D01*
X97332525Y-124553727D01*
X97322256Y-124379747D01*
X97334758Y-124206511D01*
X97372262Y-124053516D01*
X97432091Y-123921654D01*
X97511566Y-123811819D01*
X97609197Y-123724903D01*
X97723497Y-123661800D01*
X97851787Y-123623402D01*
X97991387Y-123610603D01*
X98133072Y-123623700D01*
G37*
G36*
X86039894Y-124691691D02*
G01*
X86076803Y-124840519D01*
X86199437Y-124889334D01*
X86297069Y-124878619D01*
X86425656Y-124834566D01*
X86463756Y-125070309D01*
X86293497Y-125128650D01*
X86147050Y-125144128D01*
X86041977Y-125135794D01*
X85955359Y-125110791D01*
X85831534Y-125014350D01*
X85766050Y-124860759D01*
X85751762Y-124763723D01*
X85747000Y-124653591D01*
X85747000Y-124241634D01*
X85437437Y-124241634D01*
X85437437Y-123998747D01*
X86039894Y-123998747D01*
X86039894Y-124691691D01*
G37*
G36*
X85973219Y-123539166D02*
G01*
X86027987Y-123677278D01*
X85973219Y-123813009D01*
X85842250Y-123863016D01*
X85712472Y-123813009D01*
X85658894Y-123677278D01*
X85712472Y-123539166D01*
X85842250Y-123489159D01*
X85973219Y-123539166D01*
G37*
G36*
X92894322Y-124751520D02*
G01*
X92962187Y-124826231D01*
X93065772Y-124873559D01*
X93195550Y-124889334D01*
X93363428Y-124870284D01*
X93497969Y-124832184D01*
X93538450Y-125082216D01*
X93376525Y-125126269D01*
X93183644Y-125144128D01*
X93048210Y-125134901D01*
X92927659Y-125107219D01*
X92822884Y-125061380D01*
X92734778Y-124997681D01*
X92664234Y-124916421D01*
X92612144Y-124817897D01*
X92579997Y-124701811D01*
X92569281Y-124567866D01*
X92578796Y-124451184D01*
X92871700Y-124451184D01*
X93319375Y-124451184D01*
X93307469Y-124364269D01*
X93269369Y-124289259D01*
X93202694Y-124235681D01*
X93102681Y-124215441D01*
X93003859Y-124234491D01*
X92934803Y-124286878D01*
X92891941Y-124363078D01*
X92871700Y-124451184D01*
X92578796Y-124451184D01*
X92580592Y-124429158D01*
X92614525Y-124308309D01*
X92666912Y-124205618D01*
X92733587Y-124121381D01*
X92812764Y-124055599D01*
X92902656Y-124008272D01*
X92999097Y-123979697D01*
X93097919Y-123970172D01*
X93249790Y-123986444D01*
X93375202Y-124035259D01*
X93474156Y-124116619D01*
X93545594Y-124229199D01*
X93588456Y-124371677D01*
X93602744Y-124544053D01*
X93601553Y-124603584D01*
X93597981Y-124653591D01*
X92871700Y-124653591D01*
X92894322Y-124751520D01*
G37*
G36*
X91938250Y-123998747D02*
G01*
X92407356Y-123998747D01*
X92407356Y-124241634D01*
X91938250Y-124241634D01*
X91938250Y-124694072D01*
X91950156Y-124794084D01*
X91983494Y-124853616D01*
X92035881Y-124882191D01*
X92104937Y-124889334D01*
X92179947Y-124886953D01*
X92246622Y-124878619D01*
X92313297Y-124860759D01*
X92388306Y-124829803D01*
X92428787Y-125082216D01*
X92253766Y-125129841D01*
X92071600Y-125144128D01*
X91890625Y-125127459D01*
X91757275Y-125063166D01*
X91673931Y-124928625D01*
X91652500Y-124828315D01*
X91645356Y-124701216D01*
X91645356Y-124241634D01*
X91390562Y-124241634D01*
X91390562Y-123998747D01*
X91645356Y-123998747D01*
X91645356Y-123717759D01*
X91938250Y-123670134D01*
X91938250Y-123998747D01*
G37*
G36*
X83658644Y-124691691D02*
G01*
X83695553Y-124840519D01*
X83818187Y-124889334D01*
X83915819Y-124878619D01*
X84044406Y-124834566D01*
X84082506Y-125070309D01*
X83912247Y-125128650D01*
X83765800Y-125144128D01*
X83660727Y-125135794D01*
X83574109Y-125110791D01*
X83450284Y-125014350D01*
X83384800Y-124860759D01*
X83370512Y-124763723D01*
X83365750Y-124653591D01*
X83365750Y-124241634D01*
X83056187Y-124241634D01*
X83056187Y-123998747D01*
X83658644Y-123998747D01*
X83658644Y-124691691D01*
G37*
G36*
X89305778Y-125106028D02*
G01*
X89215886Y-125054236D01*
X89139091Y-124984584D01*
X89076880Y-124898562D01*
X89030744Y-124797656D01*
X89002169Y-124683059D01*
X88992823Y-124558341D01*
X89290300Y-124558341D01*
X89303695Y-124694072D01*
X89343878Y-124801228D01*
X89413827Y-124870880D01*
X89516519Y-124894097D01*
X89616829Y-124870880D01*
X89689159Y-124801228D01*
X89732915Y-124694072D01*
X89747500Y-124558341D01*
X89734105Y-124422907D01*
X89693922Y-124316644D01*
X89623973Y-124247885D01*
X89521281Y-124224966D01*
X89420971Y-124247885D01*
X89348641Y-124316644D01*
X89304885Y-124422907D01*
X89290300Y-124558341D01*
X88992823Y-124558341D01*
X88992644Y-124555959D01*
X89002466Y-124430646D01*
X89031934Y-124316644D01*
X89078964Y-124216036D01*
X89141472Y-124130906D01*
X89218565Y-124062445D01*
X89309350Y-124011844D01*
X89411148Y-123980590D01*
X89521281Y-123970172D01*
X89632902Y-123980590D01*
X89734403Y-124011844D01*
X89824295Y-124062445D01*
X89901091Y-124130906D01*
X89963301Y-124216036D01*
X90009437Y-124316644D01*
X90038012Y-124430646D01*
X90047537Y-124555959D01*
X90038012Y-124683059D01*
X90009437Y-124797656D01*
X89963598Y-124898562D01*
X89902281Y-124984584D01*
X89826379Y-125054236D01*
X89736784Y-125106028D01*
X89634688Y-125138175D01*
X89521281Y-125148891D01*
X89516519Y-125148441D01*
X89407874Y-125138175D01*
X89305778Y-125106028D01*
G37*
G36*
X120245776Y-77432890D02*
G01*
X120140869Y-77325072D01*
X120080965Y-77216353D01*
X120038177Y-77084268D01*
X120012504Y-76928817D01*
X120003947Y-76750000D01*
X120301603Y-76750000D01*
X120303687Y-76853882D01*
X120309938Y-76951216D01*
X120343275Y-77114331D01*
X120413522Y-77223869D01*
X120534966Y-77264350D01*
X120655219Y-77223869D01*
X120726656Y-77113141D01*
X120759994Y-76950025D01*
X120766245Y-76853584D01*
X120768328Y-76750000D01*
X120766245Y-76646118D01*
X120759994Y-76548784D01*
X120726656Y-76385669D01*
X120656409Y-76276131D01*
X120534966Y-76235650D01*
X120413522Y-76276131D01*
X120343275Y-76386859D01*
X120309938Y-76549975D01*
X120303687Y-76646416D01*
X120301603Y-76750000D01*
X120003947Y-76750000D01*
X120012728Y-76571183D01*
X120039070Y-76415732D01*
X120082975Y-76283647D01*
X120144441Y-76174928D01*
X120250274Y-76067110D01*
X120380449Y-76002420D01*
X120534966Y-75980856D01*
X120694245Y-76002420D01*
X120826007Y-76067110D01*
X120930253Y-76174928D01*
X120989636Y-76283647D01*
X121032052Y-76415732D01*
X121057501Y-76571183D01*
X121065984Y-76750000D01*
X121057352Y-76928817D01*
X121031456Y-77084268D01*
X120988296Y-77216353D01*
X120927872Y-77325072D01*
X120823097Y-77432890D01*
X120692922Y-77497580D01*
X120537347Y-77519144D01*
X120534966Y-77518822D01*
X120377935Y-77497580D01*
X120245776Y-77432890D01*
G37*
G36*
X119880122Y-76257081D02*
G01*
X119491978Y-76257081D01*
X119491978Y-77488187D01*
X119196703Y-77488187D01*
X119196703Y-76257081D01*
X118808559Y-76257081D01*
X118808559Y-76014194D01*
X119880122Y-76014194D01*
X119880122Y-76257081D01*
G37*
G36*
X114292651Y-77432890D02*
G01*
X114187744Y-77325072D01*
X114127840Y-77216353D01*
X114085052Y-77084268D01*
X114059379Y-76928817D01*
X114050822Y-76750000D01*
X114348478Y-76750000D01*
X114350562Y-76853882D01*
X114356813Y-76951216D01*
X114390150Y-77114331D01*
X114460397Y-77223869D01*
X114581841Y-77264350D01*
X114702094Y-77223869D01*
X114773531Y-77113141D01*
X114806869Y-76950025D01*
X114813120Y-76853584D01*
X114815203Y-76750000D01*
X114813120Y-76646118D01*
X114806869Y-76548784D01*
X114773531Y-76385669D01*
X114703284Y-76276131D01*
X114581841Y-76235650D01*
X114460397Y-76276131D01*
X114390150Y-76386859D01*
X114356813Y-76549975D01*
X114350562Y-76646416D01*
X114348478Y-76750000D01*
X114050822Y-76750000D01*
X114059603Y-76571183D01*
X114085945Y-76415732D01*
X114129850Y-76283647D01*
X114191316Y-76174928D01*
X114297149Y-76067110D01*
X114427324Y-76002420D01*
X114581841Y-75980856D01*
X114741120Y-76002420D01*
X114872882Y-76067110D01*
X114977128Y-76174928D01*
X115036511Y-76283647D01*
X115078927Y-76415732D01*
X115104376Y-76571183D01*
X115112859Y-76750000D01*
X115104227Y-76928817D01*
X115078331Y-77084268D01*
X115035171Y-77216353D01*
X114974747Y-77325072D01*
X114869972Y-77432890D01*
X114739797Y-77497580D01*
X114584222Y-77519144D01*
X114581841Y-77518822D01*
X114424810Y-77497580D01*
X114292651Y-77432890D01*
G37*
G36*
X110878997Y-77245300D02*
G01*
X111510028Y-77245300D01*
X111510028Y-77488187D01*
X110583722Y-77488187D01*
X110583722Y-76014194D01*
X110878997Y-76014194D01*
X110878997Y-77245300D01*
G37*
G36*
X123069509Y-75988595D02*
G01*
X123179344Y-76011812D01*
X123349603Y-76080869D01*
X123263878Y-76307087D01*
X123131719Y-76249937D01*
X122963841Y-76226125D01*
X122834195Y-76244910D01*
X122756407Y-76301267D01*
X122730478Y-76395194D01*
X122754291Y-76470203D01*
X122815013Y-76527353D01*
X122898356Y-76571406D01*
X122990034Y-76607125D01*
X123134100Y-76665466D01*
X123272213Y-76751191D01*
X123375797Y-76884541D01*
X123406158Y-76974730D01*
X123416278Y-77085756D01*
X123382643Y-77269410D01*
X123281738Y-77406034D01*
X123176566Y-77468873D01*
X123040438Y-77506576D01*
X122873353Y-77519144D01*
X122708452Y-77509321D01*
X122580459Y-77479853D01*
X122416153Y-77407225D01*
X122501878Y-77169100D01*
X122655469Y-77240537D01*
X122754588Y-77265541D01*
X122873353Y-77273875D01*
X122995988Y-77258397D01*
X123073378Y-77215534D01*
X123112669Y-77153622D01*
X123123384Y-77083375D01*
X123097191Y-77002412D01*
X123030516Y-76939309D01*
X122940028Y-76889303D01*
X122840016Y-76847631D01*
X122701903Y-76792862D01*
X122572125Y-76714281D01*
X122475684Y-76596409D01*
X122437584Y-76421387D01*
X122471220Y-76236841D01*
X122572125Y-76097537D01*
X122673064Y-76032715D01*
X122796492Y-75993821D01*
X122942409Y-75980856D01*
X123069509Y-75988595D01*
G37*
G36*
X116792831Y-76142781D02*
G01*
X116846409Y-76311850D01*
X116903559Y-76495206D01*
X116958328Y-76666656D01*
X117017859Y-76484491D01*
X117077391Y-76303516D01*
X117129778Y-76140400D01*
X117172641Y-76014194D01*
X117415528Y-76014194D01*
X117431899Y-76204694D01*
X117447675Y-76390431D01*
X117461963Y-76572895D01*
X117473869Y-76753572D01*
X117483691Y-76933952D01*
X117491728Y-77115522D01*
X117498277Y-77299771D01*
X117503634Y-77488187D01*
X117234553Y-77488187D01*
X117248841Y-76342806D01*
X117067866Y-76966694D01*
X116853553Y-76966694D01*
X116679722Y-76342806D01*
X116691628Y-77488187D01*
X116422547Y-77488187D01*
X116429988Y-77303641D01*
X116438025Y-77111950D01*
X116446657Y-76917283D01*
X116455884Y-76723806D01*
X116466302Y-76533902D01*
X116478506Y-76349950D01*
X116492496Y-76175523D01*
X116508272Y-76014194D01*
X116751159Y-76014194D01*
X116792831Y-76142781D01*
G37*
G36*
X113217384Y-77488187D02*
G01*
X112924491Y-77488187D01*
X112924491Y-76735712D01*
X113217384Y-76735712D01*
X113336447Y-76735712D01*
X113459677Y-76721723D01*
X113548378Y-76679753D01*
X113601956Y-76603851D01*
X113619816Y-76488062D01*
X113602254Y-76378227D01*
X113549569Y-76305897D01*
X113467713Y-76265713D01*
X113362641Y-76252319D01*
X113290013Y-76253509D01*
X113217384Y-76259462D01*
X113217384Y-76735712D01*
X112924491Y-76735712D01*
X112924491Y-76033244D01*
X113020931Y-76016575D01*
X113129278Y-76005859D01*
X113236434Y-75999906D01*
X113329303Y-75997525D01*
X113502605Y-76010357D01*
X113647861Y-76048854D01*
X113765072Y-76113016D01*
X113851061Y-76206281D01*
X113902655Y-76332091D01*
X113919853Y-76490444D01*
X113902523Y-76650384D01*
X113850532Y-76777781D01*
X113763881Y-76872634D01*
X113645480Y-76938119D01*
X113498240Y-76977409D01*
X113322159Y-76990506D01*
X113217384Y-76990506D01*
X113217384Y-77488187D01*
G37*
G36*
X121258866Y-77488187D02*
G01*
X121258866Y-76702375D01*
X121551759Y-76702375D01*
X121616053Y-76702375D01*
X121745236Y-76687790D01*
X121832747Y-76644034D01*
X121899422Y-76478537D01*
X121881563Y-76377334D01*
X121827984Y-76307087D01*
X121745236Y-76266011D01*
X121639866Y-76252319D01*
X121599384Y-76253509D01*
X121551759Y-76259462D01*
X121551759Y-76702375D01*
X121258866Y-76702375D01*
X121258866Y-76035625D01*
X121352925Y-76017766D01*
X121456509Y-76005859D01*
X121556522Y-75999906D01*
X121639866Y-75997525D01*
X121760119Y-76004669D01*
X121868466Y-76026100D01*
X121963716Y-76062414D01*
X122044678Y-76114206D01*
X122157788Y-76265416D01*
X122187255Y-76365130D01*
X122197078Y-76480919D01*
X122183981Y-76603553D01*
X122144691Y-76714281D01*
X122075039Y-76806555D01*
X121970859Y-76873825D01*
X122056584Y-77010747D01*
X122144691Y-77167909D01*
X122226844Y-77332216D01*
X122294709Y-77488187D01*
X121987528Y-77488187D01*
X121928295Y-77347991D01*
X121860131Y-77213153D01*
X121784824Y-77080101D01*
X121704159Y-76945262D01*
X121551759Y-76945262D01*
X121551759Y-77488187D01*
X121258866Y-77488187D01*
G37*
G36*
X112669697Y-76257081D02*
G01*
X112350609Y-76257081D01*
X112350609Y-77245300D01*
X112669697Y-77245300D01*
X112669697Y-77488187D01*
X111733866Y-77488187D01*
X111733866Y-77245300D01*
X112055334Y-77245300D01*
X112055334Y-76257081D01*
X111733866Y-76257081D01*
X111733866Y-76014194D01*
X112669697Y-76014194D01*
X112669697Y-76257081D01*
G37*
G36*
X117864526Y-77432890D02*
G01*
X117759619Y-77325072D01*
X117699715Y-77216353D01*
X117656927Y-77084268D01*
X117631254Y-76928817D01*
X117622697Y-76750000D01*
X117920353Y-76750000D01*
X117922437Y-76853882D01*
X117928688Y-76951216D01*
X117962025Y-77114331D01*
X118032272Y-77223869D01*
X118153716Y-77264350D01*
X118273969Y-77223869D01*
X118345406Y-77113141D01*
X118378744Y-76950025D01*
X118384995Y-76853584D01*
X118387078Y-76750000D01*
X118384995Y-76646118D01*
X118378744Y-76548784D01*
X118345406Y-76385669D01*
X118275159Y-76276131D01*
X118153716Y-76235650D01*
X118032272Y-76276131D01*
X117962025Y-76386859D01*
X117928688Y-76549975D01*
X117922437Y-76646416D01*
X117920353Y-76750000D01*
X117622697Y-76750000D01*
X117631478Y-76571183D01*
X117657820Y-76415732D01*
X117701725Y-76283647D01*
X117763191Y-76174928D01*
X117869024Y-76067110D01*
X117999199Y-76002420D01*
X118153716Y-75980856D01*
X118312995Y-76002420D01*
X118444757Y-76067110D01*
X118549003Y-76174928D01*
X118608386Y-76283647D01*
X118650802Y-76415732D01*
X118676251Y-76571183D01*
X118684734Y-76750000D01*
X118676102Y-76928817D01*
X118650206Y-77084268D01*
X118607046Y-77216353D01*
X118546622Y-77325072D01*
X118441847Y-77432890D01*
X118311672Y-77497580D01*
X118156097Y-77519144D01*
X118153716Y-77518822D01*
X117996685Y-77497580D01*
X117864526Y-77432890D01*
G37*
X74270000Y-84670000D02*
X74270000Y-87330000D01*
X76870000Y-84670000D02*
X76870000Y-87330000D01*
X76870000Y-87330000D02*
X74270000Y-87330000D01*
X76870000Y-84670000D02*
X74270000Y-84670000D01*
X79470000Y-84670000D02*
X79470000Y-86000000D01*
X78140000Y-84670000D02*
X79470000Y-84670000D01*
G36*
X96714250Y-109507950D02*
G01*
X96674562Y-109593675D01*
X96657100Y-109698450D01*
X96682500Y-109815925D01*
X96753144Y-109894506D01*
X96861094Y-109938956D01*
X96927173Y-109949077D01*
X97000000Y-109952450D01*
X97107156Y-109946276D01*
X97193675Y-109927756D01*
X97259556Y-109896888D01*
X97322064Y-109828228D01*
X97342900Y-109733375D01*
X97341312Y-109695275D01*
X97336550Y-109657175D01*
X96977775Y-109657175D01*
X96977775Y-109461913D01*
X97468312Y-109461913D01*
X97496887Y-109570656D01*
X97508794Y-109652214D01*
X97512762Y-109749250D01*
X97504627Y-109836761D01*
X97480219Y-109915144D01*
X97439737Y-109983605D01*
X97383381Y-110041350D01*
X97311150Y-110087784D01*
X97223044Y-110122313D01*
X97119261Y-110143744D01*
X97000000Y-110150888D01*
X96881930Y-110142553D01*
X96778544Y-110117550D01*
X96690239Y-110078259D01*
X96617412Y-110027063D01*
X96560461Y-109964753D01*
X96519781Y-109892125D01*
X96495373Y-109811559D01*
X96487237Y-109725438D01*
X96495969Y-109623044D01*
X96515812Y-109544463D01*
X96539625Y-109489694D01*
X96558675Y-109457150D01*
X96714250Y-109507950D01*
G37*
G36*
X96671387Y-110490613D02*
G01*
X97330200Y-110490613D01*
X97330200Y-110277888D01*
X97492125Y-110277888D01*
X97492125Y-110901775D01*
X97330200Y-110901775D01*
X97330200Y-110687463D01*
X96671387Y-110687463D01*
X96671387Y-110901775D01*
X96509462Y-110901775D01*
X96509462Y-110277888D01*
X96671387Y-110277888D01*
X96671387Y-110490613D01*
G37*
G36*
X97492125Y-108388763D02*
G01*
X97492125Y-108591963D01*
X97377984Y-108563959D01*
X97267970Y-108535829D01*
X97162084Y-108507571D01*
X97060325Y-108479187D01*
X96962694Y-108450675D01*
X96844772Y-108415254D01*
X96729927Y-108380428D01*
X96618157Y-108346198D01*
X96509462Y-108312563D01*
X96509462Y-108210963D01*
X96699962Y-108210963D01*
X96805531Y-108240331D01*
X96903956Y-108265731D01*
X97001587Y-108287956D01*
X97103187Y-108307800D01*
X97103187Y-108115713D01*
X97001587Y-108134763D01*
X96903956Y-108156194D01*
X96805531Y-108181594D01*
X96699962Y-108210963D01*
X96509462Y-108210963D01*
X96509462Y-108099838D01*
X96619050Y-108064962D01*
X96731911Y-108030186D01*
X96848046Y-107995509D01*
X96967456Y-107960931D01*
X97065913Y-107933468D01*
X97167608Y-107906321D01*
X97272542Y-107879493D01*
X97380714Y-107852981D01*
X97492125Y-107826788D01*
X97492125Y-108036338D01*
X97265113Y-108082375D01*
X97265113Y-108344313D01*
X97492125Y-108388763D01*
G37*
G36*
X97492125Y-108836438D02*
G01*
X97383205Y-108882210D01*
X97274461Y-108930629D01*
X97165894Y-108981694D01*
X97057326Y-109035404D01*
X96948583Y-109091760D01*
X96839662Y-109150763D01*
X97492125Y-109150763D01*
X97492125Y-109326975D01*
X96509462Y-109326975D01*
X96509462Y-109169813D01*
X96582289Y-109125363D01*
X96661069Y-109080913D01*
X96742627Y-109037058D01*
X96823787Y-108994394D01*
X96903559Y-108953913D01*
X96980950Y-108916606D01*
X97052387Y-108883467D01*
X97114300Y-108855488D01*
X96509462Y-108855488D01*
X96509462Y-108679275D01*
X97492125Y-108679275D01*
X97492125Y-108836438D01*
G37*
G36*
X97346273Y-111073423D02*
G01*
X97437356Y-111140694D01*
X97479249Y-111210808D01*
X97504384Y-111301560D01*
X97512762Y-111412950D01*
X97506214Y-111522884D01*
X97486569Y-111608213D01*
X97438150Y-111717750D01*
X97279400Y-111660600D01*
X97327025Y-111558206D01*
X97343694Y-111492127D01*
X97349250Y-111412950D01*
X97338931Y-111331194D01*
X97310356Y-111279600D01*
X97269081Y-111253406D01*
X97222250Y-111246263D01*
X97168275Y-111263725D01*
X97126206Y-111308175D01*
X97092869Y-111368500D01*
X97065087Y-111435175D01*
X97028575Y-111527250D01*
X96976187Y-111613769D01*
X96897606Y-111678063D01*
X96780925Y-111703463D01*
X96657894Y-111681039D01*
X96565025Y-111613769D01*
X96521810Y-111546476D01*
X96495881Y-111464191D01*
X96487237Y-111366913D01*
X96492397Y-111282180D01*
X96507875Y-111208956D01*
X96553912Y-111095450D01*
X96704725Y-111152600D01*
X96666625Y-111240706D01*
X96650750Y-111352625D01*
X96663274Y-111439056D01*
X96700844Y-111490914D01*
X96763462Y-111508200D01*
X96813469Y-111492325D01*
X96851569Y-111451844D01*
X96880937Y-111396281D01*
X96904750Y-111335163D01*
X96943644Y-111239119D01*
X97000794Y-111147044D01*
X97089694Y-111077988D01*
X97149820Y-111057747D01*
X97223837Y-111051000D01*
X97346273Y-111073423D01*
G37*
G36*
X97492125Y-107699788D02*
G01*
X96509462Y-107699788D01*
X96509462Y-107502937D01*
X97330200Y-107502937D01*
X97330200Y-107082250D01*
X97492125Y-107082250D01*
X97492125Y-107699788D01*
G37*
X83185000Y-121080000D02*
X83185000Y-118420000D01*
X85725000Y-118450000D02*
X85725000Y-119780000D01*
X78045000Y-121080000D02*
X83185000Y-121080000D01*
X78045000Y-118420000D02*
X83185000Y-118420000D01*
X78045000Y-121080000D02*
X78045000Y-118420000D01*
X84395000Y-118450000D02*
X85725000Y-118450000D01*
X90660000Y-121055000D02*
X95800000Y-121055000D01*
X98340000Y-118425000D02*
X98340000Y-119755000D01*
X90660000Y-121055000D02*
X90660000Y-118395000D01*
X97010000Y-118425000D02*
X98340000Y-118425000D01*
X90660000Y-118395000D02*
X95800000Y-118395000D01*
X95800000Y-121055000D02*
X95800000Y-118395000D01*
G36*
X135261965Y-124021419D02*
G01*
X135561050Y-124021419D01*
X135561050Y-124213823D01*
X135261965Y-124213823D01*
X135261965Y-124545294D01*
X135060035Y-124545294D01*
X135060035Y-124213823D01*
X134760950Y-124213823D01*
X134760950Y-124021419D01*
X135060035Y-124021419D01*
X135060035Y-123689948D01*
X135261965Y-123689948D01*
X135261965Y-124021419D01*
G37*
G36*
X87209535Y-81515713D02*
G01*
X87291391Y-81555897D01*
X87344076Y-81628227D01*
X87361637Y-81738062D01*
X87343778Y-81853851D01*
X87290200Y-81929753D01*
X87201498Y-81971723D01*
X87078269Y-81985712D01*
X86959206Y-81985712D01*
X86959206Y-81509462D01*
X87031834Y-81503509D01*
X87104462Y-81502319D01*
X87209535Y-81515713D01*
G37*
G36*
X84905775Y-80734762D02*
G01*
X94094225Y-80734762D01*
X94094225Y-83265237D01*
X84905775Y-83265237D01*
X84905775Y-82738187D01*
X85401869Y-82738187D01*
X85670950Y-82738187D01*
X85659044Y-81592806D01*
X85832875Y-82216694D01*
X86047187Y-82216694D01*
X86228163Y-81592806D01*
X86213875Y-82738187D01*
X86482956Y-82738187D01*
X86666312Y-82738187D01*
X86959206Y-82738187D01*
X86959206Y-82240506D01*
X87063981Y-82240506D01*
X87240061Y-82227409D01*
X87324838Y-82204787D01*
X87821219Y-82204787D01*
X87827172Y-82327422D01*
X87845031Y-82438150D01*
X87877178Y-82535186D01*
X87925994Y-82616744D01*
X88079584Y-82729853D01*
X88187634Y-82759321D01*
X88318900Y-82769144D01*
X88452250Y-82759321D01*
X88561787Y-82729853D01*
X88649894Y-82681930D01*
X88718950Y-82616744D01*
X88769552Y-82535186D01*
X88802294Y-82438150D01*
X88820153Y-82327422D01*
X88826106Y-82204787D01*
X88826106Y-82135731D01*
X89028512Y-82135731D01*
X89042932Y-82334036D01*
X89086192Y-82493977D01*
X89158291Y-82615553D01*
X89257906Y-82700881D01*
X89383716Y-82752078D01*
X89535719Y-82769144D01*
X89648828Y-82757535D01*
X89745269Y-82722709D01*
X89890525Y-82602456D01*
X89975059Y-82440531D01*
X90002444Y-82266700D01*
X89977441Y-82085725D01*
X89929193Y-81997619D01*
X90192944Y-81997619D01*
X90201129Y-82180380D01*
X90225686Y-82338138D01*
X90266614Y-82470892D01*
X90323912Y-82578644D01*
X90424454Y-82684477D01*
X90551454Y-82747977D01*
X90704912Y-82769144D01*
X90858371Y-82747977D01*
X90968437Y-82692944D01*
X91383569Y-82692944D01*
X91451434Y-82719137D01*
X91550256Y-82744141D01*
X91664556Y-82762000D01*
X91781237Y-82769144D01*
X91917564Y-82760214D01*
X92036031Y-82733425D01*
X92136639Y-82690562D01*
X92219387Y-82633412D01*
X92328925Y-82482203D01*
X92364644Y-82292894D01*
X92348504Y-82154781D01*
X92300085Y-82038894D01*
X92264523Y-81997619D01*
X92574194Y-81997619D01*
X92582379Y-82180380D01*
X92606936Y-82338138D01*
X92647864Y-82470892D01*
X92705162Y-82578644D01*
X92805704Y-82684477D01*
X92932704Y-82747977D01*
X93086162Y-82769144D01*
X93239621Y-82747977D01*
X93366621Y-82684477D01*
X93467163Y-82578644D01*
X93524461Y-82470892D01*
X93565389Y-82338138D01*
X93589946Y-82180380D01*
X93598131Y-81997619D01*
X93589946Y-81815974D01*
X93565389Y-81659184D01*
X93524461Y-81527247D01*
X93467163Y-81420166D01*
X93366621Y-81314994D01*
X93239621Y-81251891D01*
X93086162Y-81230856D01*
X92935085Y-81252023D01*
X92808879Y-81315523D01*
X92707544Y-81421356D01*
X92649203Y-81528810D01*
X92607531Y-81660672D01*
X92582528Y-81816941D01*
X92574194Y-81997619D01*
X92264523Y-81997619D01*
X92219387Y-81945231D01*
X92105881Y-81874323D01*
X91959037Y-81826698D01*
X91778856Y-81802356D01*
X91790763Y-81666625D01*
X91802669Y-81507081D01*
X92309875Y-81507081D01*
X92309875Y-81264194D01*
X91557400Y-81264194D01*
X91548470Y-81446062D01*
X91535969Y-81634478D01*
X91519300Y-81828252D01*
X91497869Y-82026194D01*
X91661580Y-82031254D01*
X91790763Y-82046434D01*
X91963403Y-82103584D01*
X92044366Y-82191691D01*
X92064606Y-82304800D01*
X92052700Y-82383381D01*
X92008647Y-82451247D01*
X91920541Y-82500062D01*
X91778856Y-82519112D01*
X91667533Y-82513755D01*
X91576450Y-82497681D01*
X91443100Y-82450056D01*
X91383569Y-82692944D01*
X90968437Y-82692944D01*
X90985371Y-82684477D01*
X91085913Y-82578644D01*
X91143211Y-82470892D01*
X91184139Y-82338138D01*
X91208696Y-82180380D01*
X91216881Y-81997619D01*
X91208696Y-81815974D01*
X91184139Y-81659184D01*
X91143211Y-81527247D01*
X91085913Y-81420166D01*
X90985371Y-81314994D01*
X90858371Y-81251891D01*
X90704912Y-81230856D01*
X90553835Y-81252023D01*
X90427629Y-81315523D01*
X90326294Y-81421356D01*
X90267953Y-81528810D01*
X90226281Y-81660672D01*
X90201278Y-81816941D01*
X90192944Y-81997619D01*
X89929193Y-81997619D01*
X89895288Y-81935706D01*
X89748841Y-81833312D01*
X89649721Y-81804737D01*
X89530956Y-81795212D01*
X89454756Y-81805928D01*
X89366650Y-81835694D01*
X89448803Y-81680912D01*
X89580962Y-81579709D01*
X89747650Y-81523750D01*
X89933388Y-81504700D01*
X89916719Y-81254669D01*
X89725623Y-81268956D01*
X89552387Y-81311819D01*
X89399987Y-81382661D01*
X89271400Y-81480887D01*
X89168113Y-81605903D01*
X89091616Y-81757112D01*
X89044288Y-81933920D01*
X89028512Y-82135731D01*
X88826106Y-82135731D01*
X88826106Y-81264194D01*
X88533213Y-81264194D01*
X88533213Y-82183356D01*
X88523687Y-82339328D01*
X88490350Y-82441722D01*
X88426056Y-82497681D01*
X88323662Y-82514350D01*
X88221269Y-82497681D01*
X88158166Y-82442912D01*
X88126019Y-82341709D01*
X88116494Y-82185737D01*
X88116494Y-81264194D01*
X87821219Y-81264194D01*
X87821219Y-82204787D01*
X87324838Y-82204787D01*
X87387302Y-82188119D01*
X87505703Y-82122634D01*
X87592354Y-82027781D01*
X87644345Y-81900384D01*
X87661675Y-81740444D01*
X87644477Y-81582091D01*
X87592883Y-81456281D01*
X87506894Y-81363016D01*
X87389683Y-81298854D01*
X87244427Y-81260357D01*
X87071125Y-81247525D01*
X86978256Y-81249906D01*
X86871100Y-81255859D01*
X86762753Y-81266575D01*
X86666312Y-81283244D01*
X86666312Y-82738187D01*
X86482956Y-82738187D01*
X86477598Y-82549771D01*
X86471050Y-82365522D01*
X86463013Y-82183952D01*
X86453191Y-82003572D01*
X86441284Y-81822895D01*
X86426997Y-81640431D01*
X86411221Y-81454694D01*
X86394850Y-81264194D01*
X86151962Y-81264194D01*
X86109100Y-81390400D01*
X86056712Y-81553516D01*
X85997181Y-81734491D01*
X85937650Y-81916656D01*
X85882881Y-81745206D01*
X85825731Y-81561850D01*
X85772153Y-81392781D01*
X85730481Y-81264194D01*
X85487594Y-81264194D01*
X85471818Y-81425523D01*
X85457828Y-81599950D01*
X85445624Y-81783902D01*
X85435206Y-81973806D01*
X85425979Y-82167283D01*
X85417347Y-82361950D01*
X85409310Y-82553641D01*
X85401869Y-82738187D01*
X84905775Y-82738187D01*
X84905775Y-80734762D01*
G37*
G36*
X89598227Y-82053280D02*
G01*
X89666687Y-82098822D01*
X89716694Y-82271462D01*
X89705978Y-82354806D01*
X89672641Y-82433387D01*
X89614300Y-82492919D01*
X89528575Y-82516731D01*
X89424991Y-82486966D01*
X89359506Y-82407194D01*
X89326169Y-82294084D01*
X89316644Y-82161925D01*
X89317834Y-82116681D01*
X89321406Y-82073819D01*
X89399987Y-82047625D01*
X89492856Y-82038100D01*
X89598227Y-82053280D01*
G37*
G36*
X90704912Y-82516731D02*
G01*
X90599542Y-82483691D01*
X90521556Y-82384572D01*
X90485837Y-82282840D01*
X90464406Y-82153855D01*
X90457262Y-81997619D01*
X90458360Y-81973806D01*
X90573944Y-81973806D01*
X90609662Y-82084534D01*
X90707294Y-82130969D01*
X90801353Y-82084534D01*
X90838263Y-81973806D01*
X90801353Y-81861887D01*
X90707294Y-81814262D01*
X90609662Y-81861887D01*
X90573944Y-81973806D01*
X90458360Y-81973806D01*
X90464406Y-81842705D01*
X90485837Y-81714515D01*
X90521556Y-81613047D01*
X90599542Y-81513927D01*
X90704912Y-81480887D01*
X90811771Y-81513927D01*
X90889459Y-81613047D01*
X90924517Y-81714515D01*
X90945551Y-81842705D01*
X90952563Y-81997619D01*
X90945551Y-82153855D01*
X90924517Y-82282840D01*
X90889459Y-82384572D01*
X90811771Y-82483691D01*
X90707294Y-82515995D01*
X90704912Y-82516731D01*
G37*
G36*
X93086162Y-82516731D02*
G01*
X92980792Y-82483691D01*
X92902806Y-82384572D01*
X92867088Y-82282840D01*
X92845656Y-82153855D01*
X92838513Y-81997619D01*
X92839611Y-81973806D01*
X92955194Y-81973806D01*
X92990913Y-82084534D01*
X93088544Y-82130969D01*
X93182603Y-82084534D01*
X93219512Y-81973806D01*
X93182603Y-81861887D01*
X93088544Y-81814262D01*
X92990913Y-81861887D01*
X92955194Y-81973806D01*
X92839611Y-81973806D01*
X92845656Y-81842705D01*
X92867088Y-81714515D01*
X92902806Y-81613047D01*
X92980792Y-81513927D01*
X93086162Y-81480887D01*
X93193021Y-81513927D01*
X93270709Y-81613047D01*
X93305767Y-81714515D01*
X93326801Y-81842705D01*
X93333812Y-81997619D01*
X93326801Y-82153855D01*
X93305767Y-82282840D01*
X93270709Y-82384572D01*
X93193021Y-82483691D01*
X93088544Y-82515995D01*
X93086162Y-82516731D01*
G37*
G36*
X93915878Y-130738031D02*
G01*
X94009937Y-130746366D01*
X94111141Y-130760653D01*
X94202819Y-130783275D01*
X94150431Y-131054737D01*
X94082566Y-131040450D01*
X94002794Y-131027353D01*
X93924212Y-131019019D01*
X93859919Y-131016637D01*
X93738475Y-131022591D01*
X93617031Y-131045212D01*
X93617031Y-131876269D01*
X93321756Y-131876269D01*
X93321756Y-130830900D01*
X93439926Y-130792205D01*
X93561072Y-130761844D01*
X93694124Y-130742198D01*
X93848012Y-130735650D01*
X93915878Y-130738031D01*
G37*
G36*
X91171487Y-130766606D02*
G01*
X91257212Y-130743984D01*
X91345319Y-130733269D01*
X91459023Y-130742496D01*
X91552487Y-130770178D01*
X91685837Y-130874953D01*
X91757275Y-131036878D01*
X91773348Y-131135998D01*
X91778706Y-131245237D01*
X91778706Y-131876269D01*
X91485812Y-131876269D01*
X91485812Y-131283337D01*
X91476883Y-131148202D01*
X91450094Y-131057119D01*
X91314362Y-130988062D01*
X91234591Y-130997587D01*
X91171487Y-131014256D01*
X91171487Y-131876269D01*
X90878594Y-131876269D01*
X90878594Y-130273687D01*
X91171487Y-130223681D01*
X91171487Y-130766606D01*
G37*
G36*
X86292306Y-131876269D02*
G01*
X85987506Y-131876269D01*
X86029512Y-131705057D01*
X86071707Y-131540036D01*
X86114093Y-131381207D01*
X86138736Y-131292862D01*
X86413750Y-131292862D01*
X86701881Y-131292862D01*
X86673306Y-131140462D01*
X86641159Y-130994016D01*
X86603059Y-130846378D01*
X86559006Y-130688025D01*
X86514953Y-130846378D01*
X86476853Y-130994016D01*
X86443516Y-131140462D01*
X86413750Y-131292862D01*
X86138736Y-131292862D01*
X86156670Y-131228569D01*
X86199437Y-131082122D01*
X86252569Y-130905240D01*
X86304808Y-130732971D01*
X86356154Y-130565316D01*
X86406606Y-130402275D01*
X86725694Y-130402275D01*
X86778007Y-130566656D01*
X86830171Y-130735948D01*
X86882187Y-130910151D01*
X86934053Y-131089266D01*
X86975249Y-131236951D01*
X87015968Y-131389494D01*
X87056211Y-131546894D01*
X87095978Y-131709153D01*
X87135269Y-131876269D01*
X86820944Y-131876269D01*
X86751887Y-131535750D01*
X86358981Y-131535750D01*
X86292306Y-131876269D01*
G37*
G36*
X87680575Y-131802450D02*
G01*
X87546299Y-131787104D01*
X87435571Y-131741067D01*
X87348391Y-131664337D01*
X87285552Y-131560356D01*
X87247849Y-131432563D01*
X87235281Y-131280956D01*
X87532937Y-131280956D01*
X87545439Y-131402698D01*
X87582944Y-131491697D01*
X87740106Y-131564325D01*
X87829403Y-131552419D01*
X87904412Y-131521462D01*
X87904412Y-130983300D01*
X87844881Y-130973775D01*
X87790112Y-130971394D01*
X87647237Y-131005790D01*
X87561512Y-131108977D01*
X87532937Y-131280956D01*
X87235281Y-131280956D01*
X87252215Y-131112417D01*
X87303015Y-130975098D01*
X87387681Y-130869000D01*
X87501452Y-130793594D01*
X87639565Y-130748350D01*
X87802019Y-130733269D01*
X87927696Y-130739883D01*
X88060252Y-130759727D01*
X88199687Y-130792800D01*
X88199687Y-131740537D01*
X88185003Y-131907225D01*
X88140950Y-132042162D01*
X88067528Y-132145350D01*
X87961562Y-132218110D01*
X87819878Y-132261767D01*
X87642475Y-132276319D01*
X87539784Y-132270961D01*
X87441259Y-132254887D01*
X87256712Y-132204881D01*
X87311481Y-131957231D01*
X87456737Y-132006047D01*
X87647237Y-132028669D01*
X87773444Y-132010809D01*
X87852025Y-131961994D01*
X87892506Y-131889366D01*
X87904412Y-131800069D01*
X87904412Y-131754825D01*
X87791303Y-131790544D01*
X87740106Y-131796049D01*
X87680575Y-131802450D01*
G37*
G36*
X94921956Y-130297500D02*
G01*
X94976725Y-130435612D01*
X94921956Y-130571344D01*
X94790988Y-130621350D01*
X94661209Y-130571344D01*
X94607631Y-130435612D01*
X94661209Y-130297500D01*
X94790988Y-130247494D01*
X94921956Y-130297500D01*
G37*
G36*
X89153378Y-130738031D02*
G01*
X89247437Y-130746366D01*
X89348641Y-130760653D01*
X89440319Y-130783275D01*
X89387931Y-131054737D01*
X89320066Y-131040450D01*
X89240294Y-131027353D01*
X89161712Y-131019019D01*
X89097419Y-131016637D01*
X88975975Y-131022591D01*
X88854531Y-131045212D01*
X88854531Y-131876269D01*
X88559256Y-131876269D01*
X88559256Y-130830900D01*
X88677426Y-130792205D01*
X88798572Y-130761844D01*
X88931624Y-130742198D01*
X89085512Y-130735650D01*
X89153378Y-130738031D01*
G37*
G36*
X90114212Y-131902462D02*
G01*
X89920141Y-131883412D01*
X89771312Y-131820309D01*
X89676062Y-131706009D01*
X89642725Y-131533369D01*
X89644382Y-131526225D01*
X89930856Y-131526225D01*
X89988006Y-131634572D01*
X90135644Y-131666719D01*
X90228512Y-131665528D01*
X90307094Y-131659575D01*
X90307094Y-131402400D01*
X90238037Y-131394066D01*
X90164219Y-131390494D01*
X90076112Y-131396447D01*
X90001103Y-131416687D01*
X89949906Y-131457169D01*
X89930856Y-131526225D01*
X89644382Y-131526225D01*
X89680825Y-131369062D01*
X89783219Y-131261906D01*
X89930856Y-131203566D01*
X90104688Y-131185706D01*
X90212439Y-131190469D01*
X90307094Y-131204756D01*
X90307094Y-131169037D01*
X90254706Y-131029734D01*
X90183269Y-130987765D01*
X90073731Y-130973775D01*
X89912997Y-130985681D01*
X89787981Y-131014256D01*
X89747500Y-130778512D01*
X89902281Y-130743984D01*
X90004080Y-130732376D01*
X90109450Y-130728506D01*
X90235954Y-130736543D01*
X90339241Y-130760653D01*
X90485687Y-130851141D01*
X90564269Y-130994016D01*
X90588081Y-131183325D01*
X90588081Y-131850075D01*
X90397581Y-131883412D01*
X90263636Y-131897700D01*
X90135644Y-131901779D01*
X90114212Y-131902462D01*
G37*
G36*
X92495462Y-131902462D02*
G01*
X92301391Y-131883412D01*
X92152562Y-131820309D01*
X92057313Y-131706009D01*
X92023975Y-131533369D01*
X92025632Y-131526225D01*
X92312106Y-131526225D01*
X92369256Y-131634572D01*
X92516894Y-131666719D01*
X92609762Y-131665528D01*
X92688344Y-131659575D01*
X92688344Y-131402400D01*
X92619287Y-131394066D01*
X92545469Y-131390494D01*
X92457363Y-131396447D01*
X92382353Y-131416687D01*
X92331156Y-131457169D01*
X92312106Y-131526225D01*
X92025632Y-131526225D01*
X92062075Y-131369062D01*
X92164469Y-131261906D01*
X92312106Y-131203566D01*
X92485938Y-131185706D01*
X92593689Y-131190469D01*
X92688344Y-131204756D01*
X92688344Y-131169037D01*
X92635956Y-131029734D01*
X92564519Y-130987765D01*
X92454981Y-130973775D01*
X92294247Y-130985681D01*
X92169231Y-131014256D01*
X92128750Y-130778512D01*
X92283531Y-130743984D01*
X92385330Y-130732376D01*
X92490700Y-130728506D01*
X92617204Y-130736543D01*
X92720491Y-130760653D01*
X92866937Y-130851141D01*
X92945519Y-130994016D01*
X92969331Y-131183325D01*
X92969331Y-131850075D01*
X92778831Y-131883412D01*
X92644886Y-131897700D01*
X92516894Y-131901779D01*
X92495462Y-131902462D01*
G37*
G36*
X94988631Y-131450025D02*
G01*
X95025541Y-131598853D01*
X95148175Y-131647669D01*
X95245806Y-131636953D01*
X95374394Y-131592900D01*
X95412494Y-131828644D01*
X95242234Y-131886984D01*
X95095788Y-131902462D01*
X94990715Y-131894128D01*
X94904097Y-131869125D01*
X94780272Y-131772684D01*
X94714787Y-131619094D01*
X94700500Y-131522058D01*
X94695737Y-131411925D01*
X94695737Y-130999969D01*
X94386175Y-130999969D01*
X94386175Y-130757081D01*
X94988631Y-130757081D01*
X94988631Y-131450025D01*
G37*
G36*
X144196635Y-87272767D02*
G01*
X144259319Y-86910175D01*
X144363128Y-86577813D01*
X144507913Y-86276063D01*
X144693523Y-86005309D01*
X144919807Y-85765935D01*
X145186617Y-85558323D01*
X145492057Y-85383707D01*
X145776530Y-85256843D01*
X146043154Y-85165038D01*
X146308239Y-85104500D01*
X146588094Y-85071438D01*
X146875865Y-85062026D01*
X147142987Y-85068927D01*
X147380929Y-85092167D01*
X147610565Y-85135023D01*
X147852770Y-85200766D01*
X147943335Y-85229451D01*
X148138182Y-85300910D01*
X148350626Y-85392340D01*
X148569114Y-85497664D01*
X148782093Y-85610802D01*
X148978011Y-85725673D01*
X149145314Y-85836201D01*
X149250884Y-85917489D01*
X149336799Y-85990326D01*
X149166784Y-86101867D01*
X148996539Y-86228793D01*
X148837454Y-86375877D01*
X148700855Y-86531203D01*
X148598069Y-86682859D01*
X148577608Y-86721582D01*
X148534792Y-86816134D01*
X148508179Y-86900161D01*
X148493067Y-86994056D01*
X148484756Y-87118210D01*
X148484426Y-87125780D01*
X148483193Y-87270305D01*
X148494652Y-87403525D01*
X148521654Y-87538590D01*
X148567055Y-87688648D01*
X148633708Y-87866848D01*
X148658715Y-87928837D01*
X148698955Y-88032110D01*
X148728105Y-88116311D01*
X148742766Y-88170989D01*
X148742400Y-88186238D01*
X148709774Y-88196375D01*
X148641785Y-88212325D01*
X148563820Y-88228490D01*
X148402385Y-88260206D01*
X148417097Y-88366814D01*
X148492454Y-88793064D01*
X148595222Y-89179843D01*
X148724819Y-89525302D01*
X148868980Y-89807983D01*
X148944632Y-89936290D01*
X148873807Y-89963218D01*
X148726049Y-90005980D01*
X148544879Y-90038046D01*
X148347794Y-90057910D01*
X148152291Y-90064067D01*
X147975865Y-90055011D01*
X147910489Y-90046110D01*
X147760303Y-90013441D01*
X147573379Y-89961189D01*
X147359507Y-89892383D01*
X147128477Y-89810051D01*
X147043992Y-89778069D01*
X146896542Y-89723491D01*
X146751202Y-89673418D01*
X146621283Y-89632182D01*
X146520095Y-89604116D01*
X146487882Y-89597014D01*
X146336590Y-89577650D01*
X146150979Y-89568254D01*
X145947450Y-89568629D01*
X145742407Y-89578581D01*
X145552253Y-89597913D01*
X145479124Y-89609065D01*
X145301420Y-89644459D01*
X145092840Y-89693722D01*
X144870790Y-89752153D01*
X144652676Y-89815050D01*
X144455904Y-89877711D01*
X144361571Y-89910928D01*
X144266894Y-89945367D01*
X144192364Y-89971595D01*
X144149982Y-89985423D01*
X144144910Y-89986558D01*
X144149787Y-89965565D01*
X144173520Y-89910373D01*
X144211063Y-89832658D01*
X144213447Y-89827925D01*
X144290887Y-89637148D01*
X144340443Y-89434328D01*
X144358233Y-89238342D01*
X144353698Y-89145927D01*
X144343524Y-89068155D01*
X144325990Y-88951710D01*
X144303045Y-88808806D01*
X144276633Y-88651658D01*
X144256836Y-88538086D01*
X144195243Y-88087105D01*
X144178475Y-87733686D01*
X144398130Y-87733686D01*
X144407024Y-87898389D01*
X144429363Y-88079816D01*
X144466100Y-88290496D01*
X144495129Y-88434623D01*
X144550180Y-88762658D01*
X144570790Y-89059460D01*
X144556879Y-89332471D01*
X144508364Y-89589130D01*
X144481444Y-89682016D01*
X144474806Y-89715755D01*
X144495092Y-89715601D01*
X144526116Y-89700259D01*
X144574870Y-89671531D01*
X144652521Y-89622620D01*
X144745143Y-89562361D01*
X144780753Y-89538735D01*
X144905888Y-89446634D01*
X144971114Y-89391650D01*
X145304436Y-89391650D01*
X145341693Y-89383938D01*
X145412036Y-89364127D01*
X145499724Y-89337204D01*
X145589015Y-89308155D01*
X145664167Y-89281967D01*
X145709438Y-89263628D01*
X145710804Y-89262916D01*
X145755775Y-89250091D01*
X145842023Y-89234962D01*
X145959230Y-89219000D01*
X146097078Y-89203678D01*
X146182076Y-89195694D01*
X146384437Y-89175286D01*
X146541805Y-89152386D01*
X146660917Y-89124809D01*
X146748511Y-89090369D01*
X146811324Y-89046882D01*
X146856093Y-88992162D01*
X146866812Y-88973601D01*
X146900685Y-88868740D01*
X146911763Y-88734502D01*
X146900418Y-88587763D01*
X146867022Y-88445402D01*
X146854427Y-88410300D01*
X146826991Y-88332826D01*
X146812285Y-88276523D01*
X146812358Y-88256719D01*
X146835841Y-88266540D01*
X146884314Y-88304900D01*
X146940176Y-88356679D01*
X147051701Y-88499874D01*
X147117150Y-88662875D01*
X147134521Y-88808805D01*
X147139455Y-88874989D01*
X147161107Y-88924988D01*
X147209760Y-88977019D01*
X147248087Y-89010044D01*
X147365739Y-89134142D01*
X147438094Y-89275392D01*
X147469004Y-89442283D01*
X147470774Y-89500582D01*
X147470774Y-89670779D01*
X147593635Y-89748969D01*
X147792030Y-89846000D01*
X148021728Y-89906409D01*
X148276331Y-89928999D01*
X148498721Y-89918511D01*
X148654827Y-89902194D01*
X148566646Y-89716510D01*
X148503660Y-89561497D01*
X148441317Y-89366618D01*
X148382699Y-89143681D01*
X148330886Y-88904495D01*
X148288961Y-88660867D01*
X148286128Y-88641548D01*
X148263434Y-88487282D01*
X148245686Y-88376947D01*
X148230839Y-88303220D01*
X148216844Y-88258775D01*
X148201655Y-88236288D01*
X148183225Y-88228435D01*
X148170472Y-88227699D01*
X148108897Y-88213025D01*
X148018907Y-88173612D01*
X147913004Y-88116372D01*
X147803690Y-88048220D01*
X147703468Y-87976067D01*
X147677698Y-87955222D01*
X147549464Y-87854572D01*
X147443734Y-87788512D01*
X147349493Y-87752232D01*
X147255725Y-87740922D01*
X147194492Y-87744182D01*
X147103789Y-87748226D01*
X147054257Y-87739787D01*
X147048818Y-87722169D01*
X147090398Y-87698677D01*
X147140207Y-87682844D01*
X147264603Y-87659601D01*
X147389839Y-87659974D01*
X147525187Y-87685966D01*
X147679917Y-87739581D01*
X147863300Y-87822822D01*
X147920586Y-87851478D01*
X148093910Y-87935970D01*
X148231681Y-87994636D01*
X148341344Y-88030413D01*
X148408401Y-88043828D01*
X148490122Y-88051235D01*
X148543458Y-88048951D01*
X148557128Y-88040925D01*
X148545275Y-88010930D01*
X148512808Y-87944854D01*
X148464368Y-87851770D01*
X148404592Y-87740745D01*
X148389487Y-87713187D01*
X148319743Y-87584471D01*
X148252555Y-87457120D01*
X148195416Y-87345542D01*
X148155821Y-87264146D01*
X148154801Y-87261925D01*
X148117448Y-87186000D01*
X148082064Y-87139736D01*
X148038095Y-87121116D01*
X147974982Y-87128125D01*
X147882172Y-87158750D01*
X147794094Y-87193076D01*
X147687868Y-87232638D01*
X147605641Y-87258281D01*
X147552814Y-87269182D01*
X147534792Y-87264519D01*
X147556976Y-87243469D01*
X147588784Y-87224323D01*
X147664903Y-87178391D01*
X147731045Y-87133598D01*
X147773217Y-87099379D01*
X147776024Y-87076609D01*
X147742362Y-87046640D01*
X147612469Y-86968372D01*
X147447176Y-86903774D01*
X147261992Y-86857329D01*
X147072426Y-86833519D01*
X146997454Y-86831340D01*
X146753528Y-86852188D01*
X146524776Y-86911131D01*
X146317993Y-87004549D01*
X146139978Y-87128823D01*
X145997526Y-87280333D01*
X145920482Y-87404883D01*
X145875479Y-87504656D01*
X145851312Y-87591523D01*
X145842090Y-87691322D01*
X145841242Y-87752413D01*
X145847162Y-87867660D01*
X145862611Y-87981420D01*
X145882015Y-88061464D01*
X145902143Y-88128342D01*
X145909645Y-88185710D01*
X145904398Y-88251933D01*
X145886276Y-88345378D01*
X145879892Y-88374366D01*
X145818769Y-88574000D01*
X145724631Y-88786798D01*
X145606313Y-88995512D01*
X145472648Y-89182895D01*
X145454417Y-89205013D01*
X145387603Y-89285374D01*
X145336476Y-89348376D01*
X145307939Y-89385431D01*
X145304436Y-89391650D01*
X144971114Y-89391650D01*
X145041158Y-89332604D01*
X145177514Y-89205742D01*
X145305912Y-89075147D01*
X145417303Y-88949915D01*
X145502642Y-88839146D01*
X145544065Y-88771114D01*
X145600930Y-88653745D01*
X145633459Y-88567147D01*
X145642516Y-88496909D01*
X145628964Y-88428623D01*
X145593664Y-88347879D01*
X145571937Y-88305595D01*
X145499730Y-88150102D01*
X145634318Y-88150102D01*
X145643781Y-88171392D01*
X145651561Y-88167346D01*
X145654657Y-88136649D01*
X145651561Y-88132858D01*
X145636184Y-88136409D01*
X145634318Y-88150102D01*
X145499730Y-88150102D01*
X145483674Y-88115526D01*
X145429848Y-87941727D01*
X145413699Y-87821949D01*
X145561050Y-87821949D01*
X145585255Y-87971983D01*
X145620640Y-88111304D01*
X145637636Y-87826782D01*
X145648335Y-87698093D01*
X145663681Y-87577235D01*
X145681334Y-87480508D01*
X145693664Y-87436283D01*
X145793867Y-87222261D01*
X145925031Y-87045087D01*
X146091146Y-86901181D01*
X146296202Y-86786964D01*
X146501919Y-86711210D01*
X146608437Y-86686170D01*
X146734307Y-86671630D01*
X146893258Y-86666221D01*
X146953462Y-86666196D01*
X147081017Y-86668098D01*
X147181593Y-86674014D01*
X147271496Y-86686765D01*
X147367030Y-86709176D01*
X147484499Y-86744069D01*
X147580076Y-86774695D01*
X147735305Y-86822281D01*
X147885434Y-86863272D01*
X148021931Y-86895835D01*
X148136264Y-86918132D01*
X148219901Y-86928331D01*
X148264307Y-86924594D01*
X148267274Y-86922509D01*
X148258053Y-86911171D01*
X148231653Y-86908429D01*
X148190664Y-86900198D01*
X148110835Y-86877612D01*
X148002049Y-86843696D01*
X147874193Y-86801471D01*
X147809448Y-86779312D01*
X147582195Y-86703774D01*
X147390489Y-86647835D01*
X147223039Y-86609138D01*
X147068551Y-86585326D01*
X146915733Y-86574041D01*
X146817726Y-86572302D01*
X146542196Y-86593042D01*
X146295471Y-86654611D01*
X146079268Y-86756032D01*
X145895307Y-86896326D01*
X145745305Y-87074516D01*
X145655574Y-87233610D01*
X145593546Y-87414740D01*
X145561362Y-87617949D01*
X145561050Y-87821949D01*
X145413699Y-87821949D01*
X145406178Y-87766163D01*
X145406283Y-87607906D01*
X145436349Y-87386513D01*
X145506658Y-87184552D01*
X145620893Y-86994356D01*
X145782732Y-86808258D01*
X145796979Y-86794167D01*
X145955940Y-86654036D01*
X146115295Y-86549764D01*
X146292827Y-86471436D01*
X146472620Y-86417517D01*
X146725864Y-86375727D01*
X147003834Y-86370344D01*
X147296069Y-86399850D01*
X147592110Y-86462728D01*
X147881499Y-86557461D01*
X148097276Y-86653193D01*
X148175430Y-86691541D01*
X148233508Y-86718375D01*
X148257554Y-86727495D01*
X148277048Y-86707679D01*
X148315815Y-86655960D01*
X148360914Y-86590289D01*
X148441912Y-86484125D01*
X148550214Y-86363757D01*
X148671997Y-86242812D01*
X148793437Y-86134919D01*
X148900710Y-86053705D01*
X148913734Y-86045289D01*
X148973892Y-86001261D01*
X149007024Y-85964582D01*
X149009126Y-85950476D01*
X148975296Y-85918128D01*
X148906008Y-85866941D01*
X148810979Y-85803279D01*
X148699931Y-85733501D01*
X148582581Y-85663971D01*
X148505397Y-85620760D01*
X148141462Y-85446236D01*
X147773902Y-85315614D01*
X147406482Y-85228625D01*
X147042966Y-85184999D01*
X146687121Y-85184465D01*
X146342710Y-85226752D01*
X146013500Y-85311592D01*
X145703255Y-85438712D01*
X145415740Y-85607844D01*
X145154720Y-85818717D01*
X145107235Y-85864672D01*
X144888468Y-86118748D01*
X144709542Y-86405316D01*
X144570330Y-86724657D01*
X144470705Y-87077052D01*
X144416875Y-87404343D01*
X144401731Y-87573180D01*
X144398130Y-87733686D01*
X144178475Y-87733686D01*
X144175226Y-87665205D01*
X144196635Y-87272767D01*
G37*
G36*
X79510434Y-109776131D02*
G01*
X79580681Y-109885669D01*
X79614019Y-110048784D01*
X79620270Y-110146118D01*
X79622353Y-110250000D01*
X79620270Y-110353584D01*
X79614019Y-110450025D01*
X79580681Y-110613141D01*
X79509244Y-110723869D01*
X79388991Y-110764350D01*
X79267547Y-110723869D01*
X79197300Y-110614331D01*
X79163963Y-110451216D01*
X79157712Y-110353882D01*
X79155628Y-110250000D01*
X79157712Y-110146416D01*
X79163963Y-110049975D01*
X79197300Y-109886859D01*
X79267547Y-109776131D01*
X79388991Y-109735650D01*
X79510434Y-109776131D01*
G37*
G36*
X77161728Y-108984762D02*
G01*
X86338272Y-108984762D01*
X86338272Y-111515237D01*
X77161728Y-111515237D01*
X77161728Y-110988187D01*
X77657822Y-110988187D01*
X77926903Y-110988187D01*
X77914997Y-109842806D01*
X78088828Y-110466694D01*
X78303141Y-110466694D01*
X78484116Y-109842806D01*
X78469828Y-110988187D01*
X78738909Y-110988187D01*
X78733552Y-110799771D01*
X78727003Y-110615522D01*
X78718966Y-110433952D01*
X78709144Y-110253572D01*
X78708909Y-110250000D01*
X78857972Y-110250000D01*
X78866529Y-110428817D01*
X78892202Y-110584268D01*
X78934990Y-110716353D01*
X78994894Y-110825072D01*
X79099801Y-110932890D01*
X79231960Y-110997580D01*
X79391372Y-111019144D01*
X79546947Y-110997580D01*
X79677122Y-110932890D01*
X79702063Y-110907225D01*
X80079553Y-110907225D01*
X80243859Y-110979853D01*
X80371852Y-111009321D01*
X80536753Y-111019144D01*
X80703838Y-111006576D01*
X80770232Y-110988187D01*
X81324947Y-110988187D01*
X81617841Y-110988187D01*
X82515572Y-110988187D01*
X83460928Y-110988187D01*
X83460928Y-110745300D01*
X82808466Y-110745300D01*
X82808466Y-110330962D01*
X83329959Y-110330962D01*
X83329959Y-110088075D01*
X82808466Y-110088075D01*
X82808466Y-109757081D01*
X83408541Y-109757081D01*
X83615709Y-109757081D01*
X84003853Y-109757081D01*
X84003853Y-110988187D01*
X84299128Y-110988187D01*
X84299128Y-110907225D01*
X84842053Y-110907225D01*
X85006359Y-110979853D01*
X85134352Y-111009321D01*
X85299253Y-111019144D01*
X85466337Y-111006576D01*
X85602466Y-110968873D01*
X85707637Y-110906034D01*
X85808543Y-110769410D01*
X85842178Y-110585756D01*
X85832058Y-110474730D01*
X85801697Y-110384541D01*
X85698112Y-110251191D01*
X85560000Y-110165466D01*
X85415934Y-110107125D01*
X85324256Y-110071406D01*
X85240913Y-110027353D01*
X85180191Y-109970203D01*
X85156378Y-109895194D01*
X85182307Y-109801267D01*
X85260095Y-109744910D01*
X85389741Y-109726125D01*
X85557619Y-109749937D01*
X85689778Y-109807087D01*
X85775503Y-109580869D01*
X85605244Y-109511812D01*
X85495409Y-109488595D01*
X85368309Y-109480856D01*
X85222392Y-109493821D01*
X85098964Y-109532715D01*
X84998025Y-109597537D01*
X84897120Y-109736841D01*
X84863484Y-109921387D01*
X84901584Y-110096409D01*
X84998025Y-110214281D01*
X85127803Y-110292862D01*
X85265916Y-110347631D01*
X85365928Y-110389303D01*
X85456416Y-110439309D01*
X85523091Y-110502412D01*
X85549284Y-110583375D01*
X85538569Y-110653622D01*
X85499278Y-110715534D01*
X85421888Y-110758397D01*
X85299253Y-110773875D01*
X85180488Y-110765541D01*
X85081369Y-110740537D01*
X84927778Y-110669100D01*
X84842053Y-110907225D01*
X84299128Y-110907225D01*
X84299128Y-109757081D01*
X84687272Y-109757081D01*
X84687272Y-109514194D01*
X83615709Y-109514194D01*
X83615709Y-109757081D01*
X83408541Y-109757081D01*
X83408541Y-109514194D01*
X82515572Y-109514194D01*
X82515572Y-110988187D01*
X81617841Y-110988187D01*
X81617841Y-110357156D01*
X82151241Y-110357156D01*
X82151241Y-110114269D01*
X81617841Y-110114269D01*
X81617841Y-109757081D01*
X82227441Y-109757081D01*
X82227441Y-109514194D01*
X81324947Y-109514194D01*
X81324947Y-110988187D01*
X80770232Y-110988187D01*
X80839966Y-110968873D01*
X80945137Y-110906034D01*
X81046043Y-110769410D01*
X81079678Y-110585756D01*
X81069558Y-110474730D01*
X81039197Y-110384541D01*
X80935613Y-110251191D01*
X80797500Y-110165466D01*
X80653434Y-110107125D01*
X80561756Y-110071406D01*
X80478413Y-110027353D01*
X80417691Y-109970203D01*
X80393878Y-109895194D01*
X80419807Y-109801267D01*
X80497595Y-109744910D01*
X80627241Y-109726125D01*
X80795119Y-109749937D01*
X80927278Y-109807087D01*
X81013003Y-109580869D01*
X80842744Y-109511812D01*
X80732909Y-109488595D01*
X80605809Y-109480856D01*
X80459892Y-109493821D01*
X80336464Y-109532715D01*
X80235525Y-109597537D01*
X80134620Y-109736841D01*
X80100984Y-109921387D01*
X80139084Y-110096409D01*
X80235525Y-110214281D01*
X80365303Y-110292862D01*
X80503416Y-110347631D01*
X80603428Y-110389303D01*
X80693916Y-110439309D01*
X80760591Y-110502412D01*
X80786784Y-110583375D01*
X80776069Y-110653622D01*
X80736778Y-110715534D01*
X80659388Y-110758397D01*
X80536753Y-110773875D01*
X80417988Y-110765541D01*
X80318869Y-110740537D01*
X80165278Y-110669100D01*
X80079553Y-110907225D01*
X79702063Y-110907225D01*
X79781897Y-110825072D01*
X79842321Y-110716353D01*
X79885481Y-110584268D01*
X79911377Y-110428817D01*
X79920009Y-110250000D01*
X79911526Y-110071183D01*
X79886077Y-109915732D01*
X79843661Y-109783647D01*
X79784278Y-109674928D01*
X79680032Y-109567110D01*
X79548270Y-109502420D01*
X79388991Y-109480856D01*
X79234474Y-109502420D01*
X79104299Y-109567110D01*
X78998466Y-109674928D01*
X78937000Y-109783647D01*
X78893095Y-109915732D01*
X78866753Y-110071183D01*
X78857972Y-110250000D01*
X78708909Y-110250000D01*
X78697237Y-110072895D01*
X78682950Y-109890431D01*
X78667174Y-109704694D01*
X78650803Y-109514194D01*
X78407916Y-109514194D01*
X78365053Y-109640400D01*
X78312666Y-109803516D01*
X78253134Y-109984491D01*
X78193603Y-110166656D01*
X78138834Y-109995206D01*
X78081684Y-109811850D01*
X78028106Y-109642781D01*
X77986434Y-109514194D01*
X77743547Y-109514194D01*
X77727771Y-109675523D01*
X77713781Y-109849950D01*
X77701577Y-110033902D01*
X77691159Y-110223806D01*
X77681932Y-110417283D01*
X77673300Y-110611950D01*
X77665263Y-110803641D01*
X77657822Y-110988187D01*
X77161728Y-110988187D01*
X77161728Y-108984762D01*
G37*
X106730000Y-100870000D02*
X113270000Y-100870000D01*
X113270000Y-100870000D02*
X113270000Y-98130000D01*
X105960000Y-99500000D02*
X106730000Y-99500000D01*
X106730000Y-98130000D02*
X106730000Y-100870000D01*
X113270000Y-98130000D02*
X106730000Y-98130000D01*
X114040000Y-99500000D02*
X113270000Y-99500000D01*
X113270000Y-111870000D02*
X113270000Y-109130000D01*
X105960000Y-110500000D02*
X106730000Y-110500000D01*
X114040000Y-110500000D02*
X113270000Y-110500000D01*
X113270000Y-109130000D02*
X106730000Y-109130000D01*
X106730000Y-111870000D02*
X113270000Y-111870000D01*
X106730000Y-109130000D02*
X106730000Y-111870000D01*
D12*
X98045290Y-83995290D02*
X98045290Y-106855290D01*
X80900290Y-83995290D02*
X98045290Y-83995290D01*
X98045290Y-106855290D02*
X80900290Y-106855290D01*
X80900290Y-106855290D02*
X80900290Y-83995290D01*
D13*
X96775290Y-85265290D02*
X94235290Y-85265290D01*
X94235290Y-85265290D02*
X94235290Y-105585290D01*
X94235290Y-105585290D02*
X96775290Y-105585290D01*
X96775290Y-105585290D02*
X96775290Y-85265290D01*
D15*
X98950000Y-107363290D02*
G75*
G03*
X98950000Y-107363290I-396710J0D01*
G01*
G36*
X105914966Y-81933325D02*
G01*
X105991166Y-81965472D01*
X105991166Y-82575072D01*
X105926872Y-82582216D01*
X105860197Y-82584597D01*
X105753338Y-82560784D01*
X105680413Y-82489347D01*
X105638443Y-82380405D01*
X105624453Y-82244078D01*
X105636359Y-82105370D01*
X105672078Y-82003572D01*
X105733991Y-81941064D01*
X105824478Y-81920228D01*
X105914966Y-81933325D01*
G37*
G36*
X103515856Y-81780925D02*
G01*
X103553956Y-81928562D01*
X103586103Y-82075009D01*
X103614678Y-82227409D01*
X103326547Y-82227409D01*
X103356313Y-82075009D01*
X103389650Y-81928562D01*
X103427750Y-81780925D01*
X103471803Y-81622572D01*
X103515856Y-81780925D01*
G37*
G36*
X102404209Y-80662134D02*
G01*
X117595791Y-80662134D01*
X117595791Y-83337866D01*
X102404209Y-83337866D01*
X102404209Y-82810816D01*
X102900303Y-82810816D01*
X103205103Y-82810816D01*
X103271778Y-82470297D01*
X103664684Y-82470297D01*
X103733741Y-82810816D01*
X104048066Y-82810816D01*
X104281428Y-82810816D01*
X104576703Y-82810816D01*
X104576703Y-82258366D01*
X105326797Y-82258366D01*
X105341746Y-82425053D01*
X105386593Y-82566341D01*
X105461338Y-82682228D01*
X105565186Y-82768218D01*
X105697346Y-82819811D01*
X105857816Y-82837009D01*
X105970925Y-82832842D01*
X106086416Y-82820341D01*
X106194167Y-82801291D01*
X106284059Y-82777478D01*
X106284059Y-82315516D01*
X106591241Y-82315516D01*
X106596003Y-82425053D01*
X106610291Y-82525066D01*
X106680538Y-82690562D01*
X106819841Y-82798909D01*
X106920448Y-82827484D01*
X107046059Y-82837009D01*
X107176730Y-82831652D01*
X107297281Y-82815578D01*
X107404140Y-82794147D01*
X107493734Y-82772716D01*
X107493734Y-81934516D01*
X107727097Y-81934516D01*
X108036659Y-81934516D01*
X108036659Y-82346472D01*
X108041422Y-82456605D01*
X108055709Y-82553641D01*
X108121194Y-82707231D01*
X108131909Y-82715576D01*
X108245019Y-82803672D01*
X108331637Y-82828675D01*
X108436709Y-82837009D01*
X108583156Y-82821531D01*
X108614427Y-82810816D01*
X108982016Y-82810816D01*
X109274909Y-82810816D01*
X109274909Y-81932134D01*
X109342775Y-81924991D01*
X109408259Y-81922609D01*
X109553516Y-81991666D01*
X109580305Y-82082748D01*
X109589234Y-82217884D01*
X109589234Y-82810816D01*
X109882128Y-82810816D01*
X109882128Y-82248841D01*
X110091678Y-82248841D01*
X110101203Y-82375940D01*
X110129778Y-82490537D01*
X110175915Y-82591443D01*
X110238125Y-82677466D01*
X110314920Y-82747117D01*
X110404813Y-82798909D01*
X110506909Y-82831056D01*
X110620316Y-82841772D01*
X110733723Y-82831056D01*
X110798003Y-82810816D01*
X112513409Y-82810816D01*
X112777728Y-82810816D01*
X112777728Y-81832122D01*
X112866231Y-81995502D01*
X112950766Y-82158618D01*
X113031331Y-82321469D01*
X113107928Y-82484320D01*
X113180556Y-82647435D01*
X113249216Y-82810816D01*
X113484959Y-82810816D01*
X113484959Y-82467916D01*
X113699272Y-82467916D01*
X113732609Y-82640556D01*
X113827859Y-82754856D01*
X113976688Y-82817959D01*
X114170759Y-82837009D01*
X114320183Y-82832247D01*
X114454128Y-82817959D01*
X114494946Y-82810816D01*
X114935141Y-82810816D01*
X115228034Y-82810816D01*
X115228034Y-81932134D01*
X115295900Y-81924991D01*
X115361384Y-81922609D01*
X115506641Y-81991666D01*
X115533430Y-82082748D01*
X115542359Y-82217884D01*
X115542359Y-82810816D01*
X115835253Y-82810816D01*
X115835253Y-82248841D01*
X116044803Y-82248841D01*
X116054328Y-82375940D01*
X116082903Y-82490537D01*
X116129040Y-82591443D01*
X116191250Y-82677466D01*
X116268045Y-82747117D01*
X116357938Y-82798909D01*
X116460034Y-82831056D01*
X116573441Y-82841772D01*
X116686848Y-82831056D01*
X116788944Y-82798909D01*
X116878538Y-82747117D01*
X116954441Y-82677466D01*
X117015758Y-82591443D01*
X117061597Y-82490537D01*
X117090172Y-82375940D01*
X117099697Y-82248841D01*
X117090172Y-82123527D01*
X117061597Y-82009525D01*
X117015460Y-81908917D01*
X116953250Y-81823787D01*
X116876455Y-81755327D01*
X116786563Y-81704725D01*
X116685062Y-81673471D01*
X116573441Y-81663053D01*
X116463308Y-81673471D01*
X116361509Y-81704725D01*
X116270724Y-81755327D01*
X116193631Y-81823787D01*
X116131123Y-81908917D01*
X116084094Y-82009525D01*
X116054626Y-82123527D01*
X116044803Y-82248841D01*
X115835253Y-82248841D01*
X115835253Y-82179784D01*
X115829895Y-82070545D01*
X115813822Y-81971425D01*
X115741194Y-81809500D01*
X115601891Y-81704725D01*
X115502473Y-81677043D01*
X115380434Y-81667816D01*
X115249763Y-81672578D01*
X115129213Y-81686866D01*
X115022949Y-81706511D01*
X114935141Y-81727347D01*
X114935141Y-82810816D01*
X114494946Y-82810816D01*
X114644628Y-82784622D01*
X114644628Y-82117872D01*
X114620816Y-81928562D01*
X114542234Y-81785687D01*
X114395788Y-81695200D01*
X114292501Y-81671090D01*
X114165997Y-81663053D01*
X114060627Y-81666923D01*
X113958828Y-81678531D01*
X113804047Y-81713059D01*
X113844528Y-81948803D01*
X113969544Y-81920228D01*
X114130278Y-81908322D01*
X114239816Y-81922312D01*
X114311253Y-81964281D01*
X114363641Y-82103584D01*
X114363641Y-82139303D01*
X114268986Y-82125016D01*
X114161234Y-82120253D01*
X113987403Y-82138112D01*
X113839766Y-82196453D01*
X113737372Y-82303609D01*
X113699272Y-82467916D01*
X113484959Y-82467916D01*
X113484959Y-81336822D01*
X113220641Y-81336822D01*
X113220641Y-82244078D01*
X113178671Y-82151209D01*
X113128963Y-82044053D01*
X113073003Y-81927967D01*
X113012281Y-81808309D01*
X112948285Y-81686568D01*
X112882503Y-81564231D01*
X112815828Y-81446062D01*
X112749153Y-81336822D01*
X112513409Y-81336822D01*
X112513409Y-82810816D01*
X110798003Y-82810816D01*
X110835819Y-82798909D01*
X110925413Y-82747117D01*
X111001316Y-82677466D01*
X111062633Y-82591443D01*
X111108472Y-82490537D01*
X111137047Y-82375940D01*
X111146572Y-82248841D01*
X111137047Y-82123527D01*
X111108472Y-82009525D01*
X111062335Y-81908917D01*
X111000125Y-81823787D01*
X110923330Y-81755327D01*
X110833438Y-81704725D01*
X110731937Y-81673471D01*
X110620316Y-81663053D01*
X110510183Y-81673471D01*
X110408384Y-81704725D01*
X110317599Y-81755327D01*
X110240506Y-81823787D01*
X110177998Y-81908917D01*
X110130969Y-82009525D01*
X110101501Y-82123527D01*
X110091678Y-82248841D01*
X109882128Y-82248841D01*
X109882128Y-82179784D01*
X109876770Y-82070545D01*
X109860697Y-81971425D01*
X109788069Y-81809500D01*
X109648766Y-81704725D01*
X109549348Y-81677043D01*
X109427309Y-81667816D01*
X109296638Y-81672578D01*
X109176088Y-81686866D01*
X109069824Y-81706511D01*
X108982016Y-81727347D01*
X108982016Y-82810816D01*
X108614427Y-82810816D01*
X108753416Y-82763191D01*
X108715316Y-82527447D01*
X108586728Y-82571500D01*
X108489097Y-82582216D01*
X108366463Y-82533400D01*
X108329553Y-82384572D01*
X108329553Y-81691628D01*
X108131909Y-81691628D01*
X108131909Y-82715576D01*
X108131909Y-81691628D01*
X107727097Y-81691628D01*
X107727097Y-81934516D01*
X107493734Y-81934516D01*
X107493734Y-81691628D01*
X107198459Y-81691628D01*
X107198459Y-82570309D01*
X107065109Y-82582216D01*
X106921044Y-82507206D01*
X106893362Y-82412254D01*
X106884134Y-82277416D01*
X106884134Y-81691628D01*
X106591241Y-81691628D01*
X106591241Y-82315516D01*
X106284059Y-82315516D01*
X106284059Y-81370159D01*
X107948553Y-81370159D01*
X108002131Y-81505891D01*
X108131909Y-81555897D01*
X108262878Y-81505891D01*
X108317647Y-81370159D01*
X108262878Y-81232047D01*
X108131909Y-81182041D01*
X108002131Y-81232047D01*
X107948553Y-81370159D01*
X106284059Y-81370159D01*
X106284059Y-81158228D01*
X105991166Y-81208234D01*
X105991166Y-81717822D01*
X105891153Y-81680912D01*
X105774472Y-81667816D01*
X105638873Y-81685410D01*
X105527351Y-81738195D01*
X105439906Y-81826169D01*
X105377068Y-81944570D01*
X105339365Y-82088635D01*
X105326797Y-82258366D01*
X104576703Y-82258366D01*
X104576703Y-81979759D01*
X104698147Y-81957137D01*
X104819591Y-81951184D01*
X104883884Y-81953566D01*
X104962466Y-81961900D01*
X105042238Y-81974997D01*
X105110103Y-81989284D01*
X105162491Y-81717822D01*
X105070813Y-81695200D01*
X104969609Y-81680912D01*
X104875550Y-81672578D01*
X104807684Y-81670197D01*
X104653796Y-81676745D01*
X104520744Y-81696391D01*
X104399598Y-81726752D01*
X104281428Y-81765447D01*
X104281428Y-82810816D01*
X104048066Y-82810816D01*
X104008775Y-82643699D01*
X103969008Y-82481441D01*
X103928765Y-82324040D01*
X103888046Y-82171498D01*
X103846850Y-82023812D01*
X103794983Y-81844698D01*
X103742968Y-81670495D01*
X103690804Y-81501203D01*
X103638491Y-81336822D01*
X103319403Y-81336822D01*
X103268950Y-81499863D01*
X103217605Y-81667518D01*
X103165366Y-81839787D01*
X103112234Y-82016669D01*
X103069467Y-82163116D01*
X103026890Y-82315754D01*
X102984504Y-82474583D01*
X102942308Y-82639604D01*
X102900303Y-82810816D01*
X102404209Y-82810816D01*
X102404209Y-80662134D01*
G37*
G36*
X114294584Y-82328612D02*
G01*
X114363641Y-82336947D01*
X114363641Y-82594122D01*
X114285059Y-82600075D01*
X114192191Y-82601266D01*
X114044553Y-82569119D01*
X113987403Y-82460772D01*
X114006453Y-82391716D01*
X114057650Y-82351234D01*
X114132659Y-82330994D01*
X114220766Y-82325041D01*
X114294584Y-82328612D01*
G37*
G36*
X116676132Y-81940766D02*
G01*
X116746081Y-82009525D01*
X116786265Y-82115788D01*
X116799659Y-82251222D01*
X116785074Y-82386953D01*
X116741319Y-82494109D01*
X116668988Y-82563761D01*
X116568678Y-82586978D01*
X116465987Y-82563761D01*
X116396037Y-82494109D01*
X116355854Y-82386953D01*
X116342459Y-82251222D01*
X116357045Y-82115788D01*
X116400800Y-82009525D01*
X116473130Y-81940766D01*
X116573441Y-81917847D01*
X116676132Y-81940766D01*
G37*
G36*
X110723007Y-81940766D02*
G01*
X110792956Y-82009525D01*
X110833140Y-82115788D01*
X110846534Y-82251222D01*
X110831949Y-82386953D01*
X110788194Y-82494109D01*
X110715863Y-82563761D01*
X110615553Y-82586978D01*
X110512862Y-82563761D01*
X110442913Y-82494109D01*
X110402729Y-82386953D01*
X110389334Y-82251222D01*
X110403920Y-82115788D01*
X110447675Y-82009525D01*
X110520005Y-81940766D01*
X110620316Y-81917847D01*
X110723007Y-81940766D01*
G37*
G36*
X91730482Y-127184477D02*
G01*
X91629941Y-127078644D01*
X91572642Y-126970892D01*
X91531714Y-126838138D01*
X91507157Y-126680380D01*
X91498972Y-126497619D01*
X91763291Y-126497619D01*
X91770434Y-126653855D01*
X91791866Y-126782840D01*
X91827584Y-126884572D01*
X91905570Y-126983691D01*
X92010941Y-127016731D01*
X92117799Y-126983691D01*
X92195488Y-126884572D01*
X92230545Y-126782840D01*
X92251579Y-126653855D01*
X92258591Y-126497619D01*
X92251579Y-126342705D01*
X92230545Y-126214515D01*
X92195488Y-126113047D01*
X92117799Y-126013927D01*
X92010941Y-125980887D01*
X91905570Y-126013927D01*
X91827584Y-126113047D01*
X91791866Y-126214515D01*
X91770434Y-126342705D01*
X91763291Y-126497619D01*
X91498972Y-126497619D01*
X91507306Y-126316941D01*
X91532309Y-126160672D01*
X91573981Y-126028810D01*
X91632322Y-125921356D01*
X91733657Y-125815523D01*
X91859864Y-125752023D01*
X92010941Y-125730856D01*
X92164399Y-125751891D01*
X92291399Y-125814994D01*
X92391941Y-125920166D01*
X92449239Y-126027247D01*
X92490167Y-126159184D01*
X92514724Y-126315974D01*
X92522909Y-126497619D01*
X92514724Y-126680380D01*
X92490167Y-126838138D01*
X92449239Y-126970892D01*
X92391941Y-127078644D01*
X92291399Y-127184477D01*
X92164399Y-127247977D01*
X92010941Y-127269144D01*
X91857482Y-127247977D01*
X91730482Y-127184477D01*
G37*
G36*
X92107381Y-126361887D02*
G01*
X92144291Y-126473806D01*
X92107381Y-126584534D01*
X92013322Y-126630969D01*
X91915691Y-126584534D01*
X91879972Y-126473806D01*
X91915691Y-126361887D01*
X92013322Y-126314262D01*
X92107381Y-126361887D01*
G37*
G36*
X90970334Y-126895287D02*
G01*
X91034628Y-127050069D01*
X90970334Y-127209612D01*
X90822697Y-127264381D01*
X90741734Y-127250094D01*
X90673869Y-127208422D01*
X90626244Y-127141747D01*
X90608384Y-127050069D01*
X90626244Y-126960772D01*
X90673869Y-126895287D01*
X90741734Y-126854806D01*
X90822697Y-126840519D01*
X90970334Y-126895287D01*
G37*
G36*
X88207787Y-126212464D02*
G01*
X88235469Y-126311881D01*
X88266127Y-126414573D01*
X88298572Y-126517859D01*
X88332207Y-126619955D01*
X88366438Y-126719075D01*
X88431922Y-126897669D01*
X88500978Y-126719075D01*
X88538780Y-126619955D01*
X88575988Y-126517859D01*
X88612302Y-126414573D01*
X88647425Y-126311881D01*
X88678679Y-126212464D01*
X88703384Y-126119000D01*
X89001041Y-126119000D01*
X88949695Y-126284720D01*
X88895670Y-126443743D01*
X88838967Y-126596069D01*
X88779584Y-126741697D01*
X88700209Y-126923333D01*
X88624009Y-127088830D01*
X88550984Y-127238187D01*
X88305716Y-127238187D01*
X88233881Y-127088830D01*
X88161253Y-126923333D01*
X88087831Y-126741697D01*
X88033137Y-126596069D01*
X87979782Y-126443743D01*
X87927767Y-126284720D01*
X87877091Y-126119000D01*
X88184272Y-126119000D01*
X88207787Y-126212464D01*
G37*
G36*
X89834478Y-126995300D02*
G01*
X90127372Y-126995300D01*
X90127372Y-127238187D01*
X89232022Y-127238187D01*
X89232022Y-126995300D01*
X89541584Y-126995300D01*
X89541584Y-126171387D01*
X89389184Y-126255922D01*
X89243928Y-126314262D01*
X89148678Y-126071375D01*
X89272503Y-126016606D01*
X89405853Y-125942787D01*
X89532059Y-125857062D01*
X89634453Y-125764194D01*
X89834478Y-125764194D01*
X89834478Y-126995300D01*
G37*
D13*
X77990000Y-114930000D02*
X83130000Y-114930000D01*
X77990000Y-112270000D02*
X83130000Y-112270000D01*
X77990000Y-114930000D02*
X77990000Y-112270000D01*
X84340000Y-112300000D02*
X85670000Y-112300000D01*
X85670000Y-112300000D02*
X85670000Y-113630000D01*
X83130000Y-114930000D02*
X83130000Y-112270000D01*
G36*
X102600221Y-78620901D02*
G01*
X101599779Y-78620901D01*
X101599779Y-78179099D01*
X102600221Y-78179099D01*
X102600221Y-78620901D01*
G37*
X109520000Y-73750000D02*
X103520000Y-73750000D01*
X109520000Y-79750000D02*
X109520000Y-73750000D01*
X103520000Y-79750000D02*
X109520000Y-79750000D01*
X103520000Y-73750000D02*
X103520000Y-79750000D01*
%LPC*%
D16*
X77740000Y-77500000D03*
D17*
X97047000Y-113596000D03*
D18*
X94507000Y-113596000D03*
D19*
X91967000Y-113596000D03*
D20*
X104920000Y-105000000D03*
D21*
X115080000Y-105000000D03*
D22*
X124727013Y-123240000D03*
D19*
X124727013Y-125780000D03*
X139332013Y-113080000D03*
X136792013Y-113080000D03*
X134252013Y-113080000D03*
X131712013Y-113080000D03*
X129172013Y-113080000D03*
X126632013Y-113080000D03*
D20*
X104920000Y-116500000D03*
D21*
X115080000Y-116500000D03*
D22*
X102385000Y-88000000D03*
D19*
X102385000Y-90540000D03*
X102385000Y-93080000D03*
X102385000Y-95620000D03*
X102385000Y-98160000D03*
X102385000Y-100700000D03*
X102385000Y-103240000D03*
X102385000Y-105780000D03*
X102385000Y-108320000D03*
X102385000Y-110860000D03*
X102385000Y-113400000D03*
X102385000Y-115940000D03*
X102385000Y-118480000D03*
X102385000Y-121020000D03*
X102385000Y-123560000D03*
X117625000Y-123560000D03*
X117625000Y-121020000D03*
X117625000Y-118480000D03*
X117625000Y-115940000D03*
X117625000Y-113400000D03*
X117625000Y-110860000D03*
X117625000Y-108320000D03*
X117625000Y-105780000D03*
X117625000Y-103240000D03*
X117625000Y-100700000D03*
X117625000Y-98160000D03*
X117625000Y-95620000D03*
X117625000Y-93080000D03*
X117625000Y-90540000D03*
X117625000Y-88000000D03*
D20*
X104920000Y-94400000D03*
D21*
X115080000Y-94400000D03*
D23*
X88040000Y-76250000D03*
D24*
X85500000Y-76250000D03*
D25*
X78140000Y-90000000D03*
D18*
X75600000Y-90000000D03*
D26*
X137000000Y-122182380D03*
D20*
X137000000Y-119682380D03*
D23*
X137740000Y-76250000D03*
D24*
X135200000Y-76250000D03*
D20*
X104920000Y-89300000D03*
D21*
X115080000Y-89300000D03*
D16*
X145740000Y-77500000D03*
X145740000Y-128500000D03*
D25*
X78140000Y-86000000D03*
D18*
X75600000Y-86000000D03*
D17*
X84455000Y-119750000D03*
D18*
X81915000Y-119750000D03*
D19*
X79375000Y-119750000D03*
D17*
X97070000Y-119725000D03*
D18*
X94530000Y-119725000D03*
D19*
X91990000Y-119725000D03*
D16*
X77740000Y-128500000D03*
D20*
X104920000Y-99500000D03*
D21*
X115080000Y-99500000D03*
D20*
X104920000Y-110500000D03*
D21*
X115080000Y-110500000D03*
D25*
X95505290Y-104315290D03*
D19*
X95505290Y-101775290D03*
X95505290Y-99235290D03*
X95505290Y-96695290D03*
X95505290Y-94155290D03*
X95505290Y-91615290D03*
X95505290Y-89075290D03*
X95505290Y-86535290D03*
D17*
X84400000Y-113600000D03*
D18*
X81860000Y-113600000D03*
D19*
X79320000Y-113600000D03*
D27*
X106600000Y-76750000D03*
M02*
