M48
; DRILL file {KiCad (6.0.10)} date Wed May  3 21:15:54 2023
; FORMAT={-:-/ absolute / metric / decimal}
; #@! TF.CreationDate,2023-05-03T21:15:54-04:00
; #@! TF.GenerationSoftware,Kicad,Pcbnew,(6.0.10)
; #@! TF.FileFunction,Plated,1,2,PTH
FMAT,2
METRIC
; #@! TA.AperFunction,Plated,PTH,ViaDrill
T1C0.400
; #@! TA.AperFunction,Plated,PTH,ComponentDrill
T2C0.800
; #@! TA.AperFunction,Plated,PTH,ComponentDrill
T3C0.900
; #@! TA.AperFunction,Plated,PTH,ComponentDrill
T4C1.000
; #@! TA.AperFunction,Plated,PTH,ComponentDrill
T5C3.200
%
G90
G05
T1
X77.5Y-108.0
X81.5Y-87.8
X82.0Y-86.5
X82.1Y-89.1
X82.5Y-108.0
X86.0Y-106.1
X93.1Y-87.8
X93.1Y-106.1
X98.5Y-93.4
X98.5Y-96.5
X98.6Y-101.275
X98.6Y-103.3
X99.4Y-110.6
X99.4Y-116.424
X99.5Y-94.5
X100.5Y-95.7
X103.75Y-112.25
X103.77Y-114.67
X106.0Y-112.25
X106.0Y-114.7
X108.5Y-86.0
X119.65Y-112.25
X119.65Y-114.7
X123.65Y-112.25
X123.65Y-114.75
X128.3Y-115.5
X129.7Y-117.9
X129.7Y-127.7
X131.712Y-117.388
X131.712Y-125.888
X133.3Y-117.9
X133.3Y-124.1
X135.3Y-115.5
X136.2Y-94.3
X137.3Y-83.1
T2
X104.92Y-89.3
X104.92Y-94.4
X104.92Y-99.5
X104.92Y-105.0
X104.92Y-110.5
X104.92Y-116.5
X115.08Y-89.3
X115.08Y-94.4
X115.08Y-99.5
X115.08Y-105.0
X115.08Y-110.5
X115.08Y-116.5
X137.0Y-119.682
X137.0Y-122.182
T3
X85.5Y-76.25
X88.04Y-76.25
X135.2Y-76.25
X137.74Y-76.25
T4
X75.6Y-86.0
X75.6Y-90.0
X78.14Y-86.0
X78.14Y-90.0
X79.32Y-113.6
X79.375Y-119.75
X81.86Y-113.6
X81.915Y-119.75
X84.4Y-113.6
X84.455Y-119.75
X91.967Y-113.596
X91.99Y-119.725
X94.507Y-113.596
X94.53Y-119.725
X95.505Y-86.535
X95.505Y-89.075
X95.505Y-91.615
X95.505Y-94.155
X95.505Y-96.695
X95.505Y-99.235
X95.505Y-101.775
X95.505Y-104.315
X97.047Y-113.596
X97.07Y-119.725
X102.385Y-88.0
X102.385Y-90.54
X102.385Y-93.08
X102.385Y-95.62
X102.385Y-98.16
X102.385Y-100.7
X102.385Y-103.24
X102.385Y-105.78
X102.385Y-108.32
X102.385Y-110.86
X102.385Y-113.4
X102.385Y-115.94
X102.385Y-118.48
X102.385Y-121.02
X102.385Y-123.56
X117.625Y-88.0
X117.625Y-90.54
X117.625Y-93.08
X117.625Y-95.62
X117.625Y-98.16
X117.625Y-100.7
X117.625Y-103.24
X117.625Y-105.78
X117.625Y-108.32
X117.625Y-110.86
X117.625Y-113.4
X117.625Y-115.94
X117.625Y-118.48
X117.625Y-121.02
X117.625Y-123.56
X124.727Y-123.24
X124.727Y-125.78
X126.632Y-113.08
X129.172Y-113.08
X131.712Y-113.08
X134.252Y-113.08
X136.792Y-113.08
X139.332Y-113.08
T5
X77.74Y-77.5
X77.74Y-128.5
X145.74Y-77.5
X145.74Y-128.5
T0
M30
