G04 #@! TF.GenerationSoftware,KiCad,Pcbnew,(6.0.10)*
G04 #@! TF.CreationDate,2023-05-01T21:13:55-04:00*
G04 #@! TF.ProjectId,MiniCopterSchematic,4d696e69-436f-4707-9465-72536368656d,v01*
G04 #@! TF.SameCoordinates,Original*
G04 #@! TF.FileFunction,Soldermask,Top*
G04 #@! TF.FilePolarity,Negative*
%FSLAX46Y46*%
G04 Gerber Fmt 4.6, Leading zero omitted, Abs format (unit mm)*
G04 Created by KiCad (PCBNEW (6.0.10)) date 2023-05-01 21:13:55*
%MOMM*%
%LPD*%
G01*
G04 APERTURE LIST*
G04 Aperture macros list*
%AMRoundRect*
0 Rectangle with rounded corners*
0 $1 Rounding radius*
0 $2 $3 $4 $5 $6 $7 $8 $9 X,Y pos of 4 corners*
0 Add a 4 corners polygon primitive as box body*
4,1,4,$2,$3,$4,$5,$6,$7,$8,$9,$2,$3,0*
0 Add four circle primitives for the rounded corners*
1,1,$1+$1,$2,$3*
1,1,$1+$1,$4,$5*
1,1,$1+$1,$6,$7*
1,1,$1+$1,$8,$9*
0 Add four rect primitives between the rounded corners*
20,1,$1+$1,$2,$3,$4,$5,0*
20,1,$1+$1,$4,$5,$6,$7,0*
20,1,$1+$1,$6,$7,$8,$9,0*
20,1,$1+$1,$8,$9,$2,$3,0*%
G04 Aperture macros list end*
%ADD10C,6.500000*%
%ADD11RoundRect,0.050000X0.850000X-0.850000X0.850000X0.850000X-0.850000X0.850000X-0.850000X-0.850000X0*%
%ADD12O,1.800000X1.800000*%
%ADD13C,1.800000*%
%ADD14C,1.700000*%
%ADD15O,1.700000X1.700000*%
%ADD16C,1.624000*%
%ADD17RoundRect,0.050000X-0.800000X-0.800000X0.800000X-0.800000X0.800000X0.800000X-0.800000X0.800000X0*%
%ADD18RoundRect,0.050000X0.900000X0.900000X-0.900000X0.900000X-0.900000X-0.900000X0.900000X-0.900000X0*%
%ADD19C,1.900000*%
%ADD20RoundRect,0.050000X-0.850000X0.850000X-0.850000X-0.850000X0.850000X-0.850000X0.850000X0.850000X0*%
%ADD21RoundRect,0.050000X0.800000X-0.800000X0.800000X0.800000X-0.800000X0.800000X-0.800000X-0.800000X0*%
%ADD22RoundRect,0.050000X-0.762000X0.762000X-0.762000X-0.762000X0.762000X-0.762000X0.762000X0.762000X0*%
G04 APERTURE END LIST*
D10*
X78740000Y-80000000D03*
D11*
X97047000Y-113596000D03*
D12*
X94507000Y-113596000D03*
D13*
X91967000Y-113596000D03*
D14*
X104920000Y-105000000D03*
D15*
X115080000Y-105000000D03*
D16*
X124727013Y-123853487D03*
X124727013Y-126393487D03*
X139332013Y-113693487D03*
X136792013Y-113693487D03*
X134252013Y-113693487D03*
X131712013Y-113693487D03*
X129172013Y-113693487D03*
X126632013Y-113693487D03*
D14*
X104920000Y-116500000D03*
D15*
X115080000Y-116500000D03*
D17*
X102385000Y-88000000D03*
D15*
X102385000Y-90540000D03*
X102385000Y-93080000D03*
X102385000Y-95620000D03*
X102385000Y-98160000D03*
X102385000Y-100700000D03*
X102385000Y-103240000D03*
X102385000Y-105780000D03*
X102385000Y-108320000D03*
X102385000Y-110860000D03*
X102385000Y-113400000D03*
X102385000Y-115940000D03*
X102385000Y-118480000D03*
X102385000Y-121020000D03*
X102385000Y-123560000D03*
X117625000Y-123560000D03*
X117625000Y-121020000D03*
X117625000Y-118480000D03*
X117625000Y-115940000D03*
X117625000Y-113400000D03*
X117625000Y-110860000D03*
X117625000Y-108320000D03*
X117625000Y-105780000D03*
X117625000Y-103240000D03*
X117625000Y-100700000D03*
X117625000Y-98160000D03*
X117625000Y-95620000D03*
X117625000Y-93080000D03*
X117625000Y-90540000D03*
X117625000Y-88000000D03*
D14*
X104920000Y-94400000D03*
D15*
X115080000Y-94400000D03*
D18*
X86040000Y-78000000D03*
D19*
X83500000Y-78000000D03*
D20*
X78140000Y-90000000D03*
D12*
X75600000Y-90000000D03*
D21*
X137000000Y-122182380D03*
D14*
X137000000Y-119682380D03*
D18*
X139700000Y-78000000D03*
D19*
X137160000Y-78000000D03*
D14*
X104920000Y-89300000D03*
D15*
X115080000Y-89300000D03*
D10*
X145740000Y-80000000D03*
X145740000Y-127000000D03*
D20*
X78140000Y-86000000D03*
D12*
X75600000Y-86000000D03*
D11*
X84455000Y-118975000D03*
D12*
X81915000Y-118975000D03*
D13*
X79375000Y-118975000D03*
D11*
X97070000Y-118950000D03*
D12*
X94530000Y-118950000D03*
D13*
X91990000Y-118950000D03*
D10*
X78740000Y-127000000D03*
D14*
X104920000Y-99500000D03*
D15*
X115080000Y-99500000D03*
D14*
X104920000Y-110500000D03*
D15*
X115080000Y-110500000D03*
D22*
X95505290Y-104315290D03*
D16*
X95505290Y-101775290D03*
X95505290Y-99235290D03*
X95505290Y-96695290D03*
X95505290Y-94155290D03*
X95505290Y-91615290D03*
X95505290Y-89075290D03*
X95505290Y-86535290D03*
D11*
X84400000Y-113600000D03*
D12*
X81860000Y-113600000D03*
D13*
X79320000Y-113600000D03*
M02*
