%TF.GenerationSoftware,KiCad,Pcbnew,(6.0.10)*%
%TF.CreationDate,2023-05-01T21:14:43-04:00*%
%TF.ProjectId,MiniCopterSchematic,4d696e69-436f-4707-9465-72536368656d,v01*%
%TF.SameCoordinates,Original*%
%TF.FileFunction,Drillmap*%
%TF.FilePolarity,Positive*%
%FSLAX45Y45*%
G04 Gerber Fmt 4.5, Leading zero omitted, Abs format (unit mm)*
G04 Created by KiCad (PCBNEW (6.0.10)) date 2023-05-01 21:14:43*
%MOMM*%
%LPD*%
G01*
G04 APERTURE LIST*
%ADD10C,0.100000*%
%ADD11C,0.200000*%
%ADD12C,0.040000*%
%ADD13C,0.050000*%
%ADD14C,0.076200*%
%ADD15C,0.080000*%
%ADD16C,0.090000*%
%ADD17C,0.320000*%
G04 APERTURE END LIST*
D10*
X7880000Y-13280000D02*
X14580000Y-13280000D01*
X15160000Y-8000000D02*
G75*
G03*
X14580000Y-7420000I-580000J0D01*
G01*
X15160000Y-12700000D02*
X15160000Y-8000000D01*
X7880000Y-7420000D02*
G75*
G03*
X7300000Y-8000000I0J-580000D01*
G01*
X7300000Y-12700000D02*
G75*
G03*
X7880000Y-13280000I580000J0D01*
G01*
X7300000Y-8000000D02*
X7300000Y-12700000D01*
X14580000Y-7420000D02*
X7880000Y-7420000D01*
X14580000Y-13280000D02*
G75*
G03*
X15160000Y-12700000I0J580000D01*
G01*
D11*
D12*
X7700000Y-10780000D02*
X7740000Y-10820000D01*
X7740000Y-10780000D02*
X7700000Y-10820000D01*
X8130000Y-10780000D02*
X8170000Y-10820000D01*
X8170000Y-10780000D02*
X8130000Y-10820000D01*
X8180000Y-8760000D02*
X8220000Y-8800000D01*
X8220000Y-8760000D02*
X8180000Y-8800000D01*
X8330000Y-8630000D02*
X8370000Y-8670000D01*
X8370000Y-8630000D02*
X8330000Y-8670000D01*
X8330000Y-8890000D02*
X8370000Y-8930000D01*
X8370000Y-8890000D02*
X8330000Y-8930000D01*
X8680000Y-10590000D02*
X8720000Y-10630000D01*
X8720000Y-10590000D02*
X8680000Y-10630000D01*
X9290000Y-8760000D02*
X9330000Y-8800000D01*
X9330000Y-8760000D02*
X9290000Y-8800000D01*
X9290000Y-10590000D02*
X9330000Y-10630000D01*
X9330000Y-10590000D02*
X9290000Y-10630000D01*
X9830000Y-9320000D02*
X9870000Y-9360000D01*
X9870000Y-9320000D02*
X9830000Y-9360000D01*
X9830000Y-9630000D02*
X9870000Y-9670000D01*
X9870000Y-9630000D02*
X9830000Y-9670000D01*
X9840000Y-10107550D02*
X9880000Y-10147550D01*
X9880000Y-10107550D02*
X9840000Y-10147550D01*
X9840000Y-10310000D02*
X9880000Y-10350000D01*
X9880000Y-10310000D02*
X9840000Y-10350000D01*
X9920000Y-11040000D02*
X9960000Y-11080000D01*
X9960000Y-11040000D02*
X9920000Y-11080000D01*
X9920000Y-11622450D02*
X9960000Y-11662450D01*
X9960000Y-11622450D02*
X9920000Y-11662450D01*
X9930000Y-9430000D02*
X9970000Y-9470000D01*
X9970000Y-9430000D02*
X9930000Y-9470000D01*
X10030000Y-9550000D02*
X10070000Y-9590000D01*
X10070000Y-9550000D02*
X10030000Y-9590000D01*
X10355000Y-11205000D02*
X10395000Y-11245000D01*
X10395000Y-11205000D02*
X10355000Y-11245000D01*
X10357002Y-11447002D02*
X10397002Y-11487002D01*
X10397002Y-11447002D02*
X10357002Y-11487002D01*
X10580000Y-11205000D02*
X10620000Y-11245000D01*
X10620000Y-11205000D02*
X10580000Y-11245000D01*
X10580000Y-11450000D02*
X10620000Y-11490000D01*
X10620000Y-11450000D02*
X10580000Y-11490000D01*
X10830000Y-8580000D02*
X10870000Y-8620000D01*
X10870000Y-8580000D02*
X10830000Y-8620000D01*
X11945000Y-11205000D02*
X11985000Y-11245000D01*
X11985000Y-11205000D02*
X11945000Y-11245000D01*
X11945000Y-11450000D02*
X11985000Y-11490000D01*
X11985000Y-11450000D02*
X11945000Y-11490000D01*
X12345000Y-11205000D02*
X12385000Y-11245000D01*
X12385000Y-11205000D02*
X12345000Y-11245000D01*
X12345000Y-11455000D02*
X12385000Y-11495000D01*
X12385000Y-11455000D02*
X12345000Y-11495000D01*
X12810000Y-11530000D02*
X12850000Y-11570000D01*
X12850000Y-11530000D02*
X12810000Y-11570000D01*
X12950000Y-11770000D02*
X12990000Y-11810000D01*
X12990000Y-11770000D02*
X12950000Y-11810000D01*
X12950005Y-12689995D02*
X12990005Y-12729995D01*
X12990005Y-12689995D02*
X12950005Y-12729995D01*
X13151201Y-11718799D02*
X13191201Y-11758799D01*
X13191201Y-11718799D02*
X13151201Y-11758799D01*
X13151201Y-12508799D02*
X13191201Y-12548799D01*
X13191201Y-12508799D02*
X13151201Y-12548799D01*
X13310000Y-11770000D02*
X13350000Y-11810000D01*
X13350000Y-11770000D02*
X13310000Y-11810000D01*
X13310000Y-12350000D02*
X13350000Y-12390000D01*
X13350000Y-12350000D02*
X13310000Y-12390000D01*
X13510000Y-11530000D02*
X13550000Y-11570000D01*
X13550000Y-11530000D02*
X13510000Y-11570000D01*
X13600000Y-9410000D02*
X13640000Y-9450000D01*
X13640000Y-9410000D02*
X13600000Y-9450000D01*
X13710000Y-8380000D02*
X13750000Y-8420000D01*
X13750000Y-8380000D02*
X13710000Y-8420000D01*
D13*
X13075000Y-8350000D02*
G75*
G03*
X13075000Y-8350000I-25000J0D01*
G01*
D14*
X9550529Y-8615429D02*
X9550529Y-8691629D01*
X9512429Y-8653529D02*
X9588629Y-8653529D01*
X9550529Y-8869429D02*
X9550529Y-8945629D01*
X9512429Y-8907529D02*
X9588629Y-8907529D01*
X9550529Y-9123429D02*
X9550529Y-9199629D01*
X9512429Y-9161529D02*
X9588629Y-9161529D01*
X9550529Y-9377429D02*
X9550529Y-9453629D01*
X9512429Y-9415529D02*
X9588629Y-9415529D01*
X9550529Y-9631429D02*
X9550529Y-9707629D01*
X9512429Y-9669529D02*
X9588629Y-9669529D01*
X9550529Y-9885429D02*
X9550529Y-9961629D01*
X9512429Y-9923529D02*
X9588629Y-9923529D01*
X9550529Y-10139429D02*
X9550529Y-10215629D01*
X9512429Y-10177529D02*
X9588629Y-10177529D01*
X9550529Y-10393429D02*
X9550529Y-10469629D01*
X9512429Y-10431529D02*
X9588629Y-10431529D01*
X12472701Y-12347249D02*
X12472701Y-12423449D01*
X12434601Y-12385349D02*
X12510801Y-12385349D01*
X12472701Y-12601249D02*
X12472701Y-12677449D01*
X12434601Y-12639349D02*
X12510801Y-12639349D01*
X12663201Y-11331249D02*
X12663201Y-11407449D01*
X12625101Y-11369349D02*
X12701301Y-11369349D01*
X12917201Y-11331249D02*
X12917201Y-11407449D01*
X12879101Y-11369349D02*
X12955301Y-11369349D01*
X13171201Y-11331249D02*
X13171201Y-11407449D01*
X13133101Y-11369349D02*
X13209301Y-11369349D01*
X13425201Y-11331249D02*
X13425201Y-11407449D01*
X13387101Y-11369349D02*
X13463301Y-11369349D01*
X13679201Y-11331249D02*
X13679201Y-11407449D01*
X13641101Y-11369349D02*
X13717301Y-11369349D01*
X13933201Y-11331249D02*
X13933201Y-11407449D01*
X13895101Y-11369349D02*
X13971301Y-11369349D01*
D15*
X10520285Y-8958285D02*
X10520285Y-8901716D01*
X10463716Y-8901716D01*
X10463716Y-8958285D01*
X10520285Y-8958285D01*
X10520285Y-9468285D02*
X10520285Y-9411716D01*
X10463716Y-9411716D01*
X10463716Y-9468285D01*
X10520285Y-9468285D01*
X10520285Y-9978285D02*
X10520285Y-9921716D01*
X10463716Y-9921716D01*
X10463716Y-9978285D01*
X10520285Y-9978285D01*
X10520285Y-10528285D02*
X10520285Y-10471716D01*
X10463716Y-10471716D01*
X10463716Y-10528285D01*
X10520285Y-10528285D01*
X10520285Y-11078285D02*
X10520285Y-11021716D01*
X10463716Y-11021716D01*
X10463716Y-11078285D01*
X10520285Y-11078285D01*
X10520285Y-11678284D02*
X10520285Y-11621715D01*
X10463716Y-11621715D01*
X10463716Y-11678284D01*
X10520285Y-11678284D01*
X11536284Y-8958285D02*
X11536284Y-8901716D01*
X11479715Y-8901716D01*
X11479715Y-8958285D01*
X11536284Y-8958285D01*
X11536284Y-9468285D02*
X11536284Y-9411716D01*
X11479715Y-9411716D01*
X11479715Y-9468285D01*
X11536284Y-9468285D01*
X11536284Y-9978285D02*
X11536284Y-9921716D01*
X11479715Y-9921716D01*
X11479715Y-9978285D01*
X11536284Y-9978285D01*
X11536284Y-10528285D02*
X11536284Y-10471716D01*
X11479715Y-10471716D01*
X11479715Y-10528285D01*
X11536284Y-10528285D01*
X11536284Y-11078285D02*
X11536284Y-11021716D01*
X11479715Y-11021716D01*
X11479715Y-11078285D01*
X11536284Y-11078285D01*
X11536284Y-11678284D02*
X11536284Y-11621715D01*
X11479715Y-11621715D01*
X11479715Y-11678284D01*
X11536284Y-11678284D01*
X13728284Y-11996522D02*
X13728284Y-11939953D01*
X13671715Y-11939953D01*
X13671715Y-11996522D01*
X13728284Y-11996522D01*
X13728284Y-12246522D02*
X13728284Y-12189953D01*
X13671715Y-12189953D01*
X13671715Y-12246522D01*
X13728284Y-12246522D01*
D16*
X8350000Y-7845000D02*
X8395000Y-7800000D01*
X8350000Y-7755000D01*
X8305000Y-7800000D01*
X8350000Y-7845000D01*
X8604000Y-7845000D02*
X8649000Y-7800000D01*
X8604000Y-7755000D01*
X8559000Y-7800000D01*
X8604000Y-7845000D01*
X13716000Y-7845000D02*
X13761000Y-7800000D01*
X13716000Y-7755000D01*
X13671000Y-7800000D01*
X13716000Y-7845000D01*
X13970000Y-7845000D02*
X14015000Y-7800000D01*
X13970000Y-7755000D01*
X13925000Y-7800000D01*
X13970000Y-7845000D01*
D10*
X7510000Y-8550000D02*
X7610000Y-8650000D01*
X7610000Y-8550000D02*
X7510000Y-8650000D01*
X7610000Y-8600000D02*
G75*
G03*
X7610000Y-8600000I-50000J0D01*
G01*
X7510000Y-8950000D02*
X7610000Y-9050000D01*
X7610000Y-8950000D02*
X7510000Y-9050000D01*
X7610000Y-9000000D02*
G75*
G03*
X7610000Y-9000000I-50000J0D01*
G01*
X7764000Y-8550000D02*
X7864000Y-8650000D01*
X7864000Y-8550000D02*
X7764000Y-8650000D01*
X7864000Y-8600000D02*
G75*
G03*
X7864000Y-8600000I-50000J0D01*
G01*
X7764000Y-8950000D02*
X7864000Y-9050000D01*
X7864000Y-8950000D02*
X7764000Y-9050000D01*
X7864000Y-9000000D02*
G75*
G03*
X7864000Y-9000000I-50000J0D01*
G01*
X7882000Y-11310000D02*
X7982000Y-11410000D01*
X7982000Y-11310000D02*
X7882000Y-11410000D01*
X7982000Y-11360000D02*
G75*
G03*
X7982000Y-11360000I-50000J0D01*
G01*
X7887500Y-11847500D02*
X7987500Y-11947500D01*
X7987500Y-11847500D02*
X7887500Y-11947500D01*
X7987500Y-11897500D02*
G75*
G03*
X7987500Y-11897500I-50000J0D01*
G01*
X8136000Y-11310000D02*
X8236000Y-11410000D01*
X8236000Y-11310000D02*
X8136000Y-11410000D01*
X8236000Y-11360000D02*
G75*
G03*
X8236000Y-11360000I-50000J0D01*
G01*
X8141500Y-11847500D02*
X8241500Y-11947500D01*
X8241500Y-11847500D02*
X8141500Y-11947500D01*
X8241500Y-11897500D02*
G75*
G03*
X8241500Y-11897500I-50000J0D01*
G01*
X8390000Y-11310000D02*
X8490000Y-11410000D01*
X8490000Y-11310000D02*
X8390000Y-11410000D01*
X8490000Y-11360000D02*
G75*
G03*
X8490000Y-11360000I-50000J0D01*
G01*
X8395500Y-11847500D02*
X8495500Y-11947500D01*
X8495500Y-11847500D02*
X8395500Y-11947500D01*
X8495500Y-11897500D02*
G75*
G03*
X8495500Y-11897500I-50000J0D01*
G01*
X9146700Y-11309600D02*
X9246700Y-11409600D01*
X9246700Y-11309600D02*
X9146700Y-11409600D01*
X9246700Y-11359600D02*
G75*
G03*
X9246700Y-11359600I-50000J0D01*
G01*
X9149000Y-11845000D02*
X9249000Y-11945000D01*
X9249000Y-11845000D02*
X9149000Y-11945000D01*
X9249000Y-11895000D02*
G75*
G03*
X9249000Y-11895000I-50000J0D01*
G01*
X9400700Y-11309600D02*
X9500700Y-11409600D01*
X9500700Y-11309600D02*
X9400700Y-11409600D01*
X9500700Y-11359600D02*
G75*
G03*
X9500700Y-11359600I-50000J0D01*
G01*
X9403000Y-11845000D02*
X9503000Y-11945000D01*
X9503000Y-11845000D02*
X9403000Y-11945000D01*
X9503000Y-11895000D02*
G75*
G03*
X9503000Y-11895000I-50000J0D01*
G01*
X9654700Y-11309600D02*
X9754700Y-11409600D01*
X9754700Y-11309600D02*
X9654700Y-11409600D01*
X9754700Y-11359600D02*
G75*
G03*
X9754700Y-11359600I-50000J0D01*
G01*
X9657000Y-11845000D02*
X9757000Y-11945000D01*
X9757000Y-11845000D02*
X9657000Y-11945000D01*
X9757000Y-11895000D02*
G75*
G03*
X9757000Y-11895000I-50000J0D01*
G01*
X10188500Y-8750000D02*
X10288500Y-8850000D01*
X10288500Y-8750000D02*
X10188500Y-8850000D01*
X10288500Y-8800000D02*
G75*
G03*
X10288500Y-8800000I-50000J0D01*
G01*
X10188500Y-9004000D02*
X10288500Y-9104000D01*
X10288500Y-9004000D02*
X10188500Y-9104000D01*
X10288500Y-9054000D02*
G75*
G03*
X10288500Y-9054000I-50000J0D01*
G01*
X10188500Y-9258000D02*
X10288500Y-9358000D01*
X10288500Y-9258000D02*
X10188500Y-9358000D01*
X10288500Y-9308000D02*
G75*
G03*
X10288500Y-9308000I-50000J0D01*
G01*
X10188500Y-9512000D02*
X10288500Y-9612000D01*
X10288500Y-9512000D02*
X10188500Y-9612000D01*
X10288500Y-9562000D02*
G75*
G03*
X10288500Y-9562000I-50000J0D01*
G01*
X10188500Y-9766000D02*
X10288500Y-9866000D01*
X10288500Y-9766000D02*
X10188500Y-9866000D01*
X10288500Y-9816000D02*
G75*
G03*
X10288500Y-9816000I-50000J0D01*
G01*
X10188500Y-10020000D02*
X10288500Y-10120000D01*
X10288500Y-10020000D02*
X10188500Y-10120000D01*
X10288500Y-10070000D02*
G75*
G03*
X10288500Y-10070000I-50000J0D01*
G01*
X10188500Y-10274000D02*
X10288500Y-10374000D01*
X10288500Y-10274000D02*
X10188500Y-10374000D01*
X10288500Y-10324000D02*
G75*
G03*
X10288500Y-10324000I-50000J0D01*
G01*
X10188500Y-10528000D02*
X10288500Y-10628000D01*
X10288500Y-10528000D02*
X10188500Y-10628000D01*
X10288500Y-10578000D02*
G75*
G03*
X10288500Y-10578000I-50000J0D01*
G01*
X10188500Y-10782000D02*
X10288500Y-10882000D01*
X10288500Y-10782000D02*
X10188500Y-10882000D01*
X10288500Y-10832000D02*
G75*
G03*
X10288500Y-10832000I-50000J0D01*
G01*
X10188500Y-11036000D02*
X10288500Y-11136000D01*
X10288500Y-11036000D02*
X10188500Y-11136000D01*
X10288500Y-11086000D02*
G75*
G03*
X10288500Y-11086000I-50000J0D01*
G01*
X10188500Y-11290000D02*
X10288500Y-11390000D01*
X10288500Y-11290000D02*
X10188500Y-11390000D01*
X10288500Y-11340000D02*
G75*
G03*
X10288500Y-11340000I-50000J0D01*
G01*
X10188500Y-11544000D02*
X10288500Y-11644000D01*
X10288500Y-11544000D02*
X10188500Y-11644000D01*
X10288500Y-11594000D02*
G75*
G03*
X10288500Y-11594000I-50000J0D01*
G01*
X10188500Y-11798000D02*
X10288500Y-11898000D01*
X10288500Y-11798000D02*
X10188500Y-11898000D01*
X10288500Y-11848000D02*
G75*
G03*
X10288500Y-11848000I-50000J0D01*
G01*
X10188500Y-12052000D02*
X10288500Y-12152000D01*
X10288500Y-12052000D02*
X10188500Y-12152000D01*
X10288500Y-12102000D02*
G75*
G03*
X10288500Y-12102000I-50000J0D01*
G01*
X10188500Y-12306000D02*
X10288500Y-12406000D01*
X10288500Y-12306000D02*
X10188500Y-12406000D01*
X10288500Y-12356000D02*
G75*
G03*
X10288500Y-12356000I-50000J0D01*
G01*
X11712500Y-8750000D02*
X11812500Y-8850000D01*
X11812500Y-8750000D02*
X11712500Y-8850000D01*
X11812500Y-8800000D02*
G75*
G03*
X11812500Y-8800000I-50000J0D01*
G01*
X11712500Y-9004000D02*
X11812500Y-9104000D01*
X11812500Y-9004000D02*
X11712500Y-9104000D01*
X11812500Y-9054000D02*
G75*
G03*
X11812500Y-9054000I-50000J0D01*
G01*
X11712500Y-9258000D02*
X11812500Y-9358000D01*
X11812500Y-9258000D02*
X11712500Y-9358000D01*
X11812500Y-9308000D02*
G75*
G03*
X11812500Y-9308000I-50000J0D01*
G01*
X11712500Y-9512000D02*
X11812500Y-9612000D01*
X11812500Y-9512000D02*
X11712500Y-9612000D01*
X11812500Y-9562000D02*
G75*
G03*
X11812500Y-9562000I-50000J0D01*
G01*
X11712500Y-9766000D02*
X11812500Y-9866000D01*
X11812500Y-9766000D02*
X11712500Y-9866000D01*
X11812500Y-9816000D02*
G75*
G03*
X11812500Y-9816000I-50000J0D01*
G01*
X11712500Y-10020000D02*
X11812500Y-10120000D01*
X11812500Y-10020000D02*
X11712500Y-10120000D01*
X11812500Y-10070000D02*
G75*
G03*
X11812500Y-10070000I-50000J0D01*
G01*
X11712500Y-10274000D02*
X11812500Y-10374000D01*
X11812500Y-10274000D02*
X11712500Y-10374000D01*
X11812500Y-10324000D02*
G75*
G03*
X11812500Y-10324000I-50000J0D01*
G01*
X11712500Y-10528000D02*
X11812500Y-10628000D01*
X11812500Y-10528000D02*
X11712500Y-10628000D01*
X11812500Y-10578000D02*
G75*
G03*
X11812500Y-10578000I-50000J0D01*
G01*
X11712500Y-10782000D02*
X11812500Y-10882000D01*
X11812500Y-10782000D02*
X11712500Y-10882000D01*
X11812500Y-10832000D02*
G75*
G03*
X11812500Y-10832000I-50000J0D01*
G01*
X11712500Y-11036000D02*
X11812500Y-11136000D01*
X11812500Y-11036000D02*
X11712500Y-11136000D01*
X11812500Y-11086000D02*
G75*
G03*
X11812500Y-11086000I-50000J0D01*
G01*
X11712500Y-11290000D02*
X11812500Y-11390000D01*
X11812500Y-11290000D02*
X11712500Y-11390000D01*
X11812500Y-11340000D02*
G75*
G03*
X11812500Y-11340000I-50000J0D01*
G01*
X11712500Y-11544000D02*
X11812500Y-11644000D01*
X11812500Y-11544000D02*
X11712500Y-11644000D01*
X11812500Y-11594000D02*
G75*
G03*
X11812500Y-11594000I-50000J0D01*
G01*
X11712500Y-11798000D02*
X11812500Y-11898000D01*
X11812500Y-11798000D02*
X11712500Y-11898000D01*
X11812500Y-11848000D02*
G75*
G03*
X11812500Y-11848000I-50000J0D01*
G01*
X11712500Y-12052000D02*
X11812500Y-12152000D01*
X11812500Y-12052000D02*
X11712500Y-12152000D01*
X11812500Y-12102000D02*
G75*
G03*
X11812500Y-12102000I-50000J0D01*
G01*
X11712500Y-12306000D02*
X11812500Y-12406000D01*
X11812500Y-12306000D02*
X11712500Y-12406000D01*
X11812500Y-12356000D02*
G75*
G03*
X11812500Y-12356000I-50000J0D01*
G01*
D17*
X7714000Y-7840000D02*
X8034000Y-8160000D01*
X8034000Y-7840000D02*
X7714000Y-8160000D01*
X7874000Y-7840000D02*
X7874000Y-8160000D01*
X7714000Y-8000000D02*
X8034000Y-8000000D01*
X7714000Y-12540000D02*
X8034000Y-12860000D01*
X8034000Y-12540000D02*
X7714000Y-12860000D01*
X7874000Y-12540000D02*
X7874000Y-12860000D01*
X7714000Y-12700000D02*
X8034000Y-12700000D01*
X14414000Y-7840000D02*
X14734000Y-8160000D01*
X14734000Y-7840000D02*
X14414000Y-8160000D01*
X14574000Y-7840000D02*
X14574000Y-8160000D01*
X14414000Y-8000000D02*
X14734000Y-8000000D01*
X14414000Y-12540000D02*
X14734000Y-12860000D01*
X14734000Y-12540000D02*
X14414000Y-12860000D01*
X14574000Y-12540000D02*
X14574000Y-12860000D01*
X14414000Y-12700000D02*
X14734000Y-12700000D01*
D11*
X7552619Y-13595476D02*
X7552619Y-13395476D01*
X7600238Y-13395476D01*
X7628809Y-13405000D01*
X7647857Y-13424048D01*
X7657381Y-13443095D01*
X7666905Y-13481190D01*
X7666905Y-13509762D01*
X7657381Y-13547857D01*
X7647857Y-13566905D01*
X7628809Y-13585952D01*
X7600238Y-13595476D01*
X7552619Y-13595476D01*
X7752619Y-13595476D02*
X7752619Y-13462143D01*
X7752619Y-13500238D02*
X7762143Y-13481190D01*
X7771667Y-13471667D01*
X7790714Y-13462143D01*
X7809762Y-13462143D01*
X7876428Y-13595476D02*
X7876428Y-13462143D01*
X7876428Y-13395476D02*
X7866905Y-13405000D01*
X7876428Y-13414524D01*
X7885952Y-13405000D01*
X7876428Y-13395476D01*
X7876428Y-13414524D01*
X8000238Y-13595476D02*
X7981190Y-13585952D01*
X7971667Y-13566905D01*
X7971667Y-13395476D01*
X8105000Y-13595476D02*
X8085952Y-13585952D01*
X8076428Y-13566905D01*
X8076428Y-13395476D01*
X8333571Y-13595476D02*
X8333571Y-13395476D01*
X8400238Y-13538333D01*
X8466905Y-13395476D01*
X8466905Y-13595476D01*
X8647857Y-13595476D02*
X8647857Y-13490714D01*
X8638333Y-13471667D01*
X8619286Y-13462143D01*
X8581190Y-13462143D01*
X8562143Y-13471667D01*
X8647857Y-13585952D02*
X8628810Y-13595476D01*
X8581190Y-13595476D01*
X8562143Y-13585952D01*
X8552619Y-13566905D01*
X8552619Y-13547857D01*
X8562143Y-13528809D01*
X8581190Y-13519286D01*
X8628810Y-13519286D01*
X8647857Y-13509762D01*
X8743095Y-13462143D02*
X8743095Y-13662143D01*
X8743095Y-13471667D02*
X8762143Y-13462143D01*
X8800238Y-13462143D01*
X8819286Y-13471667D01*
X8828810Y-13481190D01*
X8838333Y-13500238D01*
X8838333Y-13557381D01*
X8828810Y-13576428D01*
X8819286Y-13585952D01*
X8800238Y-13595476D01*
X8762143Y-13595476D01*
X8743095Y-13585952D01*
X8924048Y-13576428D02*
X8933571Y-13585952D01*
X8924048Y-13595476D01*
X8914524Y-13585952D01*
X8924048Y-13576428D01*
X8924048Y-13595476D01*
X8924048Y-13471667D02*
X8933571Y-13481190D01*
X8924048Y-13490714D01*
X8914524Y-13481190D01*
X8924048Y-13471667D01*
X8924048Y-13490714D01*
D12*
X7255000Y-13905000D02*
X7295000Y-13945000D01*
X7295000Y-13905000D02*
X7255000Y-13945000D01*
D11*
X7590714Y-13815476D02*
X7609762Y-13815476D01*
X7628809Y-13825000D01*
X7638333Y-13834524D01*
X7647857Y-13853571D01*
X7657381Y-13891667D01*
X7657381Y-13939286D01*
X7647857Y-13977381D01*
X7638333Y-13996428D01*
X7628809Y-14005952D01*
X7609762Y-14015476D01*
X7590714Y-14015476D01*
X7571667Y-14005952D01*
X7562143Y-13996428D01*
X7552619Y-13977381D01*
X7543095Y-13939286D01*
X7543095Y-13891667D01*
X7552619Y-13853571D01*
X7562143Y-13834524D01*
X7571667Y-13825000D01*
X7590714Y-13815476D01*
X7743095Y-13996428D02*
X7752619Y-14005952D01*
X7743095Y-14015476D01*
X7733571Y-14005952D01*
X7743095Y-13996428D01*
X7743095Y-14015476D01*
X7924048Y-13882143D02*
X7924048Y-14015476D01*
X7876428Y-13805952D02*
X7828809Y-13948809D01*
X7952619Y-13948809D01*
X8066905Y-13815476D02*
X8085952Y-13815476D01*
X8105000Y-13825000D01*
X8114524Y-13834524D01*
X8124048Y-13853571D01*
X8133571Y-13891667D01*
X8133571Y-13939286D01*
X8124048Y-13977381D01*
X8114524Y-13996428D01*
X8105000Y-14005952D01*
X8085952Y-14015476D01*
X8066905Y-14015476D01*
X8047857Y-14005952D01*
X8038333Y-13996428D01*
X8028809Y-13977381D01*
X8019286Y-13939286D01*
X8019286Y-13891667D01*
X8028809Y-13853571D01*
X8038333Y-13834524D01*
X8047857Y-13825000D01*
X8066905Y-13815476D01*
X8257381Y-13815476D02*
X8276428Y-13815476D01*
X8295476Y-13825000D01*
X8305000Y-13834524D01*
X8314524Y-13853571D01*
X8324048Y-13891667D01*
X8324048Y-13939286D01*
X8314524Y-13977381D01*
X8305000Y-13996428D01*
X8295476Y-14005952D01*
X8276428Y-14015476D01*
X8257381Y-14015476D01*
X8238333Y-14005952D01*
X8228809Y-13996428D01*
X8219286Y-13977381D01*
X8209762Y-13939286D01*
X8209762Y-13891667D01*
X8219286Y-13853571D01*
X8228809Y-13834524D01*
X8238333Y-13825000D01*
X8257381Y-13815476D01*
X8409762Y-14015476D02*
X8409762Y-13882143D01*
X8409762Y-13901190D02*
X8419286Y-13891667D01*
X8438333Y-13882143D01*
X8466905Y-13882143D01*
X8485952Y-13891667D01*
X8495476Y-13910714D01*
X8495476Y-14015476D01*
X8495476Y-13910714D02*
X8505000Y-13891667D01*
X8524048Y-13882143D01*
X8552619Y-13882143D01*
X8571667Y-13891667D01*
X8581190Y-13910714D01*
X8581190Y-14015476D01*
X8676429Y-14015476D02*
X8676429Y-13882143D01*
X8676429Y-13901190D02*
X8685952Y-13891667D01*
X8705000Y-13882143D01*
X8733571Y-13882143D01*
X8752619Y-13891667D01*
X8762143Y-13910714D01*
X8762143Y-14015476D01*
X8762143Y-13910714D02*
X8771667Y-13891667D01*
X8790714Y-13882143D01*
X8819286Y-13882143D01*
X8838333Y-13891667D01*
X8847857Y-13910714D01*
X8847857Y-14015476D01*
X9238333Y-13805952D02*
X9066905Y-14063095D01*
X9495476Y-13815476D02*
X9514524Y-13815476D01*
X9533571Y-13825000D01*
X9543095Y-13834524D01*
X9552619Y-13853571D01*
X9562143Y-13891667D01*
X9562143Y-13939286D01*
X9552619Y-13977381D01*
X9543095Y-13996428D01*
X9533571Y-14005952D01*
X9514524Y-14015476D01*
X9495476Y-14015476D01*
X9476429Y-14005952D01*
X9466905Y-13996428D01*
X9457381Y-13977381D01*
X9447857Y-13939286D01*
X9447857Y-13891667D01*
X9457381Y-13853571D01*
X9466905Y-13834524D01*
X9476429Y-13825000D01*
X9495476Y-13815476D01*
X9647857Y-13996428D02*
X9657381Y-14005952D01*
X9647857Y-14015476D01*
X9638333Y-14005952D01*
X9647857Y-13996428D01*
X9647857Y-14015476D01*
X9781190Y-13815476D02*
X9800238Y-13815476D01*
X9819286Y-13825000D01*
X9828810Y-13834524D01*
X9838333Y-13853571D01*
X9847857Y-13891667D01*
X9847857Y-13939286D01*
X9838333Y-13977381D01*
X9828810Y-13996428D01*
X9819286Y-14005952D01*
X9800238Y-14015476D01*
X9781190Y-14015476D01*
X9762143Y-14005952D01*
X9752619Y-13996428D01*
X9743095Y-13977381D01*
X9733571Y-13939286D01*
X9733571Y-13891667D01*
X9743095Y-13853571D01*
X9752619Y-13834524D01*
X9762143Y-13825000D01*
X9781190Y-13815476D01*
X10038333Y-14015476D02*
X9924048Y-14015476D01*
X9981190Y-14015476D02*
X9981190Y-13815476D01*
X9962143Y-13844048D01*
X9943095Y-13863095D01*
X9924048Y-13872619D01*
X10219286Y-13815476D02*
X10124048Y-13815476D01*
X10114524Y-13910714D01*
X10124048Y-13901190D01*
X10143095Y-13891667D01*
X10190714Y-13891667D01*
X10209762Y-13901190D01*
X10219286Y-13910714D01*
X10228810Y-13929762D01*
X10228810Y-13977381D01*
X10219286Y-13996428D01*
X10209762Y-14005952D01*
X10190714Y-14015476D01*
X10143095Y-14015476D01*
X10124048Y-14005952D01*
X10114524Y-13996428D01*
X10295476Y-13815476D02*
X10428810Y-13815476D01*
X10343095Y-14015476D01*
X10495476Y-13815476D02*
X10495476Y-13853571D01*
X10571667Y-13815476D02*
X10571667Y-13853571D01*
X10866905Y-14091667D02*
X10857381Y-14082143D01*
X10838333Y-14053571D01*
X10828810Y-14034524D01*
X10819286Y-14005952D01*
X10809762Y-13958333D01*
X10809762Y-13920238D01*
X10819286Y-13872619D01*
X10828810Y-13844048D01*
X10838333Y-13825000D01*
X10857381Y-13796428D01*
X10866905Y-13786905D01*
X10924048Y-13815476D02*
X11047857Y-13815476D01*
X10981190Y-13891667D01*
X11009762Y-13891667D01*
X11028810Y-13901190D01*
X11038333Y-13910714D01*
X11047857Y-13929762D01*
X11047857Y-13977381D01*
X11038333Y-13996428D01*
X11028810Y-14005952D01*
X11009762Y-14015476D01*
X10952619Y-14015476D01*
X10933571Y-14005952D01*
X10924048Y-13996428D01*
X11228809Y-13815476D02*
X11133571Y-13815476D01*
X11124048Y-13910714D01*
X11133571Y-13901190D01*
X11152619Y-13891667D01*
X11200238Y-13891667D01*
X11219286Y-13901190D01*
X11228809Y-13910714D01*
X11238333Y-13929762D01*
X11238333Y-13977381D01*
X11228809Y-13996428D01*
X11219286Y-14005952D01*
X11200238Y-14015476D01*
X11152619Y-14015476D01*
X11133571Y-14005952D01*
X11124048Y-13996428D01*
X11476428Y-14015476D02*
X11476428Y-13815476D01*
X11562143Y-14015476D02*
X11562143Y-13910714D01*
X11552619Y-13891667D01*
X11533571Y-13882143D01*
X11505000Y-13882143D01*
X11485952Y-13891667D01*
X11476428Y-13901190D01*
X11685952Y-14015476D02*
X11666905Y-14005952D01*
X11657381Y-13996428D01*
X11647857Y-13977381D01*
X11647857Y-13920238D01*
X11657381Y-13901190D01*
X11666905Y-13891667D01*
X11685952Y-13882143D01*
X11714524Y-13882143D01*
X11733571Y-13891667D01*
X11743095Y-13901190D01*
X11752619Y-13920238D01*
X11752619Y-13977381D01*
X11743095Y-13996428D01*
X11733571Y-14005952D01*
X11714524Y-14015476D01*
X11685952Y-14015476D01*
X11866905Y-14015476D02*
X11847857Y-14005952D01*
X11838333Y-13986905D01*
X11838333Y-13815476D01*
X12019286Y-14005952D02*
X12000238Y-14015476D01*
X11962143Y-14015476D01*
X11943095Y-14005952D01*
X11933571Y-13986905D01*
X11933571Y-13910714D01*
X11943095Y-13891667D01*
X11962143Y-13882143D01*
X12000238Y-13882143D01*
X12019286Y-13891667D01*
X12028809Y-13910714D01*
X12028809Y-13929762D01*
X11933571Y-13948809D01*
X12105000Y-14005952D02*
X12124048Y-14015476D01*
X12162143Y-14015476D01*
X12181190Y-14005952D01*
X12190714Y-13986905D01*
X12190714Y-13977381D01*
X12181190Y-13958333D01*
X12162143Y-13948809D01*
X12133571Y-13948809D01*
X12114524Y-13939286D01*
X12105000Y-13920238D01*
X12105000Y-13910714D01*
X12114524Y-13891667D01*
X12133571Y-13882143D01*
X12162143Y-13882143D01*
X12181190Y-13891667D01*
X12257381Y-14091667D02*
X12266905Y-14082143D01*
X12285952Y-14053571D01*
X12295476Y-14034524D01*
X12305000Y-14005952D01*
X12314524Y-13958333D01*
X12314524Y-13920238D01*
X12305000Y-13872619D01*
X12295476Y-13844048D01*
X12285952Y-13825000D01*
X12266905Y-13796428D01*
X12257381Y-13786905D01*
D13*
X7295000Y-14189000D02*
G75*
G03*
X7295000Y-14189000I-25000J0D01*
G01*
D11*
X7590714Y-14079476D02*
X7609762Y-14079476D01*
X7628809Y-14089000D01*
X7638333Y-14098524D01*
X7647857Y-14117571D01*
X7657381Y-14155667D01*
X7657381Y-14203286D01*
X7647857Y-14241381D01*
X7638333Y-14260428D01*
X7628809Y-14269952D01*
X7609762Y-14279476D01*
X7590714Y-14279476D01*
X7571667Y-14269952D01*
X7562143Y-14260428D01*
X7552619Y-14241381D01*
X7543095Y-14203286D01*
X7543095Y-14155667D01*
X7552619Y-14117571D01*
X7562143Y-14098524D01*
X7571667Y-14089000D01*
X7590714Y-14079476D01*
X7743095Y-14260428D02*
X7752619Y-14269952D01*
X7743095Y-14279476D01*
X7733571Y-14269952D01*
X7743095Y-14260428D01*
X7743095Y-14279476D01*
X7933571Y-14079476D02*
X7838333Y-14079476D01*
X7828809Y-14174714D01*
X7838333Y-14165190D01*
X7857381Y-14155667D01*
X7905000Y-14155667D01*
X7924048Y-14165190D01*
X7933571Y-14174714D01*
X7943095Y-14193762D01*
X7943095Y-14241381D01*
X7933571Y-14260428D01*
X7924048Y-14269952D01*
X7905000Y-14279476D01*
X7857381Y-14279476D01*
X7838333Y-14269952D01*
X7828809Y-14260428D01*
X8066905Y-14079476D02*
X8085952Y-14079476D01*
X8105000Y-14089000D01*
X8114524Y-14098524D01*
X8124048Y-14117571D01*
X8133571Y-14155667D01*
X8133571Y-14203286D01*
X8124048Y-14241381D01*
X8114524Y-14260428D01*
X8105000Y-14269952D01*
X8085952Y-14279476D01*
X8066905Y-14279476D01*
X8047857Y-14269952D01*
X8038333Y-14260428D01*
X8028809Y-14241381D01*
X8019286Y-14203286D01*
X8019286Y-14155667D01*
X8028809Y-14117571D01*
X8038333Y-14098524D01*
X8047857Y-14089000D01*
X8066905Y-14079476D01*
X8257381Y-14079476D02*
X8276428Y-14079476D01*
X8295476Y-14089000D01*
X8305000Y-14098524D01*
X8314524Y-14117571D01*
X8324048Y-14155667D01*
X8324048Y-14203286D01*
X8314524Y-14241381D01*
X8305000Y-14260428D01*
X8295476Y-14269952D01*
X8276428Y-14279476D01*
X8257381Y-14279476D01*
X8238333Y-14269952D01*
X8228809Y-14260428D01*
X8219286Y-14241381D01*
X8209762Y-14203286D01*
X8209762Y-14155667D01*
X8219286Y-14117571D01*
X8228809Y-14098524D01*
X8238333Y-14089000D01*
X8257381Y-14079476D01*
X8409762Y-14279476D02*
X8409762Y-14146143D01*
X8409762Y-14165190D02*
X8419286Y-14155667D01*
X8438333Y-14146143D01*
X8466905Y-14146143D01*
X8485952Y-14155667D01*
X8495476Y-14174714D01*
X8495476Y-14279476D01*
X8495476Y-14174714D02*
X8505000Y-14155667D01*
X8524048Y-14146143D01*
X8552619Y-14146143D01*
X8571667Y-14155667D01*
X8581190Y-14174714D01*
X8581190Y-14279476D01*
X8676429Y-14279476D02*
X8676429Y-14146143D01*
X8676429Y-14165190D02*
X8685952Y-14155667D01*
X8705000Y-14146143D01*
X8733571Y-14146143D01*
X8752619Y-14155667D01*
X8762143Y-14174714D01*
X8762143Y-14279476D01*
X8762143Y-14174714D02*
X8771667Y-14155667D01*
X8790714Y-14146143D01*
X8819286Y-14146143D01*
X8838333Y-14155667D01*
X8847857Y-14174714D01*
X8847857Y-14279476D01*
X9238333Y-14069952D02*
X9066905Y-14327095D01*
X9495476Y-14079476D02*
X9514524Y-14079476D01*
X9533571Y-14089000D01*
X9543095Y-14098524D01*
X9552619Y-14117571D01*
X9562143Y-14155667D01*
X9562143Y-14203286D01*
X9552619Y-14241381D01*
X9543095Y-14260428D01*
X9533571Y-14269952D01*
X9514524Y-14279476D01*
X9495476Y-14279476D01*
X9476429Y-14269952D01*
X9466905Y-14260428D01*
X9457381Y-14241381D01*
X9447857Y-14203286D01*
X9447857Y-14155667D01*
X9457381Y-14117571D01*
X9466905Y-14098524D01*
X9476429Y-14089000D01*
X9495476Y-14079476D01*
X9647857Y-14260428D02*
X9657381Y-14269952D01*
X9647857Y-14279476D01*
X9638333Y-14269952D01*
X9647857Y-14260428D01*
X9647857Y-14279476D01*
X9781190Y-14079476D02*
X9800238Y-14079476D01*
X9819286Y-14089000D01*
X9828810Y-14098524D01*
X9838333Y-14117571D01*
X9847857Y-14155667D01*
X9847857Y-14203286D01*
X9838333Y-14241381D01*
X9828810Y-14260428D01*
X9819286Y-14269952D01*
X9800238Y-14279476D01*
X9781190Y-14279476D01*
X9762143Y-14269952D01*
X9752619Y-14260428D01*
X9743095Y-14241381D01*
X9733571Y-14203286D01*
X9733571Y-14155667D01*
X9743095Y-14117571D01*
X9752619Y-14098524D01*
X9762143Y-14089000D01*
X9781190Y-14079476D01*
X10038333Y-14279476D02*
X9924048Y-14279476D01*
X9981190Y-14279476D02*
X9981190Y-14079476D01*
X9962143Y-14108048D01*
X9943095Y-14127095D01*
X9924048Y-14136619D01*
X10133571Y-14279476D02*
X10171667Y-14279476D01*
X10190714Y-14269952D01*
X10200238Y-14260428D01*
X10219286Y-14231857D01*
X10228810Y-14193762D01*
X10228810Y-14117571D01*
X10219286Y-14098524D01*
X10209762Y-14089000D01*
X10190714Y-14079476D01*
X10152619Y-14079476D01*
X10133571Y-14089000D01*
X10124048Y-14098524D01*
X10114524Y-14117571D01*
X10114524Y-14165190D01*
X10124048Y-14184238D01*
X10133571Y-14193762D01*
X10152619Y-14203286D01*
X10190714Y-14203286D01*
X10209762Y-14193762D01*
X10219286Y-14184238D01*
X10228810Y-14165190D01*
X10295476Y-14079476D02*
X10428810Y-14079476D01*
X10343095Y-14279476D01*
X10495476Y-14079476D02*
X10495476Y-14117571D01*
X10571667Y-14079476D02*
X10571667Y-14117571D01*
X10866905Y-14355667D02*
X10857381Y-14346143D01*
X10838333Y-14317571D01*
X10828810Y-14298524D01*
X10819286Y-14269952D01*
X10809762Y-14222333D01*
X10809762Y-14184238D01*
X10819286Y-14136619D01*
X10828810Y-14108048D01*
X10838333Y-14089000D01*
X10857381Y-14060428D01*
X10866905Y-14050905D01*
X11047857Y-14279476D02*
X10933571Y-14279476D01*
X10990714Y-14279476D02*
X10990714Y-14079476D01*
X10971667Y-14108048D01*
X10952619Y-14127095D01*
X10933571Y-14136619D01*
X11285952Y-14279476D02*
X11285952Y-14079476D01*
X11371667Y-14279476D02*
X11371667Y-14174714D01*
X11362143Y-14155667D01*
X11343095Y-14146143D01*
X11314524Y-14146143D01*
X11295476Y-14155667D01*
X11285952Y-14165190D01*
X11495476Y-14279476D02*
X11476428Y-14269952D01*
X11466905Y-14260428D01*
X11457381Y-14241381D01*
X11457381Y-14184238D01*
X11466905Y-14165190D01*
X11476428Y-14155667D01*
X11495476Y-14146143D01*
X11524048Y-14146143D01*
X11543095Y-14155667D01*
X11552619Y-14165190D01*
X11562143Y-14184238D01*
X11562143Y-14241381D01*
X11552619Y-14260428D01*
X11543095Y-14269952D01*
X11524048Y-14279476D01*
X11495476Y-14279476D01*
X11676428Y-14279476D02*
X11657381Y-14269952D01*
X11647857Y-14250905D01*
X11647857Y-14079476D01*
X11828809Y-14269952D02*
X11809762Y-14279476D01*
X11771667Y-14279476D01*
X11752619Y-14269952D01*
X11743095Y-14250905D01*
X11743095Y-14174714D01*
X11752619Y-14155667D01*
X11771667Y-14146143D01*
X11809762Y-14146143D01*
X11828809Y-14155667D01*
X11838333Y-14174714D01*
X11838333Y-14193762D01*
X11743095Y-14212809D01*
X11905000Y-14355667D02*
X11914524Y-14346143D01*
X11933571Y-14317571D01*
X11943095Y-14298524D01*
X11952619Y-14269952D01*
X11962143Y-14222333D01*
X11962143Y-14184238D01*
X11952619Y-14136619D01*
X11943095Y-14108048D01*
X11933571Y-14089000D01*
X11914524Y-14060428D01*
X11905000Y-14050905D01*
D14*
X7256900Y-14414900D02*
X7256900Y-14491100D01*
X7218800Y-14453000D02*
X7295000Y-14453000D01*
D11*
X7590714Y-14343476D02*
X7609762Y-14343476D01*
X7628809Y-14353000D01*
X7638333Y-14362524D01*
X7647857Y-14381571D01*
X7657381Y-14419667D01*
X7657381Y-14467286D01*
X7647857Y-14505381D01*
X7638333Y-14524428D01*
X7628809Y-14533952D01*
X7609762Y-14543476D01*
X7590714Y-14543476D01*
X7571667Y-14533952D01*
X7562143Y-14524428D01*
X7552619Y-14505381D01*
X7543095Y-14467286D01*
X7543095Y-14419667D01*
X7552619Y-14381571D01*
X7562143Y-14362524D01*
X7571667Y-14353000D01*
X7590714Y-14343476D01*
X7743095Y-14524428D02*
X7752619Y-14533952D01*
X7743095Y-14543476D01*
X7733571Y-14533952D01*
X7743095Y-14524428D01*
X7743095Y-14543476D01*
X7819286Y-14343476D02*
X7952619Y-14343476D01*
X7866905Y-14543476D01*
X8114524Y-14343476D02*
X8076428Y-14343476D01*
X8057381Y-14353000D01*
X8047857Y-14362524D01*
X8028809Y-14391095D01*
X8019286Y-14429190D01*
X8019286Y-14505381D01*
X8028809Y-14524428D01*
X8038333Y-14533952D01*
X8057381Y-14543476D01*
X8095476Y-14543476D01*
X8114524Y-14533952D01*
X8124048Y-14524428D01*
X8133571Y-14505381D01*
X8133571Y-14457762D01*
X8124048Y-14438714D01*
X8114524Y-14429190D01*
X8095476Y-14419667D01*
X8057381Y-14419667D01*
X8038333Y-14429190D01*
X8028809Y-14438714D01*
X8019286Y-14457762D01*
X8209762Y-14362524D02*
X8219286Y-14353000D01*
X8238333Y-14343476D01*
X8285952Y-14343476D01*
X8305000Y-14353000D01*
X8314524Y-14362524D01*
X8324048Y-14381571D01*
X8324048Y-14400619D01*
X8314524Y-14429190D01*
X8200238Y-14543476D01*
X8324048Y-14543476D01*
X8409762Y-14543476D02*
X8409762Y-14410143D01*
X8409762Y-14429190D02*
X8419286Y-14419667D01*
X8438333Y-14410143D01*
X8466905Y-14410143D01*
X8485952Y-14419667D01*
X8495476Y-14438714D01*
X8495476Y-14543476D01*
X8495476Y-14438714D02*
X8505000Y-14419667D01*
X8524048Y-14410143D01*
X8552619Y-14410143D01*
X8571667Y-14419667D01*
X8581190Y-14438714D01*
X8581190Y-14543476D01*
X8676429Y-14543476D02*
X8676429Y-14410143D01*
X8676429Y-14429190D02*
X8685952Y-14419667D01*
X8705000Y-14410143D01*
X8733571Y-14410143D01*
X8752619Y-14419667D01*
X8762143Y-14438714D01*
X8762143Y-14543476D01*
X8762143Y-14438714D02*
X8771667Y-14419667D01*
X8790714Y-14410143D01*
X8819286Y-14410143D01*
X8838333Y-14419667D01*
X8847857Y-14438714D01*
X8847857Y-14543476D01*
X9238333Y-14333952D02*
X9066905Y-14591095D01*
X9495476Y-14343476D02*
X9514524Y-14343476D01*
X9533571Y-14353000D01*
X9543095Y-14362524D01*
X9552619Y-14381571D01*
X9562143Y-14419667D01*
X9562143Y-14467286D01*
X9552619Y-14505381D01*
X9543095Y-14524428D01*
X9533571Y-14533952D01*
X9514524Y-14543476D01*
X9495476Y-14543476D01*
X9476429Y-14533952D01*
X9466905Y-14524428D01*
X9457381Y-14505381D01*
X9447857Y-14467286D01*
X9447857Y-14419667D01*
X9457381Y-14381571D01*
X9466905Y-14362524D01*
X9476429Y-14353000D01*
X9495476Y-14343476D01*
X9647857Y-14524428D02*
X9657381Y-14533952D01*
X9647857Y-14543476D01*
X9638333Y-14533952D01*
X9647857Y-14524428D01*
X9647857Y-14543476D01*
X9781190Y-14343476D02*
X9800238Y-14343476D01*
X9819286Y-14353000D01*
X9828810Y-14362524D01*
X9838333Y-14381571D01*
X9847857Y-14419667D01*
X9847857Y-14467286D01*
X9838333Y-14505381D01*
X9828810Y-14524428D01*
X9819286Y-14533952D01*
X9800238Y-14543476D01*
X9781190Y-14543476D01*
X9762143Y-14533952D01*
X9752619Y-14524428D01*
X9743095Y-14505381D01*
X9733571Y-14467286D01*
X9733571Y-14419667D01*
X9743095Y-14381571D01*
X9752619Y-14362524D01*
X9762143Y-14353000D01*
X9781190Y-14343476D01*
X9914524Y-14343476D02*
X10038333Y-14343476D01*
X9971667Y-14419667D01*
X10000238Y-14419667D01*
X10019286Y-14429190D01*
X10028810Y-14438714D01*
X10038333Y-14457762D01*
X10038333Y-14505381D01*
X10028810Y-14524428D01*
X10019286Y-14533952D01*
X10000238Y-14543476D01*
X9943095Y-14543476D01*
X9924048Y-14533952D01*
X9914524Y-14524428D01*
X10162143Y-14343476D02*
X10181190Y-14343476D01*
X10200238Y-14353000D01*
X10209762Y-14362524D01*
X10219286Y-14381571D01*
X10228810Y-14419667D01*
X10228810Y-14467286D01*
X10219286Y-14505381D01*
X10209762Y-14524428D01*
X10200238Y-14533952D01*
X10181190Y-14543476D01*
X10162143Y-14543476D01*
X10143095Y-14533952D01*
X10133571Y-14524428D01*
X10124048Y-14505381D01*
X10114524Y-14467286D01*
X10114524Y-14419667D01*
X10124048Y-14381571D01*
X10133571Y-14362524D01*
X10143095Y-14353000D01*
X10162143Y-14343476D01*
X10352619Y-14343476D02*
X10371667Y-14343476D01*
X10390714Y-14353000D01*
X10400238Y-14362524D01*
X10409762Y-14381571D01*
X10419286Y-14419667D01*
X10419286Y-14467286D01*
X10409762Y-14505381D01*
X10400238Y-14524428D01*
X10390714Y-14533952D01*
X10371667Y-14543476D01*
X10352619Y-14543476D01*
X10333571Y-14533952D01*
X10324048Y-14524428D01*
X10314524Y-14505381D01*
X10305000Y-14467286D01*
X10305000Y-14419667D01*
X10314524Y-14381571D01*
X10324048Y-14362524D01*
X10333571Y-14353000D01*
X10352619Y-14343476D01*
X10495476Y-14343476D02*
X10495476Y-14381571D01*
X10571667Y-14343476D02*
X10571667Y-14381571D01*
X10866905Y-14619667D02*
X10857381Y-14610143D01*
X10838333Y-14581571D01*
X10828810Y-14562524D01*
X10819286Y-14533952D01*
X10809762Y-14486333D01*
X10809762Y-14448238D01*
X10819286Y-14400619D01*
X10828810Y-14372048D01*
X10838333Y-14353000D01*
X10857381Y-14324428D01*
X10866905Y-14314905D01*
X11047857Y-14543476D02*
X10933571Y-14543476D01*
X10990714Y-14543476D02*
X10990714Y-14343476D01*
X10971667Y-14372048D01*
X10952619Y-14391095D01*
X10933571Y-14400619D01*
X11219286Y-14343476D02*
X11181190Y-14343476D01*
X11162143Y-14353000D01*
X11152619Y-14362524D01*
X11133571Y-14391095D01*
X11124048Y-14429190D01*
X11124048Y-14505381D01*
X11133571Y-14524428D01*
X11143095Y-14533952D01*
X11162143Y-14543476D01*
X11200238Y-14543476D01*
X11219286Y-14533952D01*
X11228809Y-14524428D01*
X11238333Y-14505381D01*
X11238333Y-14457762D01*
X11228809Y-14438714D01*
X11219286Y-14429190D01*
X11200238Y-14419667D01*
X11162143Y-14419667D01*
X11143095Y-14429190D01*
X11133571Y-14438714D01*
X11124048Y-14457762D01*
X11476428Y-14543476D02*
X11476428Y-14343476D01*
X11562143Y-14543476D02*
X11562143Y-14438714D01*
X11552619Y-14419667D01*
X11533571Y-14410143D01*
X11505000Y-14410143D01*
X11485952Y-14419667D01*
X11476428Y-14429190D01*
X11685952Y-14543476D02*
X11666905Y-14533952D01*
X11657381Y-14524428D01*
X11647857Y-14505381D01*
X11647857Y-14448238D01*
X11657381Y-14429190D01*
X11666905Y-14419667D01*
X11685952Y-14410143D01*
X11714524Y-14410143D01*
X11733571Y-14419667D01*
X11743095Y-14429190D01*
X11752619Y-14448238D01*
X11752619Y-14505381D01*
X11743095Y-14524428D01*
X11733571Y-14533952D01*
X11714524Y-14543476D01*
X11685952Y-14543476D01*
X11866905Y-14543476D02*
X11847857Y-14533952D01*
X11838333Y-14514905D01*
X11838333Y-14343476D01*
X12019286Y-14533952D02*
X12000238Y-14543476D01*
X11962143Y-14543476D01*
X11943095Y-14533952D01*
X11933571Y-14514905D01*
X11933571Y-14438714D01*
X11943095Y-14419667D01*
X11962143Y-14410143D01*
X12000238Y-14410143D01*
X12019286Y-14419667D01*
X12028809Y-14438714D01*
X12028809Y-14457762D01*
X11933571Y-14476809D01*
X12105000Y-14533952D02*
X12124048Y-14543476D01*
X12162143Y-14543476D01*
X12181190Y-14533952D01*
X12190714Y-14514905D01*
X12190714Y-14505381D01*
X12181190Y-14486333D01*
X12162143Y-14476809D01*
X12133571Y-14476809D01*
X12114524Y-14467286D01*
X12105000Y-14448238D01*
X12105000Y-14438714D01*
X12114524Y-14419667D01*
X12133571Y-14410143D01*
X12162143Y-14410143D01*
X12181190Y-14419667D01*
X12257381Y-14619667D02*
X12266905Y-14610143D01*
X12285952Y-14581571D01*
X12295476Y-14562524D01*
X12305000Y-14533952D01*
X12314524Y-14486333D01*
X12314524Y-14448238D01*
X12305000Y-14400619D01*
X12295476Y-14372048D01*
X12285952Y-14353000D01*
X12266905Y-14324428D01*
X12257381Y-14314905D01*
D15*
X7283284Y-14745284D02*
X7283284Y-14688715D01*
X7226715Y-14688715D01*
X7226715Y-14745284D01*
X7283284Y-14745284D01*
D11*
X7590714Y-14607476D02*
X7609762Y-14607476D01*
X7628809Y-14617000D01*
X7638333Y-14626524D01*
X7647857Y-14645571D01*
X7657381Y-14683667D01*
X7657381Y-14731286D01*
X7647857Y-14769381D01*
X7638333Y-14788428D01*
X7628809Y-14797952D01*
X7609762Y-14807476D01*
X7590714Y-14807476D01*
X7571667Y-14797952D01*
X7562143Y-14788428D01*
X7552619Y-14769381D01*
X7543095Y-14731286D01*
X7543095Y-14683667D01*
X7552619Y-14645571D01*
X7562143Y-14626524D01*
X7571667Y-14617000D01*
X7590714Y-14607476D01*
X7743095Y-14788428D02*
X7752619Y-14797952D01*
X7743095Y-14807476D01*
X7733571Y-14797952D01*
X7743095Y-14788428D01*
X7743095Y-14807476D01*
X7866905Y-14693190D02*
X7847857Y-14683667D01*
X7838333Y-14674143D01*
X7828809Y-14655095D01*
X7828809Y-14645571D01*
X7838333Y-14626524D01*
X7847857Y-14617000D01*
X7866905Y-14607476D01*
X7905000Y-14607476D01*
X7924048Y-14617000D01*
X7933571Y-14626524D01*
X7943095Y-14645571D01*
X7943095Y-14655095D01*
X7933571Y-14674143D01*
X7924048Y-14683667D01*
X7905000Y-14693190D01*
X7866905Y-14693190D01*
X7847857Y-14702714D01*
X7838333Y-14712238D01*
X7828809Y-14731286D01*
X7828809Y-14769381D01*
X7838333Y-14788428D01*
X7847857Y-14797952D01*
X7866905Y-14807476D01*
X7905000Y-14807476D01*
X7924048Y-14797952D01*
X7933571Y-14788428D01*
X7943095Y-14769381D01*
X7943095Y-14731286D01*
X7933571Y-14712238D01*
X7924048Y-14702714D01*
X7905000Y-14693190D01*
X8066905Y-14607476D02*
X8085952Y-14607476D01*
X8105000Y-14617000D01*
X8114524Y-14626524D01*
X8124048Y-14645571D01*
X8133571Y-14683667D01*
X8133571Y-14731286D01*
X8124048Y-14769381D01*
X8114524Y-14788428D01*
X8105000Y-14797952D01*
X8085952Y-14807476D01*
X8066905Y-14807476D01*
X8047857Y-14797952D01*
X8038333Y-14788428D01*
X8028809Y-14769381D01*
X8019286Y-14731286D01*
X8019286Y-14683667D01*
X8028809Y-14645571D01*
X8038333Y-14626524D01*
X8047857Y-14617000D01*
X8066905Y-14607476D01*
X8257381Y-14607476D02*
X8276428Y-14607476D01*
X8295476Y-14617000D01*
X8305000Y-14626524D01*
X8314524Y-14645571D01*
X8324048Y-14683667D01*
X8324048Y-14731286D01*
X8314524Y-14769381D01*
X8305000Y-14788428D01*
X8295476Y-14797952D01*
X8276428Y-14807476D01*
X8257381Y-14807476D01*
X8238333Y-14797952D01*
X8228809Y-14788428D01*
X8219286Y-14769381D01*
X8209762Y-14731286D01*
X8209762Y-14683667D01*
X8219286Y-14645571D01*
X8228809Y-14626524D01*
X8238333Y-14617000D01*
X8257381Y-14607476D01*
X8409762Y-14807476D02*
X8409762Y-14674143D01*
X8409762Y-14693190D02*
X8419286Y-14683667D01*
X8438333Y-14674143D01*
X8466905Y-14674143D01*
X8485952Y-14683667D01*
X8495476Y-14702714D01*
X8495476Y-14807476D01*
X8495476Y-14702714D02*
X8505000Y-14683667D01*
X8524048Y-14674143D01*
X8552619Y-14674143D01*
X8571667Y-14683667D01*
X8581190Y-14702714D01*
X8581190Y-14807476D01*
X8676429Y-14807476D02*
X8676429Y-14674143D01*
X8676429Y-14693190D02*
X8685952Y-14683667D01*
X8705000Y-14674143D01*
X8733571Y-14674143D01*
X8752619Y-14683667D01*
X8762143Y-14702714D01*
X8762143Y-14807476D01*
X8762143Y-14702714D02*
X8771667Y-14683667D01*
X8790714Y-14674143D01*
X8819286Y-14674143D01*
X8838333Y-14683667D01*
X8847857Y-14702714D01*
X8847857Y-14807476D01*
X9238333Y-14597952D02*
X9066905Y-14855095D01*
X9495476Y-14607476D02*
X9514524Y-14607476D01*
X9533571Y-14617000D01*
X9543095Y-14626524D01*
X9552619Y-14645571D01*
X9562143Y-14683667D01*
X9562143Y-14731286D01*
X9552619Y-14769381D01*
X9543095Y-14788428D01*
X9533571Y-14797952D01*
X9514524Y-14807476D01*
X9495476Y-14807476D01*
X9476429Y-14797952D01*
X9466905Y-14788428D01*
X9457381Y-14769381D01*
X9447857Y-14731286D01*
X9447857Y-14683667D01*
X9457381Y-14645571D01*
X9466905Y-14626524D01*
X9476429Y-14617000D01*
X9495476Y-14607476D01*
X9647857Y-14788428D02*
X9657381Y-14797952D01*
X9647857Y-14807476D01*
X9638333Y-14797952D01*
X9647857Y-14788428D01*
X9647857Y-14807476D01*
X9781190Y-14607476D02*
X9800238Y-14607476D01*
X9819286Y-14617000D01*
X9828810Y-14626524D01*
X9838333Y-14645571D01*
X9847857Y-14683667D01*
X9847857Y-14731286D01*
X9838333Y-14769381D01*
X9828810Y-14788428D01*
X9819286Y-14797952D01*
X9800238Y-14807476D01*
X9781190Y-14807476D01*
X9762143Y-14797952D01*
X9752619Y-14788428D01*
X9743095Y-14769381D01*
X9733571Y-14731286D01*
X9733571Y-14683667D01*
X9743095Y-14645571D01*
X9752619Y-14626524D01*
X9762143Y-14617000D01*
X9781190Y-14607476D01*
X9914524Y-14607476D02*
X10038333Y-14607476D01*
X9971667Y-14683667D01*
X10000238Y-14683667D01*
X10019286Y-14693190D01*
X10028810Y-14702714D01*
X10038333Y-14721762D01*
X10038333Y-14769381D01*
X10028810Y-14788428D01*
X10019286Y-14797952D01*
X10000238Y-14807476D01*
X9943095Y-14807476D01*
X9924048Y-14797952D01*
X9914524Y-14788428D01*
X10228810Y-14807476D02*
X10114524Y-14807476D01*
X10171667Y-14807476D02*
X10171667Y-14607476D01*
X10152619Y-14636048D01*
X10133571Y-14655095D01*
X10114524Y-14664619D01*
X10409762Y-14607476D02*
X10314524Y-14607476D01*
X10305000Y-14702714D01*
X10314524Y-14693190D01*
X10333571Y-14683667D01*
X10381190Y-14683667D01*
X10400238Y-14693190D01*
X10409762Y-14702714D01*
X10419286Y-14721762D01*
X10419286Y-14769381D01*
X10409762Y-14788428D01*
X10400238Y-14797952D01*
X10381190Y-14807476D01*
X10333571Y-14807476D01*
X10314524Y-14797952D01*
X10305000Y-14788428D01*
X10495476Y-14607476D02*
X10495476Y-14645571D01*
X10571667Y-14607476D02*
X10571667Y-14645571D01*
X10866905Y-14883667D02*
X10857381Y-14874143D01*
X10838333Y-14845571D01*
X10828810Y-14826524D01*
X10819286Y-14797952D01*
X10809762Y-14750333D01*
X10809762Y-14712238D01*
X10819286Y-14664619D01*
X10828810Y-14636048D01*
X10838333Y-14617000D01*
X10857381Y-14588428D01*
X10866905Y-14578905D01*
X11047857Y-14807476D02*
X10933571Y-14807476D01*
X10990714Y-14807476D02*
X10990714Y-14607476D01*
X10971667Y-14636048D01*
X10952619Y-14655095D01*
X10933571Y-14664619D01*
X11219286Y-14674143D02*
X11219286Y-14807476D01*
X11171667Y-14597952D02*
X11124048Y-14740809D01*
X11247857Y-14740809D01*
X11476428Y-14807476D02*
X11476428Y-14607476D01*
X11562143Y-14807476D02*
X11562143Y-14702714D01*
X11552619Y-14683667D01*
X11533571Y-14674143D01*
X11505000Y-14674143D01*
X11485952Y-14683667D01*
X11476428Y-14693190D01*
X11685952Y-14807476D02*
X11666905Y-14797952D01*
X11657381Y-14788428D01*
X11647857Y-14769381D01*
X11647857Y-14712238D01*
X11657381Y-14693190D01*
X11666905Y-14683667D01*
X11685952Y-14674143D01*
X11714524Y-14674143D01*
X11733571Y-14683667D01*
X11743095Y-14693190D01*
X11752619Y-14712238D01*
X11752619Y-14769381D01*
X11743095Y-14788428D01*
X11733571Y-14797952D01*
X11714524Y-14807476D01*
X11685952Y-14807476D01*
X11866905Y-14807476D02*
X11847857Y-14797952D01*
X11838333Y-14778905D01*
X11838333Y-14607476D01*
X12019286Y-14797952D02*
X12000238Y-14807476D01*
X11962143Y-14807476D01*
X11943095Y-14797952D01*
X11933571Y-14778905D01*
X11933571Y-14702714D01*
X11943095Y-14683667D01*
X11962143Y-14674143D01*
X12000238Y-14674143D01*
X12019286Y-14683667D01*
X12028809Y-14702714D01*
X12028809Y-14721762D01*
X11933571Y-14740809D01*
X12105000Y-14797952D02*
X12124048Y-14807476D01*
X12162143Y-14807476D01*
X12181190Y-14797952D01*
X12190714Y-14778905D01*
X12190714Y-14769381D01*
X12181190Y-14750333D01*
X12162143Y-14740809D01*
X12133571Y-14740809D01*
X12114524Y-14731286D01*
X12105000Y-14712238D01*
X12105000Y-14702714D01*
X12114524Y-14683667D01*
X12133571Y-14674143D01*
X12162143Y-14674143D01*
X12181190Y-14683667D01*
X12257381Y-14883667D02*
X12266905Y-14874143D01*
X12285952Y-14845571D01*
X12295476Y-14826524D01*
X12305000Y-14797952D01*
X12314524Y-14750333D01*
X12314524Y-14712238D01*
X12305000Y-14664619D01*
X12295476Y-14636048D01*
X12285952Y-14617000D01*
X12266905Y-14588428D01*
X12257381Y-14578905D01*
D16*
X7250000Y-15026000D02*
X7295000Y-14981000D01*
X7250000Y-14936000D01*
X7205000Y-14981000D01*
X7250000Y-15026000D01*
D11*
X7590714Y-14871476D02*
X7609762Y-14871476D01*
X7628809Y-14881000D01*
X7638333Y-14890524D01*
X7647857Y-14909571D01*
X7657381Y-14947667D01*
X7657381Y-14995286D01*
X7647857Y-15033381D01*
X7638333Y-15052428D01*
X7628809Y-15061952D01*
X7609762Y-15071476D01*
X7590714Y-15071476D01*
X7571667Y-15061952D01*
X7562143Y-15052428D01*
X7552619Y-15033381D01*
X7543095Y-14995286D01*
X7543095Y-14947667D01*
X7552619Y-14909571D01*
X7562143Y-14890524D01*
X7571667Y-14881000D01*
X7590714Y-14871476D01*
X7743095Y-15052428D02*
X7752619Y-15061952D01*
X7743095Y-15071476D01*
X7733571Y-15061952D01*
X7743095Y-15052428D01*
X7743095Y-15071476D01*
X7847857Y-15071476D02*
X7885952Y-15071476D01*
X7905000Y-15061952D01*
X7914524Y-15052428D01*
X7933571Y-15023857D01*
X7943095Y-14985762D01*
X7943095Y-14909571D01*
X7933571Y-14890524D01*
X7924048Y-14881000D01*
X7905000Y-14871476D01*
X7866905Y-14871476D01*
X7847857Y-14881000D01*
X7838333Y-14890524D01*
X7828809Y-14909571D01*
X7828809Y-14957190D01*
X7838333Y-14976238D01*
X7847857Y-14985762D01*
X7866905Y-14995286D01*
X7905000Y-14995286D01*
X7924048Y-14985762D01*
X7933571Y-14976238D01*
X7943095Y-14957190D01*
X8066905Y-14871476D02*
X8085952Y-14871476D01*
X8105000Y-14881000D01*
X8114524Y-14890524D01*
X8124048Y-14909571D01*
X8133571Y-14947667D01*
X8133571Y-14995286D01*
X8124048Y-15033381D01*
X8114524Y-15052428D01*
X8105000Y-15061952D01*
X8085952Y-15071476D01*
X8066905Y-15071476D01*
X8047857Y-15061952D01*
X8038333Y-15052428D01*
X8028809Y-15033381D01*
X8019286Y-14995286D01*
X8019286Y-14947667D01*
X8028809Y-14909571D01*
X8038333Y-14890524D01*
X8047857Y-14881000D01*
X8066905Y-14871476D01*
X8257381Y-14871476D02*
X8276428Y-14871476D01*
X8295476Y-14881000D01*
X8305000Y-14890524D01*
X8314524Y-14909571D01*
X8324048Y-14947667D01*
X8324048Y-14995286D01*
X8314524Y-15033381D01*
X8305000Y-15052428D01*
X8295476Y-15061952D01*
X8276428Y-15071476D01*
X8257381Y-15071476D01*
X8238333Y-15061952D01*
X8228809Y-15052428D01*
X8219286Y-15033381D01*
X8209762Y-14995286D01*
X8209762Y-14947667D01*
X8219286Y-14909571D01*
X8228809Y-14890524D01*
X8238333Y-14881000D01*
X8257381Y-14871476D01*
X8409762Y-15071476D02*
X8409762Y-14938143D01*
X8409762Y-14957190D02*
X8419286Y-14947667D01*
X8438333Y-14938143D01*
X8466905Y-14938143D01*
X8485952Y-14947667D01*
X8495476Y-14966714D01*
X8495476Y-15071476D01*
X8495476Y-14966714D02*
X8505000Y-14947667D01*
X8524048Y-14938143D01*
X8552619Y-14938143D01*
X8571667Y-14947667D01*
X8581190Y-14966714D01*
X8581190Y-15071476D01*
X8676429Y-15071476D02*
X8676429Y-14938143D01*
X8676429Y-14957190D02*
X8685952Y-14947667D01*
X8705000Y-14938143D01*
X8733571Y-14938143D01*
X8752619Y-14947667D01*
X8762143Y-14966714D01*
X8762143Y-15071476D01*
X8762143Y-14966714D02*
X8771667Y-14947667D01*
X8790714Y-14938143D01*
X8819286Y-14938143D01*
X8838333Y-14947667D01*
X8847857Y-14966714D01*
X8847857Y-15071476D01*
X9238333Y-14861952D02*
X9066905Y-15119095D01*
X9495476Y-14871476D02*
X9514524Y-14871476D01*
X9533571Y-14881000D01*
X9543095Y-14890524D01*
X9552619Y-14909571D01*
X9562143Y-14947667D01*
X9562143Y-14995286D01*
X9552619Y-15033381D01*
X9543095Y-15052428D01*
X9533571Y-15061952D01*
X9514524Y-15071476D01*
X9495476Y-15071476D01*
X9476429Y-15061952D01*
X9466905Y-15052428D01*
X9457381Y-15033381D01*
X9447857Y-14995286D01*
X9447857Y-14947667D01*
X9457381Y-14909571D01*
X9466905Y-14890524D01*
X9476429Y-14881000D01*
X9495476Y-14871476D01*
X9647857Y-15052428D02*
X9657381Y-15061952D01*
X9647857Y-15071476D01*
X9638333Y-15061952D01*
X9647857Y-15052428D01*
X9647857Y-15071476D01*
X9781190Y-14871476D02*
X9800238Y-14871476D01*
X9819286Y-14881000D01*
X9828810Y-14890524D01*
X9838333Y-14909571D01*
X9847857Y-14947667D01*
X9847857Y-14995286D01*
X9838333Y-15033381D01*
X9828810Y-15052428D01*
X9819286Y-15061952D01*
X9800238Y-15071476D01*
X9781190Y-15071476D01*
X9762143Y-15061952D01*
X9752619Y-15052428D01*
X9743095Y-15033381D01*
X9733571Y-14995286D01*
X9733571Y-14947667D01*
X9743095Y-14909571D01*
X9752619Y-14890524D01*
X9762143Y-14881000D01*
X9781190Y-14871476D01*
X9914524Y-14871476D02*
X10038333Y-14871476D01*
X9971667Y-14947667D01*
X10000238Y-14947667D01*
X10019286Y-14957190D01*
X10028810Y-14966714D01*
X10038333Y-14985762D01*
X10038333Y-15033381D01*
X10028810Y-15052428D01*
X10019286Y-15061952D01*
X10000238Y-15071476D01*
X9943095Y-15071476D01*
X9924048Y-15061952D01*
X9914524Y-15052428D01*
X10219286Y-14871476D02*
X10124048Y-14871476D01*
X10114524Y-14966714D01*
X10124048Y-14957190D01*
X10143095Y-14947667D01*
X10190714Y-14947667D01*
X10209762Y-14957190D01*
X10219286Y-14966714D01*
X10228810Y-14985762D01*
X10228810Y-15033381D01*
X10219286Y-15052428D01*
X10209762Y-15061952D01*
X10190714Y-15071476D01*
X10143095Y-15071476D01*
X10124048Y-15061952D01*
X10114524Y-15052428D01*
X10400238Y-14938143D02*
X10400238Y-15071476D01*
X10352619Y-14861952D02*
X10305000Y-15004809D01*
X10428810Y-15004809D01*
X10495476Y-14871476D02*
X10495476Y-14909571D01*
X10571667Y-14871476D02*
X10571667Y-14909571D01*
X10866905Y-15147667D02*
X10857381Y-15138143D01*
X10838333Y-15109571D01*
X10828810Y-15090524D01*
X10819286Y-15061952D01*
X10809762Y-15014333D01*
X10809762Y-14976238D01*
X10819286Y-14928619D01*
X10828810Y-14900048D01*
X10838333Y-14881000D01*
X10857381Y-14852428D01*
X10866905Y-14842905D01*
X11028810Y-14938143D02*
X11028810Y-15071476D01*
X10981190Y-14861952D02*
X10933571Y-15004809D01*
X11057381Y-15004809D01*
X11285952Y-15071476D02*
X11285952Y-14871476D01*
X11371667Y-15071476D02*
X11371667Y-14966714D01*
X11362143Y-14947667D01*
X11343095Y-14938143D01*
X11314524Y-14938143D01*
X11295476Y-14947667D01*
X11285952Y-14957190D01*
X11495476Y-15071476D02*
X11476428Y-15061952D01*
X11466905Y-15052428D01*
X11457381Y-15033381D01*
X11457381Y-14976238D01*
X11466905Y-14957190D01*
X11476428Y-14947667D01*
X11495476Y-14938143D01*
X11524048Y-14938143D01*
X11543095Y-14947667D01*
X11552619Y-14957190D01*
X11562143Y-14976238D01*
X11562143Y-15033381D01*
X11552619Y-15052428D01*
X11543095Y-15061952D01*
X11524048Y-15071476D01*
X11495476Y-15071476D01*
X11676428Y-15071476D02*
X11657381Y-15061952D01*
X11647857Y-15042905D01*
X11647857Y-14871476D01*
X11828809Y-15061952D02*
X11809762Y-15071476D01*
X11771667Y-15071476D01*
X11752619Y-15061952D01*
X11743095Y-15042905D01*
X11743095Y-14966714D01*
X11752619Y-14947667D01*
X11771667Y-14938143D01*
X11809762Y-14938143D01*
X11828809Y-14947667D01*
X11838333Y-14966714D01*
X11838333Y-14985762D01*
X11743095Y-15004809D01*
X11914524Y-15061952D02*
X11933571Y-15071476D01*
X11971667Y-15071476D01*
X11990714Y-15061952D01*
X12000238Y-15042905D01*
X12000238Y-15033381D01*
X11990714Y-15014333D01*
X11971667Y-15004809D01*
X11943095Y-15004809D01*
X11924048Y-14995286D01*
X11914524Y-14976238D01*
X11914524Y-14966714D01*
X11924048Y-14947667D01*
X11943095Y-14938143D01*
X11971667Y-14938143D01*
X11990714Y-14947667D01*
X12066905Y-15147667D02*
X12076428Y-15138143D01*
X12095476Y-15109571D01*
X12105000Y-15090524D01*
X12114524Y-15061952D01*
X12124048Y-15014333D01*
X12124048Y-14976238D01*
X12114524Y-14928619D01*
X12105000Y-14900048D01*
X12095476Y-14881000D01*
X12076428Y-14852428D01*
X12066905Y-14842905D01*
D10*
X7195000Y-15195000D02*
X7295000Y-15295000D01*
X7295000Y-15195000D02*
X7195000Y-15295000D01*
X7295000Y-15245000D02*
G75*
G03*
X7295000Y-15245000I-50000J0D01*
G01*
D11*
X7657381Y-15335476D02*
X7543095Y-15335476D01*
X7600238Y-15335476D02*
X7600238Y-15135476D01*
X7581190Y-15164048D01*
X7562143Y-15183095D01*
X7543095Y-15192619D01*
X7743095Y-15316428D02*
X7752619Y-15325952D01*
X7743095Y-15335476D01*
X7733571Y-15325952D01*
X7743095Y-15316428D01*
X7743095Y-15335476D01*
X7876428Y-15135476D02*
X7895476Y-15135476D01*
X7914524Y-15145000D01*
X7924048Y-15154524D01*
X7933571Y-15173571D01*
X7943095Y-15211667D01*
X7943095Y-15259286D01*
X7933571Y-15297381D01*
X7924048Y-15316428D01*
X7914524Y-15325952D01*
X7895476Y-15335476D01*
X7876428Y-15335476D01*
X7857381Y-15325952D01*
X7847857Y-15316428D01*
X7838333Y-15297381D01*
X7828809Y-15259286D01*
X7828809Y-15211667D01*
X7838333Y-15173571D01*
X7847857Y-15154524D01*
X7857381Y-15145000D01*
X7876428Y-15135476D01*
X8066905Y-15135476D02*
X8085952Y-15135476D01*
X8105000Y-15145000D01*
X8114524Y-15154524D01*
X8124048Y-15173571D01*
X8133571Y-15211667D01*
X8133571Y-15259286D01*
X8124048Y-15297381D01*
X8114524Y-15316428D01*
X8105000Y-15325952D01*
X8085952Y-15335476D01*
X8066905Y-15335476D01*
X8047857Y-15325952D01*
X8038333Y-15316428D01*
X8028809Y-15297381D01*
X8019286Y-15259286D01*
X8019286Y-15211667D01*
X8028809Y-15173571D01*
X8038333Y-15154524D01*
X8047857Y-15145000D01*
X8066905Y-15135476D01*
X8257381Y-15135476D02*
X8276428Y-15135476D01*
X8295476Y-15145000D01*
X8305000Y-15154524D01*
X8314524Y-15173571D01*
X8324048Y-15211667D01*
X8324048Y-15259286D01*
X8314524Y-15297381D01*
X8305000Y-15316428D01*
X8295476Y-15325952D01*
X8276428Y-15335476D01*
X8257381Y-15335476D01*
X8238333Y-15325952D01*
X8228809Y-15316428D01*
X8219286Y-15297381D01*
X8209762Y-15259286D01*
X8209762Y-15211667D01*
X8219286Y-15173571D01*
X8228809Y-15154524D01*
X8238333Y-15145000D01*
X8257381Y-15135476D01*
X8409762Y-15335476D02*
X8409762Y-15202143D01*
X8409762Y-15221190D02*
X8419286Y-15211667D01*
X8438333Y-15202143D01*
X8466905Y-15202143D01*
X8485952Y-15211667D01*
X8495476Y-15230714D01*
X8495476Y-15335476D01*
X8495476Y-15230714D02*
X8505000Y-15211667D01*
X8524048Y-15202143D01*
X8552619Y-15202143D01*
X8571667Y-15211667D01*
X8581190Y-15230714D01*
X8581190Y-15335476D01*
X8676429Y-15335476D02*
X8676429Y-15202143D01*
X8676429Y-15221190D02*
X8685952Y-15211667D01*
X8705000Y-15202143D01*
X8733571Y-15202143D01*
X8752619Y-15211667D01*
X8762143Y-15230714D01*
X8762143Y-15335476D01*
X8762143Y-15230714D02*
X8771667Y-15211667D01*
X8790714Y-15202143D01*
X8819286Y-15202143D01*
X8838333Y-15211667D01*
X8847857Y-15230714D01*
X8847857Y-15335476D01*
X9238333Y-15125952D02*
X9066905Y-15383095D01*
X9495476Y-15135476D02*
X9514524Y-15135476D01*
X9533571Y-15145000D01*
X9543095Y-15154524D01*
X9552619Y-15173571D01*
X9562143Y-15211667D01*
X9562143Y-15259286D01*
X9552619Y-15297381D01*
X9543095Y-15316428D01*
X9533571Y-15325952D01*
X9514524Y-15335476D01*
X9495476Y-15335476D01*
X9476429Y-15325952D01*
X9466905Y-15316428D01*
X9457381Y-15297381D01*
X9447857Y-15259286D01*
X9447857Y-15211667D01*
X9457381Y-15173571D01*
X9466905Y-15154524D01*
X9476429Y-15145000D01*
X9495476Y-15135476D01*
X9647857Y-15316428D02*
X9657381Y-15325952D01*
X9647857Y-15335476D01*
X9638333Y-15325952D01*
X9647857Y-15316428D01*
X9647857Y-15335476D01*
X9781190Y-15135476D02*
X9800238Y-15135476D01*
X9819286Y-15145000D01*
X9828810Y-15154524D01*
X9838333Y-15173571D01*
X9847857Y-15211667D01*
X9847857Y-15259286D01*
X9838333Y-15297381D01*
X9828810Y-15316428D01*
X9819286Y-15325952D01*
X9800238Y-15335476D01*
X9781190Y-15335476D01*
X9762143Y-15325952D01*
X9752619Y-15316428D01*
X9743095Y-15297381D01*
X9733571Y-15259286D01*
X9733571Y-15211667D01*
X9743095Y-15173571D01*
X9752619Y-15154524D01*
X9762143Y-15145000D01*
X9781190Y-15135476D01*
X9914524Y-15135476D02*
X10038333Y-15135476D01*
X9971667Y-15211667D01*
X10000238Y-15211667D01*
X10019286Y-15221190D01*
X10028810Y-15230714D01*
X10038333Y-15249762D01*
X10038333Y-15297381D01*
X10028810Y-15316428D01*
X10019286Y-15325952D01*
X10000238Y-15335476D01*
X9943095Y-15335476D01*
X9924048Y-15325952D01*
X9914524Y-15316428D01*
X10133571Y-15335476D02*
X10171667Y-15335476D01*
X10190714Y-15325952D01*
X10200238Y-15316428D01*
X10219286Y-15287857D01*
X10228810Y-15249762D01*
X10228810Y-15173571D01*
X10219286Y-15154524D01*
X10209762Y-15145000D01*
X10190714Y-15135476D01*
X10152619Y-15135476D01*
X10133571Y-15145000D01*
X10124048Y-15154524D01*
X10114524Y-15173571D01*
X10114524Y-15221190D01*
X10124048Y-15240238D01*
X10133571Y-15249762D01*
X10152619Y-15259286D01*
X10190714Y-15259286D01*
X10209762Y-15249762D01*
X10219286Y-15240238D01*
X10228810Y-15221190D01*
X10400238Y-15202143D02*
X10400238Y-15335476D01*
X10352619Y-15125952D02*
X10305000Y-15268809D01*
X10428810Y-15268809D01*
X10495476Y-15135476D02*
X10495476Y-15173571D01*
X10571667Y-15135476D02*
X10571667Y-15173571D01*
X10866905Y-15411667D02*
X10857381Y-15402143D01*
X10838333Y-15373571D01*
X10828810Y-15354524D01*
X10819286Y-15325952D01*
X10809762Y-15278333D01*
X10809762Y-15240238D01*
X10819286Y-15192619D01*
X10828810Y-15164048D01*
X10838333Y-15145000D01*
X10857381Y-15116428D01*
X10866905Y-15106905D01*
X11028810Y-15202143D02*
X11028810Y-15335476D01*
X10981190Y-15125952D02*
X10933571Y-15268809D01*
X11057381Y-15268809D01*
X11219286Y-15135476D02*
X11181190Y-15135476D01*
X11162143Y-15145000D01*
X11152619Y-15154524D01*
X11133571Y-15183095D01*
X11124048Y-15221190D01*
X11124048Y-15297381D01*
X11133571Y-15316428D01*
X11143095Y-15325952D01*
X11162143Y-15335476D01*
X11200238Y-15335476D01*
X11219286Y-15325952D01*
X11228809Y-15316428D01*
X11238333Y-15297381D01*
X11238333Y-15249762D01*
X11228809Y-15230714D01*
X11219286Y-15221190D01*
X11200238Y-15211667D01*
X11162143Y-15211667D01*
X11143095Y-15221190D01*
X11133571Y-15230714D01*
X11124048Y-15249762D01*
X11476428Y-15335476D02*
X11476428Y-15135476D01*
X11562143Y-15335476D02*
X11562143Y-15230714D01*
X11552619Y-15211667D01*
X11533571Y-15202143D01*
X11505000Y-15202143D01*
X11485952Y-15211667D01*
X11476428Y-15221190D01*
X11685952Y-15335476D02*
X11666905Y-15325952D01*
X11657381Y-15316428D01*
X11647857Y-15297381D01*
X11647857Y-15240238D01*
X11657381Y-15221190D01*
X11666905Y-15211667D01*
X11685952Y-15202143D01*
X11714524Y-15202143D01*
X11733571Y-15211667D01*
X11743095Y-15221190D01*
X11752619Y-15240238D01*
X11752619Y-15297381D01*
X11743095Y-15316428D01*
X11733571Y-15325952D01*
X11714524Y-15335476D01*
X11685952Y-15335476D01*
X11866905Y-15335476D02*
X11847857Y-15325952D01*
X11838333Y-15306905D01*
X11838333Y-15135476D01*
X12019286Y-15325952D02*
X12000238Y-15335476D01*
X11962143Y-15335476D01*
X11943095Y-15325952D01*
X11933571Y-15306905D01*
X11933571Y-15230714D01*
X11943095Y-15211667D01*
X11962143Y-15202143D01*
X12000238Y-15202143D01*
X12019286Y-15211667D01*
X12028809Y-15230714D01*
X12028809Y-15249762D01*
X11933571Y-15268809D01*
X12105000Y-15325952D02*
X12124048Y-15335476D01*
X12162143Y-15335476D01*
X12181190Y-15325952D01*
X12190714Y-15306905D01*
X12190714Y-15297381D01*
X12181190Y-15278333D01*
X12162143Y-15268809D01*
X12133571Y-15268809D01*
X12114524Y-15259286D01*
X12105000Y-15240238D01*
X12105000Y-15230714D01*
X12114524Y-15211667D01*
X12133571Y-15202143D01*
X12162143Y-15202143D01*
X12181190Y-15211667D01*
X12257381Y-15411667D02*
X12266905Y-15402143D01*
X12285952Y-15373571D01*
X12295476Y-15354524D01*
X12305000Y-15325952D01*
X12314524Y-15278333D01*
X12314524Y-15240238D01*
X12305000Y-15192619D01*
X12295476Y-15164048D01*
X12285952Y-15145000D01*
X12266905Y-15116428D01*
X12257381Y-15106905D01*
X7095000Y-15409000D02*
X7295000Y-15609000D01*
X7295000Y-15409000D02*
X7095000Y-15609000D01*
X7195000Y-15409000D02*
X7195000Y-15609000D01*
X7095000Y-15509000D02*
X7295000Y-15509000D01*
X7533571Y-15399476D02*
X7657381Y-15399476D01*
X7590714Y-15475667D01*
X7619286Y-15475667D01*
X7638333Y-15485190D01*
X7647857Y-15494714D01*
X7657381Y-15513762D01*
X7657381Y-15561381D01*
X7647857Y-15580428D01*
X7638333Y-15589952D01*
X7619286Y-15599476D01*
X7562143Y-15599476D01*
X7543095Y-15589952D01*
X7533571Y-15580428D01*
X7743095Y-15580428D02*
X7752619Y-15589952D01*
X7743095Y-15599476D01*
X7733571Y-15589952D01*
X7743095Y-15580428D01*
X7743095Y-15599476D01*
X7828809Y-15418524D02*
X7838333Y-15409000D01*
X7857381Y-15399476D01*
X7905000Y-15399476D01*
X7924048Y-15409000D01*
X7933571Y-15418524D01*
X7943095Y-15437571D01*
X7943095Y-15456619D01*
X7933571Y-15485190D01*
X7819286Y-15599476D01*
X7943095Y-15599476D01*
X8066905Y-15399476D02*
X8085952Y-15399476D01*
X8105000Y-15409000D01*
X8114524Y-15418524D01*
X8124048Y-15437571D01*
X8133571Y-15475667D01*
X8133571Y-15523286D01*
X8124048Y-15561381D01*
X8114524Y-15580428D01*
X8105000Y-15589952D01*
X8085952Y-15599476D01*
X8066905Y-15599476D01*
X8047857Y-15589952D01*
X8038333Y-15580428D01*
X8028809Y-15561381D01*
X8019286Y-15523286D01*
X8019286Y-15475667D01*
X8028809Y-15437571D01*
X8038333Y-15418524D01*
X8047857Y-15409000D01*
X8066905Y-15399476D01*
X8257381Y-15399476D02*
X8276428Y-15399476D01*
X8295476Y-15409000D01*
X8305000Y-15418524D01*
X8314524Y-15437571D01*
X8324048Y-15475667D01*
X8324048Y-15523286D01*
X8314524Y-15561381D01*
X8305000Y-15580428D01*
X8295476Y-15589952D01*
X8276428Y-15599476D01*
X8257381Y-15599476D01*
X8238333Y-15589952D01*
X8228809Y-15580428D01*
X8219286Y-15561381D01*
X8209762Y-15523286D01*
X8209762Y-15475667D01*
X8219286Y-15437571D01*
X8228809Y-15418524D01*
X8238333Y-15409000D01*
X8257381Y-15399476D01*
X8409762Y-15599476D02*
X8409762Y-15466143D01*
X8409762Y-15485190D02*
X8419286Y-15475667D01*
X8438333Y-15466143D01*
X8466905Y-15466143D01*
X8485952Y-15475667D01*
X8495476Y-15494714D01*
X8495476Y-15599476D01*
X8495476Y-15494714D02*
X8505000Y-15475667D01*
X8524048Y-15466143D01*
X8552619Y-15466143D01*
X8571667Y-15475667D01*
X8581190Y-15494714D01*
X8581190Y-15599476D01*
X8676429Y-15599476D02*
X8676429Y-15466143D01*
X8676429Y-15485190D02*
X8685952Y-15475667D01*
X8705000Y-15466143D01*
X8733571Y-15466143D01*
X8752619Y-15475667D01*
X8762143Y-15494714D01*
X8762143Y-15599476D01*
X8762143Y-15494714D02*
X8771667Y-15475667D01*
X8790714Y-15466143D01*
X8819286Y-15466143D01*
X8838333Y-15475667D01*
X8847857Y-15494714D01*
X8847857Y-15599476D01*
X9238333Y-15389952D02*
X9066905Y-15647095D01*
X9495476Y-15399476D02*
X9514524Y-15399476D01*
X9533571Y-15409000D01*
X9543095Y-15418524D01*
X9552619Y-15437571D01*
X9562143Y-15475667D01*
X9562143Y-15523286D01*
X9552619Y-15561381D01*
X9543095Y-15580428D01*
X9533571Y-15589952D01*
X9514524Y-15599476D01*
X9495476Y-15599476D01*
X9476429Y-15589952D01*
X9466905Y-15580428D01*
X9457381Y-15561381D01*
X9447857Y-15523286D01*
X9447857Y-15475667D01*
X9457381Y-15437571D01*
X9466905Y-15418524D01*
X9476429Y-15409000D01*
X9495476Y-15399476D01*
X9647857Y-15580428D02*
X9657381Y-15589952D01*
X9647857Y-15599476D01*
X9638333Y-15589952D01*
X9647857Y-15580428D01*
X9647857Y-15599476D01*
X9847857Y-15599476D02*
X9733571Y-15599476D01*
X9790714Y-15599476D02*
X9790714Y-15399476D01*
X9771667Y-15428048D01*
X9752619Y-15447095D01*
X9733571Y-15456619D01*
X9924048Y-15418524D02*
X9933571Y-15409000D01*
X9952619Y-15399476D01*
X10000238Y-15399476D01*
X10019286Y-15409000D01*
X10028810Y-15418524D01*
X10038333Y-15437571D01*
X10038333Y-15456619D01*
X10028810Y-15485190D01*
X9914524Y-15599476D01*
X10038333Y-15599476D01*
X10209762Y-15399476D02*
X10171667Y-15399476D01*
X10152619Y-15409000D01*
X10143095Y-15418524D01*
X10124048Y-15447095D01*
X10114524Y-15485190D01*
X10114524Y-15561381D01*
X10124048Y-15580428D01*
X10133571Y-15589952D01*
X10152619Y-15599476D01*
X10190714Y-15599476D01*
X10209762Y-15589952D01*
X10219286Y-15580428D01*
X10228810Y-15561381D01*
X10228810Y-15513762D01*
X10219286Y-15494714D01*
X10209762Y-15485190D01*
X10190714Y-15475667D01*
X10152619Y-15475667D01*
X10133571Y-15485190D01*
X10124048Y-15494714D01*
X10114524Y-15513762D01*
X10352619Y-15399476D02*
X10371667Y-15399476D01*
X10390714Y-15409000D01*
X10400238Y-15418524D01*
X10409762Y-15437571D01*
X10419286Y-15475667D01*
X10419286Y-15523286D01*
X10409762Y-15561381D01*
X10400238Y-15580428D01*
X10390714Y-15589952D01*
X10371667Y-15599476D01*
X10352619Y-15599476D01*
X10333571Y-15589952D01*
X10324048Y-15580428D01*
X10314524Y-15561381D01*
X10305000Y-15523286D01*
X10305000Y-15475667D01*
X10314524Y-15437571D01*
X10324048Y-15418524D01*
X10333571Y-15409000D01*
X10352619Y-15399476D01*
X10495476Y-15399476D02*
X10495476Y-15437571D01*
X10571667Y-15399476D02*
X10571667Y-15437571D01*
X10866905Y-15675667D02*
X10857381Y-15666143D01*
X10838333Y-15637571D01*
X10828810Y-15618524D01*
X10819286Y-15589952D01*
X10809762Y-15542333D01*
X10809762Y-15504238D01*
X10819286Y-15456619D01*
X10828810Y-15428048D01*
X10838333Y-15409000D01*
X10857381Y-15380428D01*
X10866905Y-15370905D01*
X11028810Y-15466143D02*
X11028810Y-15599476D01*
X10981190Y-15389952D02*
X10933571Y-15532809D01*
X11057381Y-15532809D01*
X11285952Y-15599476D02*
X11285952Y-15399476D01*
X11371667Y-15599476D02*
X11371667Y-15494714D01*
X11362143Y-15475667D01*
X11343095Y-15466143D01*
X11314524Y-15466143D01*
X11295476Y-15475667D01*
X11285952Y-15485190D01*
X11495476Y-15599476D02*
X11476428Y-15589952D01*
X11466905Y-15580428D01*
X11457381Y-15561381D01*
X11457381Y-15504238D01*
X11466905Y-15485190D01*
X11476428Y-15475667D01*
X11495476Y-15466143D01*
X11524048Y-15466143D01*
X11543095Y-15475667D01*
X11552619Y-15485190D01*
X11562143Y-15504238D01*
X11562143Y-15561381D01*
X11552619Y-15580428D01*
X11543095Y-15589952D01*
X11524048Y-15599476D01*
X11495476Y-15599476D01*
X11676428Y-15599476D02*
X11657381Y-15589952D01*
X11647857Y-15570905D01*
X11647857Y-15399476D01*
X11828809Y-15589952D02*
X11809762Y-15599476D01*
X11771667Y-15599476D01*
X11752619Y-15589952D01*
X11743095Y-15570905D01*
X11743095Y-15494714D01*
X11752619Y-15475667D01*
X11771667Y-15466143D01*
X11809762Y-15466143D01*
X11828809Y-15475667D01*
X11838333Y-15494714D01*
X11838333Y-15513762D01*
X11743095Y-15532809D01*
X11914524Y-15589952D02*
X11933571Y-15599476D01*
X11971667Y-15599476D01*
X11990714Y-15589952D01*
X12000238Y-15570905D01*
X12000238Y-15561381D01*
X11990714Y-15542333D01*
X11971667Y-15532809D01*
X11943095Y-15532809D01*
X11924048Y-15523286D01*
X11914524Y-15504238D01*
X11914524Y-15494714D01*
X11924048Y-15475667D01*
X11943095Y-15466143D01*
X11971667Y-15466143D01*
X11990714Y-15475667D01*
X12066905Y-15675667D02*
X12076428Y-15666143D01*
X12095476Y-15637571D01*
X12105000Y-15618524D01*
X12114524Y-15589952D01*
X12124048Y-15542333D01*
X12124048Y-15504238D01*
X12114524Y-15456619D01*
X12105000Y-15428048D01*
X12095476Y-15409000D01*
X12076428Y-15380428D01*
X12066905Y-15370905D01*
M02*
