M48
; DRILL file {KiCad (6.0.10)} date Mon May  1 21:14:42 2023
; FORMAT={-:-/ absolute / metric / decimal}
; #@! TF.CreationDate,2023-05-01T21:14:42-04:00
; #@! TF.GenerationSoftware,Kicad,Pcbnew,(6.0.10)
; #@! TF.FileFunction,Plated,1,2,PTH
FMAT,2
METRIC
; #@! TA.AperFunction,Plated,PTH,ViaDrill
T1C0.400
; #@! TA.AperFunction,Plated,PTH,ViaDrill
T2C0.500
; #@! TA.AperFunction,Plated,PTH,ComponentDrill
T3C0.762
; #@! TA.AperFunction,Plated,PTH,ComponentDrill
T4C0.800
; #@! TA.AperFunction,Plated,PTH,ComponentDrill
T5C0.900
; #@! TA.AperFunction,Plated,PTH,ComponentDrill
T6C1.000
; #@! TA.AperFunction,Plated,PTH,ComponentDrill
T7C3.200
%
G90
G05
T1
X77.2Y-108.0
X81.5Y-108.0
X82.0Y-87.8
X83.5Y-86.5
X83.5Y-89.1
X87.0Y-106.1
X93.1Y-87.8
X93.1Y-106.1
X98.5Y-93.4
X98.5Y-96.5
X98.6Y-101.275
X98.6Y-103.3
X99.4Y-110.6
X99.4Y-116.424
X99.5Y-94.5
X100.5Y-95.7
X103.75Y-112.25
X103.77Y-114.67
X106.0Y-112.25
X106.0Y-114.7
X108.5Y-86.0
X119.65Y-112.25
X119.65Y-114.7
X123.65Y-112.25
X123.65Y-114.75
X128.3Y-115.5
X129.7Y-117.9
X129.7Y-127.1
X131.712Y-117.388
X131.712Y-125.288
X133.3Y-117.9
X133.3Y-123.7
X135.3Y-115.5
X136.2Y-94.3
X137.3Y-84.0
T2
X130.5Y-83.5
T3
X95.505Y-86.535
X95.505Y-89.075
X95.505Y-91.615
X95.505Y-94.155
X95.505Y-96.695
X95.505Y-99.235
X95.505Y-101.775
X95.505Y-104.315
X124.727Y-123.853
X124.727Y-126.393
X126.632Y-113.693
X129.172Y-113.693
X131.712Y-113.693
X134.252Y-113.693
X136.792Y-113.693
X139.332Y-113.693
T4
X104.92Y-89.3
X104.92Y-94.4
X104.92Y-99.5
X104.92Y-105.0
X104.92Y-110.5
X104.92Y-116.5
X115.08Y-89.3
X115.08Y-94.4
X115.08Y-99.5
X115.08Y-105.0
X115.08Y-110.5
X115.08Y-116.5
X137.0Y-119.682
X137.0Y-122.182
T5
X83.5Y-78.0
X86.04Y-78.0
X137.16Y-78.0
X139.7Y-78.0
T6
X75.6Y-86.0
X75.6Y-90.0
X78.14Y-86.0
X78.14Y-90.0
X79.32Y-113.6
X79.375Y-118.975
X81.86Y-113.6
X81.915Y-118.975
X84.4Y-113.6
X84.455Y-118.975
X91.967Y-113.596
X91.99Y-118.95
X94.507Y-113.596
X94.53Y-118.95
X97.047Y-113.596
X97.07Y-118.95
X102.385Y-88.0
X102.385Y-90.54
X102.385Y-93.08
X102.385Y-95.62
X102.385Y-98.16
X102.385Y-100.7
X102.385Y-103.24
X102.385Y-105.78
X102.385Y-108.32
X102.385Y-110.86
X102.385Y-113.4
X102.385Y-115.94
X102.385Y-118.48
X102.385Y-121.02
X102.385Y-123.56
X117.625Y-88.0
X117.625Y-90.54
X117.625Y-93.08
X117.625Y-95.62
X117.625Y-98.16
X117.625Y-100.7
X117.625Y-103.24
X117.625Y-105.78
X117.625Y-108.32
X117.625Y-110.86
X117.625Y-113.4
X117.625Y-115.94
X117.625Y-118.48
X117.625Y-121.02
X117.625Y-123.56
T7
X78.74Y-80.0
X78.74Y-127.0
X145.74Y-80.0
X145.74Y-127.0
T0
M30
