G04 #@! TF.GenerationSoftware,KiCad,Pcbnew,(6.0.10)*
G04 #@! TF.CreationDate,2023-05-01T21:13:55-04:00*
G04 #@! TF.ProjectId,MiniCopterSchematic,4d696e69-436f-4707-9465-72536368656d,v01*
G04 #@! TF.SameCoordinates,Original*
G04 #@! TF.FileFunction,Legend,Top*
G04 #@! TF.FilePolarity,Positive*
%FSLAX46Y46*%
G04 Gerber Fmt 4.6, Leading zero omitted, Abs format (unit mm)*
G04 Created by KiCad (PCBNEW (6.0.10)) date 2023-05-01 21:13:55*
%MOMM*%
%LPD*%
G01*
G04 APERTURE LIST*
G04 Aperture macros list*
%AMRoundRect*
0 Rectangle with rounded corners*
0 $1 Rounding radius*
0 $2 $3 $4 $5 $6 $7 $8 $9 X,Y pos of 4 corners*
0 Add a 4 corners polygon primitive as box body*
4,1,4,$2,$3,$4,$5,$6,$7,$8,$9,$2,$3,0*
0 Add four circle primitives for the rounded corners*
1,1,$1+$1,$2,$3*
1,1,$1+$1,$4,$5*
1,1,$1+$1,$6,$7*
1,1,$1+$1,$8,$9*
0 Add four rect primitives between the rounded corners*
20,1,$1+$1,$2,$3,$4,$5,0*
20,1,$1+$1,$4,$5,$6,$7,0*
20,1,$1+$1,$6,$7,$8,$9,0*
20,1,$1+$1,$8,$9,$2,$3,0*%
G04 Aperture macros list end*
%ADD10C,0.200000*%
%ADD11C,0.150000*%
%ADD12C,0.120000*%
%ADD13C,0.973026*%
%ADD14C,0.793420*%
%ADD15C,6.500000*%
%ADD16RoundRect,0.050000X0.850000X-0.850000X0.850000X0.850000X-0.850000X0.850000X-0.850000X-0.850000X0*%
%ADD17O,1.800000X1.800000*%
%ADD18C,1.800000*%
%ADD19C,1.700000*%
%ADD20O,1.700000X1.700000*%
%ADD21C,1.624000*%
%ADD22RoundRect,0.050000X-0.800000X-0.800000X0.800000X-0.800000X0.800000X0.800000X-0.800000X0.800000X0*%
%ADD23RoundRect,0.050000X0.900000X0.900000X-0.900000X0.900000X-0.900000X-0.900000X0.900000X-0.900000X0*%
%ADD24C,1.900000*%
%ADD25RoundRect,0.050000X-0.850000X0.850000X-0.850000X-0.850000X0.850000X-0.850000X0.850000X0.850000X0*%
%ADD26RoundRect,0.050000X0.800000X-0.800000X0.800000X0.800000X-0.800000X0.800000X-0.800000X-0.800000X0*%
%ADD27RoundRect,0.050000X-0.762000X0.762000X-0.762000X-0.762000X0.762000X-0.762000X0.762000X0.762000X0*%
G04 APERTURE END LIST*
D10*
X143100000Y-91025000D02*
X150100000Y-91025000D01*
X150100000Y-91025000D02*
X150100000Y-114775000D01*
X150100000Y-114775000D02*
X143100000Y-114775000D01*
X143100000Y-114775000D02*
X143100000Y-91025000D01*
G36*
X143100000Y-91025000D02*
G01*
X150100000Y-91025000D01*
X150100000Y-114775000D01*
X143100000Y-114775000D01*
X143100000Y-91025000D01*
G37*
D11*
X88404761Y-114143619D02*
X88309523Y-114096000D01*
X88214285Y-114000761D01*
X88071428Y-113857904D01*
X87976190Y-113810285D01*
X87880952Y-113810285D01*
X87928571Y-114048380D02*
X87833333Y-114000761D01*
X87738095Y-113905523D01*
X87690476Y-113715047D01*
X87690476Y-113381714D01*
X87738095Y-113191238D01*
X87833333Y-113096000D01*
X87928571Y-113048380D01*
X88119047Y-113048380D01*
X88214285Y-113096000D01*
X88309523Y-113191238D01*
X88357142Y-113381714D01*
X88357142Y-113715047D01*
X88309523Y-113905523D01*
X88214285Y-114000761D01*
X88119047Y-114048380D01*
X87928571Y-114048380D01*
X88690476Y-113048380D02*
X89309523Y-113048380D01*
X88976190Y-113429333D01*
X89119047Y-113429333D01*
X89214285Y-113476952D01*
X89261904Y-113524571D01*
X89309523Y-113619809D01*
X89309523Y-113857904D01*
X89261904Y-113953142D01*
X89214285Y-114000761D01*
X89119047Y-114048380D01*
X88833333Y-114048380D01*
X88738095Y-114000761D01*
X88690476Y-113953142D01*
X109833333Y-105452380D02*
X109500000Y-104976190D01*
X109261904Y-105452380D02*
X109261904Y-104452380D01*
X109642857Y-104452380D01*
X109738095Y-104500000D01*
X109785714Y-104547619D01*
X109833333Y-104642857D01*
X109833333Y-104785714D01*
X109785714Y-104880952D01*
X109738095Y-104928571D01*
X109642857Y-104976190D01*
X109261904Y-104976190D01*
X110214285Y-104547619D02*
X110261904Y-104500000D01*
X110357142Y-104452380D01*
X110595238Y-104452380D01*
X110690476Y-104500000D01*
X110738095Y-104547619D01*
X110785714Y-104642857D01*
X110785714Y-104738095D01*
X110738095Y-104880952D01*
X110166666Y-105452380D01*
X110785714Y-105452380D01*
X132220108Y-107452380D02*
X132220108Y-108261904D01*
X132267727Y-108357142D01*
X132315346Y-108404761D01*
X132410584Y-108452380D01*
X132601060Y-108452380D01*
X132696298Y-108404761D01*
X132743917Y-108357142D01*
X132791536Y-108261904D01*
X132791536Y-107452380D01*
X133172489Y-107452380D02*
X133791536Y-107452380D01*
X133458203Y-107833333D01*
X133601060Y-107833333D01*
X133696298Y-107880952D01*
X133743917Y-107928571D01*
X133791536Y-108023809D01*
X133791536Y-108261904D01*
X133743917Y-108357142D01*
X133696298Y-108404761D01*
X133601060Y-108452380D01*
X133315346Y-108452380D01*
X133220108Y-108404761D01*
X133172489Y-108357142D01*
X109833333Y-116952380D02*
X109500000Y-116476190D01*
X109261904Y-116952380D02*
X109261904Y-115952380D01*
X109642857Y-115952380D01*
X109738095Y-116000000D01*
X109785714Y-116047619D01*
X109833333Y-116142857D01*
X109833333Y-116285714D01*
X109785714Y-116380952D01*
X109738095Y-116428571D01*
X109642857Y-116476190D01*
X109261904Y-116476190D01*
X110690476Y-116285714D02*
X110690476Y-116952380D01*
X110452380Y-115904761D02*
X110214285Y-116619047D01*
X110833333Y-116619047D01*
X116238095Y-84452380D02*
X116238095Y-85261904D01*
X116285714Y-85357142D01*
X116333333Y-85404761D01*
X116428571Y-85452380D01*
X116619047Y-85452380D01*
X116714285Y-85404761D01*
X116761904Y-85357142D01*
X116809523Y-85261904D01*
X116809523Y-84452380D01*
X117809523Y-85452380D02*
X117238095Y-85452380D01*
X117523809Y-85452380D02*
X117523809Y-84452380D01*
X117428571Y-84595238D01*
X117333333Y-84690476D01*
X117238095Y-84738095D01*
X108743095Y-123012380D02*
X108743095Y-123821904D01*
X108790714Y-123917142D01*
X108838333Y-123964761D01*
X108933571Y-124012380D01*
X109124047Y-124012380D01*
X109219285Y-123964761D01*
X109266904Y-123917142D01*
X109314523Y-123821904D01*
X109314523Y-123012380D01*
X109743095Y-123964761D02*
X109885952Y-124012380D01*
X110124047Y-124012380D01*
X110219285Y-123964761D01*
X110266904Y-123917142D01*
X110314523Y-123821904D01*
X110314523Y-123726666D01*
X110266904Y-123631428D01*
X110219285Y-123583809D01*
X110124047Y-123536190D01*
X109933571Y-123488571D01*
X109838333Y-123440952D01*
X109790714Y-123393333D01*
X109743095Y-123298095D01*
X109743095Y-123202857D01*
X109790714Y-123107619D01*
X109838333Y-123060000D01*
X109933571Y-123012380D01*
X110171666Y-123012380D01*
X110314523Y-123060000D01*
X111076428Y-123488571D02*
X111219285Y-123536190D01*
X111266904Y-123583809D01*
X111314523Y-123679047D01*
X111314523Y-123821904D01*
X111266904Y-123917142D01*
X111219285Y-123964761D01*
X111124047Y-124012380D01*
X110743095Y-124012380D01*
X110743095Y-123012380D01*
X111076428Y-123012380D01*
X111171666Y-123060000D01*
X111219285Y-123107619D01*
X111266904Y-123202857D01*
X111266904Y-123298095D01*
X111219285Y-123393333D01*
X111171666Y-123440952D01*
X111076428Y-123488571D01*
X110743095Y-123488571D01*
X109833333Y-94852380D02*
X109500000Y-94376190D01*
X109261904Y-94852380D02*
X109261904Y-93852380D01*
X109642857Y-93852380D01*
X109738095Y-93900000D01*
X109785714Y-93947619D01*
X109833333Y-94042857D01*
X109833333Y-94185714D01*
X109785714Y-94280952D01*
X109738095Y-94328571D01*
X109642857Y-94376190D01*
X109261904Y-94376190D01*
X110738095Y-93852380D02*
X110261904Y-93852380D01*
X110214285Y-94328571D01*
X110261904Y-94280952D01*
X110357142Y-94233333D01*
X110595238Y-94233333D01*
X110690476Y-94280952D01*
X110738095Y-94328571D01*
X110785714Y-94423809D01*
X110785714Y-94661904D01*
X110738095Y-94757142D01*
X110690476Y-94804761D01*
X110595238Y-94852380D01*
X110357142Y-94852380D01*
X110261904Y-94804761D01*
X110214285Y-94757142D01*
X87761904Y-76452380D02*
X87761904Y-75452380D01*
X88000000Y-75452380D01*
X88142857Y-75500000D01*
X88238095Y-75595238D01*
X88285714Y-75690476D01*
X88333333Y-75880952D01*
X88333333Y-76023809D01*
X88285714Y-76214285D01*
X88238095Y-76309523D01*
X88142857Y-76404761D01*
X88000000Y-76452380D01*
X87761904Y-76452380D01*
X88714285Y-75547619D02*
X88761904Y-75500000D01*
X88857142Y-75452380D01*
X89095238Y-75452380D01*
X89190476Y-75500000D01*
X89238095Y-75547619D01*
X89285714Y-75642857D01*
X89285714Y-75738095D01*
X89238095Y-75880952D01*
X88666666Y-76452380D01*
X89285714Y-76452380D01*
X74766666Y-92152380D02*
X74766666Y-92866666D01*
X74719047Y-93009523D01*
X74623809Y-93104761D01*
X74480952Y-93152380D01*
X74385714Y-93152380D01*
X75242857Y-93152380D02*
X75242857Y-92152380D01*
X75623809Y-92152380D01*
X75719047Y-92200000D01*
X75766666Y-92247619D01*
X75814285Y-92342857D01*
X75814285Y-92485714D01*
X75766666Y-92580952D01*
X75719047Y-92628571D01*
X75623809Y-92676190D01*
X75242857Y-92676190D01*
X76766666Y-93152380D02*
X76195238Y-93152380D01*
X76480952Y-93152380D02*
X76480952Y-92152380D01*
X76385714Y-92295238D01*
X76290476Y-92390476D01*
X76195238Y-92438095D01*
X139933333Y-118157142D02*
X139885714Y-118204761D01*
X139742857Y-118252380D01*
X139647619Y-118252380D01*
X139504761Y-118204761D01*
X139409523Y-118109523D01*
X139361904Y-118014285D01*
X139314285Y-117823809D01*
X139314285Y-117680952D01*
X139361904Y-117490476D01*
X139409523Y-117395238D01*
X139504761Y-117300000D01*
X139647619Y-117252380D01*
X139742857Y-117252380D01*
X139885714Y-117300000D01*
X139933333Y-117347619D01*
X140885714Y-118252380D02*
X140314285Y-118252380D01*
X140600000Y-118252380D02*
X140600000Y-117252380D01*
X140504761Y-117395238D01*
X140409523Y-117490476D01*
X140314285Y-117538095D01*
X134261904Y-76952380D02*
X134261904Y-75952380D01*
X134500000Y-75952380D01*
X134642857Y-76000000D01*
X134738095Y-76095238D01*
X134785714Y-76190476D01*
X134833333Y-76380952D01*
X134833333Y-76523809D01*
X134785714Y-76714285D01*
X134738095Y-76809523D01*
X134642857Y-76904761D01*
X134500000Y-76952380D01*
X134261904Y-76952380D01*
X135785714Y-76952380D02*
X135214285Y-76952380D01*
X135500000Y-76952380D02*
X135500000Y-75952380D01*
X135404761Y-76095238D01*
X135309523Y-76190476D01*
X135214285Y-76238095D01*
X109833333Y-89752380D02*
X109500000Y-89276190D01*
X109261904Y-89752380D02*
X109261904Y-88752380D01*
X109642857Y-88752380D01*
X109738095Y-88800000D01*
X109785714Y-88847619D01*
X109833333Y-88942857D01*
X109833333Y-89085714D01*
X109785714Y-89180952D01*
X109738095Y-89228571D01*
X109642857Y-89276190D01*
X109261904Y-89276190D01*
X110690476Y-88752380D02*
X110500000Y-88752380D01*
X110404761Y-88800000D01*
X110357142Y-88847619D01*
X110261904Y-88990476D01*
X110214285Y-89180952D01*
X110214285Y-89561904D01*
X110261904Y-89657142D01*
X110309523Y-89704761D01*
X110404761Y-89752380D01*
X110595238Y-89752380D01*
X110690476Y-89704761D01*
X110738095Y-89657142D01*
X110785714Y-89561904D01*
X110785714Y-89323809D01*
X110738095Y-89228571D01*
X110690476Y-89180952D01*
X110595238Y-89133333D01*
X110404761Y-89133333D01*
X110309523Y-89180952D01*
X110261904Y-89228571D01*
X110214285Y-89323809D01*
X74366666Y-82952380D02*
X74366666Y-83666666D01*
X74319047Y-83809523D01*
X74223809Y-83904761D01*
X74080952Y-83952380D01*
X73985714Y-83952380D01*
X74842857Y-83952380D02*
X74842857Y-82952380D01*
X75223809Y-82952380D01*
X75319047Y-83000000D01*
X75366666Y-83047619D01*
X75414285Y-83142857D01*
X75414285Y-83285714D01*
X75366666Y-83380952D01*
X75319047Y-83428571D01*
X75223809Y-83476190D01*
X74842857Y-83476190D01*
X75795238Y-83047619D02*
X75842857Y-83000000D01*
X75938095Y-82952380D01*
X76176190Y-82952380D01*
X76271428Y-83000000D01*
X76319047Y-83047619D01*
X76366666Y-83142857D01*
X76366666Y-83238095D01*
X76319047Y-83380952D01*
X75747619Y-83952380D01*
X76366666Y-83952380D01*
X75904761Y-119522619D02*
X75809523Y-119475000D01*
X75714285Y-119379761D01*
X75571428Y-119236904D01*
X75476190Y-119189285D01*
X75380952Y-119189285D01*
X75428571Y-119427380D02*
X75333333Y-119379761D01*
X75238095Y-119284523D01*
X75190476Y-119094047D01*
X75190476Y-118760714D01*
X75238095Y-118570238D01*
X75333333Y-118475000D01*
X75428571Y-118427380D01*
X75619047Y-118427380D01*
X75714285Y-118475000D01*
X75809523Y-118570238D01*
X75857142Y-118760714D01*
X75857142Y-119094047D01*
X75809523Y-119284523D01*
X75714285Y-119379761D01*
X75619047Y-119427380D01*
X75428571Y-119427380D01*
X76809523Y-119427380D02*
X76238095Y-119427380D01*
X76523809Y-119427380D02*
X76523809Y-118427380D01*
X76428571Y-118570238D01*
X76333333Y-118665476D01*
X76238095Y-118713095D01*
X88404761Y-119497619D02*
X88309523Y-119450000D01*
X88214285Y-119354761D01*
X88071428Y-119211904D01*
X87976190Y-119164285D01*
X87880952Y-119164285D01*
X87928571Y-119402380D02*
X87833333Y-119354761D01*
X87738095Y-119259523D01*
X87690476Y-119069047D01*
X87690476Y-118735714D01*
X87738095Y-118545238D01*
X87833333Y-118450000D01*
X87928571Y-118402380D01*
X88119047Y-118402380D01*
X88214285Y-118450000D01*
X88309523Y-118545238D01*
X88357142Y-118735714D01*
X88357142Y-119069047D01*
X88309523Y-119259523D01*
X88214285Y-119354761D01*
X88119047Y-119402380D01*
X87928571Y-119402380D01*
X88738095Y-118497619D02*
X88785714Y-118450000D01*
X88880952Y-118402380D01*
X89119047Y-118402380D01*
X89214285Y-118450000D01*
X89261904Y-118497619D01*
X89309523Y-118592857D01*
X89309523Y-118688095D01*
X89261904Y-118830952D01*
X88690476Y-119402380D01*
X89309523Y-119402380D01*
X109833333Y-99952380D02*
X109500000Y-99476190D01*
X109261904Y-99952380D02*
X109261904Y-98952380D01*
X109642857Y-98952380D01*
X109738095Y-99000000D01*
X109785714Y-99047619D01*
X109833333Y-99142857D01*
X109833333Y-99285714D01*
X109785714Y-99380952D01*
X109738095Y-99428571D01*
X109642857Y-99476190D01*
X109261904Y-99476190D01*
X110785714Y-99952380D02*
X110214285Y-99952380D01*
X110500000Y-99952380D02*
X110500000Y-98952380D01*
X110404761Y-99095238D01*
X110309523Y-99190476D01*
X110214285Y-99238095D01*
X109833333Y-110952380D02*
X109500000Y-110476190D01*
X109261904Y-110952380D02*
X109261904Y-109952380D01*
X109642857Y-109952380D01*
X109738095Y-110000000D01*
X109785714Y-110047619D01*
X109833333Y-110142857D01*
X109833333Y-110285714D01*
X109785714Y-110380952D01*
X109738095Y-110428571D01*
X109642857Y-110476190D01*
X109261904Y-110476190D01*
X110166666Y-109952380D02*
X110785714Y-109952380D01*
X110452380Y-110333333D01*
X110595238Y-110333333D01*
X110690476Y-110380952D01*
X110738095Y-110428571D01*
X110785714Y-110523809D01*
X110785714Y-110761904D01*
X110738095Y-110857142D01*
X110690476Y-110904761D01*
X110595238Y-110952380D01*
X110309523Y-110952380D01*
X110214285Y-110904761D01*
X110166666Y-110857142D01*
X88238095Y-95452380D02*
X88238095Y-96261904D01*
X88285714Y-96357142D01*
X88333333Y-96404761D01*
X88428571Y-96452380D01*
X88619047Y-96452380D01*
X88714285Y-96404761D01*
X88761904Y-96357142D01*
X88809523Y-96261904D01*
X88809523Y-95452380D01*
X89238095Y-95547619D02*
X89285714Y-95500000D01*
X89380952Y-95452380D01*
X89619047Y-95452380D01*
X89714285Y-95500000D01*
X89761904Y-95547619D01*
X89809523Y-95642857D01*
X89809523Y-95738095D01*
X89761904Y-95880952D01*
X89190476Y-96452380D01*
X89809523Y-96452380D01*
X75904761Y-114147619D02*
X75809523Y-114100000D01*
X75714285Y-114004761D01*
X75571428Y-113861904D01*
X75476190Y-113814285D01*
X75380952Y-113814285D01*
X75428571Y-114052380D02*
X75333333Y-114004761D01*
X75238095Y-113909523D01*
X75190476Y-113719047D01*
X75190476Y-113385714D01*
X75238095Y-113195238D01*
X75333333Y-113100000D01*
X75428571Y-113052380D01*
X75619047Y-113052380D01*
X75714285Y-113100000D01*
X75809523Y-113195238D01*
X75857142Y-113385714D01*
X75857142Y-113719047D01*
X75809523Y-113909523D01*
X75714285Y-114004761D01*
X75619047Y-114052380D01*
X75428571Y-114052380D01*
X76714285Y-113385714D02*
X76714285Y-114052380D01*
X76476190Y-113004761D02*
X76238095Y-113719047D01*
X76857142Y-113719047D01*
G36*
X91992125Y-110333313D02*
G01*
X91883205Y-110379085D01*
X91774461Y-110427504D01*
X91665894Y-110478569D01*
X91557326Y-110532279D01*
X91448583Y-110588635D01*
X91339662Y-110647637D01*
X91992125Y-110647637D01*
X91992125Y-110823850D01*
X91009462Y-110823850D01*
X91009462Y-110666687D01*
X91082289Y-110622237D01*
X91161069Y-110577788D01*
X91242627Y-110533933D01*
X91323787Y-110491269D01*
X91403559Y-110450788D01*
X91480950Y-110413481D01*
X91552387Y-110380342D01*
X91614300Y-110352363D01*
X91009462Y-110352363D01*
X91009462Y-110176150D01*
X91992125Y-110176150D01*
X91992125Y-110333313D01*
G37*
G36*
X91999269Y-109910244D02*
G01*
X91981012Y-110017400D01*
X91022162Y-110017400D01*
X91003112Y-109891987D01*
X90998350Y-109782450D01*
X90999696Y-109764987D01*
X91168212Y-109764987D01*
X91169006Y-109793563D01*
X91172975Y-109822137D01*
X91833375Y-109822137D01*
X91834962Y-109804675D01*
X91834962Y-109787212D01*
X91809562Y-109675294D01*
X91739712Y-109602269D01*
X91634144Y-109562581D01*
X91570048Y-109553652D01*
X91500000Y-109550675D01*
X91376175Y-109560200D01*
X91269812Y-109593537D01*
X91195994Y-109658625D01*
X91168212Y-109764987D01*
X90999696Y-109764987D01*
X91005494Y-109689780D01*
X91026925Y-109605444D01*
X91063636Y-109531427D01*
X91116619Y-109469712D01*
X91186072Y-109420302D01*
X91272194Y-109383194D01*
X91376373Y-109359977D01*
X91500000Y-109352237D01*
X91626405Y-109360770D01*
X91732569Y-109386369D01*
X91819683Y-109427048D01*
X91888937Y-109480825D01*
X91941127Y-109546905D01*
X91977044Y-109624494D01*
X91997880Y-109712005D01*
X92004595Y-109804675D01*
X92004825Y-109807850D01*
X91999269Y-109910244D01*
G37*
G36*
X91214250Y-111004825D02*
G01*
X91174562Y-111090550D01*
X91157100Y-111195325D01*
X91182500Y-111312800D01*
X91253144Y-111391381D01*
X91361094Y-111435831D01*
X91427173Y-111445952D01*
X91500000Y-111449325D01*
X91607156Y-111443151D01*
X91693675Y-111424631D01*
X91759556Y-111393763D01*
X91822064Y-111325103D01*
X91842900Y-111230250D01*
X91841312Y-111192150D01*
X91836550Y-111154050D01*
X91477775Y-111154050D01*
X91477775Y-110958788D01*
X91968312Y-110958788D01*
X91996887Y-111067531D01*
X92008794Y-111149089D01*
X92012762Y-111246125D01*
X92004627Y-111333636D01*
X91980219Y-111412019D01*
X91939737Y-111480480D01*
X91883381Y-111538225D01*
X91811150Y-111584659D01*
X91723044Y-111619188D01*
X91619261Y-111640619D01*
X91500000Y-111647763D01*
X91381930Y-111639428D01*
X91278544Y-111614425D01*
X91190239Y-111575134D01*
X91117412Y-111523938D01*
X91060461Y-111461628D01*
X91019781Y-111389000D01*
X90995373Y-111308434D01*
X90987237Y-111222313D01*
X90995969Y-111119919D01*
X91015812Y-111041337D01*
X91039625Y-110986569D01*
X91058675Y-110954025D01*
X91214250Y-111004825D01*
G37*
G36*
X131526644Y-92201181D02*
G01*
X131543255Y-92161152D01*
X131627685Y-92021010D01*
X131749620Y-91882017D01*
X131890548Y-91762740D01*
X132012947Y-91690031D01*
X132161770Y-91644540D01*
X132340742Y-91624091D01*
X132526962Y-91628684D01*
X132697534Y-91658319D01*
X132787052Y-91690031D01*
X132931892Y-91779316D01*
X133073907Y-91905700D01*
X133193874Y-92049961D01*
X133259968Y-92162947D01*
X133305459Y-92311770D01*
X133325908Y-92490742D01*
X133321315Y-92676962D01*
X133291680Y-92847534D01*
X133259968Y-92937052D01*
X133171640Y-93080745D01*
X133047179Y-93221032D01*
X132905291Y-93339297D01*
X132787052Y-93407679D01*
X132645223Y-93451457D01*
X132475827Y-93475526D01*
X132303513Y-93478371D01*
X132152932Y-93458480D01*
X132118321Y-93448728D01*
X131913149Y-93352688D01*
X131741806Y-93214954D01*
X131608124Y-93044105D01*
X131515934Y-92848723D01*
X131469069Y-92637388D01*
X131469985Y-92550000D01*
X131930715Y-92550000D01*
X131943856Y-92621173D01*
X131977095Y-92714106D01*
X131996709Y-92756429D01*
X132078469Y-92866320D01*
X132193226Y-92954719D01*
X132321184Y-93008725D01*
X132400000Y-93019284D01*
X132471173Y-93006143D01*
X132564106Y-92972904D01*
X132606429Y-92953291D01*
X132716320Y-92871530D01*
X132804719Y-92756773D01*
X132858725Y-92628815D01*
X132869284Y-92550000D01*
X132856143Y-92478826D01*
X132822904Y-92385893D01*
X132803291Y-92343570D01*
X132721530Y-92233679D01*
X132606773Y-92145280D01*
X132478815Y-92091274D01*
X132400000Y-92080715D01*
X132328826Y-92093856D01*
X132235893Y-92127095D01*
X132193570Y-92146709D01*
X132083679Y-92228469D01*
X131995280Y-92343226D01*
X131941274Y-92471184D01*
X131930715Y-92550000D01*
X131469985Y-92550000D01*
X131471362Y-92418680D01*
X131526644Y-92201181D01*
G37*
G36*
X134981062Y-98998666D02*
G01*
X134981062Y-98552056D01*
X135457003Y-98072942D01*
X135932945Y-97593828D01*
X135934346Y-97242754D01*
X135934635Y-97170168D01*
X136395696Y-97170168D01*
X136402948Y-97199806D01*
X136434361Y-97207501D01*
X136498629Y-97193652D01*
X136528212Y-97183870D01*
X137375380Y-97183870D01*
X137376366Y-97193956D01*
X137408560Y-97191478D01*
X137482912Y-97172899D01*
X137586288Y-97141716D01*
X137645046Y-97122393D01*
X137899422Y-97036527D01*
X138969976Y-95967569D01*
X138969976Y-95600346D01*
X138602754Y-95600346D01*
X137533796Y-96670900D01*
X137447929Y-96925276D01*
X137411734Y-97038278D01*
X137386385Y-97128854D01*
X137375380Y-97183870D01*
X136528212Y-97183870D01*
X136604445Y-97158662D01*
X136682217Y-97131012D01*
X136902194Y-97052194D01*
X136981012Y-96832217D01*
X137027291Y-96700255D01*
X137052645Y-96614553D01*
X137056674Y-96566416D01*
X137038976Y-96547151D01*
X136999151Y-96548064D01*
X136968187Y-96553911D01*
X136892843Y-96587540D01*
X136791441Y-96664010D01*
X136660529Y-96785955D01*
X136648216Y-96798216D01*
X136522374Y-96931735D01*
X136442226Y-97035457D01*
X136405137Y-97112835D01*
X136403911Y-97118187D01*
X136395696Y-97170168D01*
X135934635Y-97170168D01*
X135935746Y-96891680D01*
X135463488Y-96420072D01*
X134991230Y-95948465D01*
X134730242Y-96554615D01*
X134647721Y-96742098D01*
X134571469Y-96907407D01*
X134505180Y-97043061D01*
X134452548Y-97141579D01*
X134417265Y-97195483D01*
X134410664Y-97201802D01*
X134372719Y-97217857D01*
X134306644Y-97229446D01*
X134204982Y-97237111D01*
X134060273Y-97241392D01*
X133865059Y-97242831D01*
X133845321Y-97242840D01*
X133338568Y-97242840D01*
X133338568Y-97522811D01*
X133337373Y-97655240D01*
X133331867Y-97743134D01*
X133319163Y-97800600D01*
X133296375Y-97841747D01*
X133266575Y-97874774D01*
X133194583Y-97946766D01*
X131605416Y-97946766D01*
X131533424Y-97874774D01*
X131499678Y-97836384D01*
X131478492Y-97793784D01*
X131466982Y-97732869D01*
X131462261Y-97639528D01*
X131461431Y-97522811D01*
X131461431Y-97477482D01*
X131930715Y-97477482D01*
X132869284Y-97477482D01*
X132869284Y-97242840D01*
X131930715Y-97242840D01*
X131930715Y-97477482D01*
X131461431Y-97477482D01*
X131461431Y-97242840D01*
X130954678Y-97242840D01*
X130756603Y-97241700D01*
X130609323Y-97237890D01*
X130505008Y-97230830D01*
X130435830Y-97219937D01*
X130393961Y-97204630D01*
X130387788Y-97200719D01*
X130356730Y-97159964D01*
X130307266Y-97071139D01*
X130242587Y-96940714D01*
X130165885Y-96775158D01*
X130080350Y-96580943D01*
X130068468Y-96553273D01*
X129809285Y-95947949D01*
X129336769Y-96419815D01*
X128864253Y-96891680D01*
X128865653Y-97242754D01*
X128867054Y-97593828D01*
X129342996Y-98072942D01*
X129818937Y-98552056D01*
X129818937Y-98998666D01*
X129818573Y-99169767D01*
X129816544Y-99292341D01*
X129811442Y-99376523D01*
X129801862Y-99432447D01*
X129786395Y-99470245D01*
X129763636Y-99500053D01*
X129746945Y-99517268D01*
X129717178Y-99544780D01*
X129685173Y-99564208D01*
X129640801Y-99576957D01*
X129573933Y-99584431D01*
X129474442Y-99588035D01*
X129332200Y-99589175D01*
X129227965Y-99589261D01*
X128780978Y-99589261D01*
X128192740Y-99004127D01*
X128018925Y-98831721D01*
X127880698Y-98696263D01*
X127772411Y-98592981D01*
X127688416Y-98517104D01*
X127623065Y-98463859D01*
X127570710Y-98428474D01*
X127525702Y-98406177D01*
X127482394Y-98392197D01*
X127462997Y-98387577D01*
X127226313Y-98306026D01*
X127012208Y-98175567D01*
X126828564Y-98004083D01*
X126683263Y-97799456D01*
X126612199Y-97634563D01*
X127138448Y-97634563D01*
X127157460Y-97670180D01*
X127208545Y-97726789D01*
X127274338Y-97793404D01*
X127309381Y-97822332D01*
X127323336Y-97818405D01*
X127325865Y-97786453D01*
X127325866Y-97785450D01*
X127302422Y-97725863D01*
X127247160Y-97666209D01*
X127182684Y-97628314D01*
X127158796Y-97624133D01*
X127138448Y-97634563D01*
X126612199Y-97634563D01*
X126584188Y-97569569D01*
X126572799Y-97526366D01*
X127756043Y-97526366D01*
X127758521Y-97558560D01*
X127777100Y-97632912D01*
X127808283Y-97736288D01*
X127827606Y-97795046D01*
X127913472Y-98049422D01*
X128982430Y-99119976D01*
X129349653Y-99119976D01*
X129349653Y-98752754D01*
X128279099Y-97683796D01*
X128024723Y-97597929D01*
X127911721Y-97561734D01*
X127821145Y-97536385D01*
X127766129Y-97525380D01*
X127756043Y-97526366D01*
X126572799Y-97526366D01*
X126562422Y-97487003D01*
X126550541Y-97442697D01*
X126532384Y-97399107D01*
X126503181Y-97350585D01*
X126458158Y-97291483D01*
X126392543Y-97216153D01*
X126301565Y-97118946D01*
X126180452Y-96994214D01*
X126024431Y-96836310D01*
X125945872Y-96757259D01*
X125360739Y-96169021D01*
X125360739Y-95967569D01*
X125830023Y-95967569D01*
X126900577Y-97036749D01*
X127149884Y-97121296D01*
X127262545Y-97157614D01*
X127353542Y-97183421D01*
X127409204Y-97194998D01*
X127419167Y-97194530D01*
X127419163Y-97163763D01*
X127402565Y-97090635D01*
X127372569Y-96988009D01*
X127352673Y-96927059D01*
X127266203Y-96670900D01*
X127179793Y-96584361D01*
X127742498Y-96584361D01*
X127756347Y-96648629D01*
X127791337Y-96754445D01*
X127818987Y-96832217D01*
X127897806Y-97052194D01*
X128117782Y-97131012D01*
X128249744Y-97177291D01*
X128335446Y-97202645D01*
X128383583Y-97206674D01*
X128402848Y-97188976D01*
X128401935Y-97149151D01*
X128396088Y-97118187D01*
X128362502Y-97045761D01*
X128293243Y-96950808D01*
X128200167Y-96845181D01*
X128095127Y-96740736D01*
X127989978Y-96649327D01*
X127896576Y-96582810D01*
X127831812Y-96553911D01*
X127779831Y-96545696D01*
X127750193Y-96552948D01*
X127742498Y-96584361D01*
X127179793Y-96584361D01*
X126941925Y-96346138D01*
X128471297Y-96346138D01*
X128599145Y-96482226D01*
X129099787Y-95982198D01*
X129600429Y-95482169D01*
X129588936Y-95361655D01*
X129583676Y-95306503D01*
X130053579Y-95306503D01*
X130367247Y-96040030D01*
X130680915Y-96773556D01*
X134117000Y-96773556D01*
X134431710Y-96039734D01*
X134708987Y-95393196D01*
X135209840Y-95393196D01*
X135211891Y-95425723D01*
X135224867Y-95461263D01*
X135253450Y-95505788D01*
X135302323Y-95565269D01*
X135376169Y-95645678D01*
X135479669Y-95752987D01*
X135617507Y-95893168D01*
X135696904Y-95973543D01*
X136196113Y-96478726D01*
X136264182Y-96414778D01*
X136332251Y-96350831D01*
X135781310Y-95798944D01*
X135230369Y-95247058D01*
X135214032Y-95357709D01*
X135209840Y-95393196D01*
X134708987Y-95393196D01*
X134746420Y-95305911D01*
X134746420Y-89789234D01*
X134673107Y-89617830D01*
X135199570Y-89617830D01*
X135211063Y-89738344D01*
X135222556Y-89858857D01*
X136328702Y-88753861D01*
X136200854Y-88617773D01*
X135700212Y-89117801D01*
X135199570Y-89617830D01*
X134673107Y-89617830D01*
X134433585Y-89057838D01*
X134120750Y-88326443D01*
X130680286Y-88326443D01*
X130366933Y-89057993D01*
X130053579Y-89789542D01*
X130053579Y-95306503D01*
X129583676Y-95306503D01*
X129577443Y-95241142D01*
X128471297Y-96346138D01*
X126941925Y-96346138D01*
X126197245Y-95600346D01*
X125830023Y-95600346D01*
X125830023Y-95967569D01*
X125360739Y-95967569D01*
X125360739Y-95722034D01*
X125361102Y-95550852D01*
X125363127Y-95428203D01*
X125368221Y-95343956D01*
X125377787Y-95287986D01*
X125393230Y-95250163D01*
X125415957Y-95220360D01*
X125432731Y-95203054D01*
X125462508Y-95175533D01*
X125494527Y-95156102D01*
X125538919Y-95143355D01*
X125605819Y-95135884D01*
X125705358Y-95132283D01*
X125847669Y-95131147D01*
X125951390Y-95131062D01*
X126398056Y-95131062D01*
X126883958Y-95609686D01*
X127369861Y-96088311D01*
X127715712Y-96084871D01*
X128061564Y-96081431D01*
X128822930Y-95320488D01*
X129584295Y-94559545D01*
X129584295Y-90540454D01*
X128822930Y-89779511D01*
X128061564Y-89018568D01*
X127715712Y-89015128D01*
X127369861Y-89011689D01*
X126883958Y-89490313D01*
X126398056Y-89968937D01*
X125951390Y-89968937D01*
X125780277Y-89968573D01*
X125657691Y-89966545D01*
X125573499Y-89961444D01*
X125517569Y-89951866D01*
X125479767Y-89936403D01*
X125449960Y-89913648D01*
X125432731Y-89896945D01*
X125405219Y-89867178D01*
X125385791Y-89835173D01*
X125373042Y-89790801D01*
X125365568Y-89723933D01*
X125361964Y-89624442D01*
X125360964Y-89499653D01*
X125830023Y-89499653D01*
X126197245Y-89499653D01*
X126946611Y-88749168D01*
X128467748Y-88749168D01*
X129018689Y-89301055D01*
X129569630Y-89852941D01*
X129585967Y-89742290D01*
X129590159Y-89706803D01*
X129588108Y-89674276D01*
X129575132Y-89638736D01*
X129546549Y-89594211D01*
X129497676Y-89534730D01*
X129423830Y-89454321D01*
X129320330Y-89347012D01*
X129182492Y-89206831D01*
X129103095Y-89126456D01*
X128603886Y-88621273D01*
X128535817Y-88685221D01*
X128467748Y-88749168D01*
X126946611Y-88749168D01*
X127166316Y-88529135D01*
X127744130Y-88529135D01*
X127761678Y-88547895D01*
X127801174Y-88547383D01*
X127831812Y-88542234D01*
X127901251Y-88514150D01*
X127991787Y-88449121D01*
X128109344Y-88342680D01*
X128151783Y-88300992D01*
X128277287Y-88168343D01*
X128357294Y-88065272D01*
X128394625Y-87988097D01*
X128396088Y-87981812D01*
X128404304Y-87929831D01*
X128397051Y-87900193D01*
X128365638Y-87892498D01*
X128301370Y-87906347D01*
X128195554Y-87941337D01*
X128117782Y-87968987D01*
X127897806Y-88047806D01*
X127818987Y-88267782D01*
X127773202Y-88398021D01*
X127748110Y-88482157D01*
X127744130Y-88529135D01*
X127166316Y-88529135D01*
X127266203Y-88429099D01*
X127352070Y-88174723D01*
X127388265Y-88061721D01*
X127413614Y-87971145D01*
X127424619Y-87916129D01*
X127423633Y-87906043D01*
X127391439Y-87908521D01*
X127317087Y-87927100D01*
X127213711Y-87958283D01*
X127154953Y-87977606D01*
X126900577Y-88063472D01*
X125830023Y-89132430D01*
X125830023Y-89499653D01*
X125360964Y-89499653D01*
X125360824Y-89482200D01*
X125360739Y-89377965D01*
X125360739Y-88930978D01*
X125945872Y-88342740D01*
X126118278Y-88168925D01*
X126253736Y-88030698D01*
X126357018Y-87922411D01*
X126432895Y-87838416D01*
X126486140Y-87773065D01*
X126521525Y-87720710D01*
X126543822Y-87675702D01*
X126557802Y-87632394D01*
X126562422Y-87612997D01*
X126579460Y-87563547D01*
X127755057Y-87563547D01*
X127756043Y-87573633D01*
X127788237Y-87571155D01*
X127862589Y-87552576D01*
X127965964Y-87521393D01*
X128024723Y-87502070D01*
X128279099Y-87416203D01*
X129349653Y-86347245D01*
X129349653Y-85980023D01*
X128982430Y-85980023D01*
X127913472Y-87050577D01*
X127827606Y-87304953D01*
X127791411Y-87417955D01*
X127766062Y-87508530D01*
X127755057Y-87563547D01*
X126579460Y-87563547D01*
X126611529Y-87470474D01*
X127137533Y-87470474D01*
X127159062Y-87475866D01*
X127215499Y-87456267D01*
X127267205Y-87417205D01*
X127313382Y-87358273D01*
X127324799Y-87314811D01*
X127302023Y-87299884D01*
X127268546Y-87319283D01*
X127213764Y-87367779D01*
X127193879Y-87387875D01*
X127145011Y-87444015D01*
X127137533Y-87470474D01*
X126611529Y-87470474D01*
X126643973Y-87376313D01*
X126774432Y-87162208D01*
X126945916Y-86978564D01*
X127150543Y-86833263D01*
X127380430Y-86734188D01*
X127462997Y-86712422D01*
X127507302Y-86700541D01*
X127550892Y-86682384D01*
X127599414Y-86653181D01*
X127658516Y-86608158D01*
X127733846Y-86542543D01*
X127831053Y-86451565D01*
X127955785Y-86330452D01*
X128113689Y-86174431D01*
X128192740Y-86095872D01*
X128780978Y-85510739D01*
X129227965Y-85510739D01*
X129399147Y-85511102D01*
X129521797Y-85513127D01*
X129606043Y-85518221D01*
X129662013Y-85527787D01*
X129699836Y-85543230D01*
X129729639Y-85565957D01*
X129746945Y-85582731D01*
X129774467Y-85612510D01*
X129793899Y-85644531D01*
X129806646Y-85688927D01*
X129814117Y-85755832D01*
X129817717Y-85855380D01*
X129818853Y-85997703D01*
X129818937Y-86101333D01*
X129818937Y-86547943D01*
X129342745Y-87027309D01*
X128866552Y-87506676D01*
X128866128Y-87858222D01*
X128865704Y-88209767D01*
X129336997Y-88680411D01*
X129808289Y-89151055D01*
X130066958Y-88546938D01*
X130155829Y-88343922D01*
X130235044Y-88171944D01*
X130301713Y-88036846D01*
X130352949Y-87944471D01*
X130385863Y-87900661D01*
X130386775Y-87899990D01*
X130405919Y-87891367D01*
X130439635Y-87883951D01*
X130491992Y-87877656D01*
X130567059Y-87872394D01*
X130668904Y-87868081D01*
X130801596Y-87864629D01*
X130969203Y-87861951D01*
X131175795Y-87859962D01*
X131425439Y-87858575D01*
X131722205Y-87857704D01*
X132070161Y-87857262D01*
X132403276Y-87857159D01*
X132791132Y-87857239D01*
X133124581Y-87857552D01*
X133407877Y-87858207D01*
X133645272Y-87859310D01*
X133841020Y-87860972D01*
X133999376Y-87863299D01*
X134124591Y-87866401D01*
X134220920Y-87870385D01*
X134292616Y-87875360D01*
X134343932Y-87881434D01*
X134379122Y-87888716D01*
X134402439Y-87897313D01*
X134418136Y-87907334D01*
X134419532Y-87908487D01*
X134448629Y-87949852D01*
X134495869Y-88036796D01*
X134557036Y-88160665D01*
X134627913Y-88312807D01*
X134704284Y-88484566D01*
X134735204Y-88556303D01*
X134989971Y-89152792D01*
X135462133Y-88681279D01*
X135934295Y-88209767D01*
X135933935Y-87911008D01*
X136397185Y-87911008D01*
X136398156Y-87950827D01*
X136404052Y-87981812D01*
X136433572Y-88043849D01*
X136495924Y-88131003D01*
X136580223Y-88231688D01*
X136675582Y-88334317D01*
X136771112Y-88427301D01*
X136855928Y-88499052D01*
X136919143Y-88537984D01*
X136929499Y-88541081D01*
X137011901Y-88554677D01*
X137051405Y-88551368D01*
X137061776Y-88529417D01*
X137061670Y-88524422D01*
X137051389Y-88480834D01*
X137025798Y-88398310D01*
X136989949Y-88292928D01*
X136981012Y-88267782D01*
X136902194Y-88047806D01*
X136682217Y-87968987D01*
X136550247Y-87922705D01*
X136493933Y-87906043D01*
X137376366Y-87906043D01*
X137378844Y-87938237D01*
X137397423Y-88012589D01*
X137428606Y-88115964D01*
X137447929Y-88174723D01*
X137533796Y-88429099D01*
X138602754Y-89499653D01*
X138969976Y-89499653D01*
X138969976Y-89132430D01*
X137899422Y-88063472D01*
X137645046Y-87977606D01*
X137532044Y-87941411D01*
X137441469Y-87916062D01*
X137386452Y-87905057D01*
X137376366Y-87906043D01*
X136493933Y-87906043D01*
X136464543Y-87897347D01*
X136416418Y-87893314D01*
X136397185Y-87911008D01*
X135933935Y-87911008D01*
X135933871Y-87858222D01*
X135933447Y-87506676D01*
X135457254Y-87027309D01*
X134981062Y-86547943D01*
X134981062Y-86347245D01*
X135450346Y-86347245D01*
X135985623Y-86881835D01*
X136520900Y-87416426D01*
X136770207Y-87500972D01*
X136882869Y-87537291D01*
X136973865Y-87563097D01*
X137029527Y-87574675D01*
X137039490Y-87574207D01*
X137039486Y-87543439D01*
X137022888Y-87470312D01*
X136992893Y-87367685D01*
X136973668Y-87308796D01*
X137474133Y-87308796D01*
X137496770Y-87370507D01*
X137550128Y-87432289D01*
X137612384Y-87471536D01*
X137635450Y-87475866D01*
X137674590Y-87471011D01*
X137679445Y-87466954D01*
X137660340Y-87443274D01*
X137611662Y-87392877D01*
X137576789Y-87358545D01*
X137513944Y-87302687D01*
X137481940Y-87288928D01*
X137474133Y-87308796D01*
X136973668Y-87308796D01*
X136972996Y-87306736D01*
X136886527Y-87050577D01*
X135817569Y-85980023D01*
X135450346Y-85980023D01*
X135450346Y-86347245D01*
X134981062Y-86347245D01*
X134981062Y-86101333D01*
X134981426Y-85930232D01*
X134983455Y-85807658D01*
X134988557Y-85723476D01*
X134998137Y-85667552D01*
X135013604Y-85629754D01*
X135036363Y-85599946D01*
X135053054Y-85582731D01*
X135082821Y-85555219D01*
X135114826Y-85535791D01*
X135159198Y-85523042D01*
X135226066Y-85515568D01*
X135325557Y-85511964D01*
X135467799Y-85510824D01*
X135572034Y-85510739D01*
X136019021Y-85510739D01*
X136607259Y-86095872D01*
X136781074Y-86268278D01*
X136919301Y-86403736D01*
X137027588Y-86507018D01*
X137111583Y-86582895D01*
X137176934Y-86636140D01*
X137229289Y-86671525D01*
X137274297Y-86693822D01*
X137317605Y-86707802D01*
X137337003Y-86712422D01*
X137573686Y-86793973D01*
X137787791Y-86924432D01*
X137971435Y-87095916D01*
X138116736Y-87300543D01*
X138215811Y-87530430D01*
X138237577Y-87612997D01*
X138249459Y-87657302D01*
X138267615Y-87700892D01*
X138296818Y-87749414D01*
X138341841Y-87808516D01*
X138407456Y-87883846D01*
X138498434Y-87981053D01*
X138619547Y-88105785D01*
X138775569Y-88263689D01*
X138854127Y-88342740D01*
X139439261Y-88930978D01*
X139439261Y-89377965D01*
X139438897Y-89549147D01*
X139436872Y-89671797D01*
X139431778Y-89756043D01*
X139422212Y-89812013D01*
X139406769Y-89849836D01*
X139384042Y-89879639D01*
X139367268Y-89896945D01*
X139337491Y-89924466D01*
X139305472Y-89943897D01*
X139261080Y-89956644D01*
X139194180Y-89964115D01*
X139094641Y-89967716D01*
X138952330Y-89968853D01*
X138848609Y-89968937D01*
X138401943Y-89968937D01*
X137916041Y-89490449D01*
X137430138Y-89011960D01*
X137085501Y-89014050D01*
X136740865Y-89016139D01*
X135978284Y-89778297D01*
X135215704Y-90540454D01*
X135215704Y-94559545D01*
X135978284Y-95321702D01*
X136740865Y-96083860D01*
X137085501Y-96085949D01*
X137430138Y-96088039D01*
X137916041Y-95609550D01*
X138401943Y-95131062D01*
X138848609Y-95131062D01*
X139019722Y-95131426D01*
X139142308Y-95133454D01*
X139226500Y-95138555D01*
X139282430Y-95148133D01*
X139320232Y-95163596D01*
X139350039Y-95186351D01*
X139367268Y-95203054D01*
X139394780Y-95232821D01*
X139414208Y-95264826D01*
X139426957Y-95309198D01*
X139434431Y-95376066D01*
X139438035Y-95475557D01*
X139439175Y-95617799D01*
X139439261Y-95722034D01*
X139439261Y-96169021D01*
X138854127Y-96757259D01*
X138681721Y-96931074D01*
X138546263Y-97069301D01*
X138442981Y-97177588D01*
X138367104Y-97261583D01*
X138313859Y-97326934D01*
X138278474Y-97379289D01*
X138256177Y-97424297D01*
X138242197Y-97467605D01*
X138237577Y-97487003D01*
X138156026Y-97723686D01*
X138025567Y-97937791D01*
X137854083Y-98121435D01*
X137649456Y-98266736D01*
X137419569Y-98365811D01*
X137337003Y-98387577D01*
X137292697Y-98399459D01*
X137249107Y-98417615D01*
X137200585Y-98446818D01*
X137141483Y-98491841D01*
X137066153Y-98557456D01*
X136968946Y-98648434D01*
X136844214Y-98769547D01*
X136686310Y-98925569D01*
X136607259Y-99004127D01*
X136019021Y-99589261D01*
X135572034Y-99589261D01*
X135400852Y-99588897D01*
X135278203Y-99586872D01*
X135193956Y-99581778D01*
X135137986Y-99572212D01*
X135100163Y-99556769D01*
X135070360Y-99534042D01*
X135053054Y-99517268D01*
X135025532Y-99487489D01*
X135006100Y-99455468D01*
X134993353Y-99411072D01*
X134985882Y-99344167D01*
X134982283Y-99244620D01*
X134981287Y-99119976D01*
X135450346Y-99119976D01*
X135817569Y-99119976D01*
X136886527Y-98049422D01*
X136972393Y-97795046D01*
X136975467Y-97785450D01*
X137474133Y-97785450D01*
X137476517Y-97817976D01*
X137490108Y-97822587D01*
X137524571Y-97794451D01*
X137589567Y-97728737D01*
X137591455Y-97726789D01*
X137647313Y-97663944D01*
X137661071Y-97631940D01*
X137641204Y-97624133D01*
X137579492Y-97646770D01*
X137517710Y-97700128D01*
X137478463Y-97762384D01*
X137474133Y-97785450D01*
X136975467Y-97785450D01*
X137008588Y-97682044D01*
X137033937Y-97591469D01*
X137044942Y-97536452D01*
X137043956Y-97526366D01*
X137011762Y-97528844D01*
X136937411Y-97547423D01*
X136834035Y-97578606D01*
X136775276Y-97597929D01*
X136520900Y-97683796D01*
X135450346Y-98752754D01*
X135450346Y-99119976D01*
X134981287Y-99119976D01*
X134981146Y-99102296D01*
X134981062Y-98998666D01*
G37*
G36*
X88100965Y-77903798D02*
G01*
X88400050Y-77903798D01*
X88400050Y-78096202D01*
X88100965Y-78096202D01*
X88100965Y-78427673D01*
X87899035Y-78427673D01*
X87899035Y-78096202D01*
X87599950Y-78096202D01*
X87599950Y-77903798D01*
X87899035Y-77903798D01*
X87899035Y-77572327D01*
X88100965Y-77572327D01*
X88100965Y-77903798D01*
G37*
D12*
X96987000Y-112296000D02*
X98317000Y-112296000D01*
X90637000Y-112266000D02*
X95777000Y-112266000D01*
X98317000Y-112296000D02*
X98317000Y-113626000D01*
X90637000Y-114926000D02*
X90637000Y-112266000D01*
X90637000Y-114926000D02*
X95777000Y-114926000D01*
X95777000Y-114926000D02*
X95777000Y-112266000D01*
G36*
X83300536Y-124298220D02*
G01*
X83354114Y-124467288D01*
X83411264Y-124650645D01*
X83466032Y-124822095D01*
X83525564Y-124639929D01*
X83585095Y-124458954D01*
X83637482Y-124295838D01*
X83680345Y-124169632D01*
X83923232Y-124169632D01*
X83939603Y-124360132D01*
X83955379Y-124545870D01*
X83969667Y-124728333D01*
X83981573Y-124909010D01*
X83991396Y-125089390D01*
X83999432Y-125270960D01*
X84005981Y-125455210D01*
X84011339Y-125643626D01*
X83742257Y-125643626D01*
X83756545Y-124498245D01*
X83575570Y-125122132D01*
X83361257Y-125122132D01*
X83187426Y-124498245D01*
X83199332Y-125643626D01*
X82930251Y-125643626D01*
X82937693Y-125459079D01*
X82945729Y-125267388D01*
X82954361Y-125072721D01*
X82963589Y-124879245D01*
X82974007Y-124689340D01*
X82986211Y-124505388D01*
X83000200Y-124330962D01*
X83015976Y-124169632D01*
X83258864Y-124169632D01*
X83300536Y-124298220D01*
G37*
G36*
X86993831Y-130486464D02*
G01*
X87088908Y-130498602D01*
X87247272Y-130544840D01*
X87203346Y-130785276D01*
X87080816Y-130747130D01*
X86893553Y-130720543D01*
X86746748Y-130747130D01*
X86708601Y-130803772D01*
X86725941Y-130848854D01*
X86772178Y-130884688D01*
X86839223Y-130915898D01*
X86921296Y-130944797D01*
X87050762Y-130991035D01*
X87172136Y-131054612D01*
X87261144Y-131151712D01*
X87295822Y-131296205D01*
X87270391Y-131423359D01*
X87186007Y-131527394D01*
X87032266Y-131596751D01*
X86926497Y-131615824D01*
X86798765Y-131622182D01*
X86668143Y-131614090D01*
X86558328Y-131589815D01*
X86398808Y-131532018D01*
X86442734Y-131293893D01*
X86614970Y-131354002D01*
X86801077Y-131381745D01*
X86960598Y-131366718D01*
X87016083Y-131305452D01*
X86998744Y-131254591D01*
X86950194Y-131218756D01*
X86878525Y-131189858D01*
X86794141Y-131162115D01*
X86666987Y-131119345D01*
X86549081Y-131058080D01*
X86461229Y-130964448D01*
X86426550Y-130822267D01*
X86453137Y-130691645D01*
X86536365Y-130582986D01*
X86680859Y-130509005D01*
X86777380Y-130489065D01*
X86891241Y-130482418D01*
X86993831Y-130486464D01*
G37*
G36*
X100927900Y-130491666D02*
G01*
X101019220Y-130499758D01*
X101117476Y-130513629D01*
X101206484Y-130535592D01*
X101155622Y-130799148D01*
X101089733Y-130785276D01*
X101012285Y-130772561D01*
X100935992Y-130764469D01*
X100873571Y-130762158D01*
X100755664Y-130767937D01*
X100637758Y-130789900D01*
X100637758Y-131596751D01*
X100351083Y-131596751D01*
X100351083Y-130581830D01*
X100465811Y-130544262D01*
X100583428Y-130514785D01*
X100712605Y-130495712D01*
X100862012Y-130489354D01*
X100927900Y-130491666D01*
G37*
G36*
X98263444Y-130519409D02*
G01*
X98346672Y-130497446D01*
X98432212Y-130487042D01*
X98542605Y-130496001D01*
X98633346Y-130522877D01*
X98762812Y-130624600D01*
X98832169Y-130781809D01*
X98847775Y-130878041D01*
X98852976Y-130984099D01*
X98852976Y-131596751D01*
X98568613Y-131596751D01*
X98568613Y-131021090D01*
X98559944Y-130889890D01*
X98533935Y-130801460D01*
X98402157Y-130734415D01*
X98324709Y-130743662D01*
X98263444Y-130759846D01*
X98263444Y-131596751D01*
X97979081Y-131596751D01*
X97979081Y-130040847D01*
X98263444Y-129992297D01*
X98263444Y-130519409D01*
G37*
G36*
X85434748Y-131596751D02*
G01*
X85138826Y-131596751D01*
X85179608Y-131430526D01*
X85220574Y-131270312D01*
X85261726Y-131116108D01*
X85285651Y-131030337D01*
X85552655Y-131030337D01*
X85832394Y-131030337D01*
X85804651Y-130882376D01*
X85773441Y-130740195D01*
X85736450Y-130596857D01*
X85693680Y-130443116D01*
X85650910Y-130596857D01*
X85613920Y-130740195D01*
X85581553Y-130882376D01*
X85552655Y-131030337D01*
X85285651Y-131030337D01*
X85303063Y-130967916D01*
X85344584Y-130825735D01*
X85396168Y-130654004D01*
X85446886Y-130486753D01*
X85496736Y-130323982D01*
X85545719Y-130165689D01*
X85855513Y-130165689D01*
X85906302Y-130325282D01*
X85956947Y-130489643D01*
X86007447Y-130658773D01*
X86057803Y-130832670D01*
X86107726Y-131012637D01*
X86156926Y-131199972D01*
X86205403Y-131394677D01*
X86253158Y-131596751D01*
X85947988Y-131596751D01*
X85880944Y-131266150D01*
X85499481Y-131266150D01*
X85434748Y-131596751D01*
G37*
G36*
X92906058Y-127756839D02*
G01*
X92942422Y-127867103D01*
X92906058Y-127976195D01*
X92813389Y-128021943D01*
X92717200Y-127976195D01*
X92682009Y-127867103D01*
X92717200Y-127756839D01*
X92813389Y-127709918D01*
X92906058Y-127756839D01*
G37*
G36*
X96304114Y-130491666D02*
G01*
X96395434Y-130499758D01*
X96493689Y-130513629D01*
X96582697Y-130535592D01*
X96531836Y-130799148D01*
X96465947Y-130785276D01*
X96388498Y-130772561D01*
X96312206Y-130764469D01*
X96249785Y-130762158D01*
X96131878Y-130767937D01*
X96013971Y-130789900D01*
X96013971Y-131596751D01*
X95727297Y-131596751D01*
X95727297Y-130581830D01*
X95842024Y-130544262D01*
X95959642Y-130514785D01*
X96088819Y-130495712D01*
X96238225Y-130489354D01*
X96304114Y-130491666D01*
G37*
G36*
X97236963Y-131622182D02*
G01*
X97048544Y-131603687D01*
X96904050Y-131542421D01*
X96811575Y-131431451D01*
X96779208Y-131263838D01*
X96780816Y-131256903D01*
X97058947Y-131256903D01*
X97114433Y-131362094D01*
X97257770Y-131393304D01*
X97347934Y-131392148D01*
X97424226Y-131386369D01*
X97424226Y-131136684D01*
X97357181Y-131128593D01*
X97285513Y-131125125D01*
X97199973Y-131130904D01*
X97127148Y-131150556D01*
X97077442Y-131189858D01*
X97058947Y-131256903D01*
X96780816Y-131256903D01*
X96816198Y-131104318D01*
X96915610Y-131000283D01*
X97058947Y-130943641D01*
X97227715Y-130926302D01*
X97332329Y-130930926D01*
X97424226Y-130944797D01*
X97424226Y-130910119D01*
X97373365Y-130774873D01*
X97304008Y-130734126D01*
X97197661Y-130720543D01*
X97041608Y-130732103D01*
X96920234Y-130759846D01*
X96880931Y-130530968D01*
X97031204Y-130497446D01*
X97130038Y-130486175D01*
X97232339Y-130482418D01*
X97355159Y-130490221D01*
X97455437Y-130513629D01*
X97597618Y-130601481D01*
X97673911Y-130740195D01*
X97697030Y-130923990D01*
X97697030Y-131571320D01*
X97512078Y-131603687D01*
X97382034Y-131617558D01*
X97257770Y-131621519D01*
X97236963Y-131622182D01*
G37*
G36*
X83529748Y-131263838D02*
G01*
X83592169Y-131414111D01*
X83529748Y-131569008D01*
X83386411Y-131622182D01*
X83307806Y-131608310D01*
X83241917Y-131567852D01*
X83195680Y-131503119D01*
X83178340Y-131414111D01*
X83195680Y-131327415D01*
X83241917Y-131263838D01*
X83307806Y-131224536D01*
X83386411Y-131210665D01*
X83529748Y-131263838D01*
G37*
G36*
X89091366Y-127707571D02*
G01*
X89121572Y-127808745D01*
X89153537Y-127910506D01*
X89186675Y-128011093D01*
X89220399Y-128108748D01*
X89284916Y-128284702D01*
X89352952Y-128108748D01*
X89390195Y-128011093D01*
X89426852Y-127910506D01*
X89462630Y-127808745D01*
X89497234Y-127707571D01*
X89552367Y-127517541D01*
X89845624Y-127517541D01*
X89795037Y-127680812D01*
X89741811Y-127837484D01*
X89685945Y-127987559D01*
X89627441Y-128131035D01*
X89549239Y-128309987D01*
X89474165Y-128473038D01*
X89402219Y-128620188D01*
X89160575Y-128620188D01*
X89089802Y-128473038D01*
X89018247Y-128309987D01*
X88945910Y-128131035D01*
X88892024Y-127987559D01*
X88839458Y-127837484D01*
X88788211Y-127680812D01*
X88738284Y-127517541D01*
X89040926Y-127517541D01*
X89091366Y-127707571D01*
G37*
G36*
X99228717Y-124149392D02*
G01*
X99339445Y-124179157D01*
X99419217Y-124214876D01*
X99468032Y-124243451D01*
X99391832Y-124476813D01*
X99259673Y-124416092D01*
X99082270Y-124391088D01*
X98947729Y-124416092D01*
X98831048Y-124499435D01*
X98747704Y-124655407D01*
X98723594Y-124764945D01*
X98715557Y-124898295D01*
X98725215Y-125053473D01*
X98754187Y-125182457D01*
X98802473Y-125285248D01*
X98917071Y-125386153D01*
X99087032Y-125419788D01*
X99276342Y-125393595D01*
X99396595Y-125341207D01*
X99470414Y-125572188D01*
X99302536Y-125642435D01*
X99188533Y-125666546D01*
X99058457Y-125674582D01*
X98866899Y-125652357D01*
X98708149Y-125585682D01*
X98582207Y-125474557D01*
X98510323Y-125363978D01*
X98458978Y-125232265D01*
X98428170Y-125079419D01*
X98417901Y-124905438D01*
X98430403Y-124732203D01*
X98467907Y-124579207D01*
X98527736Y-124447346D01*
X98607211Y-124337510D01*
X98704842Y-124250595D01*
X98819142Y-124187492D01*
X98947432Y-124149094D01*
X99087032Y-124136295D01*
X99228717Y-124149392D01*
G37*
G36*
X97584464Y-125643626D02*
G01*
X97291570Y-125643626D01*
X97291570Y-124891151D01*
X97584464Y-124891151D01*
X97703526Y-124891151D01*
X97826756Y-124877161D01*
X97915457Y-124835192D01*
X97969036Y-124759289D01*
X97986895Y-124643501D01*
X97969333Y-124533666D01*
X97916648Y-124461335D01*
X97834793Y-124421152D01*
X97729720Y-124407757D01*
X97657092Y-124408948D01*
X97584464Y-124414901D01*
X97584464Y-124891151D01*
X97291570Y-124891151D01*
X97291570Y-124188682D01*
X97388011Y-124172013D01*
X97496357Y-124161298D01*
X97603514Y-124155345D01*
X97696382Y-124152963D01*
X97869684Y-124165796D01*
X98014941Y-124204293D01*
X98132151Y-124268454D01*
X98218141Y-124361720D01*
X98269734Y-124487529D01*
X98286932Y-124645882D01*
X98269602Y-124805823D01*
X98217612Y-124933220D01*
X98130961Y-125028073D01*
X98012559Y-125093557D01*
X97865319Y-125132848D01*
X97689239Y-125145945D01*
X97584464Y-125145945D01*
X97584464Y-125643626D01*
G37*
G36*
X90401423Y-125631720D02*
G01*
X90311531Y-125579928D01*
X90234736Y-125510276D01*
X90172525Y-125424253D01*
X90126389Y-125323348D01*
X90097814Y-125208750D01*
X90088467Y-125084032D01*
X90385945Y-125084032D01*
X90399339Y-125219763D01*
X90439523Y-125326920D01*
X90509472Y-125396571D01*
X90612164Y-125419788D01*
X90712474Y-125396571D01*
X90784804Y-125326920D01*
X90828560Y-125219763D01*
X90843145Y-125084032D01*
X90829750Y-124948599D01*
X90789567Y-124842335D01*
X90719618Y-124773577D01*
X90616926Y-124750657D01*
X90516616Y-124773577D01*
X90444286Y-124842335D01*
X90400530Y-124948599D01*
X90385945Y-125084032D01*
X90088467Y-125084032D01*
X90088289Y-125081651D01*
X90098111Y-124956338D01*
X90127579Y-124842335D01*
X90174609Y-124741728D01*
X90237117Y-124656598D01*
X90314210Y-124588137D01*
X90404995Y-124537535D01*
X90506793Y-124506281D01*
X90616926Y-124495863D01*
X90728547Y-124506281D01*
X90830048Y-124537535D01*
X90919940Y-124588137D01*
X90996736Y-124656598D01*
X91058946Y-124741728D01*
X91105082Y-124842335D01*
X91133657Y-124956338D01*
X91143182Y-125081651D01*
X91133657Y-125208750D01*
X91105082Y-125323348D01*
X91059243Y-125424253D01*
X90997926Y-125510276D01*
X90922024Y-125579928D01*
X90832429Y-125631720D01*
X90730333Y-125663867D01*
X90616926Y-125674582D01*
X90612164Y-125674132D01*
X90503519Y-125663867D01*
X90401423Y-125631720D01*
G37*
G36*
X83529748Y-130563335D02*
G01*
X83592169Y-130713608D01*
X83529748Y-130868505D01*
X83386411Y-130921678D01*
X83307806Y-130907807D01*
X83241917Y-130867349D01*
X83195680Y-130802616D01*
X83178340Y-130713608D01*
X83195680Y-130626912D01*
X83241917Y-130563335D01*
X83307806Y-130524033D01*
X83386411Y-130510161D01*
X83529748Y-130563335D01*
G37*
G36*
X84687614Y-124064857D02*
G01*
X84742382Y-124202970D01*
X84687614Y-124338701D01*
X84556645Y-124388707D01*
X84426867Y-124338701D01*
X84373289Y-124202970D01*
X84426867Y-124064857D01*
X84556645Y-124014851D01*
X84687614Y-124064857D01*
G37*
G36*
X101904675Y-130063966D02*
G01*
X101957849Y-130198056D01*
X101904675Y-130329833D01*
X101777521Y-130378383D01*
X101651523Y-130329833D01*
X101599505Y-130198056D01*
X101651523Y-130063966D01*
X101777521Y-130015416D01*
X101904675Y-130063966D01*
G37*
G36*
X99879989Y-125651960D02*
G01*
X99775809Y-125638566D01*
X99672820Y-125619813D01*
X99672820Y-125398357D01*
X99965714Y-125398357D01*
X100033579Y-125405501D01*
X100080014Y-125407023D01*
X100106207Y-125407882D01*
X100203839Y-125399548D01*
X100288373Y-125368592D01*
X100349095Y-125304298D01*
X100372907Y-125198332D01*
X100305042Y-125044742D01*
X100122876Y-124998307D01*
X100080014Y-124998307D01*
X100080014Y-125407023D01*
X100080014Y-124998307D01*
X99965714Y-124998307D01*
X99965714Y-125398357D01*
X99672820Y-125398357D01*
X99672820Y-124755420D01*
X99965714Y-124755420D01*
X100080014Y-124755420D01*
X100249082Y-124706604D01*
X100306232Y-124572063D01*
X100289564Y-124487529D01*
X100244320Y-124437523D01*
X100177645Y-124413710D01*
X100099064Y-124407757D01*
X100030007Y-124410138D01*
X99965714Y-124417282D01*
X99965714Y-124755420D01*
X99672820Y-124755420D01*
X99672820Y-124188682D01*
X99856176Y-124163679D01*
X100053820Y-124152963D01*
X100205029Y-124161596D01*
X100325282Y-124187492D01*
X100489589Y-124277979D01*
X100570551Y-124402995D01*
X100591982Y-124541107D01*
X100579183Y-124639929D01*
X100540786Y-124726845D01*
X100403864Y-124855432D01*
X100529772Y-124919726D01*
X100607461Y-125003070D01*
X100647644Y-125098320D01*
X100661039Y-125198332D01*
X100649728Y-125320669D01*
X100615795Y-125420979D01*
X100493161Y-125563854D01*
X100408626Y-125609693D01*
X100309804Y-125640054D01*
X100199969Y-125657021D01*
X100106207Y-125661531D01*
X100082395Y-125662676D01*
X100080014Y-125662612D01*
X99982978Y-125659997D01*
X99879989Y-125651960D01*
G37*
G36*
X91652770Y-125615051D02*
G01*
X91652770Y-126036532D01*
X91359876Y-126036532D01*
X91359876Y-125374545D01*
X91652770Y-125374545D01*
X91728970Y-125405501D01*
X91824220Y-125417407D01*
X91915303Y-125396274D01*
X91979001Y-125332873D01*
X92016506Y-125230777D01*
X92029007Y-125093557D01*
X92014125Y-124956933D01*
X91969476Y-124847098D01*
X91894467Y-124774767D01*
X91788501Y-124750657D01*
X91717064Y-124754229D01*
X91652770Y-124760182D01*
X91652770Y-125374545D01*
X91359876Y-125374545D01*
X91359876Y-124560157D01*
X91450066Y-124536345D01*
X91558711Y-124517295D01*
X91675689Y-124504793D01*
X91790882Y-124500626D01*
X91950426Y-124518088D01*
X92082982Y-124570476D01*
X92188551Y-124657788D01*
X92265280Y-124774999D01*
X92311318Y-124917080D01*
X92326664Y-125084032D01*
X92319520Y-125207560D01*
X92298089Y-125320967D01*
X92262965Y-125421574D01*
X92214745Y-125506704D01*
X92076632Y-125626957D01*
X91986740Y-125659104D01*
X91883751Y-125669820D01*
X91824220Y-125662651D01*
X91770046Y-125656128D01*
X91652770Y-125615051D01*
G37*
G36*
X90461671Y-130486464D02*
G01*
X90556748Y-130498602D01*
X90715112Y-130544840D01*
X90671186Y-130785276D01*
X90548656Y-130747130D01*
X90361393Y-130720543D01*
X90214587Y-130747130D01*
X90176441Y-130803772D01*
X90193780Y-130848854D01*
X90240018Y-130884688D01*
X90307063Y-130915898D01*
X90389135Y-130944797D01*
X90518601Y-130991035D01*
X90639976Y-131054612D01*
X90728984Y-131151712D01*
X90763662Y-131296205D01*
X90738231Y-131423359D01*
X90653847Y-131527394D01*
X90500106Y-131596751D01*
X90394337Y-131615824D01*
X90266605Y-131622182D01*
X90135983Y-131614090D01*
X90026168Y-131589815D01*
X89866647Y-131532018D01*
X89910573Y-131293893D01*
X90082809Y-131354002D01*
X90268917Y-131381745D01*
X90428437Y-131366718D01*
X90483923Y-131305452D01*
X90466584Y-131254591D01*
X90418034Y-131218756D01*
X90346365Y-131189858D01*
X90261981Y-131162115D01*
X90134827Y-131119345D01*
X90016921Y-131058080D01*
X89929069Y-130964448D01*
X89894390Y-130822267D01*
X89920977Y-130691645D01*
X90004205Y-130582986D01*
X90148698Y-130509005D01*
X90245220Y-130489065D01*
X90359081Y-130482418D01*
X90461671Y-130486464D01*
G37*
G36*
X87859924Y-130519409D02*
G01*
X87943152Y-130497446D01*
X88028692Y-130487042D01*
X88139085Y-130496001D01*
X88229827Y-130522877D01*
X88359293Y-130624600D01*
X88428650Y-130781809D01*
X88444255Y-130878041D01*
X88449457Y-130984099D01*
X88449457Y-131596751D01*
X88165094Y-131596751D01*
X88165094Y-131021090D01*
X88156424Y-130889890D01*
X88130416Y-130801460D01*
X87998638Y-130734415D01*
X87921189Y-130743662D01*
X87859924Y-130759846D01*
X87859924Y-131596751D01*
X87575561Y-131596751D01*
X87575561Y-130040847D01*
X87859924Y-129992297D01*
X87859924Y-130519409D01*
G37*
G36*
X80719064Y-131591838D02*
G01*
X80619075Y-131573632D01*
X80619075Y-131358626D01*
X80903437Y-131358626D01*
X80969326Y-131365562D01*
X81014408Y-131367040D01*
X81039839Y-131367874D01*
X81134627Y-131359782D01*
X81216699Y-131329727D01*
X81275652Y-131267306D01*
X81298771Y-131164427D01*
X81232882Y-131015310D01*
X81056022Y-130970228D01*
X81014408Y-130970228D01*
X81014408Y-131367040D01*
X81014408Y-130970228D01*
X80903437Y-130970228D01*
X80903437Y-131358626D01*
X80619075Y-131358626D01*
X80619075Y-130734415D01*
X80903437Y-130734415D01*
X81014408Y-130734415D01*
X81178553Y-130687021D01*
X81234038Y-130556399D01*
X81217855Y-130474327D01*
X81173929Y-130425777D01*
X81109196Y-130402658D01*
X81032904Y-130396878D01*
X80965859Y-130399190D01*
X80903437Y-130406126D01*
X80903437Y-130734415D01*
X80619075Y-130734415D01*
X80619075Y-130184184D01*
X80797090Y-130159909D01*
X80988978Y-130149506D01*
X81135783Y-130157886D01*
X81252533Y-130183028D01*
X81412054Y-130270880D01*
X81490658Y-130392255D01*
X81511465Y-130526344D01*
X81461760Y-130706672D01*
X81328826Y-130831514D01*
X81451067Y-130893935D01*
X81526493Y-130974852D01*
X81565506Y-131067327D01*
X81578510Y-131164427D01*
X81567529Y-131283200D01*
X81534584Y-131380589D01*
X81415522Y-131519303D01*
X81237506Y-131593283D01*
X81130870Y-131609755D01*
X81039839Y-131614134D01*
X81016720Y-131615246D01*
X81014408Y-131615124D01*
X80820209Y-131604843D01*
X80719064Y-131591838D01*
G37*
G36*
X99548856Y-131622182D02*
G01*
X99360437Y-131603687D01*
X99215944Y-131542421D01*
X99123468Y-131431451D01*
X99091101Y-131263838D01*
X99092709Y-131256903D01*
X99370840Y-131256903D01*
X99426326Y-131362094D01*
X99569663Y-131393304D01*
X99659827Y-131392148D01*
X99736120Y-131386369D01*
X99736120Y-131136684D01*
X99669075Y-131128593D01*
X99597406Y-131125125D01*
X99511866Y-131130904D01*
X99439041Y-131150556D01*
X99389336Y-131189858D01*
X99370840Y-131256903D01*
X99092709Y-131256903D01*
X99128092Y-131104318D01*
X99227503Y-131000283D01*
X99370840Y-130943641D01*
X99539609Y-130926302D01*
X99644222Y-130930926D01*
X99736120Y-130944797D01*
X99736120Y-130910119D01*
X99685258Y-130774873D01*
X99615901Y-130734126D01*
X99509554Y-130720543D01*
X99353501Y-130732103D01*
X99232127Y-130759846D01*
X99192825Y-130530968D01*
X99343098Y-130497446D01*
X99441931Y-130486175D01*
X99544232Y-130482418D01*
X99667052Y-130490221D01*
X99767330Y-130513629D01*
X99909512Y-130601481D01*
X99985804Y-130740195D01*
X100008923Y-130923990D01*
X100008923Y-131571320D01*
X99823971Y-131603687D01*
X99693927Y-131617558D01*
X99569663Y-131621519D01*
X99548856Y-131622182D01*
G37*
G36*
X84754289Y-125217382D02*
G01*
X84791198Y-125366210D01*
X84913832Y-125415026D01*
X85011464Y-125404310D01*
X85140051Y-125360257D01*
X85178151Y-125596001D01*
X85007892Y-125654342D01*
X84861445Y-125669820D01*
X84756372Y-125661485D01*
X84669754Y-125636482D01*
X84545929Y-125540042D01*
X84480445Y-125386451D01*
X84466157Y-125289415D01*
X84461395Y-125179282D01*
X84461395Y-124767326D01*
X84151832Y-124767326D01*
X84151832Y-124524438D01*
X84754289Y-124524438D01*
X84754289Y-125217382D01*
G37*
G36*
X89253996Y-131182922D02*
G01*
X89289830Y-131327415D01*
X89408893Y-131374809D01*
X89503680Y-131364406D01*
X89628522Y-131321636D01*
X89665513Y-131550513D01*
X89500212Y-131607154D01*
X89358031Y-131622182D01*
X89171924Y-131589815D01*
X89051705Y-131496184D01*
X88988128Y-131347067D01*
X88974257Y-131252857D01*
X88969633Y-131145932D01*
X88969633Y-130745974D01*
X88669087Y-130745974D01*
X88669087Y-130510161D01*
X89253996Y-130510161D01*
X89253996Y-131182922D01*
G37*
G36*
X90666745Y-128380890D02*
G01*
X90955310Y-128380890D01*
X90955310Y-128620188D01*
X90073192Y-128620188D01*
X90073192Y-128380890D01*
X90378179Y-128380890D01*
X90378179Y-127569154D01*
X90228032Y-127652439D01*
X90084922Y-127709918D01*
X89991080Y-127470620D01*
X90113075Y-127416660D01*
X90244454Y-127343932D01*
X90368795Y-127259474D01*
X90469676Y-127167978D01*
X90666745Y-127167978D01*
X90666745Y-128380890D01*
G37*
G36*
X87068864Y-124064857D02*
G01*
X87123632Y-124202970D01*
X87068864Y-124338701D01*
X86937895Y-124388707D01*
X86808117Y-124338701D01*
X86754539Y-124202970D01*
X86808117Y-124064857D01*
X86937895Y-124014851D01*
X87068864Y-124064857D01*
G37*
G36*
X93033895Y-124524438D02*
G01*
X93503001Y-124524438D01*
X93503001Y-124767326D01*
X93033895Y-124767326D01*
X93033895Y-125219763D01*
X93045801Y-125319776D01*
X93079139Y-125379307D01*
X93131526Y-125407882D01*
X93200582Y-125415026D01*
X93275592Y-125412645D01*
X93342267Y-125404310D01*
X93408942Y-125386451D01*
X93483951Y-125355495D01*
X93524432Y-125607907D01*
X93349411Y-125655532D01*
X93167245Y-125669820D01*
X92986270Y-125653151D01*
X92852920Y-125588857D01*
X92769576Y-125454317D01*
X92748145Y-125354006D01*
X92741001Y-125226907D01*
X92741001Y-124767326D01*
X92486207Y-124767326D01*
X92486207Y-124524438D01*
X92741001Y-124524438D01*
X92741001Y-124243451D01*
X93033895Y-124195826D01*
X93033895Y-124524438D01*
G37*
G36*
X82079035Y-130692801D02*
G01*
X82106489Y-130789900D01*
X82135677Y-130887000D01*
X82166598Y-130983232D01*
X82199254Y-131077731D01*
X82267454Y-131252279D01*
X82316004Y-131077731D01*
X82364554Y-130888156D01*
X82409636Y-130695113D01*
X82450094Y-130510161D01*
X82741393Y-130510161D01*
X82698334Y-130661301D01*
X82657008Y-130809551D01*
X82615683Y-130954623D01*
X82572624Y-131096226D01*
X82527253Y-131234651D01*
X82478993Y-131370185D01*
X82427264Y-131502541D01*
X82371490Y-131631429D01*
X82284794Y-131790950D01*
X82190006Y-131900765D01*
X82074411Y-131964342D01*
X81925294Y-131985149D01*
X81794672Y-131973590D01*
X81696417Y-131943535D01*
X81749590Y-131705410D01*
X81831663Y-131734309D01*
X81909111Y-131742400D01*
X82043201Y-131686915D01*
X82124117Y-131555137D01*
X82056302Y-131412955D01*
X81988486Y-131257673D01*
X81920671Y-131089290D01*
X81870965Y-130954695D01*
X81823571Y-130813308D01*
X81778489Y-130665130D01*
X81735719Y-130510161D01*
X82031641Y-130510161D01*
X82079035Y-130692801D01*
G37*
G36*
X85974084Y-124509853D02*
G01*
X86073501Y-124537535D01*
X86212804Y-124642310D01*
X86285432Y-124804235D01*
X86301506Y-124903355D01*
X86306864Y-125012595D01*
X86306864Y-125643626D01*
X86013970Y-125643626D01*
X86013970Y-125050695D01*
X86005040Y-124915559D01*
X85978251Y-124824476D01*
X85832995Y-124755420D01*
X85767511Y-124757801D01*
X85699645Y-124764945D01*
X85699645Y-125643626D01*
X85406751Y-125643626D01*
X85406751Y-124560157D01*
X85494560Y-124539321D01*
X85600823Y-124519676D01*
X85721374Y-124505388D01*
X85852045Y-124500626D01*
X85974084Y-124509853D01*
G37*
G36*
X88559526Y-125176901D02*
G01*
X87907064Y-125176901D01*
X87907064Y-124888770D01*
X88559526Y-124888770D01*
X88559526Y-125176901D01*
G37*
G36*
X89189263Y-130063966D02*
G01*
X89242436Y-130198056D01*
X89189263Y-130329833D01*
X89062109Y-130378383D01*
X88936110Y-130329833D01*
X88884093Y-130198056D01*
X88936110Y-130063966D01*
X89062109Y-130015416D01*
X89189263Y-130063966D01*
G37*
G36*
X95587786Y-124505388D02*
G01*
X95681845Y-124513723D01*
X95783048Y-124528010D01*
X95874726Y-124550632D01*
X95822339Y-124822095D01*
X95754473Y-124807807D01*
X95674701Y-124794710D01*
X95596120Y-124786376D01*
X95531826Y-124783995D01*
X95410382Y-124789948D01*
X95288939Y-124812570D01*
X95288939Y-125643626D01*
X94993664Y-125643626D01*
X94993664Y-124598257D01*
X95111833Y-124559562D01*
X95232979Y-124529201D01*
X95366032Y-124509556D01*
X95519920Y-124503007D01*
X95587786Y-124505388D01*
G37*
G36*
X89703717Y-124149392D02*
G01*
X89814445Y-124179157D01*
X89894217Y-124214876D01*
X89943032Y-124243451D01*
X89866832Y-124476813D01*
X89734673Y-124416092D01*
X89557270Y-124391088D01*
X89422729Y-124416092D01*
X89306048Y-124499435D01*
X89222704Y-124655407D01*
X89198594Y-124764945D01*
X89190557Y-124898295D01*
X89200215Y-125053473D01*
X89229187Y-125182457D01*
X89277473Y-125285248D01*
X89392071Y-125386153D01*
X89562032Y-125419788D01*
X89751342Y-125393595D01*
X89871595Y-125341207D01*
X89945414Y-125572188D01*
X89777536Y-125642435D01*
X89663533Y-125666546D01*
X89533457Y-125674582D01*
X89341899Y-125652357D01*
X89183149Y-125585682D01*
X89057207Y-125474557D01*
X88985323Y-125363978D01*
X88933978Y-125232265D01*
X88903170Y-125079419D01*
X88892901Y-124905438D01*
X88905403Y-124732203D01*
X88942907Y-124579207D01*
X89002736Y-124447346D01*
X89082211Y-124337510D01*
X89179842Y-124250595D01*
X89294142Y-124187492D01*
X89422432Y-124149094D01*
X89562032Y-124136295D01*
X89703717Y-124149392D01*
G37*
G36*
X93989967Y-125277211D02*
G01*
X94057832Y-125351923D01*
X94161417Y-125399250D01*
X94291195Y-125415026D01*
X94459073Y-125395976D01*
X94593614Y-125357876D01*
X94634095Y-125607907D01*
X94472170Y-125651960D01*
X94279289Y-125669820D01*
X94143855Y-125660592D01*
X94023304Y-125632910D01*
X93918529Y-125587071D01*
X93830423Y-125523373D01*
X93759878Y-125442113D01*
X93707789Y-125343588D01*
X93675642Y-125227503D01*
X93664926Y-125093557D01*
X93674441Y-124976876D01*
X93967345Y-124976876D01*
X94415020Y-124976876D01*
X94403114Y-124889960D01*
X94365014Y-124814951D01*
X94298339Y-124761373D01*
X94198326Y-124741132D01*
X94099504Y-124760182D01*
X94030448Y-124812570D01*
X93987586Y-124888770D01*
X93967345Y-124976876D01*
X93674441Y-124976876D01*
X93676237Y-124954849D01*
X93710170Y-124834001D01*
X93762557Y-124731310D01*
X93829232Y-124647073D01*
X93908409Y-124581291D01*
X93998301Y-124533963D01*
X94094742Y-124505388D01*
X94193564Y-124495863D01*
X94345434Y-124512135D01*
X94470847Y-124560951D01*
X94569801Y-124642310D01*
X94641239Y-124754891D01*
X94684101Y-124897369D01*
X94698389Y-125069745D01*
X94697198Y-125129276D01*
X94693626Y-125179282D01*
X93967345Y-125179282D01*
X93989967Y-125277211D01*
G37*
G36*
X101969408Y-131182922D02*
G01*
X102005243Y-131327415D01*
X102124305Y-131374809D01*
X102219093Y-131364406D01*
X102343935Y-131321636D01*
X102380925Y-131550513D01*
X102215625Y-131607154D01*
X102073444Y-131622182D01*
X101887336Y-131589815D01*
X101767118Y-131496184D01*
X101703541Y-131347067D01*
X101689669Y-131252857D01*
X101685046Y-131145932D01*
X101685046Y-130745974D01*
X101384499Y-130745974D01*
X101384499Y-130510161D01*
X101969408Y-130510161D01*
X101969408Y-131182922D01*
G37*
G36*
X93526374Y-131596751D02*
G01*
X93230452Y-131596751D01*
X93271234Y-131430526D01*
X93312201Y-131270312D01*
X93353352Y-131116108D01*
X93377277Y-131030337D01*
X93644281Y-131030337D01*
X93924020Y-131030337D01*
X93896277Y-130882376D01*
X93865067Y-130740195D01*
X93828076Y-130596857D01*
X93785306Y-130443116D01*
X93742536Y-130596857D01*
X93705546Y-130740195D01*
X93673180Y-130882376D01*
X93644281Y-131030337D01*
X93377277Y-131030337D01*
X93394689Y-130967916D01*
X93436211Y-130825735D01*
X93487795Y-130654004D01*
X93538512Y-130486753D01*
X93588362Y-130323982D01*
X93637345Y-130165689D01*
X93947139Y-130165689D01*
X93997928Y-130325282D01*
X94048573Y-130489643D01*
X94099074Y-130658773D01*
X94149430Y-130832670D01*
X94199352Y-131012637D01*
X94248552Y-131199972D01*
X94297030Y-131394677D01*
X94344785Y-131596751D01*
X94039615Y-131596751D01*
X93972570Y-131266150D01*
X93591107Y-131266150D01*
X93526374Y-131596751D01*
G37*
G36*
X91785815Y-128282356D02*
G01*
X91849159Y-128434850D01*
X91785815Y-128592036D01*
X91640359Y-128645995D01*
X91560593Y-128631919D01*
X91493731Y-128590863D01*
X91446809Y-128525173D01*
X91429214Y-128434850D01*
X91446809Y-128346873D01*
X91493731Y-128282356D01*
X91560593Y-128242473D01*
X91640359Y-128228397D01*
X91785815Y-128282356D01*
G37*
G36*
X91327764Y-130519409D02*
G01*
X91410992Y-130497446D01*
X91496532Y-130487042D01*
X91606925Y-130496001D01*
X91697667Y-130522877D01*
X91827133Y-130624600D01*
X91896490Y-130781809D01*
X91912095Y-130878041D01*
X91917297Y-130984099D01*
X91917297Y-131596751D01*
X91632934Y-131596751D01*
X91632934Y-131021090D01*
X91624264Y-130889890D01*
X91598255Y-130801460D01*
X91466478Y-130734415D01*
X91389029Y-130743662D01*
X91327764Y-130759846D01*
X91327764Y-131596751D01*
X91043401Y-131596751D01*
X91043401Y-130040847D01*
X91327764Y-129992297D01*
X91327764Y-130519409D01*
G37*
G36*
X94874208Y-131525082D02*
G01*
X94687234Y-131491560D01*
X94551699Y-131390992D01*
X94490691Y-131290040D01*
X94454086Y-131165968D01*
X94441884Y-131018778D01*
X94730871Y-131018778D01*
X94743008Y-131136973D01*
X94779421Y-131223380D01*
X94932005Y-131293893D01*
X95018701Y-131282333D01*
X95091526Y-131252279D01*
X95091526Y-130729791D01*
X95033729Y-130720543D01*
X94980555Y-130718232D01*
X94841842Y-130751626D01*
X94758613Y-130851808D01*
X94730871Y-131018778D01*
X94441884Y-131018778D01*
X94458324Y-130855147D01*
X94507645Y-130721828D01*
X94589845Y-130618820D01*
X94700302Y-130545610D01*
X94834392Y-130501684D01*
X94992115Y-130487042D01*
X95177644Y-130501492D01*
X95378201Y-130544840D01*
X95378201Y-131464973D01*
X95363944Y-131626806D01*
X95321174Y-131757813D01*
X95249891Y-131857995D01*
X95147012Y-131928636D01*
X95009454Y-131971021D01*
X94837218Y-131985149D01*
X94641863Y-131964342D01*
X94462691Y-131915792D01*
X94515865Y-131675355D01*
X94656890Y-131722749D01*
X94841842Y-131744712D01*
X94964372Y-131727373D01*
X95040664Y-131679979D01*
X95079967Y-131609466D01*
X95091526Y-131522770D01*
X95091526Y-131478844D01*
X94981711Y-131513523D01*
X94932005Y-131518868D01*
X94874208Y-131525082D01*
G37*
G36*
X92534729Y-128567272D02*
G01*
X92435673Y-128463003D01*
X92379221Y-128356843D01*
X92338898Y-128226051D01*
X92314705Y-128070624D01*
X92306640Y-127890564D01*
X92567053Y-127890564D01*
X92582888Y-128111387D01*
X92630396Y-128271799D01*
X92707230Y-128369453D01*
X92811043Y-128402005D01*
X92916322Y-128369453D01*
X92992862Y-128271799D01*
X93039490Y-128111387D01*
X93055033Y-127890564D01*
X93039490Y-127671501D01*
X92992862Y-127511676D01*
X92916322Y-127414021D01*
X92811043Y-127381469D01*
X92707230Y-127414021D01*
X92630396Y-127511676D01*
X92582888Y-127671501D01*
X92567053Y-127890564D01*
X92306640Y-127890564D01*
X92314851Y-127712557D01*
X92339485Y-127558597D01*
X92380541Y-127428684D01*
X92438019Y-127322818D01*
X92537857Y-127218548D01*
X92662198Y-127155987D01*
X92811043Y-127135133D01*
X92962233Y-127155857D01*
X93087356Y-127218027D01*
X93186412Y-127321645D01*
X93242864Y-127427144D01*
X93283187Y-127557130D01*
X93307381Y-127711604D01*
X93315445Y-127890564D01*
X93307381Y-128070624D01*
X93283187Y-128226051D01*
X93242864Y-128356843D01*
X93186412Y-128463003D01*
X93087356Y-128567272D01*
X92962233Y-128629833D01*
X92811043Y-128650687D01*
X92659852Y-128629833D01*
X92534729Y-128567272D01*
G37*
G36*
X87135539Y-125217382D02*
G01*
X87172448Y-125366210D01*
X87295082Y-125415026D01*
X87392714Y-125404310D01*
X87521301Y-125360257D01*
X87559401Y-125596001D01*
X87389142Y-125654342D01*
X87242695Y-125669820D01*
X87137622Y-125661485D01*
X87051004Y-125636482D01*
X86927179Y-125540042D01*
X86861695Y-125386451D01*
X86847407Y-125289415D01*
X86842645Y-125179282D01*
X86842645Y-124767326D01*
X86533082Y-124767326D01*
X86533082Y-124524438D01*
X87135539Y-124524438D01*
X87135539Y-125217382D01*
G37*
X114040000Y-105000000D02*
X113270000Y-105000000D01*
X106730000Y-103630000D02*
X106730000Y-106370000D01*
X113270000Y-106370000D02*
X113270000Y-103630000D01*
X106730000Y-106370000D02*
X113270000Y-106370000D01*
X105960000Y-105000000D02*
X106730000Y-105000000D01*
X113270000Y-103630000D02*
X106730000Y-103630000D01*
G36*
X94992125Y-108433175D02*
G01*
X94023750Y-108433175D01*
X94011844Y-108370469D01*
X94003906Y-108301413D01*
X93999937Y-108234737D01*
X93998350Y-108179175D01*
X94168212Y-108179175D01*
X94169006Y-108206162D01*
X94172975Y-108237913D01*
X94468250Y-108237913D01*
X94468250Y-108195050D01*
X94458527Y-108108928D01*
X94429356Y-108050588D01*
X94319025Y-108006137D01*
X94251556Y-108018044D01*
X94204725Y-108053763D01*
X94177341Y-108108928D01*
X94168212Y-108179175D01*
X93998350Y-108179175D01*
X94003112Y-108099006D01*
X94017400Y-108026775D01*
X94041609Y-107963275D01*
X94076137Y-107909300D01*
X94176944Y-107833894D01*
X94243420Y-107814248D01*
X94320612Y-107807700D01*
X94402369Y-107816431D01*
X94476187Y-107842625D01*
X94537703Y-107889059D01*
X94582550Y-107958512D01*
X94673831Y-107901362D01*
X94778606Y-107842625D01*
X94888144Y-107787856D01*
X94992125Y-107742612D01*
X94992125Y-107947400D01*
X94898661Y-107986889D01*
X94808769Y-108032331D01*
X94720067Y-108082536D01*
X94630175Y-108136312D01*
X94630175Y-108237913D01*
X94992125Y-108237913D01*
X94992125Y-108433175D01*
G37*
G36*
X94992125Y-111116050D02*
G01*
X94228537Y-111106525D01*
X94644462Y-111227175D01*
X94644462Y-111370050D01*
X94228537Y-111485938D01*
X94992125Y-111478000D01*
X94992125Y-111657388D01*
X94869094Y-111652427D01*
X94741300Y-111647069D01*
X94611522Y-111641314D01*
X94482537Y-111635163D01*
X94355934Y-111628217D01*
X94233300Y-111620081D01*
X94117016Y-111610755D01*
X94009462Y-111600238D01*
X94009462Y-111438313D01*
X94095187Y-111410531D01*
X94207900Y-111374813D01*
X94330137Y-111336713D01*
X94444437Y-111300200D01*
X94322994Y-111260513D01*
X94202344Y-111220825D01*
X94093600Y-111185900D01*
X94009462Y-111157325D01*
X94009462Y-110995400D01*
X94136462Y-110984486D01*
X94260287Y-110973969D01*
X94381930Y-110964444D01*
X94502381Y-110956506D01*
X94622634Y-110949958D01*
X94743681Y-110944600D01*
X94866514Y-110940234D01*
X94992125Y-110936663D01*
X94992125Y-111116050D01*
G37*
G36*
X94171387Y-109611100D02*
G01*
X94992125Y-109611100D01*
X94992125Y-109807950D01*
X94171387Y-109807950D01*
X94171387Y-110066713D01*
X94009462Y-110066713D01*
X94009462Y-109352338D01*
X94171387Y-109352338D01*
X94171387Y-109611100D01*
G37*
G36*
X94955260Y-109108568D02*
G01*
X94883381Y-109178506D01*
X94810902Y-109218442D01*
X94722845Y-109246967D01*
X94619211Y-109264082D01*
X94500000Y-109269787D01*
X94380789Y-109263934D01*
X94277155Y-109246372D01*
X94189098Y-109217102D01*
X94116619Y-109176125D01*
X94044740Y-109105569D01*
X94001613Y-109018786D01*
X93987237Y-108915775D01*
X94157100Y-108915775D01*
X94184087Y-108996738D01*
X94257906Y-109043569D01*
X94366650Y-109065794D01*
X94430944Y-109069961D01*
X94500000Y-109071350D01*
X94569255Y-109069961D01*
X94634144Y-109065794D01*
X94742887Y-109043569D01*
X94815912Y-108996738D01*
X94842900Y-108915775D01*
X94815912Y-108835606D01*
X94742094Y-108787981D01*
X94633350Y-108765756D01*
X94569056Y-108761589D01*
X94500000Y-108760200D01*
X94430745Y-108761589D01*
X94365856Y-108765756D01*
X94257112Y-108787981D01*
X94184087Y-108834812D01*
X94157100Y-108915775D01*
X93987237Y-108915775D01*
X94001613Y-108809589D01*
X94044740Y-108721747D01*
X94116619Y-108652250D01*
X94189098Y-108612662D01*
X94277155Y-108584384D01*
X94380789Y-108567418D01*
X94500000Y-108561762D01*
X94619211Y-108567517D01*
X94722845Y-108584781D01*
X94810902Y-108613555D01*
X94883381Y-108653838D01*
X94955260Y-108723687D01*
X94998387Y-108810471D01*
X95012762Y-108914188D01*
X95012548Y-108915775D01*
X94998387Y-109020462D01*
X94955260Y-109108568D01*
G37*
G36*
X94955260Y-110696068D02*
G01*
X94883381Y-110766006D01*
X94810902Y-110805942D01*
X94722845Y-110834467D01*
X94619211Y-110851582D01*
X94500000Y-110857288D01*
X94380789Y-110851434D01*
X94277155Y-110833872D01*
X94189098Y-110804602D01*
X94116619Y-110763625D01*
X94044740Y-110693069D01*
X94001613Y-110606286D01*
X93987237Y-110503275D01*
X94157100Y-110503275D01*
X94184087Y-110584238D01*
X94257906Y-110631069D01*
X94366650Y-110653294D01*
X94430944Y-110657461D01*
X94500000Y-110658850D01*
X94569255Y-110657461D01*
X94634144Y-110653294D01*
X94742887Y-110631069D01*
X94815912Y-110584238D01*
X94842900Y-110503275D01*
X94815912Y-110423106D01*
X94742094Y-110375481D01*
X94633350Y-110353256D01*
X94569056Y-110349089D01*
X94500000Y-110347700D01*
X94430745Y-110349089D01*
X94365856Y-110353256D01*
X94257112Y-110375481D01*
X94184087Y-110422313D01*
X94157100Y-110503275D01*
X93987237Y-110503275D01*
X94001613Y-110397089D01*
X94044740Y-110309247D01*
X94116619Y-110239750D01*
X94189098Y-110200162D01*
X94277155Y-110171884D01*
X94380789Y-110154918D01*
X94500000Y-110149263D01*
X94619211Y-110155017D01*
X94722845Y-110172281D01*
X94810902Y-110201055D01*
X94883381Y-110241338D01*
X94955260Y-110311188D01*
X94998387Y-110397971D01*
X95012762Y-110501688D01*
X95012548Y-110503275D01*
X94998387Y-110607962D01*
X94955260Y-110696068D01*
G37*
D11*
X122822013Y-103533487D02*
X122822013Y-128933487D01*
X124092013Y-128933487D02*
X122822013Y-128933487D01*
X124092013Y-103533487D02*
X141872013Y-103533487D01*
X141872013Y-103533487D02*
X141872013Y-128933487D01*
X124092013Y-103533487D02*
X122822013Y-103533487D01*
X124092013Y-128933487D02*
X141872013Y-128933487D01*
D12*
X125997013Y-127663487D02*
X123457013Y-127663487D01*
X123457013Y-127663487D02*
X123457013Y-122583487D01*
X123457013Y-122583487D02*
X125997013Y-122583487D01*
X125997013Y-122583487D02*
X125997013Y-127663487D01*
X125362013Y-112423487D02*
X140602013Y-112423487D01*
X140602013Y-112423487D02*
X140602013Y-114963487D01*
X140602013Y-114963487D02*
X125362013Y-114963487D01*
X125362013Y-114963487D02*
X125362013Y-112423487D01*
D13*
X123308526Y-129568487D02*
G75*
G03*
X123308526Y-129568487I-486513J0D01*
G01*
D12*
X114040000Y-116500000D02*
X113270000Y-116500000D01*
X113270000Y-115130000D02*
X106730000Y-115130000D01*
X113270000Y-117870000D02*
X113270000Y-115130000D01*
X106730000Y-115130000D02*
X106730000Y-117870000D01*
X106730000Y-117870000D02*
X113270000Y-117870000D01*
X105960000Y-116500000D02*
X106730000Y-116500000D01*
X113945000Y-130040000D02*
X106065000Y-130040000D01*
X100985000Y-89270000D02*
X100985000Y-127500000D01*
X103655000Y-89270000D02*
X100985000Y-89270000D01*
X100985000Y-127500000D02*
X106065000Y-127500000D01*
X119025000Y-84060000D02*
X100985000Y-84060000D01*
X116355000Y-86730000D02*
X116355000Y-124830000D01*
X106065000Y-130040000D02*
X106065000Y-119620000D01*
X106065000Y-119620000D02*
X113945000Y-119620000D01*
X119025000Y-127500000D02*
X113945000Y-127500000D01*
X119025000Y-127500000D02*
X119025000Y-84060000D01*
X116355000Y-86730000D02*
X119025000Y-86730000D01*
X103655000Y-89270000D02*
X103655000Y-86730000D01*
X100985000Y-84060000D02*
X100985000Y-86730000D01*
X103655000Y-86730000D02*
X100985000Y-86730000D01*
X103655000Y-89270000D02*
X103655000Y-124830000D01*
X103655000Y-124830000D02*
X100985000Y-124830000D01*
X113945000Y-119620000D02*
X113945000Y-130040000D01*
X116355000Y-124830000D02*
X119025000Y-124830000D01*
G36*
X141560965Y-77903798D02*
G01*
X141860050Y-77903798D01*
X141860050Y-78096202D01*
X141560965Y-78096202D01*
X141560965Y-78427673D01*
X141359035Y-78427673D01*
X141359035Y-78096202D01*
X141059950Y-78096202D01*
X141059950Y-77903798D01*
X141359035Y-77903798D01*
X141359035Y-77572327D01*
X141560965Y-77572327D01*
X141560965Y-77903798D01*
G37*
X106730000Y-95770000D02*
X113270000Y-95770000D01*
X113270000Y-95770000D02*
X113270000Y-93030000D01*
X113270000Y-93030000D02*
X106730000Y-93030000D01*
X106730000Y-93030000D02*
X106730000Y-95770000D01*
X105960000Y-94400000D02*
X106730000Y-94400000D01*
X114040000Y-94400000D02*
X113270000Y-94400000D01*
X86330000Y-76920000D02*
X86330000Y-76764000D01*
X86330000Y-79236000D02*
X86330000Y-79080000D01*
X86330000Y-76764484D02*
G75*
G03*
X83097665Y-76921392I-1560000J-1235516D01*
G01*
X85810961Y-76920000D02*
G75*
G03*
X83728870Y-76920163I-1040961J-1080000D01*
G01*
X83097665Y-79078608D02*
G75*
G03*
X86330000Y-79235516I1672335J1078608D01*
G01*
X83728870Y-79079837D02*
G75*
G03*
X85810961Y-79080000I1041130J1079837D01*
G01*
G36*
X144346635Y-118072767D02*
G01*
X144409319Y-117710175D01*
X144513128Y-117377813D01*
X144657913Y-117076063D01*
X144843523Y-116805309D01*
X145069807Y-116565935D01*
X145336617Y-116358323D01*
X145642057Y-116183707D01*
X145926530Y-116056843D01*
X146193154Y-115965038D01*
X146458239Y-115904500D01*
X146738094Y-115871438D01*
X147025865Y-115862026D01*
X147292987Y-115868927D01*
X147530929Y-115892167D01*
X147760565Y-115935023D01*
X148002770Y-116000766D01*
X148093335Y-116029451D01*
X148288182Y-116100910D01*
X148500626Y-116192340D01*
X148719114Y-116297664D01*
X148932093Y-116410802D01*
X149128011Y-116525673D01*
X149295314Y-116636201D01*
X149400884Y-116717489D01*
X149486799Y-116790326D01*
X149316784Y-116901867D01*
X149146539Y-117028793D01*
X148987454Y-117175877D01*
X148850855Y-117331203D01*
X148748069Y-117482859D01*
X148727608Y-117521582D01*
X148684792Y-117616134D01*
X148658179Y-117700161D01*
X148643067Y-117794056D01*
X148634756Y-117918210D01*
X148634426Y-117925780D01*
X148633193Y-118070305D01*
X148644652Y-118203525D01*
X148671654Y-118338590D01*
X148717055Y-118488648D01*
X148783708Y-118666848D01*
X148808715Y-118728837D01*
X148848955Y-118832110D01*
X148878105Y-118916311D01*
X148892766Y-118970989D01*
X148892400Y-118986238D01*
X148859774Y-118996375D01*
X148791785Y-119012325D01*
X148713820Y-119028490D01*
X148552385Y-119060206D01*
X148567097Y-119166814D01*
X148642454Y-119593064D01*
X148745222Y-119979843D01*
X148874819Y-120325302D01*
X149018980Y-120607983D01*
X149094632Y-120736290D01*
X149023807Y-120763218D01*
X148876049Y-120805980D01*
X148694879Y-120838046D01*
X148497794Y-120857910D01*
X148302291Y-120864067D01*
X148125865Y-120855011D01*
X148060489Y-120846110D01*
X147910303Y-120813441D01*
X147723379Y-120761189D01*
X147509507Y-120692383D01*
X147278477Y-120610051D01*
X147193992Y-120578069D01*
X147046542Y-120523491D01*
X146901202Y-120473418D01*
X146771283Y-120432182D01*
X146670095Y-120404116D01*
X146637882Y-120397014D01*
X146486590Y-120377650D01*
X146300979Y-120368254D01*
X146097450Y-120368629D01*
X145892407Y-120378581D01*
X145702253Y-120397913D01*
X145629124Y-120409065D01*
X145451420Y-120444459D01*
X145242840Y-120493722D01*
X145020790Y-120552153D01*
X144802676Y-120615050D01*
X144605904Y-120677711D01*
X144511571Y-120710928D01*
X144416894Y-120745367D01*
X144342364Y-120771595D01*
X144299982Y-120785423D01*
X144294910Y-120786558D01*
X144299787Y-120765565D01*
X144323520Y-120710373D01*
X144361063Y-120632658D01*
X144363447Y-120627925D01*
X144440887Y-120437148D01*
X144490443Y-120234328D01*
X144508233Y-120038342D01*
X144503698Y-119945927D01*
X144493524Y-119868155D01*
X144475990Y-119751710D01*
X144453045Y-119608806D01*
X144426633Y-119451658D01*
X144406836Y-119338086D01*
X144345243Y-118887105D01*
X144328475Y-118533686D01*
X144548130Y-118533686D01*
X144557024Y-118698389D01*
X144579363Y-118879816D01*
X144616100Y-119090496D01*
X144645129Y-119234623D01*
X144700180Y-119562658D01*
X144720790Y-119859460D01*
X144706879Y-120132471D01*
X144658364Y-120389130D01*
X144631444Y-120482016D01*
X144624806Y-120515755D01*
X144645092Y-120515601D01*
X144676116Y-120500259D01*
X144724870Y-120471531D01*
X144802521Y-120422620D01*
X144895143Y-120362361D01*
X144930753Y-120338735D01*
X145055888Y-120246634D01*
X145121114Y-120191650D01*
X145454436Y-120191650D01*
X145491693Y-120183938D01*
X145562036Y-120164127D01*
X145649724Y-120137204D01*
X145739015Y-120108155D01*
X145814167Y-120081967D01*
X145859438Y-120063628D01*
X145860804Y-120062916D01*
X145905775Y-120050091D01*
X145992023Y-120034962D01*
X146109230Y-120019000D01*
X146247078Y-120003678D01*
X146332076Y-119995694D01*
X146534437Y-119975286D01*
X146691805Y-119952386D01*
X146810917Y-119924809D01*
X146898511Y-119890369D01*
X146961324Y-119846882D01*
X147006093Y-119792162D01*
X147016812Y-119773601D01*
X147050685Y-119668740D01*
X147061763Y-119534502D01*
X147050418Y-119387763D01*
X147017022Y-119245402D01*
X147004427Y-119210300D01*
X146976991Y-119132826D01*
X146962285Y-119076523D01*
X146962358Y-119056719D01*
X146985841Y-119066540D01*
X147034314Y-119104900D01*
X147090176Y-119156679D01*
X147201701Y-119299874D01*
X147267150Y-119462875D01*
X147284521Y-119608805D01*
X147289455Y-119674989D01*
X147311107Y-119724988D01*
X147359760Y-119777019D01*
X147398087Y-119810044D01*
X147515739Y-119934142D01*
X147588094Y-120075392D01*
X147619004Y-120242283D01*
X147620774Y-120300582D01*
X147620774Y-120470779D01*
X147743635Y-120548969D01*
X147942030Y-120646000D01*
X148171728Y-120706409D01*
X148426331Y-120728999D01*
X148648721Y-120718511D01*
X148804827Y-120702194D01*
X148716646Y-120516510D01*
X148653660Y-120361497D01*
X148591317Y-120166618D01*
X148532699Y-119943681D01*
X148480886Y-119704495D01*
X148438961Y-119460867D01*
X148436128Y-119441548D01*
X148413434Y-119287282D01*
X148395686Y-119176947D01*
X148380839Y-119103220D01*
X148366844Y-119058775D01*
X148351655Y-119036288D01*
X148333225Y-119028435D01*
X148320472Y-119027699D01*
X148258897Y-119013025D01*
X148168907Y-118973612D01*
X148063004Y-118916372D01*
X147953690Y-118848220D01*
X147853468Y-118776067D01*
X147827698Y-118755222D01*
X147699464Y-118654572D01*
X147593734Y-118588512D01*
X147499493Y-118552232D01*
X147405725Y-118540922D01*
X147344492Y-118544182D01*
X147253789Y-118548226D01*
X147204257Y-118539787D01*
X147198818Y-118522169D01*
X147240398Y-118498677D01*
X147290207Y-118482844D01*
X147414603Y-118459601D01*
X147539839Y-118459974D01*
X147675187Y-118485966D01*
X147829917Y-118539581D01*
X148013300Y-118622822D01*
X148070586Y-118651478D01*
X148243910Y-118735970D01*
X148381681Y-118794636D01*
X148491344Y-118830413D01*
X148558401Y-118843828D01*
X148640122Y-118851235D01*
X148693458Y-118848951D01*
X148707128Y-118840925D01*
X148695275Y-118810930D01*
X148662808Y-118744854D01*
X148614368Y-118651770D01*
X148554592Y-118540745D01*
X148539487Y-118513187D01*
X148469743Y-118384471D01*
X148402555Y-118257120D01*
X148345416Y-118145542D01*
X148305821Y-118064146D01*
X148304801Y-118061925D01*
X148267448Y-117986000D01*
X148232064Y-117939736D01*
X148188095Y-117921116D01*
X148124982Y-117928125D01*
X148032172Y-117958750D01*
X147944094Y-117993076D01*
X147837868Y-118032638D01*
X147755641Y-118058281D01*
X147702814Y-118069182D01*
X147684792Y-118064519D01*
X147706976Y-118043469D01*
X147738784Y-118024323D01*
X147814903Y-117978391D01*
X147881045Y-117933598D01*
X147923217Y-117899379D01*
X147926024Y-117876609D01*
X147892362Y-117846640D01*
X147762469Y-117768372D01*
X147597176Y-117703774D01*
X147411992Y-117657329D01*
X147222426Y-117633519D01*
X147147454Y-117631340D01*
X146903528Y-117652188D01*
X146674776Y-117711131D01*
X146467993Y-117804549D01*
X146289978Y-117928823D01*
X146147526Y-118080333D01*
X146070482Y-118204883D01*
X146025479Y-118304656D01*
X146001312Y-118391523D01*
X145992090Y-118491322D01*
X145991242Y-118552413D01*
X145997162Y-118667660D01*
X146012611Y-118781420D01*
X146032015Y-118861464D01*
X146052143Y-118928342D01*
X146059645Y-118985710D01*
X146054398Y-119051933D01*
X146036276Y-119145378D01*
X146029892Y-119174366D01*
X145968769Y-119374000D01*
X145874631Y-119586798D01*
X145756313Y-119795512D01*
X145622648Y-119982895D01*
X145604417Y-120005013D01*
X145537603Y-120085374D01*
X145486476Y-120148376D01*
X145457939Y-120185431D01*
X145454436Y-120191650D01*
X145121114Y-120191650D01*
X145191158Y-120132604D01*
X145327514Y-120005742D01*
X145455912Y-119875147D01*
X145567303Y-119749915D01*
X145652642Y-119639146D01*
X145694065Y-119571114D01*
X145750930Y-119453745D01*
X145783459Y-119367147D01*
X145792516Y-119296909D01*
X145778964Y-119228623D01*
X145743664Y-119147879D01*
X145721937Y-119105595D01*
X145649730Y-118950102D01*
X145784318Y-118950102D01*
X145793781Y-118971392D01*
X145801561Y-118967346D01*
X145804657Y-118936649D01*
X145801561Y-118932858D01*
X145786184Y-118936409D01*
X145784318Y-118950102D01*
X145649730Y-118950102D01*
X145633674Y-118915526D01*
X145579848Y-118741727D01*
X145563699Y-118621949D01*
X145711050Y-118621949D01*
X145735255Y-118771983D01*
X145770640Y-118911304D01*
X145787636Y-118626782D01*
X145798335Y-118498093D01*
X145813681Y-118377235D01*
X145831334Y-118280508D01*
X145843664Y-118236283D01*
X145943867Y-118022261D01*
X146075031Y-117845087D01*
X146241146Y-117701181D01*
X146446202Y-117586964D01*
X146651919Y-117511210D01*
X146758437Y-117486170D01*
X146884307Y-117471630D01*
X147043258Y-117466221D01*
X147103462Y-117466196D01*
X147231017Y-117468098D01*
X147331593Y-117474014D01*
X147421496Y-117486765D01*
X147517030Y-117509176D01*
X147634499Y-117544069D01*
X147730076Y-117574695D01*
X147885305Y-117622281D01*
X148035434Y-117663272D01*
X148171931Y-117695835D01*
X148286264Y-117718132D01*
X148369901Y-117728331D01*
X148414307Y-117724594D01*
X148417274Y-117722509D01*
X148408053Y-117711171D01*
X148381653Y-117708429D01*
X148340664Y-117700198D01*
X148260835Y-117677612D01*
X148152049Y-117643696D01*
X148024193Y-117601471D01*
X147959448Y-117579312D01*
X147732195Y-117503774D01*
X147540489Y-117447835D01*
X147373039Y-117409138D01*
X147218551Y-117385326D01*
X147065733Y-117374041D01*
X146967726Y-117372302D01*
X146692196Y-117393042D01*
X146445471Y-117454611D01*
X146229268Y-117556032D01*
X146045307Y-117696326D01*
X145895305Y-117874516D01*
X145805574Y-118033610D01*
X145743546Y-118214740D01*
X145711362Y-118417949D01*
X145711050Y-118621949D01*
X145563699Y-118621949D01*
X145556178Y-118566163D01*
X145556283Y-118407906D01*
X145586349Y-118186513D01*
X145656658Y-117984552D01*
X145770893Y-117794356D01*
X145932732Y-117608258D01*
X145946979Y-117594167D01*
X146105940Y-117454036D01*
X146265295Y-117349764D01*
X146442827Y-117271436D01*
X146622620Y-117217517D01*
X146875864Y-117175727D01*
X147153834Y-117170344D01*
X147446069Y-117199850D01*
X147742110Y-117262728D01*
X148031499Y-117357461D01*
X148247276Y-117453193D01*
X148325430Y-117491541D01*
X148383508Y-117518375D01*
X148407554Y-117527495D01*
X148427048Y-117507679D01*
X148465815Y-117455960D01*
X148510914Y-117390289D01*
X148591912Y-117284125D01*
X148700214Y-117163757D01*
X148821997Y-117042812D01*
X148943437Y-116934919D01*
X149050710Y-116853705D01*
X149063734Y-116845289D01*
X149123892Y-116801261D01*
X149157024Y-116764582D01*
X149159126Y-116750476D01*
X149125296Y-116718128D01*
X149056008Y-116666941D01*
X148960979Y-116603279D01*
X148849931Y-116533501D01*
X148732581Y-116463971D01*
X148655397Y-116420760D01*
X148291462Y-116246236D01*
X147923902Y-116115614D01*
X147556482Y-116028625D01*
X147192966Y-115984999D01*
X146837121Y-115984465D01*
X146492710Y-116026752D01*
X146163500Y-116111592D01*
X145853255Y-116238712D01*
X145565740Y-116407844D01*
X145304720Y-116618717D01*
X145257235Y-116664672D01*
X145038468Y-116918748D01*
X144859542Y-117205316D01*
X144720330Y-117524657D01*
X144620705Y-117877052D01*
X144566875Y-118204343D01*
X144551731Y-118373180D01*
X144548130Y-118533686D01*
X144328475Y-118533686D01*
X144325226Y-118465205D01*
X144346635Y-118072767D01*
G37*
X79470000Y-88670000D02*
X79470000Y-90000000D01*
X76870000Y-88670000D02*
X74270000Y-88670000D01*
X74270000Y-88670000D02*
X74270000Y-91330000D01*
X76870000Y-88670000D02*
X76870000Y-91330000D01*
X76870000Y-91330000D02*
X74270000Y-91330000D01*
X78140000Y-88670000D02*
X79470000Y-88670000D01*
X136060000Y-117811380D02*
X137940000Y-117811380D01*
X138040000Y-120292380D02*
X140167000Y-120292380D01*
X138040000Y-120492380D02*
X140201000Y-120492380D01*
X134166000Y-119371380D02*
X135960000Y-119371380D01*
X135110000Y-118291380D02*
X138890000Y-118291380D01*
X133850000Y-120211380D02*
X135960000Y-120211380D01*
X138040000Y-119571380D02*
X139934000Y-119571380D01*
X134735000Y-118611380D02*
X139265000Y-118611380D01*
X134104000Y-119491380D02*
X135960000Y-119491380D01*
X134393000Y-119011380D02*
X135960000Y-119011380D01*
X133770000Y-120932380D02*
X140230000Y-120932380D01*
X133811000Y-120412380D02*
X135960000Y-120412380D01*
X138040000Y-118931380D02*
X139548000Y-118931380D01*
X138040000Y-119011380D02*
X139607000Y-119011380D01*
X136367000Y-117731380D02*
X137633000Y-117731380D01*
X138040000Y-120412380D02*
X140189000Y-120412380D01*
X133805000Y-120452380D02*
X135960000Y-120452380D01*
X133833000Y-120292380D02*
X135960000Y-120292380D01*
X133859000Y-120171380D02*
X135960000Y-120171380D01*
X138040000Y-120091380D02*
X140121000Y-120091380D01*
X138040000Y-120211380D02*
X140150000Y-120211380D01*
X138040000Y-119771380D02*
X140018000Y-119771380D01*
X135491000Y-118051380D02*
X138509000Y-118051380D01*
X135166000Y-118251380D02*
X138834000Y-118251380D01*
X138040000Y-120452380D02*
X140195000Y-120452380D01*
X138040000Y-119971380D02*
X140086000Y-119971380D01*
X134818000Y-118531380D02*
X139182000Y-118531380D01*
X138040000Y-119731380D02*
X140002000Y-119731380D01*
X133773000Y-120772380D02*
X140227000Y-120772380D01*
X133770000Y-120892380D02*
X140230000Y-120892380D01*
X134336000Y-119091380D02*
X135960000Y-119091380D01*
X138040000Y-120572380D02*
X140211000Y-120572380D01*
X134030000Y-119651380D02*
X135960000Y-119651380D01*
X138040000Y-119931380D02*
X140074000Y-119931380D01*
X134144000Y-119411380D02*
X135960000Y-119411380D01*
X138040000Y-120171380D02*
X140141000Y-120171380D01*
X138040000Y-119051380D02*
X139636000Y-119051380D01*
X138040000Y-120131380D02*
X140131000Y-120131380D01*
X133914000Y-119971380D02*
X135960000Y-119971380D01*
X138040000Y-119611380D02*
X139952000Y-119611380D01*
X133778000Y-120692380D02*
X135960000Y-120692380D01*
X134452000Y-118931380D02*
X135960000Y-118931380D01*
X135568000Y-118011380D02*
X138432000Y-118011380D01*
X138040000Y-119291380D02*
X139790000Y-119291380D01*
X133770000Y-120852380D02*
X140230000Y-120852380D01*
X134956000Y-118411380D02*
X139044000Y-118411380D01*
X134048000Y-119611380D02*
X135960000Y-119611380D01*
X134210000Y-119291380D02*
X135960000Y-119291380D01*
X133967000Y-119811380D02*
X135960000Y-119811380D01*
X136598000Y-117691380D02*
X137402000Y-117691380D01*
X135056000Y-118331380D02*
X138944000Y-118331380D01*
X133794000Y-120532380D02*
X135960000Y-120532380D01*
X133939000Y-119891380D02*
X135960000Y-119891380D01*
X138040000Y-120332380D02*
X140175000Y-120332380D01*
X138040000Y-119411380D02*
X139856000Y-119411380D01*
X135419000Y-118091380D02*
X138581000Y-118091380D01*
X133785000Y-120612380D02*
X135960000Y-120612380D01*
X138040000Y-120051380D02*
X140110000Y-120051380D01*
X138040000Y-119651380D02*
X139970000Y-119651380D01*
X138040000Y-119811380D02*
X140033000Y-119811380D01*
X133869000Y-120131380D02*
X135960000Y-120131380D01*
X138040000Y-118811380D02*
X139450000Y-118811380D01*
X134422000Y-118971380D02*
X135960000Y-118971380D01*
X133841000Y-120252380D02*
X135960000Y-120252380D01*
X138040000Y-119211380D02*
X139742000Y-119211380D01*
X133982000Y-119771380D02*
X135960000Y-119771380D01*
X138040000Y-119331380D02*
X139812000Y-119331380D01*
X134584000Y-118771380D02*
X135960000Y-118771380D01*
X134258000Y-119211380D02*
X135960000Y-119211380D01*
X134364000Y-119051380D02*
X135960000Y-119051380D01*
X134550000Y-118811380D02*
X135960000Y-118811380D01*
X133818000Y-120372380D02*
X135960000Y-120372380D01*
X134284000Y-119171380D02*
X135960000Y-119171380D01*
X133953000Y-119851380D02*
X135960000Y-119851380D01*
X138040000Y-118971380D02*
X139578000Y-118971380D01*
X138040000Y-119691380D02*
X139986000Y-119691380D01*
X135286000Y-118171380D02*
X138714000Y-118171380D01*
X138040000Y-120692380D02*
X140222000Y-120692380D01*
X134188000Y-119331380D02*
X135960000Y-119331380D01*
X138040000Y-118691380D02*
X139343000Y-118691380D01*
X138040000Y-119451380D02*
X139876000Y-119451380D01*
X135350000Y-118131380D02*
X138650000Y-118131380D01*
X133890000Y-120051380D02*
X135960000Y-120051380D01*
X138040000Y-118731380D02*
X139380000Y-118731380D01*
X134846000Y-124117621D02*
X135476000Y-124117621D01*
X138040000Y-119171380D02*
X139716000Y-119171380D01*
X138040000Y-119371380D02*
X139834000Y-119371380D01*
X134484000Y-118891380D02*
X135960000Y-118891380D01*
X138040000Y-120652380D02*
X140218000Y-120652380D01*
X135738000Y-117931380D02*
X138262000Y-117931380D01*
X138040000Y-120252380D02*
X140159000Y-120252380D01*
X134620000Y-118731380D02*
X135960000Y-118731380D01*
X138040000Y-118651380D02*
X139305000Y-118651380D01*
X134695000Y-118651380D02*
X135960000Y-118651380D01*
X133799000Y-120492380D02*
X135960000Y-120492380D01*
X133782000Y-120652380D02*
X135960000Y-120652380D01*
X135161000Y-124432621D02*
X135161000Y-123802621D01*
X133772000Y-120812380D02*
X140228000Y-120812380D01*
X135005000Y-118371380D02*
X138995000Y-118371380D01*
X138040000Y-120011380D02*
X140098000Y-120011380D01*
X134863000Y-118491380D02*
X139137000Y-118491380D01*
X133998000Y-119731380D02*
X135960000Y-119731380D01*
X135650000Y-117971380D02*
X138350000Y-117971380D01*
X134084000Y-119531380D02*
X135960000Y-119531380D01*
X134310000Y-119131380D02*
X135960000Y-119131380D01*
X133776000Y-120732380D02*
X140224000Y-120732380D01*
X138040000Y-118771380D02*
X139416000Y-118771380D01*
X138040000Y-118851380D02*
X139484000Y-118851380D01*
X138040000Y-119851380D02*
X140047000Y-119851380D01*
X135941000Y-117851380D02*
X138059000Y-117851380D01*
X136198000Y-117771380D02*
X137802000Y-117771380D01*
X133926000Y-119931380D02*
X135960000Y-119931380D01*
X134014000Y-119691380D02*
X135960000Y-119691380D01*
X134908000Y-118451380D02*
X139092000Y-118451380D01*
X133789000Y-120572380D02*
X135960000Y-120572380D01*
X134066000Y-119571380D02*
X135960000Y-119571380D01*
X138040000Y-118891380D02*
X139516000Y-118891380D01*
X138040000Y-119251380D02*
X139766000Y-119251380D01*
X138040000Y-119091380D02*
X139664000Y-119091380D01*
X138040000Y-119491380D02*
X139896000Y-119491380D01*
X133825000Y-120332380D02*
X135960000Y-120332380D01*
X138040000Y-119531380D02*
X139916000Y-119531380D01*
X138040000Y-120372380D02*
X140182000Y-120372380D01*
X134776000Y-118571380D02*
X139224000Y-118571380D01*
X133902000Y-120011380D02*
X135960000Y-120011380D01*
X134516000Y-118851380D02*
X135960000Y-118851380D01*
X138040000Y-119131380D02*
X139690000Y-119131380D01*
X134124000Y-119451380D02*
X135960000Y-119451380D01*
X135835000Y-117891380D02*
X138165000Y-117891380D01*
X138040000Y-120532380D02*
X140206000Y-120532380D01*
X138040000Y-119891380D02*
X140061000Y-119891380D01*
X138040000Y-120612380D02*
X140215000Y-120612380D01*
X135224000Y-118211380D02*
X138776000Y-118211380D01*
X134234000Y-119251380D02*
X135960000Y-119251380D01*
X133879000Y-120091380D02*
X135960000Y-120091380D01*
X134657000Y-118691380D02*
X135960000Y-118691380D01*
X140270000Y-120932380D02*
G75*
G03*
X140270000Y-120932380I-3270000J0D01*
G01*
G36*
X133372703Y-130650019D02*
G01*
X133039328Y-130650019D01*
X133110766Y-130514287D01*
X133195300Y-130377366D01*
X133284597Y-130247587D01*
X133372703Y-130130906D01*
X133372703Y-130650019D01*
G37*
G36*
X129737130Y-130016011D02*
G01*
X129819878Y-130057087D01*
X129873456Y-130127334D01*
X129891316Y-130228537D01*
X129824641Y-130394034D01*
X129737130Y-130437790D01*
X129607947Y-130452375D01*
X129543653Y-130452375D01*
X129543653Y-130009462D01*
X129591278Y-130003509D01*
X129631759Y-130002319D01*
X129737130Y-130016011D01*
G37*
G36*
X135670609Y-131016731D02*
G01*
X135565239Y-130983691D01*
X135487253Y-130884572D01*
X135451534Y-130782840D01*
X135430103Y-130653855D01*
X135422959Y-130497619D01*
X135424057Y-130473806D01*
X135539641Y-130473806D01*
X135575359Y-130584534D01*
X135672991Y-130630969D01*
X135767050Y-130584534D01*
X135803959Y-130473806D01*
X135767050Y-130361887D01*
X135672991Y-130314262D01*
X135575359Y-130361887D01*
X135539641Y-130473806D01*
X135424057Y-130473806D01*
X135430103Y-130342705D01*
X135451534Y-130214515D01*
X135487253Y-130113047D01*
X135565239Y-130013927D01*
X135670609Y-129980887D01*
X135777468Y-130013927D01*
X135855156Y-130113047D01*
X135890214Y-130214515D01*
X135911248Y-130342705D01*
X135918259Y-130497619D01*
X135911248Y-130653855D01*
X135890214Y-130782840D01*
X135855156Y-130884572D01*
X135777468Y-130983691D01*
X135672991Y-131015995D01*
X135670609Y-131016731D01*
G37*
G36*
X127544991Y-129234762D02*
G01*
X137855009Y-129234762D01*
X137855009Y-131765237D01*
X127544991Y-131765237D01*
X127544991Y-131238187D01*
X128041084Y-131238187D01*
X128305403Y-131238187D01*
X128305403Y-130259494D01*
X128393906Y-130422874D01*
X128478441Y-130585990D01*
X128559006Y-130748841D01*
X128635603Y-130911692D01*
X128708231Y-131074807D01*
X128776891Y-131238187D01*
X129012634Y-131238187D01*
X129250759Y-131238187D01*
X129543653Y-131238187D01*
X129543653Y-130695262D01*
X129696053Y-130695262D01*
X129776718Y-130830101D01*
X129852025Y-130963153D01*
X129920188Y-131097991D01*
X129979422Y-131238187D01*
X130286603Y-131238187D01*
X130462816Y-131238187D01*
X130755709Y-131238187D01*
X130755709Y-130607156D01*
X131289109Y-130607156D01*
X131289109Y-130364269D01*
X130755709Y-130364269D01*
X130755709Y-130007081D01*
X131365309Y-130007081D01*
X131365309Y-129926119D01*
X131605816Y-129926119D01*
X131751072Y-130130906D01*
X131901091Y-130018987D01*
X132046347Y-129985650D01*
X132184459Y-130034466D01*
X132239228Y-130173769D01*
X132195175Y-130299975D01*
X132083256Y-130428562D01*
X132013009Y-130496726D01*
X131938000Y-130567866D01*
X131862991Y-130643470D01*
X131792744Y-130725028D01*
X131730831Y-130813432D01*
X131680825Y-130909575D01*
X131647785Y-131014350D01*
X131636772Y-131128650D01*
X131635581Y-131178656D01*
X131641534Y-131238187D01*
X132603559Y-131238187D01*
X132603559Y-130995300D01*
X131970147Y-130995300D01*
X131995150Y-130916719D01*
X132013965Y-130890525D01*
X132758341Y-130890525D01*
X133372703Y-130890525D01*
X133372703Y-131238187D01*
X133665597Y-131238187D01*
X134053741Y-131238187D01*
X134980047Y-131238187D01*
X134980047Y-130995300D01*
X134349016Y-130995300D01*
X134349016Y-130497619D01*
X135158641Y-130497619D01*
X135166826Y-130680380D01*
X135191383Y-130838138D01*
X135232311Y-130970892D01*
X135289609Y-131078644D01*
X135390151Y-131184477D01*
X135517151Y-131247977D01*
X135670609Y-131269144D01*
X135824068Y-131247977D01*
X135951068Y-131184477D01*
X136051609Y-131078644D01*
X136108908Y-130970892D01*
X136149836Y-130838138D01*
X136174393Y-130680380D01*
X136182578Y-130497619D01*
X136174393Y-130315974D01*
X136149836Y-130159184D01*
X136122597Y-130071375D01*
X136380222Y-130071375D01*
X136475472Y-130314262D01*
X136620728Y-130255922D01*
X136773128Y-130171387D01*
X136773128Y-130995300D01*
X136463566Y-130995300D01*
X136463566Y-131238187D01*
X137358916Y-131238187D01*
X137358916Y-130995300D01*
X137066022Y-130995300D01*
X137066022Y-129764194D01*
X136865997Y-129764194D01*
X136763603Y-129857062D01*
X136637397Y-129942787D01*
X136504047Y-130016606D01*
X136380222Y-130071375D01*
X136122597Y-130071375D01*
X136108908Y-130027247D01*
X136051609Y-129920166D01*
X135951068Y-129814994D01*
X135824068Y-129751891D01*
X135670609Y-129730856D01*
X135519532Y-129752023D01*
X135393326Y-129815523D01*
X135291991Y-129921356D01*
X135233650Y-130028810D01*
X135191978Y-130160672D01*
X135166975Y-130316941D01*
X135158641Y-130497619D01*
X134349016Y-130497619D01*
X134349016Y-129764194D01*
X134053741Y-129764194D01*
X134053741Y-131238187D01*
X133665597Y-131238187D01*
X133665597Y-130890525D01*
X133825141Y-130890525D01*
X133825141Y-130650019D01*
X133665597Y-130650019D01*
X133665597Y-129764194D01*
X133403659Y-129764194D01*
X133308409Y-129865695D01*
X133213159Y-129979697D01*
X133120291Y-130100843D01*
X133032184Y-130223775D01*
X132950031Y-130346112D01*
X132875022Y-130465472D01*
X132810133Y-130577093D01*
X132758341Y-130676212D01*
X132758341Y-130890525D01*
X132013965Y-130890525D01*
X132055872Y-130832184D01*
X132132072Y-130751222D01*
X132203509Y-130683356D01*
X132324953Y-130564294D01*
X132432109Y-130435706D01*
X132508309Y-130298784D01*
X132536884Y-130152337D01*
X132498784Y-129967791D01*
X132396391Y-129835631D01*
X132248753Y-129757050D01*
X132074922Y-129730856D01*
X131950799Y-129742762D01*
X131826081Y-129778481D01*
X131708507Y-129839203D01*
X131605816Y-129926119D01*
X131365309Y-129926119D01*
X131365309Y-129764194D01*
X130462816Y-129764194D01*
X130462816Y-131238187D01*
X130286603Y-131238187D01*
X130218737Y-131082216D01*
X130136584Y-130917909D01*
X130048478Y-130760747D01*
X129962753Y-130623825D01*
X130066933Y-130556555D01*
X130136584Y-130464281D01*
X130175875Y-130353553D01*
X130188972Y-130230919D01*
X130179149Y-130115130D01*
X130149681Y-130015416D01*
X130036572Y-129864206D01*
X129955609Y-129812414D01*
X129860359Y-129776100D01*
X129752012Y-129754669D01*
X129631759Y-129747525D01*
X129548416Y-129749906D01*
X129448403Y-129755859D01*
X129344819Y-129767766D01*
X129250759Y-129785625D01*
X129250759Y-131238187D01*
X129012634Y-131238187D01*
X129012634Y-129764194D01*
X128748316Y-129764194D01*
X128748316Y-130671450D01*
X128706346Y-130578581D01*
X128656638Y-130471425D01*
X128600678Y-130355339D01*
X128539956Y-130235681D01*
X128475960Y-130113940D01*
X128410178Y-129991603D01*
X128343503Y-129873434D01*
X128276828Y-129764194D01*
X128041084Y-129764194D01*
X128041084Y-131238187D01*
X127544991Y-131238187D01*
X127544991Y-129234762D01*
G37*
X139990000Y-76920000D02*
X139990000Y-76764000D01*
X139990000Y-79236000D02*
X139990000Y-79080000D01*
X139990000Y-76764484D02*
G75*
G03*
X136757665Y-76921392I-1560000J-1235516D01*
G01*
X137388870Y-79079837D02*
G75*
G03*
X139470961Y-79080000I1041130J1079837D01*
G01*
X136757665Y-79078608D02*
G75*
G03*
X139990000Y-79235516I1672335J1078608D01*
G01*
X139470961Y-76920000D02*
G75*
G03*
X137388870Y-76920163I-1040961J-1080000D01*
G01*
X113270000Y-87930000D02*
X106730000Y-87930000D01*
X105960000Y-89300000D02*
X106730000Y-89300000D01*
X113270000Y-90670000D02*
X113270000Y-87930000D01*
X114040000Y-89300000D02*
X113270000Y-89300000D01*
X106730000Y-87930000D02*
X106730000Y-90670000D01*
X106730000Y-90670000D02*
X113270000Y-90670000D01*
X74270000Y-84670000D02*
X74270000Y-87330000D01*
X76870000Y-84670000D02*
X74270000Y-84670000D01*
X78140000Y-84670000D02*
X79470000Y-84670000D01*
X79470000Y-84670000D02*
X79470000Y-86000000D01*
X76870000Y-87330000D02*
X74270000Y-87330000D01*
X76870000Y-84670000D02*
X76870000Y-87330000D01*
G36*
X96714250Y-109507950D02*
G01*
X96674562Y-109593675D01*
X96657100Y-109698450D01*
X96682500Y-109815925D01*
X96753144Y-109894506D01*
X96861094Y-109938956D01*
X96927173Y-109949077D01*
X97000000Y-109952450D01*
X97107156Y-109946276D01*
X97193675Y-109927756D01*
X97259556Y-109896888D01*
X97322064Y-109828228D01*
X97342900Y-109733375D01*
X97341312Y-109695275D01*
X97336550Y-109657175D01*
X96977775Y-109657175D01*
X96977775Y-109461913D01*
X97468312Y-109461913D01*
X97496887Y-109570656D01*
X97508794Y-109652214D01*
X97512762Y-109749250D01*
X97504627Y-109836761D01*
X97480219Y-109915144D01*
X97439737Y-109983605D01*
X97383381Y-110041350D01*
X97311150Y-110087784D01*
X97223044Y-110122313D01*
X97119261Y-110143744D01*
X97000000Y-110150888D01*
X96881930Y-110142553D01*
X96778544Y-110117550D01*
X96690239Y-110078259D01*
X96617412Y-110027063D01*
X96560461Y-109964753D01*
X96519781Y-109892125D01*
X96495373Y-109811559D01*
X96487237Y-109725438D01*
X96495969Y-109623044D01*
X96515812Y-109544463D01*
X96539625Y-109489694D01*
X96558675Y-109457150D01*
X96714250Y-109507950D01*
G37*
G36*
X96671387Y-110490613D02*
G01*
X97330200Y-110490613D01*
X97330200Y-110277888D01*
X97492125Y-110277888D01*
X97492125Y-110901775D01*
X97330200Y-110901775D01*
X97330200Y-110687463D01*
X96671387Y-110687463D01*
X96671387Y-110901775D01*
X96509462Y-110901775D01*
X96509462Y-110277888D01*
X96671387Y-110277888D01*
X96671387Y-110490613D01*
G37*
G36*
X97492125Y-108388763D02*
G01*
X97492125Y-108591963D01*
X97377984Y-108563959D01*
X97267970Y-108535829D01*
X97162084Y-108507571D01*
X97060325Y-108479187D01*
X96962694Y-108450675D01*
X96844772Y-108415254D01*
X96729927Y-108380428D01*
X96618157Y-108346198D01*
X96509462Y-108312563D01*
X96509462Y-108210963D01*
X96699962Y-108210963D01*
X96805531Y-108240331D01*
X96903956Y-108265731D01*
X97001587Y-108287956D01*
X97103187Y-108307800D01*
X97103187Y-108115713D01*
X97001587Y-108134763D01*
X96903956Y-108156194D01*
X96805531Y-108181594D01*
X96699962Y-108210963D01*
X96509462Y-108210963D01*
X96509462Y-108099838D01*
X96619050Y-108064962D01*
X96731911Y-108030186D01*
X96848046Y-107995509D01*
X96967456Y-107960931D01*
X97065913Y-107933468D01*
X97167608Y-107906321D01*
X97272542Y-107879493D01*
X97380714Y-107852981D01*
X97492125Y-107826788D01*
X97492125Y-108036338D01*
X97265113Y-108082375D01*
X97265113Y-108344313D01*
X97492125Y-108388763D01*
G37*
G36*
X97492125Y-108836438D02*
G01*
X97383205Y-108882210D01*
X97274461Y-108930629D01*
X97165894Y-108981694D01*
X97057326Y-109035404D01*
X96948583Y-109091760D01*
X96839662Y-109150763D01*
X97492125Y-109150763D01*
X97492125Y-109326975D01*
X96509462Y-109326975D01*
X96509462Y-109169813D01*
X96582289Y-109125363D01*
X96661069Y-109080913D01*
X96742627Y-109037058D01*
X96823787Y-108994394D01*
X96903559Y-108953913D01*
X96980950Y-108916606D01*
X97052387Y-108883467D01*
X97114300Y-108855488D01*
X96509462Y-108855488D01*
X96509462Y-108679275D01*
X97492125Y-108679275D01*
X97492125Y-108836438D01*
G37*
G36*
X97346273Y-111073423D02*
G01*
X97437356Y-111140694D01*
X97479249Y-111210808D01*
X97504384Y-111301560D01*
X97512762Y-111412950D01*
X97506214Y-111522884D01*
X97486569Y-111608213D01*
X97438150Y-111717750D01*
X97279400Y-111660600D01*
X97327025Y-111558206D01*
X97343694Y-111492127D01*
X97349250Y-111412950D01*
X97338931Y-111331194D01*
X97310356Y-111279600D01*
X97269081Y-111253406D01*
X97222250Y-111246263D01*
X97168275Y-111263725D01*
X97126206Y-111308175D01*
X97092869Y-111368500D01*
X97065087Y-111435175D01*
X97028575Y-111527250D01*
X96976187Y-111613769D01*
X96897606Y-111678063D01*
X96780925Y-111703463D01*
X96657894Y-111681039D01*
X96565025Y-111613769D01*
X96521810Y-111546476D01*
X96495881Y-111464191D01*
X96487237Y-111366913D01*
X96492397Y-111282180D01*
X96507875Y-111208956D01*
X96553912Y-111095450D01*
X96704725Y-111152600D01*
X96666625Y-111240706D01*
X96650750Y-111352625D01*
X96663274Y-111439056D01*
X96700844Y-111490914D01*
X96763462Y-111508200D01*
X96813469Y-111492325D01*
X96851569Y-111451844D01*
X96880937Y-111396281D01*
X96904750Y-111335163D01*
X96943644Y-111239119D01*
X97000794Y-111147044D01*
X97089694Y-111077988D01*
X97149820Y-111057747D01*
X97223837Y-111051000D01*
X97346273Y-111073423D01*
G37*
G36*
X97492125Y-107699788D02*
G01*
X96509462Y-107699788D01*
X96509462Y-107502937D01*
X97330200Y-107502937D01*
X97330200Y-107082250D01*
X97492125Y-107082250D01*
X97492125Y-107699788D01*
G37*
X84395000Y-117675000D02*
X85725000Y-117675000D01*
X78045000Y-120305000D02*
X78045000Y-117645000D01*
X85725000Y-117675000D02*
X85725000Y-119005000D01*
X83185000Y-120305000D02*
X83185000Y-117645000D01*
X78045000Y-120305000D02*
X83185000Y-120305000D01*
X78045000Y-117645000D02*
X83185000Y-117645000D01*
X98340000Y-117650000D02*
X98340000Y-118980000D01*
X97010000Y-117650000D02*
X98340000Y-117650000D01*
X90660000Y-120280000D02*
X95800000Y-120280000D01*
X90660000Y-120280000D02*
X90660000Y-117620000D01*
X90660000Y-117620000D02*
X95800000Y-117620000D01*
X95800000Y-120280000D02*
X95800000Y-117620000D01*
G36*
X135261965Y-124021419D02*
G01*
X135561050Y-124021419D01*
X135561050Y-124213823D01*
X135261965Y-124213823D01*
X135261965Y-124545294D01*
X135060035Y-124545294D01*
X135060035Y-124213823D01*
X134760950Y-124213823D01*
X134760950Y-124021419D01*
X135060035Y-124021419D01*
X135060035Y-123689948D01*
X135261965Y-123689948D01*
X135261965Y-124021419D01*
G37*
G36*
X87209535Y-81515713D02*
G01*
X87291391Y-81555897D01*
X87344076Y-81628227D01*
X87361637Y-81738062D01*
X87343778Y-81853851D01*
X87290200Y-81929753D01*
X87201498Y-81971723D01*
X87078269Y-81985712D01*
X86959206Y-81985712D01*
X86959206Y-81509462D01*
X87031834Y-81503509D01*
X87104462Y-81502319D01*
X87209535Y-81515713D01*
G37*
G36*
X84905775Y-80734762D02*
G01*
X94094225Y-80734762D01*
X94094225Y-83265237D01*
X84905775Y-83265237D01*
X84905775Y-82738187D01*
X85401869Y-82738187D01*
X85670950Y-82738187D01*
X85659044Y-81592806D01*
X85832875Y-82216694D01*
X86047187Y-82216694D01*
X86228163Y-81592806D01*
X86213875Y-82738187D01*
X86482956Y-82738187D01*
X86666312Y-82738187D01*
X86959206Y-82738187D01*
X86959206Y-82240506D01*
X87063981Y-82240506D01*
X87240061Y-82227409D01*
X87324838Y-82204787D01*
X87821219Y-82204787D01*
X87827172Y-82327422D01*
X87845031Y-82438150D01*
X87877178Y-82535186D01*
X87925994Y-82616744D01*
X88079584Y-82729853D01*
X88187634Y-82759321D01*
X88318900Y-82769144D01*
X88452250Y-82759321D01*
X88561787Y-82729853D01*
X88649894Y-82681930D01*
X88718950Y-82616744D01*
X88769552Y-82535186D01*
X88802294Y-82438150D01*
X88820153Y-82327422D01*
X88826106Y-82204787D01*
X88826106Y-82135731D01*
X89028512Y-82135731D01*
X89042932Y-82334036D01*
X89086192Y-82493977D01*
X89158291Y-82615553D01*
X89257906Y-82700881D01*
X89383716Y-82752078D01*
X89535719Y-82769144D01*
X89648828Y-82757535D01*
X89745269Y-82722709D01*
X89890525Y-82602456D01*
X89975059Y-82440531D01*
X90002444Y-82266700D01*
X89977441Y-82085725D01*
X89929193Y-81997619D01*
X90192944Y-81997619D01*
X90201129Y-82180380D01*
X90225686Y-82338138D01*
X90266614Y-82470892D01*
X90323912Y-82578644D01*
X90424454Y-82684477D01*
X90551454Y-82747977D01*
X90704912Y-82769144D01*
X90858371Y-82747977D01*
X90968437Y-82692944D01*
X91383569Y-82692944D01*
X91451434Y-82719137D01*
X91550256Y-82744141D01*
X91664556Y-82762000D01*
X91781237Y-82769144D01*
X91917564Y-82760214D01*
X92036031Y-82733425D01*
X92136639Y-82690562D01*
X92219387Y-82633412D01*
X92328925Y-82482203D01*
X92364644Y-82292894D01*
X92348504Y-82154781D01*
X92300085Y-82038894D01*
X92264523Y-81997619D01*
X92574194Y-81997619D01*
X92582379Y-82180380D01*
X92606936Y-82338138D01*
X92647864Y-82470892D01*
X92705162Y-82578644D01*
X92805704Y-82684477D01*
X92932704Y-82747977D01*
X93086162Y-82769144D01*
X93239621Y-82747977D01*
X93366621Y-82684477D01*
X93467163Y-82578644D01*
X93524461Y-82470892D01*
X93565389Y-82338138D01*
X93589946Y-82180380D01*
X93598131Y-81997619D01*
X93589946Y-81815974D01*
X93565389Y-81659184D01*
X93524461Y-81527247D01*
X93467163Y-81420166D01*
X93366621Y-81314994D01*
X93239621Y-81251891D01*
X93086162Y-81230856D01*
X92935085Y-81252023D01*
X92808879Y-81315523D01*
X92707544Y-81421356D01*
X92649203Y-81528810D01*
X92607531Y-81660672D01*
X92582528Y-81816941D01*
X92574194Y-81997619D01*
X92264523Y-81997619D01*
X92219387Y-81945231D01*
X92105881Y-81874323D01*
X91959037Y-81826698D01*
X91778856Y-81802356D01*
X91790763Y-81666625D01*
X91802669Y-81507081D01*
X92309875Y-81507081D01*
X92309875Y-81264194D01*
X91557400Y-81264194D01*
X91548470Y-81446062D01*
X91535969Y-81634478D01*
X91519300Y-81828252D01*
X91497869Y-82026194D01*
X91661580Y-82031254D01*
X91790763Y-82046434D01*
X91963403Y-82103584D01*
X92044366Y-82191691D01*
X92064606Y-82304800D01*
X92052700Y-82383381D01*
X92008647Y-82451247D01*
X91920541Y-82500062D01*
X91778856Y-82519112D01*
X91667533Y-82513755D01*
X91576450Y-82497681D01*
X91443100Y-82450056D01*
X91383569Y-82692944D01*
X90968437Y-82692944D01*
X90985371Y-82684477D01*
X91085913Y-82578644D01*
X91143211Y-82470892D01*
X91184139Y-82338138D01*
X91208696Y-82180380D01*
X91216881Y-81997619D01*
X91208696Y-81815974D01*
X91184139Y-81659184D01*
X91143211Y-81527247D01*
X91085913Y-81420166D01*
X90985371Y-81314994D01*
X90858371Y-81251891D01*
X90704912Y-81230856D01*
X90553835Y-81252023D01*
X90427629Y-81315523D01*
X90326294Y-81421356D01*
X90267953Y-81528810D01*
X90226281Y-81660672D01*
X90201278Y-81816941D01*
X90192944Y-81997619D01*
X89929193Y-81997619D01*
X89895288Y-81935706D01*
X89748841Y-81833312D01*
X89649721Y-81804737D01*
X89530956Y-81795212D01*
X89454756Y-81805928D01*
X89366650Y-81835694D01*
X89448803Y-81680912D01*
X89580962Y-81579709D01*
X89747650Y-81523750D01*
X89933388Y-81504700D01*
X89916719Y-81254669D01*
X89725623Y-81268956D01*
X89552387Y-81311819D01*
X89399987Y-81382661D01*
X89271400Y-81480887D01*
X89168113Y-81605903D01*
X89091616Y-81757112D01*
X89044288Y-81933920D01*
X89028512Y-82135731D01*
X88826106Y-82135731D01*
X88826106Y-81264194D01*
X88533213Y-81264194D01*
X88533213Y-82183356D01*
X88523687Y-82339328D01*
X88490350Y-82441722D01*
X88426056Y-82497681D01*
X88323662Y-82514350D01*
X88221269Y-82497681D01*
X88158166Y-82442912D01*
X88126019Y-82341709D01*
X88116494Y-82185737D01*
X88116494Y-81264194D01*
X87821219Y-81264194D01*
X87821219Y-82204787D01*
X87324838Y-82204787D01*
X87387302Y-82188119D01*
X87505703Y-82122634D01*
X87592354Y-82027781D01*
X87644345Y-81900384D01*
X87661675Y-81740444D01*
X87644477Y-81582091D01*
X87592883Y-81456281D01*
X87506894Y-81363016D01*
X87389683Y-81298854D01*
X87244427Y-81260357D01*
X87071125Y-81247525D01*
X86978256Y-81249906D01*
X86871100Y-81255859D01*
X86762753Y-81266575D01*
X86666312Y-81283244D01*
X86666312Y-82738187D01*
X86482956Y-82738187D01*
X86477598Y-82549771D01*
X86471050Y-82365522D01*
X86463013Y-82183952D01*
X86453191Y-82003572D01*
X86441284Y-81822895D01*
X86426997Y-81640431D01*
X86411221Y-81454694D01*
X86394850Y-81264194D01*
X86151962Y-81264194D01*
X86109100Y-81390400D01*
X86056712Y-81553516D01*
X85997181Y-81734491D01*
X85937650Y-81916656D01*
X85882881Y-81745206D01*
X85825731Y-81561850D01*
X85772153Y-81392781D01*
X85730481Y-81264194D01*
X85487594Y-81264194D01*
X85471818Y-81425523D01*
X85457828Y-81599950D01*
X85445624Y-81783902D01*
X85435206Y-81973806D01*
X85425979Y-82167283D01*
X85417347Y-82361950D01*
X85409310Y-82553641D01*
X85401869Y-82738187D01*
X84905775Y-82738187D01*
X84905775Y-80734762D01*
G37*
G36*
X89598227Y-82053280D02*
G01*
X89666687Y-82098822D01*
X89716694Y-82271462D01*
X89705978Y-82354806D01*
X89672641Y-82433387D01*
X89614300Y-82492919D01*
X89528575Y-82516731D01*
X89424991Y-82486966D01*
X89359506Y-82407194D01*
X89326169Y-82294084D01*
X89316644Y-82161925D01*
X89317834Y-82116681D01*
X89321406Y-82073819D01*
X89399987Y-82047625D01*
X89492856Y-82038100D01*
X89598227Y-82053280D01*
G37*
G36*
X90704912Y-82516731D02*
G01*
X90599542Y-82483691D01*
X90521556Y-82384572D01*
X90485837Y-82282840D01*
X90464406Y-82153855D01*
X90457262Y-81997619D01*
X90458360Y-81973806D01*
X90573944Y-81973806D01*
X90609662Y-82084534D01*
X90707294Y-82130969D01*
X90801353Y-82084534D01*
X90838263Y-81973806D01*
X90801353Y-81861887D01*
X90707294Y-81814262D01*
X90609662Y-81861887D01*
X90573944Y-81973806D01*
X90458360Y-81973806D01*
X90464406Y-81842705D01*
X90485837Y-81714515D01*
X90521556Y-81613047D01*
X90599542Y-81513927D01*
X90704912Y-81480887D01*
X90811771Y-81513927D01*
X90889459Y-81613047D01*
X90924517Y-81714515D01*
X90945551Y-81842705D01*
X90952563Y-81997619D01*
X90945551Y-82153855D01*
X90924517Y-82282840D01*
X90889459Y-82384572D01*
X90811771Y-82483691D01*
X90707294Y-82515995D01*
X90704912Y-82516731D01*
G37*
G36*
X93086162Y-82516731D02*
G01*
X92980792Y-82483691D01*
X92902806Y-82384572D01*
X92867088Y-82282840D01*
X92845656Y-82153855D01*
X92838513Y-81997619D01*
X92839611Y-81973806D01*
X92955194Y-81973806D01*
X92990913Y-82084534D01*
X93088544Y-82130969D01*
X93182603Y-82084534D01*
X93219512Y-81973806D01*
X93182603Y-81861887D01*
X93088544Y-81814262D01*
X92990913Y-81861887D01*
X92955194Y-81973806D01*
X92839611Y-81973806D01*
X92845656Y-81842705D01*
X92867088Y-81714515D01*
X92902806Y-81613047D01*
X92980792Y-81513927D01*
X93086162Y-81480887D01*
X93193021Y-81513927D01*
X93270709Y-81613047D01*
X93305767Y-81714515D01*
X93326801Y-81842705D01*
X93333812Y-81997619D01*
X93326801Y-82153855D01*
X93305767Y-82282840D01*
X93270709Y-82384572D01*
X93193021Y-82483691D01*
X93088544Y-82515995D01*
X93086162Y-82516731D01*
G37*
G36*
X144196635Y-87272767D02*
G01*
X144259319Y-86910175D01*
X144363128Y-86577813D01*
X144507913Y-86276063D01*
X144693523Y-86005309D01*
X144919807Y-85765935D01*
X145186617Y-85558323D01*
X145492057Y-85383707D01*
X145776530Y-85256843D01*
X146043154Y-85165038D01*
X146308239Y-85104500D01*
X146588094Y-85071438D01*
X146875865Y-85062026D01*
X147142987Y-85068927D01*
X147380929Y-85092167D01*
X147610565Y-85135023D01*
X147852770Y-85200766D01*
X147943335Y-85229451D01*
X148138182Y-85300910D01*
X148350626Y-85392340D01*
X148569114Y-85497664D01*
X148782093Y-85610802D01*
X148978011Y-85725673D01*
X149145314Y-85836201D01*
X149250884Y-85917489D01*
X149336799Y-85990326D01*
X149166784Y-86101867D01*
X148996539Y-86228793D01*
X148837454Y-86375877D01*
X148700855Y-86531203D01*
X148598069Y-86682859D01*
X148577608Y-86721582D01*
X148534792Y-86816134D01*
X148508179Y-86900161D01*
X148493067Y-86994056D01*
X148484756Y-87118210D01*
X148484426Y-87125780D01*
X148483193Y-87270305D01*
X148494652Y-87403525D01*
X148521654Y-87538590D01*
X148567055Y-87688648D01*
X148633708Y-87866848D01*
X148658715Y-87928837D01*
X148698955Y-88032110D01*
X148728105Y-88116311D01*
X148742766Y-88170989D01*
X148742400Y-88186238D01*
X148709774Y-88196375D01*
X148641785Y-88212325D01*
X148563820Y-88228490D01*
X148402385Y-88260206D01*
X148417097Y-88366814D01*
X148492454Y-88793064D01*
X148595222Y-89179843D01*
X148724819Y-89525302D01*
X148868980Y-89807983D01*
X148944632Y-89936290D01*
X148873807Y-89963218D01*
X148726049Y-90005980D01*
X148544879Y-90038046D01*
X148347794Y-90057910D01*
X148152291Y-90064067D01*
X147975865Y-90055011D01*
X147910489Y-90046110D01*
X147760303Y-90013441D01*
X147573379Y-89961189D01*
X147359507Y-89892383D01*
X147128477Y-89810051D01*
X147043992Y-89778069D01*
X146896542Y-89723491D01*
X146751202Y-89673418D01*
X146621283Y-89632182D01*
X146520095Y-89604116D01*
X146487882Y-89597014D01*
X146336590Y-89577650D01*
X146150979Y-89568254D01*
X145947450Y-89568629D01*
X145742407Y-89578581D01*
X145552253Y-89597913D01*
X145479124Y-89609065D01*
X145301420Y-89644459D01*
X145092840Y-89693722D01*
X144870790Y-89752153D01*
X144652676Y-89815050D01*
X144455904Y-89877711D01*
X144361571Y-89910928D01*
X144266894Y-89945367D01*
X144192364Y-89971595D01*
X144149982Y-89985423D01*
X144144910Y-89986558D01*
X144149787Y-89965565D01*
X144173520Y-89910373D01*
X144211063Y-89832658D01*
X144213447Y-89827925D01*
X144290887Y-89637148D01*
X144340443Y-89434328D01*
X144358233Y-89238342D01*
X144353698Y-89145927D01*
X144343524Y-89068155D01*
X144325990Y-88951710D01*
X144303045Y-88808806D01*
X144276633Y-88651658D01*
X144256836Y-88538086D01*
X144195243Y-88087105D01*
X144178475Y-87733686D01*
X144398130Y-87733686D01*
X144407024Y-87898389D01*
X144429363Y-88079816D01*
X144466100Y-88290496D01*
X144495129Y-88434623D01*
X144550180Y-88762658D01*
X144570790Y-89059460D01*
X144556879Y-89332471D01*
X144508364Y-89589130D01*
X144481444Y-89682016D01*
X144474806Y-89715755D01*
X144495092Y-89715601D01*
X144526116Y-89700259D01*
X144574870Y-89671531D01*
X144652521Y-89622620D01*
X144745143Y-89562361D01*
X144780753Y-89538735D01*
X144905888Y-89446634D01*
X144971114Y-89391650D01*
X145304436Y-89391650D01*
X145341693Y-89383938D01*
X145412036Y-89364127D01*
X145499724Y-89337204D01*
X145589015Y-89308155D01*
X145664167Y-89281967D01*
X145709438Y-89263628D01*
X145710804Y-89262916D01*
X145755775Y-89250091D01*
X145842023Y-89234962D01*
X145959230Y-89219000D01*
X146097078Y-89203678D01*
X146182076Y-89195694D01*
X146384437Y-89175286D01*
X146541805Y-89152386D01*
X146660917Y-89124809D01*
X146748511Y-89090369D01*
X146811324Y-89046882D01*
X146856093Y-88992162D01*
X146866812Y-88973601D01*
X146900685Y-88868740D01*
X146911763Y-88734502D01*
X146900418Y-88587763D01*
X146867022Y-88445402D01*
X146854427Y-88410300D01*
X146826991Y-88332826D01*
X146812285Y-88276523D01*
X146812358Y-88256719D01*
X146835841Y-88266540D01*
X146884314Y-88304900D01*
X146940176Y-88356679D01*
X147051701Y-88499874D01*
X147117150Y-88662875D01*
X147134521Y-88808805D01*
X147139455Y-88874989D01*
X147161107Y-88924988D01*
X147209760Y-88977019D01*
X147248087Y-89010044D01*
X147365739Y-89134142D01*
X147438094Y-89275392D01*
X147469004Y-89442283D01*
X147470774Y-89500582D01*
X147470774Y-89670779D01*
X147593635Y-89748969D01*
X147792030Y-89846000D01*
X148021728Y-89906409D01*
X148276331Y-89928999D01*
X148498721Y-89918511D01*
X148654827Y-89902194D01*
X148566646Y-89716510D01*
X148503660Y-89561497D01*
X148441317Y-89366618D01*
X148382699Y-89143681D01*
X148330886Y-88904495D01*
X148288961Y-88660867D01*
X148286128Y-88641548D01*
X148263434Y-88487282D01*
X148245686Y-88376947D01*
X148230839Y-88303220D01*
X148216844Y-88258775D01*
X148201655Y-88236288D01*
X148183225Y-88228435D01*
X148170472Y-88227699D01*
X148108897Y-88213025D01*
X148018907Y-88173612D01*
X147913004Y-88116372D01*
X147803690Y-88048220D01*
X147703468Y-87976067D01*
X147677698Y-87955222D01*
X147549464Y-87854572D01*
X147443734Y-87788512D01*
X147349493Y-87752232D01*
X147255725Y-87740922D01*
X147194492Y-87744182D01*
X147103789Y-87748226D01*
X147054257Y-87739787D01*
X147048818Y-87722169D01*
X147090398Y-87698677D01*
X147140207Y-87682844D01*
X147264603Y-87659601D01*
X147389839Y-87659974D01*
X147525187Y-87685966D01*
X147679917Y-87739581D01*
X147863300Y-87822822D01*
X147920586Y-87851478D01*
X148093910Y-87935970D01*
X148231681Y-87994636D01*
X148341344Y-88030413D01*
X148408401Y-88043828D01*
X148490122Y-88051235D01*
X148543458Y-88048951D01*
X148557128Y-88040925D01*
X148545275Y-88010930D01*
X148512808Y-87944854D01*
X148464368Y-87851770D01*
X148404592Y-87740745D01*
X148389487Y-87713187D01*
X148319743Y-87584471D01*
X148252555Y-87457120D01*
X148195416Y-87345542D01*
X148155821Y-87264146D01*
X148154801Y-87261925D01*
X148117448Y-87186000D01*
X148082064Y-87139736D01*
X148038095Y-87121116D01*
X147974982Y-87128125D01*
X147882172Y-87158750D01*
X147794094Y-87193076D01*
X147687868Y-87232638D01*
X147605641Y-87258281D01*
X147552814Y-87269182D01*
X147534792Y-87264519D01*
X147556976Y-87243469D01*
X147588784Y-87224323D01*
X147664903Y-87178391D01*
X147731045Y-87133598D01*
X147773217Y-87099379D01*
X147776024Y-87076609D01*
X147742362Y-87046640D01*
X147612469Y-86968372D01*
X147447176Y-86903774D01*
X147261992Y-86857329D01*
X147072426Y-86833519D01*
X146997454Y-86831340D01*
X146753528Y-86852188D01*
X146524776Y-86911131D01*
X146317993Y-87004549D01*
X146139978Y-87128823D01*
X145997526Y-87280333D01*
X145920482Y-87404883D01*
X145875479Y-87504656D01*
X145851312Y-87591523D01*
X145842090Y-87691322D01*
X145841242Y-87752413D01*
X145847162Y-87867660D01*
X145862611Y-87981420D01*
X145882015Y-88061464D01*
X145902143Y-88128342D01*
X145909645Y-88185710D01*
X145904398Y-88251933D01*
X145886276Y-88345378D01*
X145879892Y-88374366D01*
X145818769Y-88574000D01*
X145724631Y-88786798D01*
X145606313Y-88995512D01*
X145472648Y-89182895D01*
X145454417Y-89205013D01*
X145387603Y-89285374D01*
X145336476Y-89348376D01*
X145307939Y-89385431D01*
X145304436Y-89391650D01*
X144971114Y-89391650D01*
X145041158Y-89332604D01*
X145177514Y-89205742D01*
X145305912Y-89075147D01*
X145417303Y-88949915D01*
X145502642Y-88839146D01*
X145544065Y-88771114D01*
X145600930Y-88653745D01*
X145633459Y-88567147D01*
X145642516Y-88496909D01*
X145628964Y-88428623D01*
X145593664Y-88347879D01*
X145571937Y-88305595D01*
X145499730Y-88150102D01*
X145634318Y-88150102D01*
X145643781Y-88171392D01*
X145651561Y-88167346D01*
X145654657Y-88136649D01*
X145651561Y-88132858D01*
X145636184Y-88136409D01*
X145634318Y-88150102D01*
X145499730Y-88150102D01*
X145483674Y-88115526D01*
X145429848Y-87941727D01*
X145413699Y-87821949D01*
X145561050Y-87821949D01*
X145585255Y-87971983D01*
X145620640Y-88111304D01*
X145637636Y-87826782D01*
X145648335Y-87698093D01*
X145663681Y-87577235D01*
X145681334Y-87480508D01*
X145693664Y-87436283D01*
X145793867Y-87222261D01*
X145925031Y-87045087D01*
X146091146Y-86901181D01*
X146296202Y-86786964D01*
X146501919Y-86711210D01*
X146608437Y-86686170D01*
X146734307Y-86671630D01*
X146893258Y-86666221D01*
X146953462Y-86666196D01*
X147081017Y-86668098D01*
X147181593Y-86674014D01*
X147271496Y-86686765D01*
X147367030Y-86709176D01*
X147484499Y-86744069D01*
X147580076Y-86774695D01*
X147735305Y-86822281D01*
X147885434Y-86863272D01*
X148021931Y-86895835D01*
X148136264Y-86918132D01*
X148219901Y-86928331D01*
X148264307Y-86924594D01*
X148267274Y-86922509D01*
X148258053Y-86911171D01*
X148231653Y-86908429D01*
X148190664Y-86900198D01*
X148110835Y-86877612D01*
X148002049Y-86843696D01*
X147874193Y-86801471D01*
X147809448Y-86779312D01*
X147582195Y-86703774D01*
X147390489Y-86647835D01*
X147223039Y-86609138D01*
X147068551Y-86585326D01*
X146915733Y-86574041D01*
X146817726Y-86572302D01*
X146542196Y-86593042D01*
X146295471Y-86654611D01*
X146079268Y-86756032D01*
X145895307Y-86896326D01*
X145745305Y-87074516D01*
X145655574Y-87233610D01*
X145593546Y-87414740D01*
X145561362Y-87617949D01*
X145561050Y-87821949D01*
X145413699Y-87821949D01*
X145406178Y-87766163D01*
X145406283Y-87607906D01*
X145436349Y-87386513D01*
X145506658Y-87184552D01*
X145620893Y-86994356D01*
X145782732Y-86808258D01*
X145796979Y-86794167D01*
X145955940Y-86654036D01*
X146115295Y-86549764D01*
X146292827Y-86471436D01*
X146472620Y-86417517D01*
X146725864Y-86375727D01*
X147003834Y-86370344D01*
X147296069Y-86399850D01*
X147592110Y-86462728D01*
X147881499Y-86557461D01*
X148097276Y-86653193D01*
X148175430Y-86691541D01*
X148233508Y-86718375D01*
X148257554Y-86727495D01*
X148277048Y-86707679D01*
X148315815Y-86655960D01*
X148360914Y-86590289D01*
X148441912Y-86484125D01*
X148550214Y-86363757D01*
X148671997Y-86242812D01*
X148793437Y-86134919D01*
X148900710Y-86053705D01*
X148913734Y-86045289D01*
X148973892Y-86001261D01*
X149007024Y-85964582D01*
X149009126Y-85950476D01*
X148975296Y-85918128D01*
X148906008Y-85866941D01*
X148810979Y-85803279D01*
X148699931Y-85733501D01*
X148582581Y-85663971D01*
X148505397Y-85620760D01*
X148141462Y-85446236D01*
X147773902Y-85315614D01*
X147406482Y-85228625D01*
X147042966Y-85184999D01*
X146687121Y-85184465D01*
X146342710Y-85226752D01*
X146013500Y-85311592D01*
X145703255Y-85438712D01*
X145415740Y-85607844D01*
X145154720Y-85818717D01*
X145107235Y-85864672D01*
X144888468Y-86118748D01*
X144709542Y-86405316D01*
X144570330Y-86724657D01*
X144470705Y-87077052D01*
X144416875Y-87404343D01*
X144401731Y-87573180D01*
X144398130Y-87733686D01*
X144178475Y-87733686D01*
X144175226Y-87665205D01*
X144196635Y-87272767D01*
G37*
G36*
X79510434Y-109776131D02*
G01*
X79580681Y-109885669D01*
X79614019Y-110048784D01*
X79620270Y-110146118D01*
X79622353Y-110250000D01*
X79620270Y-110353584D01*
X79614019Y-110450025D01*
X79580681Y-110613141D01*
X79509244Y-110723869D01*
X79388991Y-110764350D01*
X79267547Y-110723869D01*
X79197300Y-110614331D01*
X79163963Y-110451216D01*
X79157712Y-110353882D01*
X79155628Y-110250000D01*
X79157712Y-110146416D01*
X79163963Y-110049975D01*
X79197300Y-109886859D01*
X79267547Y-109776131D01*
X79388991Y-109735650D01*
X79510434Y-109776131D01*
G37*
G36*
X77161728Y-108984762D02*
G01*
X86338272Y-108984762D01*
X86338272Y-111515237D01*
X77161728Y-111515237D01*
X77161728Y-110988187D01*
X77657822Y-110988187D01*
X77926903Y-110988187D01*
X77914997Y-109842806D01*
X78088828Y-110466694D01*
X78303141Y-110466694D01*
X78484116Y-109842806D01*
X78469828Y-110988187D01*
X78738909Y-110988187D01*
X78733552Y-110799771D01*
X78727003Y-110615522D01*
X78718966Y-110433952D01*
X78709144Y-110253572D01*
X78708909Y-110250000D01*
X78857972Y-110250000D01*
X78866529Y-110428817D01*
X78892202Y-110584268D01*
X78934990Y-110716353D01*
X78994894Y-110825072D01*
X79099801Y-110932890D01*
X79231960Y-110997580D01*
X79391372Y-111019144D01*
X79546947Y-110997580D01*
X79677122Y-110932890D01*
X79702063Y-110907225D01*
X80079553Y-110907225D01*
X80243859Y-110979853D01*
X80371852Y-111009321D01*
X80536753Y-111019144D01*
X80703838Y-111006576D01*
X80770232Y-110988187D01*
X81324947Y-110988187D01*
X81617841Y-110988187D01*
X82515572Y-110988187D01*
X83460928Y-110988187D01*
X83460928Y-110745300D01*
X82808466Y-110745300D01*
X82808466Y-110330962D01*
X83329959Y-110330962D01*
X83329959Y-110088075D01*
X82808466Y-110088075D01*
X82808466Y-109757081D01*
X83408541Y-109757081D01*
X83615709Y-109757081D01*
X84003853Y-109757081D01*
X84003853Y-110988187D01*
X84299128Y-110988187D01*
X84299128Y-110907225D01*
X84842053Y-110907225D01*
X85006359Y-110979853D01*
X85134352Y-111009321D01*
X85299253Y-111019144D01*
X85466337Y-111006576D01*
X85602466Y-110968873D01*
X85707637Y-110906034D01*
X85808543Y-110769410D01*
X85842178Y-110585756D01*
X85832058Y-110474730D01*
X85801697Y-110384541D01*
X85698112Y-110251191D01*
X85560000Y-110165466D01*
X85415934Y-110107125D01*
X85324256Y-110071406D01*
X85240913Y-110027353D01*
X85180191Y-109970203D01*
X85156378Y-109895194D01*
X85182307Y-109801267D01*
X85260095Y-109744910D01*
X85389741Y-109726125D01*
X85557619Y-109749937D01*
X85689778Y-109807087D01*
X85775503Y-109580869D01*
X85605244Y-109511812D01*
X85495409Y-109488595D01*
X85368309Y-109480856D01*
X85222392Y-109493821D01*
X85098964Y-109532715D01*
X84998025Y-109597537D01*
X84897120Y-109736841D01*
X84863484Y-109921387D01*
X84901584Y-110096409D01*
X84998025Y-110214281D01*
X85127803Y-110292862D01*
X85265916Y-110347631D01*
X85365928Y-110389303D01*
X85456416Y-110439309D01*
X85523091Y-110502412D01*
X85549284Y-110583375D01*
X85538569Y-110653622D01*
X85499278Y-110715534D01*
X85421888Y-110758397D01*
X85299253Y-110773875D01*
X85180488Y-110765541D01*
X85081369Y-110740537D01*
X84927778Y-110669100D01*
X84842053Y-110907225D01*
X84299128Y-110907225D01*
X84299128Y-109757081D01*
X84687272Y-109757081D01*
X84687272Y-109514194D01*
X83615709Y-109514194D01*
X83615709Y-109757081D01*
X83408541Y-109757081D01*
X83408541Y-109514194D01*
X82515572Y-109514194D01*
X82515572Y-110988187D01*
X81617841Y-110988187D01*
X81617841Y-110357156D01*
X82151241Y-110357156D01*
X82151241Y-110114269D01*
X81617841Y-110114269D01*
X81617841Y-109757081D01*
X82227441Y-109757081D01*
X82227441Y-109514194D01*
X81324947Y-109514194D01*
X81324947Y-110988187D01*
X80770232Y-110988187D01*
X80839966Y-110968873D01*
X80945137Y-110906034D01*
X81046043Y-110769410D01*
X81079678Y-110585756D01*
X81069558Y-110474730D01*
X81039197Y-110384541D01*
X80935613Y-110251191D01*
X80797500Y-110165466D01*
X80653434Y-110107125D01*
X80561756Y-110071406D01*
X80478413Y-110027353D01*
X80417691Y-109970203D01*
X80393878Y-109895194D01*
X80419807Y-109801267D01*
X80497595Y-109744910D01*
X80627241Y-109726125D01*
X80795119Y-109749937D01*
X80927278Y-109807087D01*
X81013003Y-109580869D01*
X80842744Y-109511812D01*
X80732909Y-109488595D01*
X80605809Y-109480856D01*
X80459892Y-109493821D01*
X80336464Y-109532715D01*
X80235525Y-109597537D01*
X80134620Y-109736841D01*
X80100984Y-109921387D01*
X80139084Y-110096409D01*
X80235525Y-110214281D01*
X80365303Y-110292862D01*
X80503416Y-110347631D01*
X80603428Y-110389303D01*
X80693916Y-110439309D01*
X80760591Y-110502412D01*
X80786784Y-110583375D01*
X80776069Y-110653622D01*
X80736778Y-110715534D01*
X80659388Y-110758397D01*
X80536753Y-110773875D01*
X80417988Y-110765541D01*
X80318869Y-110740537D01*
X80165278Y-110669100D01*
X80079553Y-110907225D01*
X79702063Y-110907225D01*
X79781897Y-110825072D01*
X79842321Y-110716353D01*
X79885481Y-110584268D01*
X79911377Y-110428817D01*
X79920009Y-110250000D01*
X79911526Y-110071183D01*
X79886077Y-109915732D01*
X79843661Y-109783647D01*
X79784278Y-109674928D01*
X79680032Y-109567110D01*
X79548270Y-109502420D01*
X79388991Y-109480856D01*
X79234474Y-109502420D01*
X79104299Y-109567110D01*
X78998466Y-109674928D01*
X78937000Y-109783647D01*
X78893095Y-109915732D01*
X78866753Y-110071183D01*
X78857972Y-110250000D01*
X78708909Y-110250000D01*
X78697237Y-110072895D01*
X78682950Y-109890431D01*
X78667174Y-109704694D01*
X78650803Y-109514194D01*
X78407916Y-109514194D01*
X78365053Y-109640400D01*
X78312666Y-109803516D01*
X78253134Y-109984491D01*
X78193603Y-110166656D01*
X78138834Y-109995206D01*
X78081684Y-109811850D01*
X78028106Y-109642781D01*
X77986434Y-109514194D01*
X77743547Y-109514194D01*
X77727771Y-109675523D01*
X77713781Y-109849950D01*
X77701577Y-110033902D01*
X77691159Y-110223806D01*
X77681932Y-110417283D01*
X77673300Y-110611950D01*
X77665263Y-110803641D01*
X77657822Y-110988187D01*
X77161728Y-110988187D01*
X77161728Y-108984762D01*
G37*
X114040000Y-99500000D02*
X113270000Y-99500000D01*
X106730000Y-98130000D02*
X106730000Y-100870000D01*
X113270000Y-100870000D02*
X113270000Y-98130000D01*
X105960000Y-99500000D02*
X106730000Y-99500000D01*
X106730000Y-100870000D02*
X113270000Y-100870000D01*
X113270000Y-98130000D02*
X106730000Y-98130000D01*
X113270000Y-109130000D02*
X106730000Y-109130000D01*
X113270000Y-111870000D02*
X113270000Y-109130000D01*
X105960000Y-110500000D02*
X106730000Y-110500000D01*
X106730000Y-109130000D02*
X106730000Y-111870000D01*
X106730000Y-111870000D02*
X113270000Y-111870000D01*
X114040000Y-110500000D02*
X113270000Y-110500000D01*
D11*
X80900290Y-106855290D02*
X80900290Y-83995290D01*
X98045290Y-83995290D02*
X98045290Y-106855290D01*
X98045290Y-106855290D02*
X80900290Y-106855290D01*
X80900290Y-83995290D02*
X98045290Y-83995290D01*
D12*
X96775290Y-85265290D02*
X94235290Y-85265290D01*
X94235290Y-85265290D02*
X94235290Y-105585290D01*
X94235290Y-105585290D02*
X96775290Y-105585290D01*
X96775290Y-105585290D02*
X96775290Y-85265290D01*
D14*
X98950000Y-107363290D02*
G75*
G03*
X98950000Y-107363290I-396710J0D01*
G01*
G36*
X105914966Y-81933325D02*
G01*
X105991166Y-81965472D01*
X105991166Y-82575072D01*
X105926872Y-82582216D01*
X105860197Y-82584597D01*
X105753338Y-82560784D01*
X105680413Y-82489347D01*
X105638443Y-82380405D01*
X105624453Y-82244078D01*
X105636359Y-82105370D01*
X105672078Y-82003572D01*
X105733991Y-81941064D01*
X105824478Y-81920228D01*
X105914966Y-81933325D01*
G37*
G36*
X103515856Y-81780925D02*
G01*
X103553956Y-81928562D01*
X103586103Y-82075009D01*
X103614678Y-82227409D01*
X103326547Y-82227409D01*
X103356313Y-82075009D01*
X103389650Y-81928562D01*
X103427750Y-81780925D01*
X103471803Y-81622572D01*
X103515856Y-81780925D01*
G37*
G36*
X102404209Y-80662134D02*
G01*
X117595791Y-80662134D01*
X117595791Y-83337866D01*
X102404209Y-83337866D01*
X102404209Y-82810816D01*
X102900303Y-82810816D01*
X103205103Y-82810816D01*
X103271778Y-82470297D01*
X103664684Y-82470297D01*
X103733741Y-82810816D01*
X104048066Y-82810816D01*
X104281428Y-82810816D01*
X104576703Y-82810816D01*
X104576703Y-82258366D01*
X105326797Y-82258366D01*
X105341746Y-82425053D01*
X105386593Y-82566341D01*
X105461338Y-82682228D01*
X105565186Y-82768218D01*
X105697346Y-82819811D01*
X105857816Y-82837009D01*
X105970925Y-82832842D01*
X106086416Y-82820341D01*
X106194167Y-82801291D01*
X106284059Y-82777478D01*
X106284059Y-82315516D01*
X106591241Y-82315516D01*
X106596003Y-82425053D01*
X106610291Y-82525066D01*
X106680538Y-82690562D01*
X106819841Y-82798909D01*
X106920448Y-82827484D01*
X107046059Y-82837009D01*
X107176730Y-82831652D01*
X107297281Y-82815578D01*
X107404140Y-82794147D01*
X107493734Y-82772716D01*
X107493734Y-81934516D01*
X107727097Y-81934516D01*
X108036659Y-81934516D01*
X108036659Y-82346472D01*
X108041422Y-82456605D01*
X108055709Y-82553641D01*
X108121194Y-82707231D01*
X108131909Y-82715576D01*
X108245019Y-82803672D01*
X108331637Y-82828675D01*
X108436709Y-82837009D01*
X108583156Y-82821531D01*
X108614427Y-82810816D01*
X108982016Y-82810816D01*
X109274909Y-82810816D01*
X109274909Y-81932134D01*
X109342775Y-81924991D01*
X109408259Y-81922609D01*
X109553516Y-81991666D01*
X109580305Y-82082748D01*
X109589234Y-82217884D01*
X109589234Y-82810816D01*
X109882128Y-82810816D01*
X109882128Y-82248841D01*
X110091678Y-82248841D01*
X110101203Y-82375940D01*
X110129778Y-82490537D01*
X110175915Y-82591443D01*
X110238125Y-82677466D01*
X110314920Y-82747117D01*
X110404813Y-82798909D01*
X110506909Y-82831056D01*
X110620316Y-82841772D01*
X110733723Y-82831056D01*
X110798003Y-82810816D01*
X112513409Y-82810816D01*
X112777728Y-82810816D01*
X112777728Y-81832122D01*
X112866231Y-81995502D01*
X112950766Y-82158618D01*
X113031331Y-82321469D01*
X113107928Y-82484320D01*
X113180556Y-82647435D01*
X113249216Y-82810816D01*
X113484959Y-82810816D01*
X113484959Y-82467916D01*
X113699272Y-82467916D01*
X113732609Y-82640556D01*
X113827859Y-82754856D01*
X113976688Y-82817959D01*
X114170759Y-82837009D01*
X114320183Y-82832247D01*
X114454128Y-82817959D01*
X114494946Y-82810816D01*
X114935141Y-82810816D01*
X115228034Y-82810816D01*
X115228034Y-81932134D01*
X115295900Y-81924991D01*
X115361384Y-81922609D01*
X115506641Y-81991666D01*
X115533430Y-82082748D01*
X115542359Y-82217884D01*
X115542359Y-82810816D01*
X115835253Y-82810816D01*
X115835253Y-82248841D01*
X116044803Y-82248841D01*
X116054328Y-82375940D01*
X116082903Y-82490537D01*
X116129040Y-82591443D01*
X116191250Y-82677466D01*
X116268045Y-82747117D01*
X116357938Y-82798909D01*
X116460034Y-82831056D01*
X116573441Y-82841772D01*
X116686848Y-82831056D01*
X116788944Y-82798909D01*
X116878538Y-82747117D01*
X116954441Y-82677466D01*
X117015758Y-82591443D01*
X117061597Y-82490537D01*
X117090172Y-82375940D01*
X117099697Y-82248841D01*
X117090172Y-82123527D01*
X117061597Y-82009525D01*
X117015460Y-81908917D01*
X116953250Y-81823787D01*
X116876455Y-81755327D01*
X116786563Y-81704725D01*
X116685062Y-81673471D01*
X116573441Y-81663053D01*
X116463308Y-81673471D01*
X116361509Y-81704725D01*
X116270724Y-81755327D01*
X116193631Y-81823787D01*
X116131123Y-81908917D01*
X116084094Y-82009525D01*
X116054626Y-82123527D01*
X116044803Y-82248841D01*
X115835253Y-82248841D01*
X115835253Y-82179784D01*
X115829895Y-82070545D01*
X115813822Y-81971425D01*
X115741194Y-81809500D01*
X115601891Y-81704725D01*
X115502473Y-81677043D01*
X115380434Y-81667816D01*
X115249763Y-81672578D01*
X115129213Y-81686866D01*
X115022949Y-81706511D01*
X114935141Y-81727347D01*
X114935141Y-82810816D01*
X114494946Y-82810816D01*
X114644628Y-82784622D01*
X114644628Y-82117872D01*
X114620816Y-81928562D01*
X114542234Y-81785687D01*
X114395788Y-81695200D01*
X114292501Y-81671090D01*
X114165997Y-81663053D01*
X114060627Y-81666923D01*
X113958828Y-81678531D01*
X113804047Y-81713059D01*
X113844528Y-81948803D01*
X113969544Y-81920228D01*
X114130278Y-81908322D01*
X114239816Y-81922312D01*
X114311253Y-81964281D01*
X114363641Y-82103584D01*
X114363641Y-82139303D01*
X114268986Y-82125016D01*
X114161234Y-82120253D01*
X113987403Y-82138112D01*
X113839766Y-82196453D01*
X113737372Y-82303609D01*
X113699272Y-82467916D01*
X113484959Y-82467916D01*
X113484959Y-81336822D01*
X113220641Y-81336822D01*
X113220641Y-82244078D01*
X113178671Y-82151209D01*
X113128963Y-82044053D01*
X113073003Y-81927967D01*
X113012281Y-81808309D01*
X112948285Y-81686568D01*
X112882503Y-81564231D01*
X112815828Y-81446062D01*
X112749153Y-81336822D01*
X112513409Y-81336822D01*
X112513409Y-82810816D01*
X110798003Y-82810816D01*
X110835819Y-82798909D01*
X110925413Y-82747117D01*
X111001316Y-82677466D01*
X111062633Y-82591443D01*
X111108472Y-82490537D01*
X111137047Y-82375940D01*
X111146572Y-82248841D01*
X111137047Y-82123527D01*
X111108472Y-82009525D01*
X111062335Y-81908917D01*
X111000125Y-81823787D01*
X110923330Y-81755327D01*
X110833438Y-81704725D01*
X110731937Y-81673471D01*
X110620316Y-81663053D01*
X110510183Y-81673471D01*
X110408384Y-81704725D01*
X110317599Y-81755327D01*
X110240506Y-81823787D01*
X110177998Y-81908917D01*
X110130969Y-82009525D01*
X110101501Y-82123527D01*
X110091678Y-82248841D01*
X109882128Y-82248841D01*
X109882128Y-82179784D01*
X109876770Y-82070545D01*
X109860697Y-81971425D01*
X109788069Y-81809500D01*
X109648766Y-81704725D01*
X109549348Y-81677043D01*
X109427309Y-81667816D01*
X109296638Y-81672578D01*
X109176088Y-81686866D01*
X109069824Y-81706511D01*
X108982016Y-81727347D01*
X108982016Y-82810816D01*
X108614427Y-82810816D01*
X108753416Y-82763191D01*
X108715316Y-82527447D01*
X108586728Y-82571500D01*
X108489097Y-82582216D01*
X108366463Y-82533400D01*
X108329553Y-82384572D01*
X108329553Y-81691628D01*
X108131909Y-81691628D01*
X108131909Y-82715576D01*
X108131909Y-81691628D01*
X107727097Y-81691628D01*
X107727097Y-81934516D01*
X107493734Y-81934516D01*
X107493734Y-81691628D01*
X107198459Y-81691628D01*
X107198459Y-82570309D01*
X107065109Y-82582216D01*
X106921044Y-82507206D01*
X106893362Y-82412254D01*
X106884134Y-82277416D01*
X106884134Y-81691628D01*
X106591241Y-81691628D01*
X106591241Y-82315516D01*
X106284059Y-82315516D01*
X106284059Y-81370159D01*
X107948553Y-81370159D01*
X108002131Y-81505891D01*
X108131909Y-81555897D01*
X108262878Y-81505891D01*
X108317647Y-81370159D01*
X108262878Y-81232047D01*
X108131909Y-81182041D01*
X108002131Y-81232047D01*
X107948553Y-81370159D01*
X106284059Y-81370159D01*
X106284059Y-81158228D01*
X105991166Y-81208234D01*
X105991166Y-81717822D01*
X105891153Y-81680912D01*
X105774472Y-81667816D01*
X105638873Y-81685410D01*
X105527351Y-81738195D01*
X105439906Y-81826169D01*
X105377068Y-81944570D01*
X105339365Y-82088635D01*
X105326797Y-82258366D01*
X104576703Y-82258366D01*
X104576703Y-81979759D01*
X104698147Y-81957137D01*
X104819591Y-81951184D01*
X104883884Y-81953566D01*
X104962466Y-81961900D01*
X105042238Y-81974997D01*
X105110103Y-81989284D01*
X105162491Y-81717822D01*
X105070813Y-81695200D01*
X104969609Y-81680912D01*
X104875550Y-81672578D01*
X104807684Y-81670197D01*
X104653796Y-81676745D01*
X104520744Y-81696391D01*
X104399598Y-81726752D01*
X104281428Y-81765447D01*
X104281428Y-82810816D01*
X104048066Y-82810816D01*
X104008775Y-82643699D01*
X103969008Y-82481441D01*
X103928765Y-82324040D01*
X103888046Y-82171498D01*
X103846850Y-82023812D01*
X103794983Y-81844698D01*
X103742968Y-81670495D01*
X103690804Y-81501203D01*
X103638491Y-81336822D01*
X103319403Y-81336822D01*
X103268950Y-81499863D01*
X103217605Y-81667518D01*
X103165366Y-81839787D01*
X103112234Y-82016669D01*
X103069467Y-82163116D01*
X103026890Y-82315754D01*
X102984504Y-82474583D01*
X102942308Y-82639604D01*
X102900303Y-82810816D01*
X102404209Y-82810816D01*
X102404209Y-80662134D01*
G37*
G36*
X114294584Y-82328612D02*
G01*
X114363641Y-82336947D01*
X114363641Y-82594122D01*
X114285059Y-82600075D01*
X114192191Y-82601266D01*
X114044553Y-82569119D01*
X113987403Y-82460772D01*
X114006453Y-82391716D01*
X114057650Y-82351234D01*
X114132659Y-82330994D01*
X114220766Y-82325041D01*
X114294584Y-82328612D01*
G37*
G36*
X116676132Y-81940766D02*
G01*
X116746081Y-82009525D01*
X116786265Y-82115788D01*
X116799659Y-82251222D01*
X116785074Y-82386953D01*
X116741319Y-82494109D01*
X116668988Y-82563761D01*
X116568678Y-82586978D01*
X116465987Y-82563761D01*
X116396037Y-82494109D01*
X116355854Y-82386953D01*
X116342459Y-82251222D01*
X116357045Y-82115788D01*
X116400800Y-82009525D01*
X116473130Y-81940766D01*
X116573441Y-81917847D01*
X116676132Y-81940766D01*
G37*
G36*
X110723007Y-81940766D02*
G01*
X110792956Y-82009525D01*
X110833140Y-82115788D01*
X110846534Y-82251222D01*
X110831949Y-82386953D01*
X110788194Y-82494109D01*
X110715863Y-82563761D01*
X110615553Y-82586978D01*
X110512862Y-82563761D01*
X110442913Y-82494109D01*
X110402729Y-82386953D01*
X110389334Y-82251222D01*
X110403920Y-82115788D01*
X110447675Y-82009525D01*
X110520005Y-81940766D01*
X110620316Y-81917847D01*
X110723007Y-81940766D01*
G37*
D12*
X83130000Y-114930000D02*
X83130000Y-112270000D01*
X84340000Y-112300000D02*
X85670000Y-112300000D01*
X77990000Y-114930000D02*
X77990000Y-112270000D01*
X77990000Y-112270000D02*
X83130000Y-112270000D01*
X85670000Y-112300000D02*
X85670000Y-113630000D01*
X77990000Y-114930000D02*
X83130000Y-114930000D01*
%LPC*%
D15*
X78740000Y-80000000D03*
D16*
X97047000Y-113596000D03*
D17*
X94507000Y-113596000D03*
D18*
X91967000Y-113596000D03*
D19*
X104920000Y-105000000D03*
D20*
X115080000Y-105000000D03*
D21*
X124727013Y-123853487D03*
X124727013Y-126393487D03*
X139332013Y-113693487D03*
X136792013Y-113693487D03*
X134252013Y-113693487D03*
X131712013Y-113693487D03*
X129172013Y-113693487D03*
X126632013Y-113693487D03*
D19*
X104920000Y-116500000D03*
D20*
X115080000Y-116500000D03*
D22*
X102385000Y-88000000D03*
D20*
X102385000Y-90540000D03*
X102385000Y-93080000D03*
X102385000Y-95620000D03*
X102385000Y-98160000D03*
X102385000Y-100700000D03*
X102385000Y-103240000D03*
X102385000Y-105780000D03*
X102385000Y-108320000D03*
X102385000Y-110860000D03*
X102385000Y-113400000D03*
X102385000Y-115940000D03*
X102385000Y-118480000D03*
X102385000Y-121020000D03*
X102385000Y-123560000D03*
X117625000Y-123560000D03*
X117625000Y-121020000D03*
X117625000Y-118480000D03*
X117625000Y-115940000D03*
X117625000Y-113400000D03*
X117625000Y-110860000D03*
X117625000Y-108320000D03*
X117625000Y-105780000D03*
X117625000Y-103240000D03*
X117625000Y-100700000D03*
X117625000Y-98160000D03*
X117625000Y-95620000D03*
X117625000Y-93080000D03*
X117625000Y-90540000D03*
X117625000Y-88000000D03*
D19*
X104920000Y-94400000D03*
D20*
X115080000Y-94400000D03*
D23*
X86040000Y-78000000D03*
D24*
X83500000Y-78000000D03*
D25*
X78140000Y-90000000D03*
D17*
X75600000Y-90000000D03*
D26*
X137000000Y-122182380D03*
D19*
X137000000Y-119682380D03*
D23*
X139700000Y-78000000D03*
D24*
X137160000Y-78000000D03*
D19*
X104920000Y-89300000D03*
D20*
X115080000Y-89300000D03*
D15*
X145740000Y-80000000D03*
X145740000Y-127000000D03*
D25*
X78140000Y-86000000D03*
D17*
X75600000Y-86000000D03*
D16*
X84455000Y-118975000D03*
D17*
X81915000Y-118975000D03*
D18*
X79375000Y-118975000D03*
D16*
X97070000Y-118950000D03*
D17*
X94530000Y-118950000D03*
D18*
X91990000Y-118950000D03*
D15*
X78740000Y-127000000D03*
D19*
X104920000Y-99500000D03*
D20*
X115080000Y-99500000D03*
D19*
X104920000Y-110500000D03*
D20*
X115080000Y-110500000D03*
D27*
X95505290Y-104315290D03*
D21*
X95505290Y-101775290D03*
X95505290Y-99235290D03*
X95505290Y-96695290D03*
X95505290Y-94155290D03*
X95505290Y-91615290D03*
X95505290Y-89075290D03*
X95505290Y-86535290D03*
D16*
X84400000Y-113600000D03*
D17*
X81860000Y-113600000D03*
D18*
X79320000Y-113600000D03*
M02*
