%TF.GenerationSoftware,KiCad,Pcbnew,(6.0.10)*%
%TF.CreationDate,2023-05-01T21:14:43-04:00*%
%TF.ProjectId,MiniCopterSchematic,4d696e69-436f-4707-9465-72536368656d,v01*%
%TF.SameCoordinates,Original*%
%TF.FileFunction,Drillmap*%
%TF.FilePolarity,Positive*%
%FSLAX45Y45*%
G04 Gerber Fmt 4.5, Leading zero omitted, Abs format (unit mm)*
G04 Created by KiCad (PCBNEW (6.0.10)) date 2023-05-01 21:14:43*
%MOMM*%
%LPD*%
G01*
G04 APERTURE LIST*
%ADD10C,0.100000*%
%ADD11C,0.200000*%
G04 APERTURE END LIST*
D10*
X7880000Y-13280000D02*
X14580000Y-13280000D01*
X15160000Y-8000000D02*
G75*
G03*
X14580000Y-7420000I-580000J0D01*
G01*
X15160000Y-12700000D02*
X15160000Y-8000000D01*
X7880000Y-7420000D02*
G75*
G03*
X7300000Y-8000000I0J-580000D01*
G01*
X7300000Y-12700000D02*
G75*
G03*
X7880000Y-13280000I580000J0D01*
G01*
X7300000Y-8000000D02*
X7300000Y-12700000D01*
X14580000Y-7420000D02*
X7880000Y-7420000D01*
X14580000Y-13280000D02*
G75*
G03*
X15160000Y-12700000I0J580000D01*
G01*
D11*
X7552619Y-13595476D02*
X7552619Y-13395476D01*
X7600238Y-13395476D01*
X7628809Y-13405000D01*
X7647857Y-13424048D01*
X7657381Y-13443095D01*
X7666905Y-13481190D01*
X7666905Y-13509762D01*
X7657381Y-13547857D01*
X7647857Y-13566905D01*
X7628809Y-13585952D01*
X7600238Y-13595476D01*
X7552619Y-13595476D01*
X7752619Y-13595476D02*
X7752619Y-13462143D01*
X7752619Y-13500238D02*
X7762143Y-13481190D01*
X7771667Y-13471667D01*
X7790714Y-13462143D01*
X7809762Y-13462143D01*
X7876428Y-13595476D02*
X7876428Y-13462143D01*
X7876428Y-13395476D02*
X7866905Y-13405000D01*
X7876428Y-13414524D01*
X7885952Y-13405000D01*
X7876428Y-13395476D01*
X7876428Y-13414524D01*
X8000238Y-13595476D02*
X7981190Y-13585952D01*
X7971667Y-13566905D01*
X7971667Y-13395476D01*
X8105000Y-13595476D02*
X8085952Y-13585952D01*
X8076428Y-13566905D01*
X8076428Y-13395476D01*
X8333571Y-13595476D02*
X8333571Y-13395476D01*
X8400238Y-13538333D01*
X8466905Y-13395476D01*
X8466905Y-13595476D01*
X8647857Y-13595476D02*
X8647857Y-13490714D01*
X8638333Y-13471667D01*
X8619286Y-13462143D01*
X8581190Y-13462143D01*
X8562143Y-13471667D01*
X8647857Y-13585952D02*
X8628810Y-13595476D01*
X8581190Y-13595476D01*
X8562143Y-13585952D01*
X8552619Y-13566905D01*
X8552619Y-13547857D01*
X8562143Y-13528809D01*
X8581190Y-13519286D01*
X8628810Y-13519286D01*
X8647857Y-13509762D01*
X8743095Y-13462143D02*
X8743095Y-13662143D01*
X8743095Y-13471667D02*
X8762143Y-13462143D01*
X8800238Y-13462143D01*
X8819286Y-13471667D01*
X8828810Y-13481190D01*
X8838333Y-13500238D01*
X8838333Y-13557381D01*
X8828810Y-13576428D01*
X8819286Y-13585952D01*
X8800238Y-13595476D01*
X8762143Y-13595476D01*
X8743095Y-13585952D01*
X8924048Y-13576428D02*
X8933571Y-13585952D01*
X8924048Y-13595476D01*
X8914524Y-13585952D01*
X8924048Y-13576428D01*
X8924048Y-13595476D01*
X8924048Y-13471667D02*
X8933571Y-13481190D01*
X8924048Y-13490714D01*
X8914524Y-13481190D01*
X8924048Y-13471667D01*
X8924048Y-13490714D01*
M02*
