G04 #@! TF.GenerationSoftware,KiCad,Pcbnew,(6.0.10)*
G04 #@! TF.CreationDate,2023-05-03T21:15:51-04:00*
G04 #@! TF.ProjectId,MiniCopterSchematic,4d696e69-436f-4707-9465-72536368656d,v01*
G04 #@! TF.SameCoordinates,Original*
G04 #@! TF.FileFunction,Legend,Bot*
G04 #@! TF.FilePolarity,Positive*
%FSLAX46Y46*%
G04 Gerber Fmt 4.6, Leading zero omitted, Abs format (unit mm)*
G04 Created by KiCad (PCBNEW (6.0.10)) date 2023-05-03 21:15:51*
%MOMM*%
%LPD*%
G01*
G04 APERTURE LIST*
G04 Aperture macros list*
%AMRoundRect*
0 Rectangle with rounded corners*
0 $1 Rounding radius*
0 $2 $3 $4 $5 $6 $7 $8 $9 X,Y pos of 4 corners*
0 Add a 4 corners polygon primitive as box body*
4,1,4,$2,$3,$4,$5,$6,$7,$8,$9,$2,$3,0*
0 Add four circle primitives for the rounded corners*
1,1,$1+$1,$2,$3*
1,1,$1+$1,$4,$5*
1,1,$1+$1,$6,$7*
1,1,$1+$1,$8,$9*
0 Add four rect primitives between the rounded corners*
20,1,$1+$1,$2,$3,$4,$5,0*
20,1,$1+$1,$4,$5,$6,$7,0*
20,1,$1+$1,$6,$7,$8,$9,0*
20,1,$1+$1,$8,$9,$2,$3,0*%
G04 Aperture macros list end*
%ADD10C,0.300000*%
%ADD11C,0.200000*%
%ADD12C,0.250000*%
%ADD13C,0.120000*%
%ADD14C,6.500000*%
%ADD15RoundRect,0.050000X0.850000X-0.850000X0.850000X0.850000X-0.850000X0.850000X-0.850000X-0.850000X0*%
%ADD16O,1.800000X1.800000*%
%ADD17C,1.800000*%
%ADD18C,1.700000*%
%ADD19O,1.700000X1.700000*%
%ADD20RoundRect,0.050000X-0.850000X-0.850000X0.850000X-0.850000X0.850000X0.850000X-0.850000X0.850000X0*%
%ADD21RoundRect,0.050000X0.900000X0.900000X-0.900000X0.900000X-0.900000X-0.900000X0.900000X-0.900000X0*%
%ADD22C,1.900000*%
%ADD23RoundRect,0.050000X-0.850000X0.850000X-0.850000X-0.850000X0.850000X-0.850000X0.850000X0.850000X0*%
%ADD24RoundRect,0.050000X0.800000X-0.800000X0.800000X0.800000X-0.800000X0.800000X-0.800000X-0.800000X0*%
%ADD25RoundRect,0.050000X-1.500000X1.500000X-1.500000X-1.500000X1.500000X-1.500000X1.500000X1.500000X0*%
%ADD26RoundRect,0.050000X-2.500000X-2.500000X2.500000X-2.500000X2.500000X2.500000X-2.500000X2.500000X0*%
%ADD27RoundRect,0.050000X-1.500000X-1.500000X1.500000X-1.500000X1.500000X1.500000X-1.500000X1.500000X0*%
%ADD28RoundRect,0.050000X-2.500000X2.500000X-2.500000X-2.500000X2.500000X-2.500000X2.500000X2.500000X0*%
%ADD29RoundRect,0.050000X1.500000X1.500000X-1.500000X1.500000X-1.500000X-1.500000X1.500000X-1.500000X0*%
G04 APERTURE END LIST*
D10*
X140704761Y-130288095D02*
X140704761Y-131216666D01*
X140766666Y-131402380D01*
X140890476Y-131526190D01*
X141076190Y-131588095D01*
X141200000Y-131588095D01*
X139466666Y-131588095D02*
X140085714Y-131588095D01*
X140085714Y-130288095D01*
X138290476Y-131464285D02*
X138352380Y-131526190D01*
X138538095Y-131588095D01*
X138661904Y-131588095D01*
X138847619Y-131526190D01*
X138971428Y-131402380D01*
X139033333Y-131278571D01*
X139095238Y-131030952D01*
X139095238Y-130845238D01*
X139033333Y-130597619D01*
X138971428Y-130473809D01*
X138847619Y-130350000D01*
X138661904Y-130288095D01*
X138538095Y-130288095D01*
X138352380Y-130350000D01*
X138290476Y-130411904D01*
X137361904Y-130288095D02*
X137361904Y-131216666D01*
X137423809Y-131402380D01*
X137547619Y-131526190D01*
X137733333Y-131588095D01*
X137857142Y-131588095D01*
X136123809Y-131588095D02*
X136742857Y-131588095D01*
X136742857Y-130288095D01*
X134947619Y-131464285D02*
X135009523Y-131526190D01*
X135195238Y-131588095D01*
X135319047Y-131588095D01*
X135504761Y-131526190D01*
X135628571Y-131402380D01*
X135690476Y-131278571D01*
X135752380Y-131030952D01*
X135752380Y-130845238D01*
X135690476Y-130597619D01*
X135628571Y-130473809D01*
X135504761Y-130350000D01*
X135319047Y-130288095D01*
X135195238Y-130288095D01*
X135009523Y-130350000D01*
X134947619Y-130411904D01*
X134019047Y-130288095D02*
X134019047Y-131216666D01*
X134080952Y-131402380D01*
X134204761Y-131526190D01*
X134390476Y-131588095D01*
X134514285Y-131588095D01*
X132780952Y-131588095D02*
X133400000Y-131588095D01*
X133400000Y-130288095D01*
X131604761Y-131464285D02*
X131666666Y-131526190D01*
X131852380Y-131588095D01*
X131976190Y-131588095D01*
X132161904Y-131526190D01*
X132285714Y-131402380D01*
X132347619Y-131278571D01*
X132409523Y-131030952D01*
X132409523Y-130845238D01*
X132347619Y-130597619D01*
X132285714Y-130473809D01*
X132161904Y-130350000D01*
X131976190Y-130288095D01*
X131852380Y-130288095D01*
X131666666Y-130350000D01*
X131604761Y-130411904D01*
X130676190Y-130288095D02*
X130676190Y-131216666D01*
X130738095Y-131402380D01*
X130861904Y-131526190D01*
X131047619Y-131588095D01*
X131171428Y-131588095D01*
X129438095Y-131588095D02*
X130057142Y-131588095D01*
X130057142Y-130288095D01*
X128261904Y-131464285D02*
X128323809Y-131526190D01*
X128509523Y-131588095D01*
X128633333Y-131588095D01*
X128819047Y-131526190D01*
X128942857Y-131402380D01*
X129004761Y-131278571D01*
X129066666Y-131030952D01*
X129066666Y-130845238D01*
X129004761Y-130597619D01*
X128942857Y-130473809D01*
X128819047Y-130350000D01*
X128633333Y-130288095D01*
X128509523Y-130288095D01*
X128323809Y-130350000D01*
X128261904Y-130411904D01*
D11*
X144971428Y-115986857D02*
X144971428Y-114786857D01*
X144571428Y-115644000D01*
X144171428Y-114786857D01*
X144171428Y-115986857D01*
X143657142Y-114901142D02*
X143600000Y-114844000D01*
X143485714Y-114786857D01*
X143200000Y-114786857D01*
X143085714Y-114844000D01*
X143028571Y-114901142D01*
X142971428Y-115015428D01*
X142971428Y-115129714D01*
X143028571Y-115301142D01*
X143714285Y-115986857D01*
X142971428Y-115986857D01*
D12*
X101620000Y-77628571D02*
X102334285Y-77628571D01*
X102334285Y-76128571D01*
X101191428Y-76271428D02*
X101120000Y-76200000D01*
X100977142Y-76128571D01*
X100620000Y-76128571D01*
X100477142Y-76200000D01*
X100405714Y-76271428D01*
X100334285Y-76414285D01*
X100334285Y-76557142D01*
X100405714Y-76771428D01*
X101262857Y-77628571D01*
X100334285Y-77628571D01*
D11*
X91971428Y-129042857D02*
X91971428Y-127842857D01*
X91571428Y-128700000D01*
X91171428Y-127842857D01*
X91171428Y-129042857D01*
X89971428Y-129042857D02*
X90657142Y-129042857D01*
X90314285Y-129042857D02*
X90314285Y-127842857D01*
X90428571Y-128014285D01*
X90542857Y-128128571D01*
X90657142Y-128185714D01*
D12*
X144250000Y-96678571D02*
X144964285Y-96678571D01*
X144964285Y-95178571D01*
X142964285Y-96678571D02*
X143821428Y-96678571D01*
X143392857Y-96678571D02*
X143392857Y-95178571D01*
X143535714Y-95392857D01*
X143678571Y-95535714D01*
X143821428Y-95607142D01*
D11*
X80971428Y-100598857D02*
X80971428Y-99398857D01*
X80571428Y-100256000D01*
X80171428Y-99398857D01*
X80171428Y-100598857D01*
X79085714Y-99798857D02*
X79085714Y-100598857D01*
X79371428Y-99341714D02*
X79657142Y-100198857D01*
X78914285Y-100198857D01*
X125027428Y-79442857D02*
X125027428Y-78242857D01*
X124627428Y-79100000D01*
X124227428Y-78242857D01*
X124227428Y-79442857D01*
X123770285Y-78242857D02*
X123027428Y-78242857D01*
X123427428Y-78700000D01*
X123256000Y-78700000D01*
X123141714Y-78757142D01*
X123084571Y-78814285D01*
X123027428Y-78928571D01*
X123027428Y-79214285D01*
X123084571Y-79328571D01*
X123141714Y-79385714D01*
X123256000Y-79442857D01*
X123598857Y-79442857D01*
X123713142Y-79385714D01*
X123770285Y-79328571D01*
G36*
X98434975Y-128712087D02*
G01*
X97565025Y-128712087D01*
X97565025Y-128327912D01*
X98434975Y-128327912D01*
X98434975Y-128712087D01*
G37*
G36*
X144434975Y-122192087D02*
G01*
X143565025Y-122192087D01*
X143565025Y-121807912D01*
X144434975Y-121807912D01*
X144434975Y-122192087D01*
G37*
G36*
X131168275Y-78839663D02*
G01*
X131666750Y-78839663D01*
X131666750Y-79160337D01*
X131168275Y-79160337D01*
X131168275Y-79712788D01*
X130831725Y-79712788D01*
X130831725Y-79160337D01*
X130333250Y-79160337D01*
X130333250Y-78839663D01*
X130831725Y-78839663D01*
X130831725Y-78287212D01*
X131168275Y-78287212D01*
X131168275Y-78839663D01*
G37*
G36*
X117934975Y-79192087D02*
G01*
X117065025Y-79192087D01*
X117065025Y-78807912D01*
X117934975Y-78807912D01*
X117934975Y-79192087D01*
G37*
G36*
X92193516Y-76565612D02*
G01*
X92766763Y-76565612D01*
X92766763Y-76934388D01*
X92193516Y-76934388D01*
X92193516Y-77569706D01*
X91806484Y-77569706D01*
X91806484Y-76934388D01*
X91233237Y-76934388D01*
X91233237Y-76565612D01*
X91806484Y-76565612D01*
X91806484Y-75930294D01*
X92193516Y-75930294D01*
X92193516Y-76565612D01*
G37*
G36*
X144168275Y-108339663D02*
G01*
X144666750Y-108339663D01*
X144666750Y-108660337D01*
X144168275Y-108660337D01*
X144168275Y-109212788D01*
X143831725Y-109212788D01*
X143831725Y-108660337D01*
X143333250Y-108660337D01*
X143333250Y-108339663D01*
X143831725Y-108339663D01*
X143831725Y-107787212D01*
X144168275Y-107787212D01*
X144168275Y-108339663D01*
G37*
G36*
X79968275Y-92839663D02*
G01*
X80466750Y-92839663D01*
X80466750Y-93160337D01*
X79968275Y-93160337D01*
X79968275Y-93712788D01*
X79631725Y-93712788D01*
X79631725Y-93160337D01*
X79133250Y-93160337D01*
X79133250Y-92839663D01*
X79631725Y-92839663D01*
X79631725Y-92287212D01*
X79968275Y-92287212D01*
X79968275Y-92839663D01*
G37*
G36*
X80234975Y-107192087D02*
G01*
X79365025Y-107192087D01*
X79365025Y-106807912D01*
X80234975Y-106807912D01*
X80234975Y-107192087D01*
G37*
G36*
X144193516Y-86315612D02*
G01*
X144766763Y-86315612D01*
X144766763Y-86684388D01*
X144193516Y-86684388D01*
X144193516Y-87319706D01*
X143806484Y-87319706D01*
X143806484Y-86684388D01*
X143233237Y-86684388D01*
X143233237Y-86315612D01*
X143806484Y-86315612D01*
X143806484Y-85680294D01*
X144193516Y-85680294D01*
X144193516Y-86315612D01*
G37*
G36*
X84168275Y-128339663D02*
G01*
X84666750Y-128339663D01*
X84666750Y-128660337D01*
X84168275Y-128660337D01*
X84168275Y-129212788D01*
X83831725Y-129212788D01*
X83831725Y-128660337D01*
X83333250Y-128660337D01*
X83333250Y-128339663D01*
X83831725Y-128339663D01*
X83831725Y-127787212D01*
X84168275Y-127787212D01*
X84168275Y-128339663D01*
G37*
G36*
X144500221Y-105220901D02*
G01*
X143499779Y-105220901D01*
X143499779Y-104779099D01*
X144500221Y-104779099D01*
X144500221Y-105220901D01*
G37*
G36*
X139738187Y-101083969D02*
G01*
X138759494Y-101083969D01*
X138922874Y-101172472D01*
X139085990Y-101257006D01*
X139248841Y-101337572D01*
X139411692Y-101414169D01*
X139574807Y-101486797D01*
X139738187Y-101555456D01*
X139738187Y-101791200D01*
X138264194Y-101791200D01*
X138264194Y-101526881D01*
X139171450Y-101526881D01*
X139078581Y-101484912D01*
X138971425Y-101435203D01*
X138855339Y-101379244D01*
X138735681Y-101318522D01*
X138613940Y-101254526D01*
X138491603Y-101188744D01*
X138373434Y-101122069D01*
X138264194Y-101055394D01*
X138264194Y-100819650D01*
X139738187Y-100819650D01*
X139738187Y-101083969D01*
G37*
G36*
X139738187Y-95611856D02*
G01*
X139738187Y-95926181D01*
X139571071Y-95886891D01*
X139408813Y-95847124D01*
X139251412Y-95806881D01*
X139098869Y-95766161D01*
X138951184Y-95724966D01*
X138772070Y-95673099D01*
X138597866Y-95621084D01*
X138428574Y-95568919D01*
X138264194Y-95516606D01*
X138264194Y-95349919D01*
X138549944Y-95349919D01*
X138708297Y-95393972D01*
X138855934Y-95432072D01*
X139002381Y-95464219D01*
X139154781Y-95492794D01*
X139154781Y-95204663D01*
X139002381Y-95234428D01*
X138855934Y-95267766D01*
X138708297Y-95305866D01*
X138549944Y-95349919D01*
X138264194Y-95349919D01*
X138264194Y-95197519D01*
X138427235Y-95147066D01*
X138594890Y-95095720D01*
X138767158Y-95043482D01*
X138944041Y-94990350D01*
X139090487Y-94947583D01*
X139243126Y-94905006D01*
X139401955Y-94862620D01*
X139566976Y-94820424D01*
X139738187Y-94778419D01*
X139738187Y-95083219D01*
X139397669Y-95149894D01*
X139397669Y-95542800D01*
X139738187Y-95611856D01*
G37*
G36*
X139738187Y-89899238D02*
G01*
X139495300Y-89899238D01*
X139495300Y-89268206D01*
X138264194Y-89268206D01*
X138264194Y-88972931D01*
X139738187Y-88972931D01*
X139738187Y-89899238D01*
G37*
G36*
X139327422Y-98427684D02*
G01*
X139438150Y-98445544D01*
X139535186Y-98477691D01*
X139616744Y-98526506D01*
X139729853Y-98680097D01*
X139759321Y-98788146D01*
X139769144Y-98919413D01*
X139759321Y-99052763D01*
X139729853Y-99162300D01*
X139681930Y-99250406D01*
X139616744Y-99319463D01*
X139535186Y-99370064D01*
X139438150Y-99402806D01*
X139327422Y-99420666D01*
X139204787Y-99426619D01*
X138264194Y-99426619D01*
X138264194Y-99133725D01*
X139183356Y-99133725D01*
X139339328Y-99124200D01*
X139441722Y-99090863D01*
X139497681Y-99026569D01*
X139514350Y-98924175D01*
X139497681Y-98821781D01*
X139442912Y-98758678D01*
X139341709Y-98726531D01*
X139185737Y-98717006D01*
X138264194Y-98717006D01*
X138264194Y-98421731D01*
X139204787Y-98421731D01*
X139327422Y-98427684D01*
G37*
G36*
X139227409Y-91887449D02*
G01*
X139188119Y-92034690D01*
X139122634Y-92153091D01*
X139027781Y-92239742D01*
X138900384Y-92291732D01*
X138740444Y-92309063D01*
X138582091Y-92291865D01*
X138456281Y-92240271D01*
X138363016Y-92154281D01*
X138298854Y-92037071D01*
X138260357Y-91891815D01*
X138249993Y-91751850D01*
X138502319Y-91751850D01*
X138515713Y-91856923D01*
X138555897Y-91938778D01*
X138628227Y-91991463D01*
X138738062Y-92009025D01*
X138853851Y-91991166D01*
X138929753Y-91937588D01*
X138971723Y-91848886D01*
X138985712Y-91725656D01*
X138985712Y-91606594D01*
X138509462Y-91606594D01*
X138503509Y-91679222D01*
X138502319Y-91751850D01*
X138249993Y-91751850D01*
X138247525Y-91718513D01*
X138249906Y-91625644D01*
X138255859Y-91518488D01*
X138266575Y-91410141D01*
X138283244Y-91313700D01*
X139738187Y-91313700D01*
X139738187Y-91606594D01*
X139240506Y-91606594D01*
X139240506Y-91711369D01*
X139227409Y-91887449D01*
G37*
G36*
X139747580Y-102654006D02*
G01*
X139682890Y-102784181D01*
X139575072Y-102888956D01*
X139466353Y-102949380D01*
X139334268Y-102992541D01*
X139178817Y-103018437D01*
X139000000Y-103027069D01*
X138821183Y-103018586D01*
X138665732Y-102993136D01*
X138533647Y-102950720D01*
X138424928Y-102891338D01*
X138317110Y-102787092D01*
X138252420Y-102655329D01*
X138230856Y-102496050D01*
X138485650Y-102496050D01*
X138526131Y-102617494D01*
X138635669Y-102687741D01*
X138798784Y-102721078D01*
X138896118Y-102727329D01*
X139000000Y-102729413D01*
X139103584Y-102727329D01*
X139200025Y-102721078D01*
X139363141Y-102687741D01*
X139473869Y-102616303D01*
X139514350Y-102496050D01*
X139473869Y-102374606D01*
X139364331Y-102304359D01*
X139201216Y-102271022D01*
X139103882Y-102264771D01*
X139000000Y-102262688D01*
X138896416Y-102264771D01*
X138799975Y-102271022D01*
X138636859Y-102304359D01*
X138526131Y-102374606D01*
X138485650Y-102496050D01*
X138230856Y-102496050D01*
X138252420Y-102341533D01*
X138317110Y-102211358D01*
X138424928Y-102105525D01*
X138533647Y-102044059D01*
X138665732Y-102000155D01*
X138821183Y-101973812D01*
X139000000Y-101965031D01*
X139178817Y-101973589D01*
X139334268Y-101999262D01*
X139466353Y-102042050D01*
X139575072Y-102101953D01*
X139682890Y-102206860D01*
X139747580Y-102339020D01*
X139768822Y-102496050D01*
X139769144Y-102498431D01*
X139747580Y-102654006D01*
G37*
G36*
X138507081Y-90444544D02*
G01*
X139495300Y-90444544D01*
X139495300Y-90123075D01*
X139738187Y-90123075D01*
X139738187Y-91058906D01*
X139495300Y-91058906D01*
X139495300Y-90739819D01*
X138507081Y-90739819D01*
X138507081Y-91058906D01*
X138264194Y-91058906D01*
X138264194Y-90123075D01*
X138507081Y-90123075D01*
X138507081Y-90444544D01*
G37*
G36*
X139715566Y-97856184D02*
G01*
X139661690Y-97972568D01*
X139583406Y-98071688D01*
X139479524Y-98152352D01*
X139348853Y-98213372D01*
X139189607Y-98251770D01*
X139000000Y-98264569D01*
X138814560Y-98252960D01*
X138658291Y-98218134D01*
X138529108Y-98162473D01*
X138424928Y-98088356D01*
X138345454Y-97995785D01*
X138290387Y-97884759D01*
X138258241Y-97758255D01*
X138249544Y-97645444D01*
X138502319Y-97645444D01*
X138543991Y-97804988D01*
X138654719Y-97902619D01*
X138814262Y-97952625D01*
X139000000Y-97966913D01*
X139105073Y-97962448D01*
X139201216Y-97949053D01*
X139359569Y-97889522D01*
X139464344Y-97779984D01*
X139502444Y-97612106D01*
X139502444Y-97585913D01*
X139500062Y-97559719D01*
X138509462Y-97559719D01*
X138503509Y-97602581D01*
X138502319Y-97645444D01*
X138249544Y-97645444D01*
X138247525Y-97619250D01*
X138254669Y-97454944D01*
X138283244Y-97266825D01*
X139721519Y-97266825D01*
X139748903Y-97427559D01*
X139757237Y-97581150D01*
X139756892Y-97585913D01*
X139746820Y-97724918D01*
X139715566Y-97856184D01*
G37*
G36*
X138507081Y-99969544D02*
G01*
X139495300Y-99969544D01*
X139495300Y-99648075D01*
X139738187Y-99648075D01*
X139738187Y-100583906D01*
X139495300Y-100583906D01*
X139495300Y-100264819D01*
X138507081Y-100264819D01*
X138507081Y-100583906D01*
X138264194Y-100583906D01*
X138264194Y-99648075D01*
X138507081Y-99648075D01*
X138507081Y-99969544D01*
G37*
G36*
X139330101Y-96602159D02*
G01*
X139463153Y-96677466D01*
X139597991Y-96745629D01*
X139738187Y-96804863D01*
X139738187Y-97112044D01*
X139582216Y-97044178D01*
X139417909Y-96962025D01*
X139260747Y-96873919D01*
X139123825Y-96788194D01*
X139056555Y-96892373D01*
X138964281Y-96962025D01*
X138853553Y-97001316D01*
X138730919Y-97014413D01*
X138615130Y-97004590D01*
X138515416Y-96975122D01*
X138364206Y-96862013D01*
X138312414Y-96781050D01*
X138276100Y-96685800D01*
X138254669Y-96577453D01*
X138247525Y-96457200D01*
X138502319Y-96457200D01*
X138516011Y-96562570D01*
X138557087Y-96645319D01*
X138627334Y-96698897D01*
X138728537Y-96716756D01*
X138894034Y-96650081D01*
X138937790Y-96562570D01*
X138952375Y-96433388D01*
X138952375Y-96369094D01*
X138509462Y-96369094D01*
X138503509Y-96416719D01*
X138502319Y-96457200D01*
X138247525Y-96457200D01*
X138249906Y-96373856D01*
X138255859Y-96273844D01*
X138267766Y-96170259D01*
X138285625Y-96076200D01*
X139738187Y-96076200D01*
X139738187Y-96369094D01*
X139195262Y-96369094D01*
X139195262Y-96521494D01*
X139330101Y-96602159D01*
G37*
G36*
X139747580Y-93129006D02*
G01*
X139682890Y-93259181D01*
X139575072Y-93363956D01*
X139466353Y-93424380D01*
X139334268Y-93467541D01*
X139178817Y-93493437D01*
X139000000Y-93502069D01*
X138821183Y-93493586D01*
X138665732Y-93468136D01*
X138533647Y-93425720D01*
X138424928Y-93366338D01*
X138317110Y-93262092D01*
X138252420Y-93130329D01*
X138230856Y-92971050D01*
X138485650Y-92971050D01*
X138526131Y-93092494D01*
X138635669Y-93162741D01*
X138798784Y-93196078D01*
X138896118Y-93202329D01*
X139000000Y-93204413D01*
X139103584Y-93202329D01*
X139200025Y-93196078D01*
X139363141Y-93162741D01*
X139473869Y-93091303D01*
X139514350Y-92971050D01*
X139473869Y-92849606D01*
X139364331Y-92779359D01*
X139201216Y-92746022D01*
X139103882Y-92739771D01*
X139000000Y-92737688D01*
X138896416Y-92739771D01*
X138799975Y-92746022D01*
X138636859Y-92779359D01*
X138526131Y-92849606D01*
X138485650Y-92971050D01*
X138230856Y-92971050D01*
X138252420Y-92816533D01*
X138317110Y-92686358D01*
X138424928Y-92580525D01*
X138533647Y-92519059D01*
X138665732Y-92475155D01*
X138821183Y-92448812D01*
X139000000Y-92440031D01*
X139178817Y-92448589D01*
X139334268Y-92474262D01*
X139466353Y-92517050D01*
X139575072Y-92576953D01*
X139682890Y-92681860D01*
X139747580Y-92814020D01*
X139768822Y-92971050D01*
X139769144Y-92973431D01*
X139747580Y-93129006D01*
G37*
G36*
X95093903Y-82019144D02*
G01*
X94938328Y-81997580D01*
X94808153Y-81932890D01*
X94703378Y-81825072D01*
X94642954Y-81716353D01*
X94599794Y-81584268D01*
X94573898Y-81428817D01*
X94565266Y-81250000D01*
X94862922Y-81250000D01*
X94865005Y-81353584D01*
X94871256Y-81450025D01*
X94904594Y-81613141D01*
X94976031Y-81723869D01*
X95096284Y-81764350D01*
X95217728Y-81723869D01*
X95287975Y-81614331D01*
X95321312Y-81451216D01*
X95327563Y-81353882D01*
X95329647Y-81250000D01*
X95327563Y-81146416D01*
X95321312Y-81049975D01*
X95287975Y-80886859D01*
X95217728Y-80776131D01*
X95096284Y-80735650D01*
X94974841Y-80776131D01*
X94904594Y-80885669D01*
X94871256Y-81048784D01*
X94865005Y-81146118D01*
X94862922Y-81250000D01*
X94565266Y-81250000D01*
X94573749Y-81071183D01*
X94599198Y-80915732D01*
X94641614Y-80783647D01*
X94700997Y-80674928D01*
X94805243Y-80567110D01*
X94937005Y-80502420D01*
X95096284Y-80480856D01*
X95250801Y-80502420D01*
X95380976Y-80567110D01*
X95486809Y-80674928D01*
X95548275Y-80783647D01*
X95592180Y-80915732D01*
X95618522Y-81071183D01*
X95627303Y-81250000D01*
X95618746Y-81428817D01*
X95593073Y-81584268D01*
X95550285Y-81716353D01*
X95490381Y-81825072D01*
X95385474Y-81932890D01*
X95253315Y-81997580D01*
X95096284Y-82018822D01*
X95093903Y-82019144D01*
G37*
G36*
X98665778Y-82019144D02*
G01*
X98510203Y-81997580D01*
X98380028Y-81932890D01*
X98275253Y-81825072D01*
X98214829Y-81716353D01*
X98171669Y-81584268D01*
X98145773Y-81428817D01*
X98137141Y-81250000D01*
X98434797Y-81250000D01*
X98436880Y-81353584D01*
X98443131Y-81450025D01*
X98476469Y-81613141D01*
X98547906Y-81723869D01*
X98668159Y-81764350D01*
X98789603Y-81723869D01*
X98859850Y-81614331D01*
X98893187Y-81451216D01*
X98899438Y-81353882D01*
X98901522Y-81250000D01*
X98899438Y-81146416D01*
X98893187Y-81049975D01*
X98859850Y-80886859D01*
X98789603Y-80776131D01*
X98668159Y-80735650D01*
X98546716Y-80776131D01*
X98476469Y-80885669D01*
X98443131Y-81048784D01*
X98436880Y-81146118D01*
X98434797Y-81250000D01*
X98137141Y-81250000D01*
X98145624Y-81071183D01*
X98171073Y-80915732D01*
X98213489Y-80783647D01*
X98272872Y-80674928D01*
X98377118Y-80567110D01*
X98508880Y-80502420D01*
X98668159Y-80480856D01*
X98822676Y-80502420D01*
X98952851Y-80567110D01*
X99058684Y-80674928D01*
X99120150Y-80783647D01*
X99164055Y-80915732D01*
X99190397Y-81071183D01*
X99199178Y-81250000D01*
X99190621Y-81428817D01*
X99164948Y-81584268D01*
X99122160Y-81716353D01*
X99062256Y-81825072D01*
X98957349Y-81932890D01*
X98825190Y-81997580D01*
X98668159Y-82018822D01*
X98665778Y-82019144D01*
G37*
G36*
X94441441Y-80757081D02*
G01*
X94053297Y-80757081D01*
X94053297Y-81988187D01*
X93758022Y-81988187D01*
X93758022Y-80757081D01*
X93369878Y-80757081D01*
X93369878Y-80514194D01*
X94441441Y-80514194D01*
X94441441Y-80757081D01*
G37*
G36*
X92712653Y-82019144D02*
G01*
X92557078Y-81997580D01*
X92426903Y-81932890D01*
X92322128Y-81825072D01*
X92261704Y-81716353D01*
X92218544Y-81584268D01*
X92192648Y-81428817D01*
X92184016Y-81250000D01*
X92481672Y-81250000D01*
X92483755Y-81353584D01*
X92490006Y-81450025D01*
X92523344Y-81613141D01*
X92594781Y-81723869D01*
X92715034Y-81764350D01*
X92836478Y-81723869D01*
X92906725Y-81614331D01*
X92940062Y-81451216D01*
X92946313Y-81353882D01*
X92948397Y-81250000D01*
X92946313Y-81146416D01*
X92940062Y-81049975D01*
X92906725Y-80886859D01*
X92836478Y-80776131D01*
X92715034Y-80735650D01*
X92593591Y-80776131D01*
X92523344Y-80885669D01*
X92490006Y-81048784D01*
X92483755Y-81146118D01*
X92481672Y-81250000D01*
X92184016Y-81250000D01*
X92192499Y-81071183D01*
X92217948Y-80915732D01*
X92260364Y-80783647D01*
X92319747Y-80674928D01*
X92423993Y-80567110D01*
X92555755Y-80502420D01*
X92715034Y-80480856D01*
X92869551Y-80502420D01*
X92999726Y-80567110D01*
X93105559Y-80674928D01*
X93167025Y-80783647D01*
X93210930Y-80915732D01*
X93237272Y-81071183D01*
X93246053Y-81250000D01*
X93237496Y-81428817D01*
X93211823Y-81584268D01*
X93169035Y-81716353D01*
X93109131Y-81825072D01*
X93004224Y-81932890D01*
X92872065Y-81997580D01*
X92715034Y-82018822D01*
X92712653Y-82019144D01*
G37*
G36*
X96120222Y-80640400D02*
G01*
X96172609Y-80803516D01*
X96232141Y-80984491D01*
X96291672Y-81166656D01*
X96346441Y-80995206D01*
X96403591Y-80811850D01*
X96457169Y-80642781D01*
X96498841Y-80514194D01*
X96741728Y-80514194D01*
X96757504Y-80675523D01*
X96771494Y-80849950D01*
X96783698Y-81033902D01*
X96794116Y-81223806D01*
X96803343Y-81417283D01*
X96811975Y-81611950D01*
X96820012Y-81803641D01*
X96827453Y-81988187D01*
X96558372Y-81988187D01*
X96570278Y-80842806D01*
X96396447Y-81466694D01*
X96182134Y-81466694D01*
X96001159Y-80842806D01*
X96015447Y-81988187D01*
X95746366Y-81988187D01*
X95751723Y-81799771D01*
X95758272Y-81615522D01*
X95766309Y-81433952D01*
X95776131Y-81253572D01*
X95788037Y-81072895D01*
X95802325Y-80890431D01*
X95818101Y-80704694D01*
X95834472Y-80514194D01*
X96077359Y-80514194D01*
X96120222Y-80640400D01*
G37*
G36*
X90453508Y-80493821D02*
G01*
X90576936Y-80532715D01*
X90677875Y-80597537D01*
X90778780Y-80736841D01*
X90812416Y-80921387D01*
X90774316Y-81096409D01*
X90677875Y-81214281D01*
X90548097Y-81292862D01*
X90409984Y-81347631D01*
X90309972Y-81389303D01*
X90219484Y-81439309D01*
X90152809Y-81502412D01*
X90126616Y-81583375D01*
X90137331Y-81653622D01*
X90176622Y-81715534D01*
X90254012Y-81758397D01*
X90376647Y-81773875D01*
X90495412Y-81765541D01*
X90594531Y-81740537D01*
X90748122Y-81669100D01*
X90833847Y-81907225D01*
X90669541Y-81979853D01*
X90541548Y-82009321D01*
X90376647Y-82019144D01*
X90209562Y-82006576D01*
X90073434Y-81968873D01*
X89968262Y-81906034D01*
X89867357Y-81769410D01*
X89833722Y-81585756D01*
X89843842Y-81474730D01*
X89874203Y-81384541D01*
X89977787Y-81251191D01*
X90115900Y-81165466D01*
X90259966Y-81107125D01*
X90351644Y-81071406D01*
X90434987Y-81027353D01*
X90495709Y-80970203D01*
X90519522Y-80895194D01*
X90493593Y-80801267D01*
X90415805Y-80744910D01*
X90286159Y-80726125D01*
X90118281Y-80749937D01*
X89986122Y-80807087D01*
X89900397Y-80580869D01*
X90070656Y-80511812D01*
X90180491Y-80488595D01*
X90307591Y-80480856D01*
X90453508Y-80493821D01*
G37*
G36*
X100013566Y-80499906D02*
G01*
X100120722Y-80505859D01*
X100229069Y-80516575D01*
X100325509Y-80533244D01*
X100325509Y-81988187D01*
X100032616Y-81988187D01*
X100032616Y-81490506D01*
X99927841Y-81490506D01*
X99751760Y-81477409D01*
X99604520Y-81438119D01*
X99486119Y-81372634D01*
X99399468Y-81277781D01*
X99347477Y-81150384D01*
X99330147Y-80990444D01*
X99330406Y-80988062D01*
X99630184Y-80988062D01*
X99648044Y-81103851D01*
X99701622Y-81179753D01*
X99790323Y-81221723D01*
X99913553Y-81235712D01*
X100032616Y-81235712D01*
X100032616Y-80759462D01*
X99959987Y-80753509D01*
X99887359Y-80752319D01*
X99782287Y-80765713D01*
X99700431Y-80805897D01*
X99647746Y-80878227D01*
X99630184Y-80988062D01*
X99330406Y-80988062D01*
X99347345Y-80832091D01*
X99398939Y-80706281D01*
X99484928Y-80613016D01*
X99602139Y-80548854D01*
X99747395Y-80510357D01*
X99920697Y-80497525D01*
X100013566Y-80499906D01*
G37*
G36*
X91693478Y-80499906D02*
G01*
X91793491Y-80505859D01*
X91897075Y-80517766D01*
X91991134Y-80535625D01*
X91991134Y-81988187D01*
X91698241Y-81988187D01*
X91698241Y-81445262D01*
X91545841Y-81445262D01*
X91465176Y-81580101D01*
X91389869Y-81713153D01*
X91321705Y-81847991D01*
X91262472Y-81988187D01*
X90955291Y-81988187D01*
X91023156Y-81832216D01*
X91105309Y-81667909D01*
X91193416Y-81510747D01*
X91279141Y-81373825D01*
X91174961Y-81306555D01*
X91105309Y-81214281D01*
X91066019Y-81103553D01*
X91052922Y-80980919D01*
X91053124Y-80978537D01*
X91350578Y-80978537D01*
X91417253Y-81144034D01*
X91504764Y-81187790D01*
X91633947Y-81202375D01*
X91698241Y-81202375D01*
X91698241Y-80759462D01*
X91650616Y-80753509D01*
X91610134Y-80752319D01*
X91504764Y-80766011D01*
X91422016Y-80807087D01*
X91368437Y-80877334D01*
X91350578Y-80978537D01*
X91053124Y-80978537D01*
X91062745Y-80865130D01*
X91092212Y-80765416D01*
X91205322Y-80614206D01*
X91286284Y-80562414D01*
X91381534Y-80526100D01*
X91489881Y-80504669D01*
X91610134Y-80497525D01*
X91693478Y-80499906D01*
G37*
G36*
X101516134Y-80757081D02*
G01*
X101194666Y-80757081D01*
X101194666Y-81745300D01*
X101516134Y-81745300D01*
X101516134Y-81988187D01*
X100580303Y-81988187D01*
X100580303Y-81745300D01*
X100899391Y-81745300D01*
X100899391Y-80757081D01*
X100580303Y-80757081D01*
X100580303Y-80514194D01*
X101516134Y-80514194D01*
X101516134Y-80757081D01*
G37*
G36*
X102666278Y-81988187D02*
G01*
X101739972Y-81988187D01*
X101739972Y-81745300D01*
X102371003Y-81745300D01*
X102371003Y-80514194D01*
X102666278Y-80514194D01*
X102666278Y-81988187D01*
G37*
D13*
X141968000Y-117032000D02*
X145992000Y-117019500D01*
X145992000Y-120979500D02*
X145992000Y-117026250D01*
X141988000Y-113944000D02*
X146012000Y-113931500D01*
X141968000Y-117032000D02*
X141968000Y-120992000D01*
X146032000Y-113925750D02*
X146032000Y-109850250D01*
X141968000Y-109856000D02*
X141968000Y-113944000D01*
X141968000Y-120992000D02*
X145992000Y-120979500D01*
X145992000Y-109856000D02*
X141968000Y-109856000D01*
X99520000Y-79750000D02*
X99520000Y-73750000D01*
X99520000Y-73750000D02*
X93520000Y-73750000D01*
X93520000Y-73750000D02*
X93520000Y-79750000D01*
X93520000Y-79750000D02*
X99520000Y-79750000D01*
X85412000Y-126508000D02*
X85412000Y-130532000D01*
X89481750Y-126468000D02*
X85406250Y-126468000D01*
X92588000Y-130532000D02*
X92575500Y-126508000D01*
X85412000Y-130532000D02*
X89500000Y-130532000D01*
X92588000Y-130532000D02*
X96548000Y-130532000D01*
X96548000Y-130532000D02*
X96535500Y-126508000D01*
X89500000Y-130512000D02*
X89487500Y-126488000D01*
X96535500Y-126508000D02*
X92582250Y-126508000D01*
X141000000Y-98000000D02*
X141000000Y-104000000D01*
X141000000Y-104000000D02*
X147000000Y-104000000D01*
X141000000Y-88000000D02*
X141000000Y-94000000D01*
X147000000Y-98000000D02*
X141000000Y-98000000D01*
X147000000Y-104000000D02*
X147000000Y-98000000D01*
X141000000Y-94000000D02*
X147000000Y-94000000D01*
X147000000Y-94000000D02*
X147000000Y-88000000D01*
X147000000Y-88000000D02*
X141000000Y-88000000D01*
X82032000Y-98537750D02*
X82032000Y-94462250D01*
X77968000Y-101644000D02*
X77968000Y-105604000D01*
X77968000Y-105604000D02*
X81992000Y-105591500D01*
X77968000Y-101644000D02*
X81992000Y-101631500D01*
X77968000Y-94468000D02*
X77968000Y-98556000D01*
X81992000Y-105591500D02*
X81992000Y-101638250D01*
X77988000Y-98556000D02*
X82012000Y-98543500D01*
X81992000Y-94468000D02*
X77968000Y-94468000D01*
G36*
X130984066Y-102298723D02*
G01*
X130891876Y-102494105D01*
X130758194Y-102664954D01*
X130586851Y-102802688D01*
X130381679Y-102898728D01*
X130347068Y-102908480D01*
X130196487Y-102928371D01*
X130024173Y-102925526D01*
X129854777Y-102901457D01*
X129712948Y-102857679D01*
X129594709Y-102789297D01*
X129452821Y-102671032D01*
X129328360Y-102530745D01*
X129240032Y-102387052D01*
X129208320Y-102297534D01*
X129178685Y-102126962D01*
X129175554Y-102000000D01*
X129630716Y-102000000D01*
X129641275Y-102078815D01*
X129695281Y-102206773D01*
X129783680Y-102321530D01*
X129893571Y-102403291D01*
X129935894Y-102422904D01*
X130028827Y-102456143D01*
X130100000Y-102469284D01*
X130178816Y-102458725D01*
X130306774Y-102404719D01*
X130421531Y-102316320D01*
X130503291Y-102206429D01*
X130522905Y-102164106D01*
X130556144Y-102071173D01*
X130569285Y-102000000D01*
X130558726Y-101921184D01*
X130504720Y-101793226D01*
X130416321Y-101678469D01*
X130306430Y-101596709D01*
X130264107Y-101577095D01*
X130171174Y-101543856D01*
X130100000Y-101530715D01*
X130021185Y-101541274D01*
X129893227Y-101595280D01*
X129778470Y-101683679D01*
X129696709Y-101793570D01*
X129677096Y-101835893D01*
X129643857Y-101928826D01*
X129630716Y-102000000D01*
X129175554Y-102000000D01*
X129174092Y-101940742D01*
X129194541Y-101761770D01*
X129240032Y-101612947D01*
X129306126Y-101499961D01*
X129426093Y-101355700D01*
X129568108Y-101229316D01*
X129712948Y-101140031D01*
X129802466Y-101108319D01*
X129973038Y-101078684D01*
X130159258Y-101074091D01*
X130338230Y-101094540D01*
X130487053Y-101140031D01*
X130609452Y-101212740D01*
X130750380Y-101332017D01*
X130872315Y-101471010D01*
X130956745Y-101611152D01*
X130973356Y-101651181D01*
X131028638Y-101868680D01*
X131030015Y-102000000D01*
X131030931Y-102087388D01*
X130984066Y-102298723D01*
G37*
G36*
X127037867Y-98131279D02*
G01*
X127510029Y-98602792D01*
X127764796Y-98006303D01*
X127795716Y-97934566D01*
X127872087Y-97762807D01*
X127942964Y-97610665D01*
X128004131Y-97486796D01*
X128051371Y-97399852D01*
X128080468Y-97358487D01*
X128081864Y-97357334D01*
X128097561Y-97347313D01*
X128120878Y-97338716D01*
X128156068Y-97331434D01*
X128207384Y-97325360D01*
X128279080Y-97320385D01*
X128375409Y-97316401D01*
X128500624Y-97313299D01*
X128658980Y-97310972D01*
X128854728Y-97309310D01*
X129092123Y-97308207D01*
X129375419Y-97307552D01*
X129708868Y-97307239D01*
X130096724Y-97307159D01*
X130429839Y-97307262D01*
X130777795Y-97307704D01*
X131074561Y-97308575D01*
X131324205Y-97309962D01*
X131530797Y-97311951D01*
X131698404Y-97314629D01*
X131831096Y-97318081D01*
X131932941Y-97322394D01*
X132008008Y-97327656D01*
X132060365Y-97333951D01*
X132094081Y-97341367D01*
X132113225Y-97349990D01*
X132114137Y-97350661D01*
X132147051Y-97394471D01*
X132198287Y-97486846D01*
X132264956Y-97621944D01*
X132344171Y-97793922D01*
X132433042Y-97996938D01*
X132691711Y-98601055D01*
X133163003Y-98130411D01*
X133634296Y-97659767D01*
X133633958Y-97379831D01*
X134095696Y-97379831D01*
X134103912Y-97431812D01*
X134105375Y-97438097D01*
X134142706Y-97515272D01*
X134222713Y-97618343D01*
X134348217Y-97750992D01*
X134390656Y-97792680D01*
X134508213Y-97899121D01*
X134598749Y-97964150D01*
X134668188Y-97992234D01*
X134698826Y-97997383D01*
X134738322Y-97997895D01*
X134755870Y-97979135D01*
X134751890Y-97932157D01*
X134726798Y-97848021D01*
X134681013Y-97717782D01*
X134602194Y-97497806D01*
X134382218Y-97418987D01*
X134304446Y-97391337D01*
X134228213Y-97366129D01*
X135075381Y-97366129D01*
X135086386Y-97421145D01*
X135111735Y-97511721D01*
X135147930Y-97624723D01*
X135233797Y-97879099D01*
X135333684Y-97979135D01*
X135553389Y-98199168D01*
X136302755Y-98949653D01*
X136669977Y-98949653D01*
X136669977Y-98582430D01*
X135599423Y-97513472D01*
X135345047Y-97427606D01*
X135286289Y-97408283D01*
X135182913Y-97377100D01*
X135108561Y-97358521D01*
X135076367Y-97356043D01*
X135075381Y-97366129D01*
X134228213Y-97366129D01*
X134198630Y-97356347D01*
X134134362Y-97342498D01*
X134102949Y-97350193D01*
X134095696Y-97379831D01*
X133633958Y-97379831D01*
X133633872Y-97308222D01*
X133633448Y-96956676D01*
X133157255Y-96477309D01*
X132681063Y-95997943D01*
X132681063Y-95797245D01*
X133150347Y-95797245D01*
X134220901Y-96866203D01*
X134475277Y-96952070D01*
X134534036Y-96971393D01*
X134637411Y-97002576D01*
X134711763Y-97021155D01*
X134743957Y-97023633D01*
X134744943Y-97013547D01*
X134733938Y-96958530D01*
X134708589Y-96867955D01*
X134675552Y-96764811D01*
X135175201Y-96764811D01*
X135186618Y-96808273D01*
X135232795Y-96867205D01*
X135284501Y-96906267D01*
X135340938Y-96925866D01*
X135362467Y-96920474D01*
X135354989Y-96894015D01*
X135306121Y-96837875D01*
X135286236Y-96817779D01*
X135231454Y-96769283D01*
X135197977Y-96749884D01*
X135175201Y-96764811D01*
X134675552Y-96764811D01*
X134672394Y-96754953D01*
X134586528Y-96500577D01*
X133517570Y-95430023D01*
X133150347Y-95430023D01*
X133150347Y-95797245D01*
X132681063Y-95797245D01*
X132681063Y-95551333D01*
X132681147Y-95447703D01*
X132682283Y-95305380D01*
X132685883Y-95205832D01*
X132693354Y-95138927D01*
X132706101Y-95094531D01*
X132725533Y-95062510D01*
X132753055Y-95032731D01*
X132770361Y-95015957D01*
X132800164Y-94993230D01*
X132837987Y-94977787D01*
X132893957Y-94968221D01*
X132978203Y-94963127D01*
X133100853Y-94961102D01*
X133272035Y-94960739D01*
X133719022Y-94960739D01*
X134307260Y-95545872D01*
X134386311Y-95624431D01*
X134544215Y-95780452D01*
X134668947Y-95901565D01*
X134766154Y-95992543D01*
X134841484Y-96058158D01*
X134900586Y-96103181D01*
X134949108Y-96132384D01*
X134992698Y-96150541D01*
X135037003Y-96162422D01*
X135119570Y-96184188D01*
X135349457Y-96283263D01*
X135554084Y-96428564D01*
X135725568Y-96612208D01*
X135856027Y-96826313D01*
X135888471Y-96920474D01*
X135920540Y-97013547D01*
X135937578Y-97062997D01*
X135942198Y-97082394D01*
X135956178Y-97125702D01*
X135978475Y-97170710D01*
X136013860Y-97223065D01*
X136067105Y-97288416D01*
X136142982Y-97372411D01*
X136246264Y-97480698D01*
X136381722Y-97618925D01*
X136554128Y-97792740D01*
X137139261Y-98380978D01*
X137139261Y-98827965D01*
X137139176Y-98932200D01*
X137139036Y-98949653D01*
X137138036Y-99074442D01*
X137134432Y-99173933D01*
X137126958Y-99240801D01*
X137114209Y-99285173D01*
X137094781Y-99317178D01*
X137067269Y-99346945D01*
X137050040Y-99363648D01*
X137020233Y-99386403D01*
X136982431Y-99401866D01*
X136926501Y-99411444D01*
X136842309Y-99416545D01*
X136719723Y-99418573D01*
X136548610Y-99418937D01*
X136101944Y-99418937D01*
X135616042Y-98940313D01*
X135130139Y-98461689D01*
X134784288Y-98465128D01*
X134438436Y-98468568D01*
X133677070Y-99229511D01*
X132915705Y-99990454D01*
X132915705Y-104009545D01*
X133677070Y-104770488D01*
X134438436Y-105531431D01*
X134784288Y-105534871D01*
X135130139Y-105538311D01*
X135616042Y-105059686D01*
X136101944Y-104581062D01*
X136548610Y-104581062D01*
X136652331Y-104581147D01*
X136794642Y-104582283D01*
X136894181Y-104585884D01*
X136961081Y-104593355D01*
X137005473Y-104606102D01*
X137037492Y-104625533D01*
X137067269Y-104653054D01*
X137084043Y-104670360D01*
X137106770Y-104700163D01*
X137122213Y-104737986D01*
X137131779Y-104793956D01*
X137136873Y-104878203D01*
X137138898Y-105000852D01*
X137139261Y-105172034D01*
X137139261Y-105619021D01*
X136554128Y-106207259D01*
X136475569Y-106286310D01*
X136319548Y-106444214D01*
X136198435Y-106568946D01*
X136107457Y-106666153D01*
X136041842Y-106741483D01*
X135996819Y-106800585D01*
X135967616Y-106849107D01*
X135949459Y-106892697D01*
X135937578Y-106937003D01*
X135927201Y-106976366D01*
X135915812Y-107019569D01*
X135887801Y-107084563D01*
X135816737Y-107249456D01*
X135671436Y-107454083D01*
X135487792Y-107625567D01*
X135273687Y-107756026D01*
X135037003Y-107837577D01*
X135017606Y-107842197D01*
X134974298Y-107856177D01*
X134929290Y-107878474D01*
X134876935Y-107913859D01*
X134811584Y-107967104D01*
X134727589Y-108042981D01*
X134619302Y-108146263D01*
X134481075Y-108281721D01*
X134307260Y-108454127D01*
X133719022Y-109039261D01*
X133272035Y-109039261D01*
X133167800Y-109039175D01*
X133025558Y-109038035D01*
X132926067Y-109034431D01*
X132859199Y-109026957D01*
X132814827Y-109014208D01*
X132782822Y-108994780D01*
X132753055Y-108967268D01*
X132736364Y-108950053D01*
X132713605Y-108920245D01*
X132698138Y-108882447D01*
X132688558Y-108826523D01*
X132683456Y-108742341D01*
X132681427Y-108619767D01*
X132681321Y-108569976D01*
X133150347Y-108569976D01*
X133517570Y-108569976D01*
X134586528Y-107499422D01*
X134672394Y-107245046D01*
X134675550Y-107235450D01*
X135174134Y-107235450D01*
X135174135Y-107236453D01*
X135176664Y-107268405D01*
X135190619Y-107272332D01*
X135225662Y-107243404D01*
X135291455Y-107176789D01*
X135342540Y-107120180D01*
X135361552Y-107084563D01*
X135341204Y-107074133D01*
X135317316Y-107078314D01*
X135252840Y-107116209D01*
X135197578Y-107175863D01*
X135174134Y-107235450D01*
X134675550Y-107235450D01*
X134691717Y-107186288D01*
X134722900Y-107082912D01*
X134741479Y-107008560D01*
X134743957Y-106976366D01*
X134733871Y-106975380D01*
X134678855Y-106986385D01*
X134588279Y-107011734D01*
X134475277Y-107047929D01*
X134220901Y-107133796D01*
X133150347Y-108202754D01*
X133150347Y-108569976D01*
X132681321Y-108569976D01*
X132681063Y-108448666D01*
X132681063Y-108002056D01*
X133157004Y-107522942D01*
X133632946Y-107043828D01*
X133634347Y-106692754D01*
X133634561Y-106638976D01*
X134097152Y-106638976D01*
X134116417Y-106656674D01*
X134164554Y-106652645D01*
X134191984Y-106644530D01*
X135080833Y-106644530D01*
X135090796Y-106644998D01*
X135146458Y-106633421D01*
X135237455Y-106607614D01*
X135350116Y-106571296D01*
X135599423Y-106486749D01*
X136669977Y-105417569D01*
X136669977Y-105050346D01*
X136302755Y-105050346D01*
X135558075Y-105796138D01*
X135320207Y-106034361D01*
X135233797Y-106120900D01*
X135147327Y-106377059D01*
X135127431Y-106438009D01*
X135097435Y-106540635D01*
X135080837Y-106613763D01*
X135080833Y-106644530D01*
X134191984Y-106644530D01*
X134250256Y-106627291D01*
X134382218Y-106581012D01*
X134602194Y-106502194D01*
X134681013Y-106282217D01*
X134708663Y-106204445D01*
X134743653Y-106098629D01*
X134757502Y-106034361D01*
X134749807Y-106002948D01*
X134720169Y-105995696D01*
X134668188Y-106003911D01*
X134603424Y-106032810D01*
X134510022Y-106099327D01*
X134404873Y-106190736D01*
X134299833Y-106295181D01*
X134206757Y-106400808D01*
X134137498Y-106495761D01*
X134103912Y-106568187D01*
X134098065Y-106599151D01*
X134097152Y-106638976D01*
X133634561Y-106638976D01*
X133635747Y-106341680D01*
X133163231Y-105869815D01*
X132690715Y-105397949D01*
X132431532Y-106003273D01*
X132419650Y-106030943D01*
X132334115Y-106225158D01*
X132257413Y-106390714D01*
X132192734Y-106521139D01*
X132143270Y-106609964D01*
X132112212Y-106650719D01*
X132106039Y-106654630D01*
X132064170Y-106669937D01*
X131994992Y-106680830D01*
X131890677Y-106687890D01*
X131743397Y-106691700D01*
X131545322Y-106692840D01*
X131038569Y-106692840D01*
X131038569Y-106972811D01*
X131037739Y-107089528D01*
X131033018Y-107182869D01*
X131021508Y-107243784D01*
X131000322Y-107286384D01*
X130966576Y-107324774D01*
X130894584Y-107396766D01*
X129305417Y-107396766D01*
X129233425Y-107324774D01*
X129203625Y-107291747D01*
X129180837Y-107250600D01*
X129168133Y-107193134D01*
X129162627Y-107105240D01*
X129161432Y-106972811D01*
X129161432Y-106927482D01*
X129630716Y-106927482D01*
X130569285Y-106927482D01*
X130569285Y-106692840D01*
X129630716Y-106692840D01*
X129630716Y-106927482D01*
X129161432Y-106927482D01*
X129161432Y-106692840D01*
X128654679Y-106692840D01*
X128634941Y-106692831D01*
X128439727Y-106691392D01*
X128295018Y-106687111D01*
X128193356Y-106679446D01*
X128127281Y-106667857D01*
X128089336Y-106651802D01*
X128082735Y-106645483D01*
X128047452Y-106591579D01*
X127994820Y-106493061D01*
X127928531Y-106357407D01*
X127852279Y-106192098D01*
X127769758Y-106004615D01*
X127508770Y-105398465D01*
X127036512Y-105870072D01*
X126564254Y-106341680D01*
X126565365Y-106620168D01*
X126565654Y-106692754D01*
X126567055Y-107043828D01*
X127042997Y-107522942D01*
X127518938Y-108002056D01*
X127518938Y-108448666D01*
X127518854Y-108552296D01*
X127518713Y-108569976D01*
X127517717Y-108694620D01*
X127514118Y-108794167D01*
X127506647Y-108861072D01*
X127493900Y-108905468D01*
X127474468Y-108937489D01*
X127446946Y-108967268D01*
X127429640Y-108984042D01*
X127399837Y-109006769D01*
X127362014Y-109022212D01*
X127306044Y-109031778D01*
X127221797Y-109036872D01*
X127099148Y-109038897D01*
X126927966Y-109039261D01*
X126480979Y-109039261D01*
X125892741Y-108454127D01*
X125813690Y-108375569D01*
X125655786Y-108219547D01*
X125531054Y-108098434D01*
X125433847Y-108007456D01*
X125358517Y-107941841D01*
X125299415Y-107896818D01*
X125250893Y-107867615D01*
X125207303Y-107849459D01*
X125162997Y-107837577D01*
X125080431Y-107815811D01*
X124850544Y-107716736D01*
X124645917Y-107571435D01*
X124474433Y-107387791D01*
X124343974Y-107173686D01*
X124312362Y-107081940D01*
X124838929Y-107081940D01*
X124852687Y-107113944D01*
X124908545Y-107176789D01*
X124910433Y-107178737D01*
X124975429Y-107244451D01*
X125009892Y-107272587D01*
X125023483Y-107267976D01*
X125025867Y-107235450D01*
X125021537Y-107212384D01*
X124982290Y-107150128D01*
X124920508Y-107096770D01*
X124858796Y-107074133D01*
X124838929Y-107081940D01*
X124312362Y-107081940D01*
X124279461Y-106986452D01*
X125455058Y-106986452D01*
X125466063Y-107041469D01*
X125491412Y-107132044D01*
X125524533Y-107235450D01*
X125527607Y-107245046D01*
X125613473Y-107499422D01*
X126682431Y-108569976D01*
X127049654Y-108569976D01*
X127049654Y-108202754D01*
X125979100Y-107133796D01*
X125724724Y-107047929D01*
X125665965Y-107028606D01*
X125562589Y-106997423D01*
X125488238Y-106978844D01*
X125456044Y-106976366D01*
X125455058Y-106986452D01*
X124279461Y-106986452D01*
X124262423Y-106937003D01*
X124257803Y-106917605D01*
X124243823Y-106874297D01*
X124221526Y-106829289D01*
X124186141Y-106776934D01*
X124132896Y-106711583D01*
X124057019Y-106627588D01*
X123953737Y-106519301D01*
X123818279Y-106381074D01*
X123645873Y-106207259D01*
X123060739Y-105619021D01*
X123060739Y-105417569D01*
X123530024Y-105417569D01*
X124600578Y-106486527D01*
X124854954Y-106572393D01*
X124913712Y-106591716D01*
X125017088Y-106622899D01*
X125091440Y-106641478D01*
X125123634Y-106643956D01*
X125124620Y-106633870D01*
X125113615Y-106578854D01*
X125088266Y-106488278D01*
X125052071Y-106375276D01*
X124966204Y-106120900D01*
X124861876Y-106016416D01*
X125443326Y-106016416D01*
X125447355Y-106064553D01*
X125472709Y-106150255D01*
X125518988Y-106282217D01*
X125597806Y-106502194D01*
X125817783Y-106581012D01*
X125895555Y-106608662D01*
X125971788Y-106633870D01*
X126001371Y-106643652D01*
X126065639Y-106657501D01*
X126097052Y-106649806D01*
X126104304Y-106620168D01*
X126096089Y-106568187D01*
X126094863Y-106562835D01*
X126057774Y-106485457D01*
X125977626Y-106381735D01*
X125851784Y-106248216D01*
X125839471Y-106235955D01*
X125708559Y-106114010D01*
X125607157Y-106037540D01*
X125531813Y-106003911D01*
X125500849Y-105998064D01*
X125461024Y-105997151D01*
X125443326Y-106016416D01*
X124861876Y-106016416D01*
X124646612Y-105800831D01*
X126167749Y-105800831D01*
X126235818Y-105864778D01*
X126303887Y-105928726D01*
X126803096Y-105423543D01*
X126882493Y-105343168D01*
X127020331Y-105202987D01*
X127123831Y-105095678D01*
X127197677Y-105015269D01*
X127246550Y-104955788D01*
X127275133Y-104911263D01*
X127288109Y-104875723D01*
X127290160Y-104843196D01*
X127285968Y-104807709D01*
X127278320Y-104755911D01*
X127753580Y-104755911D01*
X127791013Y-104843196D01*
X128068290Y-105489734D01*
X128383000Y-106223556D01*
X131819085Y-106223556D01*
X132132753Y-105490030D01*
X132371303Y-104932169D01*
X132899571Y-104932169D01*
X133400213Y-105432198D01*
X133900855Y-105932226D01*
X134028703Y-105796138D01*
X132922557Y-104691142D01*
X132916324Y-104756503D01*
X132911064Y-104811655D01*
X132899571Y-104932169D01*
X132371303Y-104932169D01*
X132446421Y-104756503D01*
X132446421Y-99239542D01*
X132410980Y-99156803D01*
X132909841Y-99156803D01*
X132914033Y-99192290D01*
X132930370Y-99302941D01*
X133481311Y-98751055D01*
X134032252Y-98199168D01*
X133964183Y-98135221D01*
X133896114Y-98071273D01*
X133396905Y-98576456D01*
X133317508Y-98656831D01*
X133179670Y-98797012D01*
X133076170Y-98904321D01*
X133002324Y-98984730D01*
X132953451Y-99044211D01*
X132924868Y-99088736D01*
X132911892Y-99124276D01*
X132909841Y-99156803D01*
X132410980Y-99156803D01*
X132133067Y-98507993D01*
X131819714Y-97776443D01*
X128379250Y-97776443D01*
X128066415Y-98507838D01*
X127826893Y-99067830D01*
X127753580Y-99239234D01*
X127753580Y-104755911D01*
X127278320Y-104755911D01*
X127269631Y-104697058D01*
X126718690Y-105248944D01*
X126167749Y-105800831D01*
X124646612Y-105800831D01*
X123897246Y-105050346D01*
X123530024Y-105050346D01*
X123530024Y-105417569D01*
X123060739Y-105417569D01*
X123060739Y-105172034D01*
X123060825Y-105067799D01*
X123061965Y-104925557D01*
X123065569Y-104826066D01*
X123073043Y-104759198D01*
X123085792Y-104714826D01*
X123105220Y-104682821D01*
X123132732Y-104653054D01*
X123149961Y-104636351D01*
X123179768Y-104613596D01*
X123217570Y-104598133D01*
X123273500Y-104588555D01*
X123357692Y-104583454D01*
X123480278Y-104581426D01*
X123651391Y-104581062D01*
X124098057Y-104581062D01*
X124583959Y-105059550D01*
X125069862Y-105538039D01*
X125414499Y-105535949D01*
X125759135Y-105533860D01*
X126521716Y-104771702D01*
X127284296Y-104009545D01*
X127284296Y-99990454D01*
X126521716Y-99228297D01*
X125759135Y-98466139D01*
X125414499Y-98464050D01*
X125069862Y-98461960D01*
X124583959Y-98940449D01*
X124098057Y-99418937D01*
X123651391Y-99418937D01*
X123547670Y-99418853D01*
X123405359Y-99417716D01*
X123305820Y-99414115D01*
X123238920Y-99406644D01*
X123194528Y-99393897D01*
X123162509Y-99374466D01*
X123132732Y-99346945D01*
X123115958Y-99329639D01*
X123093231Y-99299836D01*
X123077788Y-99262013D01*
X123068222Y-99206043D01*
X123063128Y-99121797D01*
X123061103Y-98999147D01*
X123060998Y-98949653D01*
X123530024Y-98949653D01*
X123897246Y-98949653D01*
X124641927Y-98203861D01*
X126171298Y-98203861D01*
X127277444Y-99308857D01*
X127288937Y-99188344D01*
X127300430Y-99067830D01*
X126799788Y-98567801D01*
X126299146Y-98067773D01*
X126171298Y-98203861D01*
X124641927Y-98203861D01*
X124866036Y-97979417D01*
X125438224Y-97979417D01*
X125448595Y-98001368D01*
X125488099Y-98004677D01*
X125570501Y-97991081D01*
X125580857Y-97987984D01*
X125644072Y-97949052D01*
X125728888Y-97877301D01*
X125824418Y-97784317D01*
X125919777Y-97681688D01*
X126004076Y-97581003D01*
X126066428Y-97493849D01*
X126095948Y-97431812D01*
X126101844Y-97400827D01*
X126102815Y-97361008D01*
X126083582Y-97343314D01*
X126035457Y-97347347D01*
X126006067Y-97356043D01*
X125949753Y-97372705D01*
X125817783Y-97418987D01*
X125597806Y-97497806D01*
X125518988Y-97717782D01*
X125510051Y-97742928D01*
X125474202Y-97848310D01*
X125448611Y-97930834D01*
X125438330Y-97974422D01*
X125438224Y-97979417D01*
X124866036Y-97979417D01*
X124966204Y-97879099D01*
X125052071Y-97624723D01*
X125071394Y-97565964D01*
X125102577Y-97462589D01*
X125121156Y-97388237D01*
X125123634Y-97356043D01*
X125113548Y-97355057D01*
X125058531Y-97366062D01*
X124967956Y-97391411D01*
X124854954Y-97427606D01*
X124600578Y-97513472D01*
X123530024Y-98582430D01*
X123530024Y-98949653D01*
X123060998Y-98949653D01*
X123060739Y-98827965D01*
X123060739Y-98380978D01*
X123645873Y-97792740D01*
X123724431Y-97713689D01*
X123880453Y-97555785D01*
X124001566Y-97431053D01*
X124092544Y-97333846D01*
X124158159Y-97258516D01*
X124203182Y-97199414D01*
X124232385Y-97150892D01*
X124250541Y-97107302D01*
X124262423Y-97062997D01*
X124272649Y-97024207D01*
X125460510Y-97024207D01*
X125470473Y-97024675D01*
X125526135Y-97013097D01*
X125617131Y-96987291D01*
X125729793Y-96950972D01*
X125979100Y-96866426D01*
X126514377Y-96331835D01*
X127049654Y-95797245D01*
X127049654Y-95430023D01*
X126682431Y-95430023D01*
X125613473Y-96500577D01*
X125527004Y-96756736D01*
X125526332Y-96758796D01*
X125507107Y-96817685D01*
X125477112Y-96920312D01*
X125460514Y-96993439D01*
X125460510Y-97024207D01*
X124272649Y-97024207D01*
X124284189Y-96980430D01*
X124311545Y-96916954D01*
X124820555Y-96916954D01*
X124825410Y-96921011D01*
X124864550Y-96925866D01*
X124887616Y-96921536D01*
X124949872Y-96882289D01*
X125003230Y-96820507D01*
X125025867Y-96758796D01*
X125018060Y-96738928D01*
X124986056Y-96752687D01*
X124923211Y-96808545D01*
X124888338Y-96842877D01*
X124839660Y-96893274D01*
X124820555Y-96916954D01*
X124311545Y-96916954D01*
X124383264Y-96750543D01*
X124528565Y-96545916D01*
X124712209Y-96374432D01*
X124926314Y-96243973D01*
X125162997Y-96162422D01*
X125182395Y-96157802D01*
X125225703Y-96143822D01*
X125270711Y-96121525D01*
X125323066Y-96086140D01*
X125388417Y-96032895D01*
X125472412Y-95957018D01*
X125580699Y-95853736D01*
X125718926Y-95718278D01*
X125892741Y-95545872D01*
X126480979Y-94960739D01*
X126927966Y-94960739D01*
X127032201Y-94960824D01*
X127174443Y-94961964D01*
X127273934Y-94965568D01*
X127340802Y-94973042D01*
X127385174Y-94985791D01*
X127417179Y-95005219D01*
X127446946Y-95032731D01*
X127463637Y-95049946D01*
X127486396Y-95079754D01*
X127501863Y-95117552D01*
X127511443Y-95173476D01*
X127516545Y-95257658D01*
X127518574Y-95380232D01*
X127518938Y-95551333D01*
X127518938Y-95997943D01*
X127042746Y-96477309D01*
X126566553Y-96956676D01*
X126566129Y-97308222D01*
X126566065Y-97361008D01*
X126565705Y-97659767D01*
X127037867Y-98131279D01*
G37*
X129644000Y-80892000D02*
X129644000Y-76868000D01*
X125574250Y-80932000D02*
X129649750Y-80932000D01*
X122468000Y-76868000D02*
X122480500Y-80892000D01*
X122468000Y-76868000D02*
X118508000Y-76868000D01*
X129644000Y-76868000D02*
X125556000Y-76868000D01*
X118520500Y-80892000D02*
X122473750Y-80892000D01*
X125556000Y-76888000D02*
X125568500Y-80912000D01*
X118508000Y-76868000D02*
X118520500Y-80892000D01*
%LPC*%
D14*
X77740000Y-77500000D03*
D15*
X97047000Y-113596000D03*
D16*
X94507000Y-113596000D03*
D17*
X91967000Y-113596000D03*
D18*
X104920000Y-105000000D03*
D19*
X115080000Y-105000000D03*
D20*
X124727013Y-123240000D03*
D17*
X124727013Y-125780000D03*
X139332013Y-113080000D03*
X136792013Y-113080000D03*
X134252013Y-113080000D03*
X131712013Y-113080000D03*
X129172013Y-113080000D03*
X126632013Y-113080000D03*
D18*
X104920000Y-116500000D03*
D19*
X115080000Y-116500000D03*
D20*
X102385000Y-88000000D03*
D17*
X102385000Y-90540000D03*
X102385000Y-93080000D03*
X102385000Y-95620000D03*
X102385000Y-98160000D03*
X102385000Y-100700000D03*
X102385000Y-103240000D03*
X102385000Y-105780000D03*
X102385000Y-108320000D03*
X102385000Y-110860000D03*
X102385000Y-113400000D03*
X102385000Y-115940000D03*
X102385000Y-118480000D03*
X102385000Y-121020000D03*
X102385000Y-123560000D03*
X117625000Y-123560000D03*
X117625000Y-121020000D03*
X117625000Y-118480000D03*
X117625000Y-115940000D03*
X117625000Y-113400000D03*
X117625000Y-110860000D03*
X117625000Y-108320000D03*
X117625000Y-105780000D03*
X117625000Y-103240000D03*
X117625000Y-100700000D03*
X117625000Y-98160000D03*
X117625000Y-95620000D03*
X117625000Y-93080000D03*
X117625000Y-90540000D03*
X117625000Y-88000000D03*
D18*
X104920000Y-94400000D03*
D19*
X115080000Y-94400000D03*
D21*
X88040000Y-76250000D03*
D22*
X85500000Y-76250000D03*
D23*
X78140000Y-90000000D03*
D16*
X75600000Y-90000000D03*
D24*
X137000000Y-122182380D03*
D18*
X137000000Y-119682380D03*
D21*
X137740000Y-76250000D03*
D22*
X135200000Y-76250000D03*
D18*
X104920000Y-89300000D03*
D19*
X115080000Y-89300000D03*
D14*
X145740000Y-77500000D03*
X145740000Y-128500000D03*
D23*
X78140000Y-86000000D03*
D16*
X75600000Y-86000000D03*
D15*
X84455000Y-119750000D03*
D16*
X81915000Y-119750000D03*
D17*
X79375000Y-119750000D03*
D15*
X97070000Y-119725000D03*
D16*
X94530000Y-119725000D03*
D17*
X91990000Y-119725000D03*
D14*
X77740000Y-128500000D03*
D18*
X104920000Y-99500000D03*
D19*
X115080000Y-99500000D03*
D18*
X104920000Y-110500000D03*
D19*
X115080000Y-110500000D03*
D23*
X95505290Y-104315290D03*
D17*
X95505290Y-101775290D03*
X95505290Y-99235290D03*
X95505290Y-96695290D03*
X95505290Y-94155290D03*
X95505290Y-91615290D03*
X95505290Y-89075290D03*
X95505290Y-86535290D03*
D15*
X84400000Y-113600000D03*
D16*
X81860000Y-113600000D03*
D17*
X79320000Y-113600000D03*
D25*
X144000000Y-111888000D03*
X144000000Y-119000000D03*
D26*
X96520000Y-76750000D03*
D27*
X87444000Y-128500000D03*
X94556000Y-128500000D03*
D28*
X144000000Y-91000000D03*
X144000000Y-101000000D03*
D25*
X80000000Y-96500000D03*
X80000000Y-103612000D03*
D29*
X127612000Y-78900000D03*
X120500000Y-78900000D03*
M02*
