G04 #@! TF.GenerationSoftware,KiCad,Pcbnew,(6.0.10)*
G04 #@! TF.CreationDate,2023-05-01T22:11:39-04:00*
G04 #@! TF.ProjectId,MiniCopterSchematic,4d696e69-436f-4707-9465-72536368656d,v01*
G04 #@! TF.SameCoordinates,Original*
G04 #@! TF.FileFunction,Legend,Bot*
G04 #@! TF.FilePolarity,Positive*
%FSLAX46Y46*%
G04 Gerber Fmt 4.6, Leading zero omitted, Abs format (unit mm)*
G04 Created by KiCad (PCBNEW (6.0.10)) date 2023-05-01 22:11:39*
%MOMM*%
%LPD*%
G01*
G04 APERTURE LIST*
G04 Aperture macros list*
%AMRoundRect*
0 Rectangle with rounded corners*
0 $1 Rounding radius*
0 $2 $3 $4 $5 $6 $7 $8 $9 X,Y pos of 4 corners*
0 Add a 4 corners polygon primitive as box body*
4,1,4,$2,$3,$4,$5,$6,$7,$8,$9,$2,$3,0*
0 Add four circle primitives for the rounded corners*
1,1,$1+$1,$2,$3*
1,1,$1+$1,$4,$5*
1,1,$1+$1,$6,$7*
1,1,$1+$1,$8,$9*
0 Add four rect primitives between the rounded corners*
20,1,$1+$1,$2,$3,$4,$5,0*
20,1,$1+$1,$4,$5,$6,$7,0*
20,1,$1+$1,$6,$7,$8,$9,0*
20,1,$1+$1,$8,$9,$2,$3,0*%
G04 Aperture macros list end*
%ADD10C,0.300000*%
%ADD11C,0.200000*%
%ADD12C,0.250000*%
%ADD13C,0.120000*%
%ADD14C,6.500000*%
%ADD15RoundRect,0.050000X0.850000X-0.850000X0.850000X0.850000X-0.850000X0.850000X-0.850000X-0.850000X0*%
%ADD16O,1.800000X1.800000*%
%ADD17C,1.800000*%
%ADD18C,1.700000*%
%ADD19O,1.700000X1.700000*%
%ADD20RoundRect,0.050000X-0.850000X-0.850000X0.850000X-0.850000X0.850000X0.850000X-0.850000X0.850000X0*%
%ADD21RoundRect,0.050000X0.900000X0.900000X-0.900000X0.900000X-0.900000X-0.900000X0.900000X-0.900000X0*%
%ADD22C,1.900000*%
%ADD23RoundRect,0.050000X-0.850000X0.850000X-0.850000X-0.850000X0.850000X-0.850000X0.850000X0.850000X0*%
%ADD24RoundRect,0.050000X0.800000X-0.800000X0.800000X0.800000X-0.800000X0.800000X-0.800000X-0.800000X0*%
%ADD25RoundRect,0.050000X-1.500000X1.500000X-1.500000X-1.500000X1.500000X-1.500000X1.500000X1.500000X0*%
%ADD26RoundRect,0.050000X-2.500000X-2.500000X2.500000X-2.500000X2.500000X2.500000X-2.500000X2.500000X0*%
%ADD27RoundRect,0.050000X-1.500000X-1.500000X1.500000X-1.500000X1.500000X1.500000X-1.500000X1.500000X0*%
%ADD28RoundRect,0.050000X-2.500000X2.500000X-2.500000X-2.500000X2.500000X-2.500000X2.500000X2.500000X0*%
G04 APERTURE END LIST*
D10*
X140704761Y-129388095D02*
X140704761Y-130316666D01*
X140766666Y-130502380D01*
X140890476Y-130626190D01*
X141076190Y-130688095D01*
X141200000Y-130688095D01*
X139466666Y-130688095D02*
X140085714Y-130688095D01*
X140085714Y-129388095D01*
X138290476Y-130564285D02*
X138352380Y-130626190D01*
X138538095Y-130688095D01*
X138661904Y-130688095D01*
X138847619Y-130626190D01*
X138971428Y-130502380D01*
X139033333Y-130378571D01*
X139095238Y-130130952D01*
X139095238Y-129945238D01*
X139033333Y-129697619D01*
X138971428Y-129573809D01*
X138847619Y-129450000D01*
X138661904Y-129388095D01*
X138538095Y-129388095D01*
X138352380Y-129450000D01*
X138290476Y-129511904D01*
X137361904Y-129388095D02*
X137361904Y-130316666D01*
X137423809Y-130502380D01*
X137547619Y-130626190D01*
X137733333Y-130688095D01*
X137857142Y-130688095D01*
X136123809Y-130688095D02*
X136742857Y-130688095D01*
X136742857Y-129388095D01*
X134947619Y-130564285D02*
X135009523Y-130626190D01*
X135195238Y-130688095D01*
X135319047Y-130688095D01*
X135504761Y-130626190D01*
X135628571Y-130502380D01*
X135690476Y-130378571D01*
X135752380Y-130130952D01*
X135752380Y-129945238D01*
X135690476Y-129697619D01*
X135628571Y-129573809D01*
X135504761Y-129450000D01*
X135319047Y-129388095D01*
X135195238Y-129388095D01*
X135009523Y-129450000D01*
X134947619Y-129511904D01*
X134019047Y-129388095D02*
X134019047Y-130316666D01*
X134080952Y-130502380D01*
X134204761Y-130626190D01*
X134390476Y-130688095D01*
X134514285Y-130688095D01*
X132780952Y-130688095D02*
X133400000Y-130688095D01*
X133400000Y-129388095D01*
X131604761Y-130564285D02*
X131666666Y-130626190D01*
X131852380Y-130688095D01*
X131976190Y-130688095D01*
X132161904Y-130626190D01*
X132285714Y-130502380D01*
X132347619Y-130378571D01*
X132409523Y-130130952D01*
X132409523Y-129945238D01*
X132347619Y-129697619D01*
X132285714Y-129573809D01*
X132161904Y-129450000D01*
X131976190Y-129388095D01*
X131852380Y-129388095D01*
X131666666Y-129450000D01*
X131604761Y-129511904D01*
X130676190Y-129388095D02*
X130676190Y-130316666D01*
X130738095Y-130502380D01*
X130861904Y-130626190D01*
X131047619Y-130688095D01*
X131171428Y-130688095D01*
X129438095Y-130688095D02*
X130057142Y-130688095D01*
X130057142Y-129388095D01*
X128261904Y-130564285D02*
X128323809Y-130626190D01*
X128509523Y-130688095D01*
X128633333Y-130688095D01*
X128819047Y-130626190D01*
X128942857Y-130502380D01*
X129004761Y-130378571D01*
X129066666Y-130130952D01*
X129066666Y-129945238D01*
X129004761Y-129697619D01*
X128942857Y-129573809D01*
X128819047Y-129450000D01*
X128633333Y-129388095D01*
X128509523Y-129388095D01*
X128323809Y-129450000D01*
X128261904Y-129511904D01*
D11*
X144971428Y-115986857D02*
X144971428Y-114786857D01*
X144571428Y-115644000D01*
X144171428Y-114786857D01*
X144171428Y-115986857D01*
X143657142Y-114901142D02*
X143600000Y-114844000D01*
X143485714Y-114786857D01*
X143200000Y-114786857D01*
X143085714Y-114844000D01*
X143028571Y-114901142D01*
X142971428Y-115015428D01*
X142971428Y-115129714D01*
X143028571Y-115301142D01*
X143714285Y-115986857D01*
X142971428Y-115986857D01*
D12*
X125750000Y-80678571D02*
X126464285Y-80678571D01*
X126464285Y-79178571D01*
X125321428Y-79321428D02*
X125250000Y-79250000D01*
X125107142Y-79178571D01*
X124750000Y-79178571D01*
X124607142Y-79250000D01*
X124535714Y-79321428D01*
X124464285Y-79464285D01*
X124464285Y-79607142D01*
X124535714Y-79821428D01*
X125392857Y-80678571D01*
X124464285Y-80678571D01*
D11*
X91971428Y-127542857D02*
X91971428Y-126342857D01*
X91571428Y-127200000D01*
X91171428Y-126342857D01*
X91171428Y-127542857D01*
X89971428Y-127542857D02*
X90657142Y-127542857D01*
X90314285Y-127542857D02*
X90314285Y-126342857D01*
X90428571Y-126514285D01*
X90542857Y-126628571D01*
X90657142Y-126685714D01*
D12*
X144250000Y-96678571D02*
X144964285Y-96678571D01*
X144964285Y-95178571D01*
X142964285Y-96678571D02*
X143821428Y-96678571D01*
X143392857Y-96678571D02*
X143392857Y-95178571D01*
X143535714Y-95392857D01*
X143678571Y-95535714D01*
X143821428Y-95607142D01*
D11*
X80171428Y-100598857D02*
X80171428Y-99398857D01*
X79771428Y-100256000D01*
X79371428Y-99398857D01*
X79371428Y-100598857D01*
X78285714Y-99798857D02*
X78285714Y-100598857D01*
X78571428Y-99341714D02*
X78857142Y-100198857D01*
X78114285Y-100198857D01*
X101915428Y-79542857D02*
X101915428Y-78342857D01*
X101515428Y-79200000D01*
X101115428Y-78342857D01*
X101115428Y-79542857D01*
X100658285Y-78342857D02*
X99915428Y-78342857D01*
X100315428Y-78800000D01*
X100144000Y-78800000D01*
X100029714Y-78857142D01*
X99972571Y-78914285D01*
X99915428Y-79028571D01*
X99915428Y-79314285D01*
X99972571Y-79428571D01*
X100029714Y-79485714D01*
X100144000Y-79542857D01*
X100486857Y-79542857D01*
X100601142Y-79485714D01*
X100658285Y-79428571D01*
D13*
X146032000Y-113925750D02*
X146032000Y-109850250D01*
X145992000Y-120979500D02*
X145992000Y-117026250D01*
X141988000Y-113944000D02*
X146012000Y-113931500D01*
X141968000Y-117032000D02*
X141968000Y-120992000D01*
X141968000Y-109856000D02*
X141968000Y-113944000D01*
X141968000Y-120992000D02*
X145992000Y-120979500D01*
X141968000Y-117032000D02*
X145992000Y-117019500D01*
X145992000Y-109856000D02*
X141968000Y-109856000D01*
X117500000Y-83000000D02*
X123500000Y-83000000D01*
X127500000Y-83000000D02*
X133500000Y-83000000D01*
X133500000Y-83000000D02*
X133500000Y-77000000D01*
X133500000Y-77000000D02*
X127500000Y-77000000D01*
X127500000Y-77000000D02*
X127500000Y-83000000D01*
X123500000Y-77000000D02*
X117500000Y-77000000D01*
X117500000Y-77000000D02*
X117500000Y-83000000D01*
X123500000Y-83000000D02*
X123500000Y-77000000D01*
X89481750Y-124968000D02*
X85406250Y-124968000D01*
X96535500Y-125008000D02*
X92582250Y-125008000D01*
X89500000Y-129012000D02*
X89487500Y-124988000D01*
X92588000Y-129032000D02*
X96548000Y-129032000D01*
X85412000Y-129032000D02*
X89500000Y-129032000D01*
X96548000Y-129032000D02*
X96535500Y-125008000D01*
X92588000Y-129032000D02*
X92575500Y-125008000D01*
X85412000Y-125008000D02*
X85412000Y-129032000D01*
X141000000Y-88000000D02*
X141000000Y-94000000D01*
X141000000Y-98000000D02*
X141000000Y-104000000D01*
X141000000Y-104000000D02*
X147000000Y-104000000D01*
X147000000Y-104000000D02*
X147000000Y-98000000D01*
X147000000Y-98000000D02*
X141000000Y-98000000D01*
X147000000Y-94000000D02*
X147000000Y-88000000D01*
X147000000Y-88000000D02*
X141000000Y-88000000D01*
X141000000Y-94000000D02*
X147000000Y-94000000D01*
X81232000Y-98537750D02*
X81232000Y-94462250D01*
X81192000Y-105591500D02*
X81192000Y-101638250D01*
X77188000Y-98556000D02*
X81212000Y-98543500D01*
X77168000Y-101644000D02*
X77168000Y-105604000D01*
X77168000Y-94468000D02*
X77168000Y-98556000D01*
X77168000Y-105604000D02*
X81192000Y-105591500D01*
X77168000Y-101644000D02*
X81192000Y-101631500D01*
X81192000Y-94468000D02*
X77168000Y-94468000D01*
G36*
X126437867Y-99131279D02*
G01*
X126910029Y-99602792D01*
X127164796Y-99006303D01*
X127195716Y-98934566D01*
X127272087Y-98762807D01*
X127342964Y-98610665D01*
X127404131Y-98486796D01*
X127451371Y-98399852D01*
X127480468Y-98358487D01*
X127481864Y-98357334D01*
X127497561Y-98347313D01*
X127520878Y-98338716D01*
X127556068Y-98331434D01*
X127607384Y-98325360D01*
X127679080Y-98320385D01*
X127775409Y-98316401D01*
X127900624Y-98313299D01*
X128058980Y-98310972D01*
X128254728Y-98309310D01*
X128492123Y-98308207D01*
X128775419Y-98307552D01*
X129108868Y-98307239D01*
X129496724Y-98307159D01*
X129829839Y-98307262D01*
X130177795Y-98307704D01*
X130474561Y-98308575D01*
X130724205Y-98309962D01*
X130930797Y-98311951D01*
X131098404Y-98314629D01*
X131231096Y-98318081D01*
X131332941Y-98322394D01*
X131408008Y-98327656D01*
X131460365Y-98333951D01*
X131494081Y-98341367D01*
X131513225Y-98349990D01*
X131514137Y-98350661D01*
X131547051Y-98394471D01*
X131598287Y-98486846D01*
X131664956Y-98621944D01*
X131744171Y-98793922D01*
X131833042Y-98996938D01*
X132091711Y-99601055D01*
X132563003Y-99130411D01*
X133034296Y-98659767D01*
X133033958Y-98379831D01*
X133495696Y-98379831D01*
X133503912Y-98431812D01*
X133505375Y-98438097D01*
X133542706Y-98515272D01*
X133622713Y-98618343D01*
X133748217Y-98750992D01*
X133790656Y-98792680D01*
X133908213Y-98899121D01*
X133998749Y-98964150D01*
X134068188Y-98992234D01*
X134098826Y-98997383D01*
X134138322Y-98997895D01*
X134155870Y-98979135D01*
X134151890Y-98932157D01*
X134126798Y-98848021D01*
X134081013Y-98717782D01*
X134002194Y-98497806D01*
X133782218Y-98418987D01*
X133704446Y-98391337D01*
X133628213Y-98366129D01*
X134475381Y-98366129D01*
X134486386Y-98421145D01*
X134511735Y-98511721D01*
X134547930Y-98624723D01*
X134633797Y-98879099D01*
X134733684Y-98979135D01*
X134953389Y-99199168D01*
X135702755Y-99949653D01*
X136069977Y-99949653D01*
X136069977Y-99582430D01*
X134999423Y-98513472D01*
X134745047Y-98427606D01*
X134686289Y-98408283D01*
X134582913Y-98377100D01*
X134508561Y-98358521D01*
X134476367Y-98356043D01*
X134475381Y-98366129D01*
X133628213Y-98366129D01*
X133598630Y-98356347D01*
X133534362Y-98342498D01*
X133502949Y-98350193D01*
X133495696Y-98379831D01*
X133033958Y-98379831D01*
X133033872Y-98308222D01*
X133033448Y-97956676D01*
X132557255Y-97477309D01*
X132081063Y-96997943D01*
X132081063Y-96797245D01*
X132550347Y-96797245D01*
X133620901Y-97866203D01*
X133875277Y-97952070D01*
X133934036Y-97971393D01*
X134037411Y-98002576D01*
X134111763Y-98021155D01*
X134143957Y-98023633D01*
X134144943Y-98013547D01*
X134133938Y-97958530D01*
X134108589Y-97867955D01*
X134075552Y-97764811D01*
X134575201Y-97764811D01*
X134586618Y-97808273D01*
X134632795Y-97867205D01*
X134684501Y-97906267D01*
X134740938Y-97925866D01*
X134762467Y-97920474D01*
X134754989Y-97894015D01*
X134706121Y-97837875D01*
X134686236Y-97817779D01*
X134631454Y-97769283D01*
X134597977Y-97749884D01*
X134575201Y-97764811D01*
X134075552Y-97764811D01*
X134072394Y-97754953D01*
X133986528Y-97500577D01*
X132917570Y-96430023D01*
X132550347Y-96430023D01*
X132550347Y-96797245D01*
X132081063Y-96797245D01*
X132081063Y-96551333D01*
X132081147Y-96447703D01*
X132082283Y-96305380D01*
X132085883Y-96205832D01*
X132093354Y-96138927D01*
X132106101Y-96094531D01*
X132125533Y-96062510D01*
X132153055Y-96032731D01*
X132170361Y-96015957D01*
X132200164Y-95993230D01*
X132237987Y-95977787D01*
X132293957Y-95968221D01*
X132378203Y-95963127D01*
X132500853Y-95961102D01*
X132672035Y-95960739D01*
X133119022Y-95960739D01*
X133707260Y-96545872D01*
X133786311Y-96624431D01*
X133944215Y-96780452D01*
X134068947Y-96901565D01*
X134166154Y-96992543D01*
X134241484Y-97058158D01*
X134300586Y-97103181D01*
X134349108Y-97132384D01*
X134392698Y-97150541D01*
X134437003Y-97162422D01*
X134519570Y-97184188D01*
X134749457Y-97283263D01*
X134954084Y-97428564D01*
X135125568Y-97612208D01*
X135256027Y-97826313D01*
X135288471Y-97920474D01*
X135320540Y-98013547D01*
X135337578Y-98062997D01*
X135342198Y-98082394D01*
X135356178Y-98125702D01*
X135378475Y-98170710D01*
X135413860Y-98223065D01*
X135467105Y-98288416D01*
X135542982Y-98372411D01*
X135646264Y-98480698D01*
X135781722Y-98618925D01*
X135954128Y-98792740D01*
X136539261Y-99380978D01*
X136539261Y-99827965D01*
X136539176Y-99932200D01*
X136539036Y-99949653D01*
X136538036Y-100074442D01*
X136534432Y-100173933D01*
X136526958Y-100240801D01*
X136514209Y-100285173D01*
X136494781Y-100317178D01*
X136467269Y-100346945D01*
X136450040Y-100363648D01*
X136420233Y-100386403D01*
X136382431Y-100401866D01*
X136326501Y-100411444D01*
X136242309Y-100416545D01*
X136119723Y-100418573D01*
X135948610Y-100418937D01*
X135501944Y-100418937D01*
X135016042Y-99940313D01*
X134530139Y-99461689D01*
X134184288Y-99465128D01*
X133838436Y-99468568D01*
X133077070Y-100229511D01*
X132315705Y-100990454D01*
X132315705Y-105009545D01*
X133077070Y-105770488D01*
X133838436Y-106531431D01*
X134184288Y-106534871D01*
X134530139Y-106538311D01*
X135016042Y-106059686D01*
X135501944Y-105581062D01*
X135948610Y-105581062D01*
X136052331Y-105581147D01*
X136194642Y-105582283D01*
X136294181Y-105585884D01*
X136361081Y-105593355D01*
X136405473Y-105606102D01*
X136437492Y-105625533D01*
X136467269Y-105653054D01*
X136484043Y-105670360D01*
X136506770Y-105700163D01*
X136522213Y-105737986D01*
X136531779Y-105793956D01*
X136536873Y-105878203D01*
X136538898Y-106000852D01*
X136539261Y-106172034D01*
X136539261Y-106619021D01*
X135954128Y-107207259D01*
X135875569Y-107286310D01*
X135719548Y-107444214D01*
X135598435Y-107568946D01*
X135507457Y-107666153D01*
X135441842Y-107741483D01*
X135396819Y-107800585D01*
X135367616Y-107849107D01*
X135349459Y-107892697D01*
X135337578Y-107937003D01*
X135327201Y-107976366D01*
X135315812Y-108019569D01*
X135287801Y-108084563D01*
X135216737Y-108249456D01*
X135071436Y-108454083D01*
X134887792Y-108625567D01*
X134673687Y-108756026D01*
X134437003Y-108837577D01*
X134417606Y-108842197D01*
X134374298Y-108856177D01*
X134329290Y-108878474D01*
X134276935Y-108913859D01*
X134211584Y-108967104D01*
X134127589Y-109042981D01*
X134019302Y-109146263D01*
X133881075Y-109281721D01*
X133707260Y-109454127D01*
X133119022Y-110039261D01*
X132672035Y-110039261D01*
X132567800Y-110039175D01*
X132425558Y-110038035D01*
X132326067Y-110034431D01*
X132259199Y-110026957D01*
X132214827Y-110014208D01*
X132182822Y-109994780D01*
X132153055Y-109967268D01*
X132136364Y-109950053D01*
X132113605Y-109920245D01*
X132098138Y-109882447D01*
X132088558Y-109826523D01*
X132083456Y-109742341D01*
X132081427Y-109619767D01*
X132081321Y-109569976D01*
X132550347Y-109569976D01*
X132917570Y-109569976D01*
X133986528Y-108499422D01*
X134072394Y-108245046D01*
X134075550Y-108235450D01*
X134574134Y-108235450D01*
X134574135Y-108236453D01*
X134576664Y-108268405D01*
X134590619Y-108272332D01*
X134625662Y-108243404D01*
X134691455Y-108176789D01*
X134742540Y-108120180D01*
X134761552Y-108084563D01*
X134741204Y-108074133D01*
X134717316Y-108078314D01*
X134652840Y-108116209D01*
X134597578Y-108175863D01*
X134574134Y-108235450D01*
X134075550Y-108235450D01*
X134091717Y-108186288D01*
X134122900Y-108082912D01*
X134141479Y-108008560D01*
X134143957Y-107976366D01*
X134133871Y-107975380D01*
X134078855Y-107986385D01*
X133988279Y-108011734D01*
X133875277Y-108047929D01*
X133620901Y-108133796D01*
X132550347Y-109202754D01*
X132550347Y-109569976D01*
X132081321Y-109569976D01*
X132081063Y-109448666D01*
X132081063Y-109002056D01*
X132557004Y-108522942D01*
X133032946Y-108043828D01*
X133034347Y-107692754D01*
X133034561Y-107638976D01*
X133497152Y-107638976D01*
X133516417Y-107656674D01*
X133564554Y-107652645D01*
X133591984Y-107644530D01*
X134480833Y-107644530D01*
X134490796Y-107644998D01*
X134546458Y-107633421D01*
X134637455Y-107607614D01*
X134750116Y-107571296D01*
X134999423Y-107486749D01*
X136069977Y-106417569D01*
X136069977Y-106050346D01*
X135702755Y-106050346D01*
X134958075Y-106796138D01*
X134720207Y-107034361D01*
X134633797Y-107120900D01*
X134547327Y-107377059D01*
X134527431Y-107438009D01*
X134497435Y-107540635D01*
X134480837Y-107613763D01*
X134480833Y-107644530D01*
X133591984Y-107644530D01*
X133650256Y-107627291D01*
X133782218Y-107581012D01*
X134002194Y-107502194D01*
X134081013Y-107282217D01*
X134108663Y-107204445D01*
X134143653Y-107098629D01*
X134157502Y-107034361D01*
X134149807Y-107002948D01*
X134120169Y-106995696D01*
X134068188Y-107003911D01*
X134003424Y-107032810D01*
X133910022Y-107099327D01*
X133804873Y-107190736D01*
X133699833Y-107295181D01*
X133606757Y-107400808D01*
X133537498Y-107495761D01*
X133503912Y-107568187D01*
X133498065Y-107599151D01*
X133497152Y-107638976D01*
X133034561Y-107638976D01*
X133035747Y-107341680D01*
X132563231Y-106869815D01*
X132090715Y-106397949D01*
X131831532Y-107003273D01*
X131819650Y-107030943D01*
X131734115Y-107225158D01*
X131657413Y-107390714D01*
X131592734Y-107521139D01*
X131543270Y-107609964D01*
X131512212Y-107650719D01*
X131506039Y-107654630D01*
X131464170Y-107669937D01*
X131394992Y-107680830D01*
X131290677Y-107687890D01*
X131143397Y-107691700D01*
X130945322Y-107692840D01*
X130438569Y-107692840D01*
X130438569Y-107972811D01*
X130437739Y-108089528D01*
X130433018Y-108182869D01*
X130421508Y-108243784D01*
X130400322Y-108286384D01*
X130366576Y-108324774D01*
X130294584Y-108396766D01*
X128705417Y-108396766D01*
X128633425Y-108324774D01*
X128603625Y-108291747D01*
X128580837Y-108250600D01*
X128568133Y-108193134D01*
X128562627Y-108105240D01*
X128561432Y-107972811D01*
X128561432Y-107927482D01*
X129030716Y-107927482D01*
X129969285Y-107927482D01*
X129969285Y-107692840D01*
X129030716Y-107692840D01*
X129030716Y-107927482D01*
X128561432Y-107927482D01*
X128561432Y-107692840D01*
X128054679Y-107692840D01*
X128034941Y-107692831D01*
X127839727Y-107691392D01*
X127695018Y-107687111D01*
X127593356Y-107679446D01*
X127527281Y-107667857D01*
X127489336Y-107651802D01*
X127482735Y-107645483D01*
X127447452Y-107591579D01*
X127394820Y-107493061D01*
X127328531Y-107357407D01*
X127252279Y-107192098D01*
X127169758Y-107004615D01*
X126908770Y-106398465D01*
X126436512Y-106870072D01*
X125964254Y-107341680D01*
X125965365Y-107620168D01*
X125965654Y-107692754D01*
X125967055Y-108043828D01*
X126442997Y-108522942D01*
X126918938Y-109002056D01*
X126918938Y-109448666D01*
X126918854Y-109552296D01*
X126918713Y-109569976D01*
X126917717Y-109694620D01*
X126914118Y-109794167D01*
X126906647Y-109861072D01*
X126893900Y-109905468D01*
X126874468Y-109937489D01*
X126846946Y-109967268D01*
X126829640Y-109984042D01*
X126799837Y-110006769D01*
X126762014Y-110022212D01*
X126706044Y-110031778D01*
X126621797Y-110036872D01*
X126499148Y-110038897D01*
X126327966Y-110039261D01*
X125880979Y-110039261D01*
X125292741Y-109454127D01*
X125213690Y-109375569D01*
X125055786Y-109219547D01*
X124931054Y-109098434D01*
X124833847Y-109007456D01*
X124758517Y-108941841D01*
X124699415Y-108896818D01*
X124650893Y-108867615D01*
X124607303Y-108849459D01*
X124562997Y-108837577D01*
X124480431Y-108815811D01*
X124250544Y-108716736D01*
X124045917Y-108571435D01*
X123874433Y-108387791D01*
X123743974Y-108173686D01*
X123712362Y-108081940D01*
X124238929Y-108081940D01*
X124252687Y-108113944D01*
X124308545Y-108176789D01*
X124310433Y-108178737D01*
X124375429Y-108244451D01*
X124409892Y-108272587D01*
X124423483Y-108267976D01*
X124425867Y-108235450D01*
X124421537Y-108212384D01*
X124382290Y-108150128D01*
X124320508Y-108096770D01*
X124258796Y-108074133D01*
X124238929Y-108081940D01*
X123712362Y-108081940D01*
X123679461Y-107986452D01*
X124855058Y-107986452D01*
X124866063Y-108041469D01*
X124891412Y-108132044D01*
X124924533Y-108235450D01*
X124927607Y-108245046D01*
X125013473Y-108499422D01*
X126082431Y-109569976D01*
X126449654Y-109569976D01*
X126449654Y-109202754D01*
X125379100Y-108133796D01*
X125124724Y-108047929D01*
X125065965Y-108028606D01*
X124962589Y-107997423D01*
X124888238Y-107978844D01*
X124856044Y-107976366D01*
X124855058Y-107986452D01*
X123679461Y-107986452D01*
X123662423Y-107937003D01*
X123657803Y-107917605D01*
X123643823Y-107874297D01*
X123621526Y-107829289D01*
X123586141Y-107776934D01*
X123532896Y-107711583D01*
X123457019Y-107627588D01*
X123353737Y-107519301D01*
X123218279Y-107381074D01*
X123045873Y-107207259D01*
X122460739Y-106619021D01*
X122460739Y-106417569D01*
X122930024Y-106417569D01*
X124000578Y-107486527D01*
X124254954Y-107572393D01*
X124313712Y-107591716D01*
X124417088Y-107622899D01*
X124491440Y-107641478D01*
X124523634Y-107643956D01*
X124524620Y-107633870D01*
X124513615Y-107578854D01*
X124488266Y-107488278D01*
X124452071Y-107375276D01*
X124366204Y-107120900D01*
X124261876Y-107016416D01*
X124843326Y-107016416D01*
X124847355Y-107064553D01*
X124872709Y-107150255D01*
X124918988Y-107282217D01*
X124997806Y-107502194D01*
X125217783Y-107581012D01*
X125295555Y-107608662D01*
X125371788Y-107633870D01*
X125401371Y-107643652D01*
X125465639Y-107657501D01*
X125497052Y-107649806D01*
X125504304Y-107620168D01*
X125496089Y-107568187D01*
X125494863Y-107562835D01*
X125457774Y-107485457D01*
X125377626Y-107381735D01*
X125251784Y-107248216D01*
X125239471Y-107235955D01*
X125108559Y-107114010D01*
X125007157Y-107037540D01*
X124931813Y-107003911D01*
X124900849Y-106998064D01*
X124861024Y-106997151D01*
X124843326Y-107016416D01*
X124261876Y-107016416D01*
X124046612Y-106800831D01*
X125567749Y-106800831D01*
X125635818Y-106864778D01*
X125703887Y-106928726D01*
X126203096Y-106423543D01*
X126282493Y-106343168D01*
X126420331Y-106202987D01*
X126523831Y-106095678D01*
X126597677Y-106015269D01*
X126646550Y-105955788D01*
X126675133Y-105911263D01*
X126688109Y-105875723D01*
X126690160Y-105843196D01*
X126685968Y-105807709D01*
X126678320Y-105755911D01*
X127153580Y-105755911D01*
X127191013Y-105843196D01*
X127468290Y-106489734D01*
X127783000Y-107223556D01*
X131219085Y-107223556D01*
X131532753Y-106490030D01*
X131771303Y-105932169D01*
X132299571Y-105932169D01*
X132800213Y-106432198D01*
X133300855Y-106932226D01*
X133428703Y-106796138D01*
X132322557Y-105691142D01*
X132316324Y-105756503D01*
X132311064Y-105811655D01*
X132299571Y-105932169D01*
X131771303Y-105932169D01*
X131846421Y-105756503D01*
X131846421Y-100239542D01*
X131810980Y-100156803D01*
X132309841Y-100156803D01*
X132314033Y-100192290D01*
X132330370Y-100302941D01*
X132881311Y-99751055D01*
X133432252Y-99199168D01*
X133364183Y-99135221D01*
X133296114Y-99071273D01*
X132796905Y-99576456D01*
X132717508Y-99656831D01*
X132579670Y-99797012D01*
X132476170Y-99904321D01*
X132402324Y-99984730D01*
X132353451Y-100044211D01*
X132324868Y-100088736D01*
X132311892Y-100124276D01*
X132309841Y-100156803D01*
X131810980Y-100156803D01*
X131533067Y-99507993D01*
X131219714Y-98776443D01*
X127779250Y-98776443D01*
X127466415Y-99507838D01*
X127226893Y-100067830D01*
X127153580Y-100239234D01*
X127153580Y-105755911D01*
X126678320Y-105755911D01*
X126669631Y-105697058D01*
X126118690Y-106248944D01*
X125567749Y-106800831D01*
X124046612Y-106800831D01*
X123297246Y-106050346D01*
X122930024Y-106050346D01*
X122930024Y-106417569D01*
X122460739Y-106417569D01*
X122460739Y-106172034D01*
X122460825Y-106067799D01*
X122461965Y-105925557D01*
X122465569Y-105826066D01*
X122473043Y-105759198D01*
X122485792Y-105714826D01*
X122505220Y-105682821D01*
X122532732Y-105653054D01*
X122549961Y-105636351D01*
X122579768Y-105613596D01*
X122617570Y-105598133D01*
X122673500Y-105588555D01*
X122757692Y-105583454D01*
X122880278Y-105581426D01*
X123051391Y-105581062D01*
X123498057Y-105581062D01*
X123983959Y-106059550D01*
X124469862Y-106538039D01*
X124814499Y-106535949D01*
X125159135Y-106533860D01*
X125921716Y-105771702D01*
X126684296Y-105009545D01*
X126684296Y-100990454D01*
X125921716Y-100228297D01*
X125159135Y-99466139D01*
X124814499Y-99464050D01*
X124469862Y-99461960D01*
X123983959Y-99940449D01*
X123498057Y-100418937D01*
X123051391Y-100418937D01*
X122947670Y-100418853D01*
X122805359Y-100417716D01*
X122705820Y-100414115D01*
X122638920Y-100406644D01*
X122594528Y-100393897D01*
X122562509Y-100374466D01*
X122532732Y-100346945D01*
X122515958Y-100329639D01*
X122493231Y-100299836D01*
X122477788Y-100262013D01*
X122468222Y-100206043D01*
X122463128Y-100121797D01*
X122461103Y-99999147D01*
X122460998Y-99949653D01*
X122930024Y-99949653D01*
X123297246Y-99949653D01*
X124041927Y-99203861D01*
X125571298Y-99203861D01*
X126677444Y-100308857D01*
X126688937Y-100188344D01*
X126700430Y-100067830D01*
X126199788Y-99567801D01*
X125699146Y-99067773D01*
X125571298Y-99203861D01*
X124041927Y-99203861D01*
X124266036Y-98979417D01*
X124838224Y-98979417D01*
X124848595Y-99001368D01*
X124888099Y-99004677D01*
X124970501Y-98991081D01*
X124980857Y-98987984D01*
X125044072Y-98949052D01*
X125128888Y-98877301D01*
X125224418Y-98784317D01*
X125319777Y-98681688D01*
X125404076Y-98581003D01*
X125466428Y-98493849D01*
X125495948Y-98431812D01*
X125501844Y-98400827D01*
X125502815Y-98361008D01*
X125483582Y-98343314D01*
X125435457Y-98347347D01*
X125406067Y-98356043D01*
X125349753Y-98372705D01*
X125217783Y-98418987D01*
X124997806Y-98497806D01*
X124918988Y-98717782D01*
X124910051Y-98742928D01*
X124874202Y-98848310D01*
X124848611Y-98930834D01*
X124838330Y-98974422D01*
X124838224Y-98979417D01*
X124266036Y-98979417D01*
X124366204Y-98879099D01*
X124452071Y-98624723D01*
X124471394Y-98565964D01*
X124502577Y-98462589D01*
X124521156Y-98388237D01*
X124523634Y-98356043D01*
X124513548Y-98355057D01*
X124458531Y-98366062D01*
X124367956Y-98391411D01*
X124254954Y-98427606D01*
X124000578Y-98513472D01*
X122930024Y-99582430D01*
X122930024Y-99949653D01*
X122460998Y-99949653D01*
X122460739Y-99827965D01*
X122460739Y-99380978D01*
X123045873Y-98792740D01*
X123124431Y-98713689D01*
X123280453Y-98555785D01*
X123401566Y-98431053D01*
X123492544Y-98333846D01*
X123558159Y-98258516D01*
X123603182Y-98199414D01*
X123632385Y-98150892D01*
X123650541Y-98107302D01*
X123662423Y-98062997D01*
X123672649Y-98024207D01*
X124860510Y-98024207D01*
X124870473Y-98024675D01*
X124926135Y-98013097D01*
X125017131Y-97987291D01*
X125129793Y-97950972D01*
X125379100Y-97866426D01*
X125914377Y-97331835D01*
X126449654Y-96797245D01*
X126449654Y-96430023D01*
X126082431Y-96430023D01*
X125013473Y-97500577D01*
X124927004Y-97756736D01*
X124926332Y-97758796D01*
X124907107Y-97817685D01*
X124877112Y-97920312D01*
X124860514Y-97993439D01*
X124860510Y-98024207D01*
X123672649Y-98024207D01*
X123684189Y-97980430D01*
X123711545Y-97916954D01*
X124220555Y-97916954D01*
X124225410Y-97921011D01*
X124264550Y-97925866D01*
X124287616Y-97921536D01*
X124349872Y-97882289D01*
X124403230Y-97820507D01*
X124425867Y-97758796D01*
X124418060Y-97738928D01*
X124386056Y-97752687D01*
X124323211Y-97808545D01*
X124288338Y-97842877D01*
X124239660Y-97893274D01*
X124220555Y-97916954D01*
X123711545Y-97916954D01*
X123783264Y-97750543D01*
X123928565Y-97545916D01*
X124112209Y-97374432D01*
X124326314Y-97243973D01*
X124562997Y-97162422D01*
X124582395Y-97157802D01*
X124625703Y-97143822D01*
X124670711Y-97121525D01*
X124723066Y-97086140D01*
X124788417Y-97032895D01*
X124872412Y-96957018D01*
X124980699Y-96853736D01*
X125118926Y-96718278D01*
X125292741Y-96545872D01*
X125880979Y-95960739D01*
X126327966Y-95960739D01*
X126432201Y-95960824D01*
X126574443Y-95961964D01*
X126673934Y-95965568D01*
X126740802Y-95973042D01*
X126785174Y-95985791D01*
X126817179Y-96005219D01*
X126846946Y-96032731D01*
X126863637Y-96049946D01*
X126886396Y-96079754D01*
X126901863Y-96117552D01*
X126911443Y-96173476D01*
X126916545Y-96257658D01*
X126918574Y-96380232D01*
X126918938Y-96551333D01*
X126918938Y-96997943D01*
X126442746Y-97477309D01*
X125966553Y-97956676D01*
X125966129Y-98308222D01*
X125966065Y-98361008D01*
X125965705Y-98659767D01*
X126437867Y-99131279D01*
G37*
G36*
X130384066Y-103298723D02*
G01*
X130291876Y-103494105D01*
X130158194Y-103664954D01*
X129986851Y-103802688D01*
X129781679Y-103898728D01*
X129747068Y-103908480D01*
X129596487Y-103928371D01*
X129424173Y-103925526D01*
X129254777Y-103901457D01*
X129112948Y-103857679D01*
X128994709Y-103789297D01*
X128852821Y-103671032D01*
X128728360Y-103530745D01*
X128640032Y-103387052D01*
X128608320Y-103297534D01*
X128578685Y-103126962D01*
X128575554Y-103000000D01*
X129030716Y-103000000D01*
X129041275Y-103078815D01*
X129095281Y-103206773D01*
X129183680Y-103321530D01*
X129293571Y-103403291D01*
X129335894Y-103422904D01*
X129428827Y-103456143D01*
X129500000Y-103469284D01*
X129578816Y-103458725D01*
X129706774Y-103404719D01*
X129821531Y-103316320D01*
X129903291Y-103206429D01*
X129922905Y-103164106D01*
X129956144Y-103071173D01*
X129969285Y-103000000D01*
X129958726Y-102921184D01*
X129904720Y-102793226D01*
X129816321Y-102678469D01*
X129706430Y-102596709D01*
X129664107Y-102577095D01*
X129571174Y-102543856D01*
X129500000Y-102530715D01*
X129421185Y-102541274D01*
X129293227Y-102595280D01*
X129178470Y-102683679D01*
X129096709Y-102793570D01*
X129077096Y-102835893D01*
X129043857Y-102928826D01*
X129030716Y-103000000D01*
X128575554Y-103000000D01*
X128574092Y-102940742D01*
X128594541Y-102761770D01*
X128640032Y-102612947D01*
X128706126Y-102499961D01*
X128826093Y-102355700D01*
X128968108Y-102229316D01*
X129112948Y-102140031D01*
X129202466Y-102108319D01*
X129373038Y-102078684D01*
X129559258Y-102074091D01*
X129738230Y-102094540D01*
X129887053Y-102140031D01*
X130009452Y-102212740D01*
X130150380Y-102332017D01*
X130272315Y-102471010D01*
X130356745Y-102611152D01*
X130373356Y-102651181D01*
X130428638Y-102868680D01*
X130430015Y-103000000D01*
X130430931Y-103087388D01*
X130384066Y-103298723D01*
G37*
X99425750Y-76968000D02*
X95350250Y-76968000D01*
X106479500Y-77008000D02*
X102526250Y-77008000D01*
X99444000Y-81012000D02*
X99431500Y-76988000D01*
X102532000Y-81032000D02*
X106492000Y-81032000D01*
X95356000Y-81032000D02*
X99444000Y-81032000D01*
X106492000Y-81032000D02*
X106479500Y-77008000D01*
X102532000Y-81032000D02*
X102519500Y-77008000D01*
X95356000Y-77008000D02*
X95356000Y-81032000D01*
G36*
X98434975Y-127212087D02*
G01*
X97565025Y-127212087D01*
X97565025Y-126827912D01*
X98434975Y-126827912D01*
X98434975Y-127212087D01*
G37*
G36*
X144434975Y-122192087D02*
G01*
X143565025Y-122192087D01*
X143565025Y-121807912D01*
X144434975Y-121807912D01*
X144434975Y-122192087D01*
G37*
G36*
X94168275Y-78839663D02*
G01*
X94666750Y-78839663D01*
X94666750Y-79160337D01*
X94168275Y-79160337D01*
X94168275Y-79712788D01*
X93831725Y-79712788D01*
X93831725Y-79160337D01*
X93333250Y-79160337D01*
X93333250Y-78839663D01*
X93831725Y-78839663D01*
X93831725Y-78287212D01*
X94168275Y-78287212D01*
X94168275Y-78839663D01*
G37*
G36*
X108434975Y-79192087D02*
G01*
X107565025Y-79192087D01*
X107565025Y-78807912D01*
X108434975Y-78807912D01*
X108434975Y-79192087D01*
G37*
G36*
X116193516Y-79815612D02*
G01*
X116766763Y-79815612D01*
X116766763Y-80184388D01*
X116193516Y-80184388D01*
X116193516Y-80819706D01*
X115806484Y-80819706D01*
X115806484Y-80184388D01*
X115233237Y-80184388D01*
X115233237Y-79815612D01*
X115806484Y-79815612D01*
X115806484Y-79180294D01*
X116193516Y-79180294D01*
X116193516Y-79815612D01*
G37*
G36*
X144168275Y-108339663D02*
G01*
X144666750Y-108339663D01*
X144666750Y-108660337D01*
X144168275Y-108660337D01*
X144168275Y-109212788D01*
X143831725Y-109212788D01*
X143831725Y-108660337D01*
X143333250Y-108660337D01*
X143333250Y-108339663D01*
X143831725Y-108339663D01*
X143831725Y-107787212D01*
X144168275Y-107787212D01*
X144168275Y-108339663D01*
G37*
G36*
X79168275Y-92839663D02*
G01*
X79666750Y-92839663D01*
X79666750Y-93160337D01*
X79168275Y-93160337D01*
X79168275Y-93712788D01*
X78831725Y-93712788D01*
X78831725Y-93160337D01*
X78333250Y-93160337D01*
X78333250Y-92839663D01*
X78831725Y-92839663D01*
X78831725Y-92287212D01*
X79168275Y-92287212D01*
X79168275Y-92839663D01*
G37*
G36*
X135000221Y-80220901D02*
G01*
X133999779Y-80220901D01*
X133999779Y-79779099D01*
X135000221Y-79779099D01*
X135000221Y-80220901D01*
G37*
G36*
X79434975Y-107192087D02*
G01*
X78565025Y-107192087D01*
X78565025Y-106807912D01*
X79434975Y-106807912D01*
X79434975Y-107192087D01*
G37*
G36*
X144193516Y-86315612D02*
G01*
X144766763Y-86315612D01*
X144766763Y-86684388D01*
X144193516Y-86684388D01*
X144193516Y-87319706D01*
X143806484Y-87319706D01*
X143806484Y-86684388D01*
X143233237Y-86684388D01*
X143233237Y-86315612D01*
X143806484Y-86315612D01*
X143806484Y-85680294D01*
X144193516Y-85680294D01*
X144193516Y-86315612D01*
G37*
G36*
X84168275Y-126839663D02*
G01*
X84666750Y-126839663D01*
X84666750Y-127160337D01*
X84168275Y-127160337D01*
X84168275Y-127712788D01*
X83831725Y-127712788D01*
X83831725Y-127160337D01*
X83333250Y-127160337D01*
X83333250Y-126839663D01*
X83831725Y-126839663D01*
X83831725Y-126287212D01*
X84168275Y-126287212D01*
X84168275Y-126839663D01*
G37*
G36*
X144500221Y-105220901D02*
G01*
X143499779Y-105220901D01*
X143499779Y-104779099D01*
X144500221Y-104779099D01*
X144500221Y-105220901D01*
G37*
G36*
X139738187Y-101083969D02*
G01*
X138759494Y-101083969D01*
X138922874Y-101172472D01*
X139085990Y-101257006D01*
X139248841Y-101337572D01*
X139411692Y-101414169D01*
X139574807Y-101486797D01*
X139738187Y-101555456D01*
X139738187Y-101791200D01*
X138264194Y-101791200D01*
X138264194Y-101526881D01*
X139171450Y-101526881D01*
X139078581Y-101484912D01*
X138971425Y-101435203D01*
X138855339Y-101379244D01*
X138735681Y-101318522D01*
X138613940Y-101254526D01*
X138491603Y-101188744D01*
X138373434Y-101122069D01*
X138264194Y-101055394D01*
X138264194Y-100819650D01*
X139738187Y-100819650D01*
X139738187Y-101083969D01*
G37*
G36*
X139738187Y-95611856D02*
G01*
X139738187Y-95926181D01*
X139571071Y-95886891D01*
X139408813Y-95847124D01*
X139251412Y-95806881D01*
X139098869Y-95766161D01*
X138951184Y-95724966D01*
X138772070Y-95673099D01*
X138597866Y-95621084D01*
X138428574Y-95568919D01*
X138264194Y-95516606D01*
X138264194Y-95349919D01*
X138549944Y-95349919D01*
X138708297Y-95393972D01*
X138855934Y-95432072D01*
X139002381Y-95464219D01*
X139154781Y-95492794D01*
X139154781Y-95204663D01*
X139002381Y-95234428D01*
X138855934Y-95267766D01*
X138708297Y-95305866D01*
X138549944Y-95349919D01*
X138264194Y-95349919D01*
X138264194Y-95197519D01*
X138427235Y-95147066D01*
X138594890Y-95095720D01*
X138767158Y-95043482D01*
X138944041Y-94990350D01*
X139090487Y-94947583D01*
X139243126Y-94905006D01*
X139401955Y-94862620D01*
X139566976Y-94820424D01*
X139738187Y-94778419D01*
X139738187Y-95083219D01*
X139397669Y-95149894D01*
X139397669Y-95542800D01*
X139738187Y-95611856D01*
G37*
G36*
X139738187Y-89899238D02*
G01*
X139495300Y-89899238D01*
X139495300Y-89268206D01*
X138264194Y-89268206D01*
X138264194Y-88972931D01*
X139738187Y-88972931D01*
X139738187Y-89899238D01*
G37*
G36*
X139327422Y-98427684D02*
G01*
X139438150Y-98445544D01*
X139535186Y-98477691D01*
X139616744Y-98526506D01*
X139729853Y-98680097D01*
X139759321Y-98788146D01*
X139769144Y-98919413D01*
X139759321Y-99052763D01*
X139729853Y-99162300D01*
X139681930Y-99250406D01*
X139616744Y-99319463D01*
X139535186Y-99370064D01*
X139438150Y-99402806D01*
X139327422Y-99420666D01*
X139204787Y-99426619D01*
X138264194Y-99426619D01*
X138264194Y-99133725D01*
X139183356Y-99133725D01*
X139339328Y-99124200D01*
X139441722Y-99090863D01*
X139497681Y-99026569D01*
X139514350Y-98924175D01*
X139497681Y-98821781D01*
X139442912Y-98758678D01*
X139341709Y-98726531D01*
X139185737Y-98717006D01*
X138264194Y-98717006D01*
X138264194Y-98421731D01*
X139204787Y-98421731D01*
X139327422Y-98427684D01*
G37*
G36*
X139227409Y-91887449D02*
G01*
X139188119Y-92034690D01*
X139122634Y-92153091D01*
X139027781Y-92239742D01*
X138900384Y-92291732D01*
X138740444Y-92309063D01*
X138582091Y-92291865D01*
X138456281Y-92240271D01*
X138363016Y-92154281D01*
X138298854Y-92037071D01*
X138260357Y-91891815D01*
X138249993Y-91751850D01*
X138502319Y-91751850D01*
X138515713Y-91856923D01*
X138555897Y-91938778D01*
X138628227Y-91991463D01*
X138738062Y-92009025D01*
X138853851Y-91991166D01*
X138929753Y-91937588D01*
X138971723Y-91848886D01*
X138985712Y-91725656D01*
X138985712Y-91606594D01*
X138509462Y-91606594D01*
X138503509Y-91679222D01*
X138502319Y-91751850D01*
X138249993Y-91751850D01*
X138247525Y-91718513D01*
X138249906Y-91625644D01*
X138255859Y-91518488D01*
X138266575Y-91410141D01*
X138283244Y-91313700D01*
X139738187Y-91313700D01*
X139738187Y-91606594D01*
X139240506Y-91606594D01*
X139240506Y-91711369D01*
X139227409Y-91887449D01*
G37*
G36*
X139747580Y-102654006D02*
G01*
X139682890Y-102784181D01*
X139575072Y-102888956D01*
X139466353Y-102949380D01*
X139334268Y-102992541D01*
X139178817Y-103018437D01*
X139000000Y-103027069D01*
X138821183Y-103018586D01*
X138665732Y-102993136D01*
X138533647Y-102950720D01*
X138424928Y-102891338D01*
X138317110Y-102787092D01*
X138252420Y-102655329D01*
X138230856Y-102496050D01*
X138485650Y-102496050D01*
X138526131Y-102617494D01*
X138635669Y-102687741D01*
X138798784Y-102721078D01*
X138896118Y-102727329D01*
X139000000Y-102729413D01*
X139103584Y-102727329D01*
X139200025Y-102721078D01*
X139363141Y-102687741D01*
X139473869Y-102616303D01*
X139514350Y-102496050D01*
X139473869Y-102374606D01*
X139364331Y-102304359D01*
X139201216Y-102271022D01*
X139103882Y-102264771D01*
X139000000Y-102262688D01*
X138896416Y-102264771D01*
X138799975Y-102271022D01*
X138636859Y-102304359D01*
X138526131Y-102374606D01*
X138485650Y-102496050D01*
X138230856Y-102496050D01*
X138252420Y-102341533D01*
X138317110Y-102211358D01*
X138424928Y-102105525D01*
X138533647Y-102044059D01*
X138665732Y-102000155D01*
X138821183Y-101973812D01*
X139000000Y-101965031D01*
X139178817Y-101973589D01*
X139334268Y-101999262D01*
X139466353Y-102042050D01*
X139575072Y-102101953D01*
X139682890Y-102206860D01*
X139747580Y-102339020D01*
X139768822Y-102496050D01*
X139769144Y-102498431D01*
X139747580Y-102654006D01*
G37*
G36*
X138507081Y-90444544D02*
G01*
X139495300Y-90444544D01*
X139495300Y-90123075D01*
X139738187Y-90123075D01*
X139738187Y-91058906D01*
X139495300Y-91058906D01*
X139495300Y-90739819D01*
X138507081Y-90739819D01*
X138507081Y-91058906D01*
X138264194Y-91058906D01*
X138264194Y-90123075D01*
X138507081Y-90123075D01*
X138507081Y-90444544D01*
G37*
G36*
X139715566Y-97856184D02*
G01*
X139661690Y-97972568D01*
X139583406Y-98071688D01*
X139479524Y-98152352D01*
X139348853Y-98213372D01*
X139189607Y-98251770D01*
X139000000Y-98264569D01*
X138814560Y-98252960D01*
X138658291Y-98218134D01*
X138529108Y-98162473D01*
X138424928Y-98088356D01*
X138345454Y-97995785D01*
X138290387Y-97884759D01*
X138258241Y-97758255D01*
X138249544Y-97645444D01*
X138502319Y-97645444D01*
X138543991Y-97804988D01*
X138654719Y-97902619D01*
X138814262Y-97952625D01*
X139000000Y-97966913D01*
X139105073Y-97962448D01*
X139201216Y-97949053D01*
X139359569Y-97889522D01*
X139464344Y-97779984D01*
X139502444Y-97612106D01*
X139502444Y-97585913D01*
X139500062Y-97559719D01*
X138509462Y-97559719D01*
X138503509Y-97602581D01*
X138502319Y-97645444D01*
X138249544Y-97645444D01*
X138247525Y-97619250D01*
X138254669Y-97454944D01*
X138283244Y-97266825D01*
X139721519Y-97266825D01*
X139748903Y-97427559D01*
X139757237Y-97581150D01*
X139756892Y-97585913D01*
X139746820Y-97724918D01*
X139715566Y-97856184D01*
G37*
G36*
X138507081Y-99969544D02*
G01*
X139495300Y-99969544D01*
X139495300Y-99648075D01*
X139738187Y-99648075D01*
X139738187Y-100583906D01*
X139495300Y-100583906D01*
X139495300Y-100264819D01*
X138507081Y-100264819D01*
X138507081Y-100583906D01*
X138264194Y-100583906D01*
X138264194Y-99648075D01*
X138507081Y-99648075D01*
X138507081Y-99969544D01*
G37*
G36*
X139330101Y-96602159D02*
G01*
X139463153Y-96677466D01*
X139597991Y-96745629D01*
X139738187Y-96804863D01*
X139738187Y-97112044D01*
X139582216Y-97044178D01*
X139417909Y-96962025D01*
X139260747Y-96873919D01*
X139123825Y-96788194D01*
X139056555Y-96892373D01*
X138964281Y-96962025D01*
X138853553Y-97001316D01*
X138730919Y-97014413D01*
X138615130Y-97004590D01*
X138515416Y-96975122D01*
X138364206Y-96862013D01*
X138312414Y-96781050D01*
X138276100Y-96685800D01*
X138254669Y-96577453D01*
X138247525Y-96457200D01*
X138502319Y-96457200D01*
X138516011Y-96562570D01*
X138557087Y-96645319D01*
X138627334Y-96698897D01*
X138728537Y-96716756D01*
X138894034Y-96650081D01*
X138937790Y-96562570D01*
X138952375Y-96433388D01*
X138952375Y-96369094D01*
X138509462Y-96369094D01*
X138503509Y-96416719D01*
X138502319Y-96457200D01*
X138247525Y-96457200D01*
X138249906Y-96373856D01*
X138255859Y-96273844D01*
X138267766Y-96170259D01*
X138285625Y-96076200D01*
X139738187Y-96076200D01*
X139738187Y-96369094D01*
X139195262Y-96369094D01*
X139195262Y-96521494D01*
X139330101Y-96602159D01*
G37*
G36*
X139747580Y-93129006D02*
G01*
X139682890Y-93259181D01*
X139575072Y-93363956D01*
X139466353Y-93424380D01*
X139334268Y-93467541D01*
X139178817Y-93493437D01*
X139000000Y-93502069D01*
X138821183Y-93493586D01*
X138665732Y-93468136D01*
X138533647Y-93425720D01*
X138424928Y-93366338D01*
X138317110Y-93262092D01*
X138252420Y-93130329D01*
X138230856Y-92971050D01*
X138485650Y-92971050D01*
X138526131Y-93092494D01*
X138635669Y-93162741D01*
X138798784Y-93196078D01*
X138896118Y-93202329D01*
X139000000Y-93204413D01*
X139103584Y-93202329D01*
X139200025Y-93196078D01*
X139363141Y-93162741D01*
X139473869Y-93091303D01*
X139514350Y-92971050D01*
X139473869Y-92849606D01*
X139364331Y-92779359D01*
X139201216Y-92746022D01*
X139103882Y-92739771D01*
X139000000Y-92737688D01*
X138896416Y-92739771D01*
X138799975Y-92746022D01*
X138636859Y-92779359D01*
X138526131Y-92849606D01*
X138485650Y-92971050D01*
X138230856Y-92971050D01*
X138252420Y-92816533D01*
X138317110Y-92686358D01*
X138424928Y-92580525D01*
X138533647Y-92519059D01*
X138665732Y-92475155D01*
X138821183Y-92448812D01*
X139000000Y-92440031D01*
X139178817Y-92448589D01*
X139334268Y-92474262D01*
X139466353Y-92517050D01*
X139575072Y-92576953D01*
X139682890Y-92681860D01*
X139747580Y-92814020D01*
X139768822Y-92971050D01*
X139769144Y-92973431D01*
X139747580Y-93129006D01*
G37*
G36*
X121962653Y-85769144D02*
G01*
X121807078Y-85747580D01*
X121676903Y-85682890D01*
X121572128Y-85575072D01*
X121511704Y-85466353D01*
X121468544Y-85334268D01*
X121442648Y-85178817D01*
X121434016Y-85000000D01*
X121731672Y-85000000D01*
X121733755Y-85103584D01*
X121740006Y-85200025D01*
X121773344Y-85363141D01*
X121844781Y-85473869D01*
X121965034Y-85514350D01*
X122086478Y-85473869D01*
X122156725Y-85364331D01*
X122190062Y-85201216D01*
X122196313Y-85103882D01*
X122198397Y-85000000D01*
X122196313Y-84896416D01*
X122190062Y-84799975D01*
X122156725Y-84636859D01*
X122086478Y-84526131D01*
X121965034Y-84485650D01*
X121843591Y-84526131D01*
X121773344Y-84635669D01*
X121740006Y-84798784D01*
X121733755Y-84896118D01*
X121731672Y-85000000D01*
X121434016Y-85000000D01*
X121442499Y-84821183D01*
X121467948Y-84665732D01*
X121510364Y-84533647D01*
X121569747Y-84424928D01*
X121673993Y-84317110D01*
X121805755Y-84252420D01*
X121965034Y-84230856D01*
X122119551Y-84252420D01*
X122249726Y-84317110D01*
X122355559Y-84424928D01*
X122417025Y-84533647D01*
X122460930Y-84665732D01*
X122487272Y-84821183D01*
X122496053Y-85000000D01*
X122487496Y-85178817D01*
X122461823Y-85334268D01*
X122419035Y-85466353D01*
X122359131Y-85575072D01*
X122254224Y-85682890D01*
X122122065Y-85747580D01*
X121965034Y-85768822D01*
X121962653Y-85769144D01*
G37*
G36*
X123691441Y-84507081D02*
G01*
X123303297Y-84507081D01*
X123303297Y-85738187D01*
X123008022Y-85738187D01*
X123008022Y-84507081D01*
X122619878Y-84507081D01*
X122619878Y-84264194D01*
X123691441Y-84264194D01*
X123691441Y-84507081D01*
G37*
G36*
X125370222Y-84390400D02*
G01*
X125422609Y-84553516D01*
X125482141Y-84734491D01*
X125541672Y-84916656D01*
X125596441Y-84745206D01*
X125653591Y-84561850D01*
X125707169Y-84392781D01*
X125748841Y-84264194D01*
X125991728Y-84264194D01*
X126007504Y-84425523D01*
X126021494Y-84599950D01*
X126033698Y-84783902D01*
X126044116Y-84973806D01*
X126053343Y-85167283D01*
X126061975Y-85361950D01*
X126070012Y-85553641D01*
X126077453Y-85738187D01*
X125808372Y-85738187D01*
X125820278Y-84592806D01*
X125646447Y-85216694D01*
X125432134Y-85216694D01*
X125251159Y-84592806D01*
X125265447Y-85738187D01*
X124996366Y-85738187D01*
X125001723Y-85549771D01*
X125008272Y-85365522D01*
X125016309Y-85183952D01*
X125026131Y-85003572D01*
X125038037Y-84822895D01*
X125052325Y-84640431D01*
X125068101Y-84454694D01*
X125084472Y-84264194D01*
X125327359Y-84264194D01*
X125370222Y-84390400D01*
G37*
G36*
X130766134Y-84507081D02*
G01*
X130444666Y-84507081D01*
X130444666Y-85495300D01*
X130766134Y-85495300D01*
X130766134Y-85738187D01*
X129830303Y-85738187D01*
X129830303Y-85495300D01*
X130149391Y-85495300D01*
X130149391Y-84507081D01*
X129830303Y-84507081D01*
X129830303Y-84264194D01*
X130766134Y-84264194D01*
X130766134Y-84507081D01*
G37*
G36*
X124343903Y-85769144D02*
G01*
X124188328Y-85747580D01*
X124058153Y-85682890D01*
X123953378Y-85575072D01*
X123892954Y-85466353D01*
X123849794Y-85334268D01*
X123823898Y-85178817D01*
X123815266Y-85000000D01*
X124112922Y-85000000D01*
X124115005Y-85103584D01*
X124121256Y-85200025D01*
X124154594Y-85363141D01*
X124226031Y-85473869D01*
X124346284Y-85514350D01*
X124467728Y-85473869D01*
X124537975Y-85364331D01*
X124571312Y-85201216D01*
X124577563Y-85103882D01*
X124579647Y-85000000D01*
X124577563Y-84896416D01*
X124571312Y-84799975D01*
X124537975Y-84636859D01*
X124467728Y-84526131D01*
X124346284Y-84485650D01*
X124224841Y-84526131D01*
X124154594Y-84635669D01*
X124121256Y-84798784D01*
X124115005Y-84896118D01*
X124112922Y-85000000D01*
X123815266Y-85000000D01*
X123823749Y-84821183D01*
X123849198Y-84665732D01*
X123891614Y-84533647D01*
X123950997Y-84424928D01*
X124055243Y-84317110D01*
X124187005Y-84252420D01*
X124346284Y-84230856D01*
X124500801Y-84252420D01*
X124630976Y-84317110D01*
X124736809Y-84424928D01*
X124798275Y-84533647D01*
X124842180Y-84665732D01*
X124868522Y-84821183D01*
X124877303Y-85000000D01*
X124868746Y-85178817D01*
X124843073Y-85334268D01*
X124800285Y-85466353D01*
X124740381Y-85575072D01*
X124635474Y-85682890D01*
X124503315Y-85747580D01*
X124346284Y-85768822D01*
X124343903Y-85769144D01*
G37*
G36*
X120943478Y-84249906D02*
G01*
X121043491Y-84255859D01*
X121147075Y-84267766D01*
X121241134Y-84285625D01*
X121241134Y-85738187D01*
X120948241Y-85738187D01*
X120948241Y-85195262D01*
X120795841Y-85195262D01*
X120715176Y-85330101D01*
X120639869Y-85463153D01*
X120571705Y-85597991D01*
X120512472Y-85738187D01*
X120205291Y-85738187D01*
X120273156Y-85582216D01*
X120355309Y-85417909D01*
X120443416Y-85260747D01*
X120529141Y-85123825D01*
X120424961Y-85056555D01*
X120355309Y-84964281D01*
X120316019Y-84853553D01*
X120302922Y-84730919D01*
X120303124Y-84728537D01*
X120600578Y-84728537D01*
X120667253Y-84894034D01*
X120754764Y-84937790D01*
X120883947Y-84952375D01*
X120948241Y-84952375D01*
X120948241Y-84509462D01*
X120900616Y-84503509D01*
X120860134Y-84502319D01*
X120754764Y-84516011D01*
X120672016Y-84557087D01*
X120618437Y-84627334D01*
X120600578Y-84728537D01*
X120303124Y-84728537D01*
X120312745Y-84615130D01*
X120342212Y-84515416D01*
X120455322Y-84364206D01*
X120536284Y-84312414D01*
X120631534Y-84276100D01*
X120739881Y-84254669D01*
X120860134Y-84247525D01*
X120943478Y-84249906D01*
G37*
G36*
X129263566Y-84249906D02*
G01*
X129370722Y-84255859D01*
X129479069Y-84266575D01*
X129575509Y-84283244D01*
X129575509Y-85738187D01*
X129282616Y-85738187D01*
X129282616Y-85240506D01*
X129177841Y-85240506D01*
X129001760Y-85227409D01*
X128854520Y-85188119D01*
X128736119Y-85122634D01*
X128649468Y-85027781D01*
X128597477Y-84900384D01*
X128580147Y-84740444D01*
X128580406Y-84738062D01*
X128880184Y-84738062D01*
X128898044Y-84853851D01*
X128951622Y-84929753D01*
X129040323Y-84971723D01*
X129163553Y-84985712D01*
X129282616Y-84985712D01*
X129282616Y-84509462D01*
X129209987Y-84503509D01*
X129137359Y-84502319D01*
X129032287Y-84515713D01*
X128950431Y-84555897D01*
X128897746Y-84628227D01*
X128880184Y-84738062D01*
X128580406Y-84738062D01*
X128597345Y-84582091D01*
X128648939Y-84456281D01*
X128734928Y-84363016D01*
X128852139Y-84298854D01*
X128997395Y-84260357D01*
X129170697Y-84247525D01*
X129263566Y-84249906D01*
G37*
G36*
X119703508Y-84243821D02*
G01*
X119826936Y-84282715D01*
X119927875Y-84347537D01*
X120028780Y-84486841D01*
X120062416Y-84671387D01*
X120024316Y-84846409D01*
X119927875Y-84964281D01*
X119798097Y-85042862D01*
X119659984Y-85097631D01*
X119559972Y-85139303D01*
X119469484Y-85189309D01*
X119402809Y-85252412D01*
X119376616Y-85333375D01*
X119387331Y-85403622D01*
X119426622Y-85465534D01*
X119504012Y-85508397D01*
X119626647Y-85523875D01*
X119745412Y-85515541D01*
X119844531Y-85490537D01*
X119998122Y-85419100D01*
X120083847Y-85657225D01*
X119919541Y-85729853D01*
X119791548Y-85759321D01*
X119626647Y-85769144D01*
X119459562Y-85756576D01*
X119323434Y-85718873D01*
X119218262Y-85656034D01*
X119117357Y-85519410D01*
X119083722Y-85335756D01*
X119093842Y-85224730D01*
X119124203Y-85134541D01*
X119227787Y-85001191D01*
X119365900Y-84915466D01*
X119509966Y-84857125D01*
X119601644Y-84821406D01*
X119684987Y-84777353D01*
X119745709Y-84720203D01*
X119769522Y-84645194D01*
X119743593Y-84551267D01*
X119665805Y-84494910D01*
X119536159Y-84476125D01*
X119368281Y-84499937D01*
X119236122Y-84557087D01*
X119150397Y-84330869D01*
X119320656Y-84261812D01*
X119430491Y-84238595D01*
X119557591Y-84230856D01*
X119703508Y-84243821D01*
G37*
G36*
X131916278Y-85738187D02*
G01*
X130989972Y-85738187D01*
X130989972Y-85495300D01*
X131621003Y-85495300D01*
X131621003Y-84264194D01*
X131916278Y-84264194D01*
X131916278Y-85738187D01*
G37*
G36*
X127915778Y-85769144D02*
G01*
X127760203Y-85747580D01*
X127630028Y-85682890D01*
X127525253Y-85575072D01*
X127464829Y-85466353D01*
X127421669Y-85334268D01*
X127395773Y-85178817D01*
X127387141Y-85000000D01*
X127684797Y-85000000D01*
X127686880Y-85103584D01*
X127693131Y-85200025D01*
X127726469Y-85363141D01*
X127797906Y-85473869D01*
X127918159Y-85514350D01*
X128039603Y-85473869D01*
X128109850Y-85364331D01*
X128143187Y-85201216D01*
X128149438Y-85103882D01*
X128151522Y-85000000D01*
X128149438Y-84896416D01*
X128143187Y-84799975D01*
X128109850Y-84636859D01*
X128039603Y-84526131D01*
X127918159Y-84485650D01*
X127796716Y-84526131D01*
X127726469Y-84635669D01*
X127693131Y-84798784D01*
X127686880Y-84896118D01*
X127684797Y-85000000D01*
X127387141Y-85000000D01*
X127395624Y-84821183D01*
X127421073Y-84665732D01*
X127463489Y-84533647D01*
X127522872Y-84424928D01*
X127627118Y-84317110D01*
X127758880Y-84252420D01*
X127918159Y-84230856D01*
X128072676Y-84252420D01*
X128202851Y-84317110D01*
X128308684Y-84424928D01*
X128370150Y-84533647D01*
X128414055Y-84665732D01*
X128440397Y-84821183D01*
X128449178Y-85000000D01*
X128440621Y-85178817D01*
X128414948Y-85334268D01*
X128372160Y-85466353D01*
X128312256Y-85575072D01*
X128207349Y-85682890D01*
X128075190Y-85747580D01*
X127918159Y-85768822D01*
X127915778Y-85769144D01*
G37*
%LPC*%
D14*
X78740000Y-80000000D03*
D15*
X97047000Y-113596000D03*
D16*
X94507000Y-113596000D03*
D17*
X91967000Y-113596000D03*
D18*
X104920000Y-105000000D03*
D19*
X115080000Y-105000000D03*
D20*
X124727013Y-123853487D03*
D17*
X124727013Y-126393487D03*
X139332013Y-113693487D03*
X136792013Y-113693487D03*
X134252013Y-113693487D03*
X131712013Y-113693487D03*
X129172013Y-113693487D03*
X126632013Y-113693487D03*
D18*
X104920000Y-116500000D03*
D19*
X115080000Y-116500000D03*
D20*
X102385000Y-88000000D03*
D17*
X102385000Y-90540000D03*
X102385000Y-93080000D03*
X102385000Y-95620000D03*
X102385000Y-98160000D03*
X102385000Y-100700000D03*
X102385000Y-103240000D03*
X102385000Y-105780000D03*
X102385000Y-108320000D03*
X102385000Y-110860000D03*
X102385000Y-113400000D03*
X102385000Y-115940000D03*
X102385000Y-118480000D03*
X102385000Y-121020000D03*
X102385000Y-123560000D03*
X117625000Y-123560000D03*
X117625000Y-121020000D03*
X117625000Y-118480000D03*
X117625000Y-115940000D03*
X117625000Y-113400000D03*
X117625000Y-110860000D03*
X117625000Y-108320000D03*
X117625000Y-105780000D03*
X117625000Y-103240000D03*
X117625000Y-100700000D03*
X117625000Y-98160000D03*
X117625000Y-95620000D03*
X117625000Y-93080000D03*
X117625000Y-90540000D03*
X117625000Y-88000000D03*
D18*
X104920000Y-94400000D03*
D19*
X115080000Y-94400000D03*
D21*
X86040000Y-78000000D03*
D22*
X83500000Y-78000000D03*
D23*
X78140000Y-90000000D03*
D16*
X75600000Y-90000000D03*
D24*
X137000000Y-122182380D03*
D18*
X137000000Y-119682380D03*
D21*
X139700000Y-78000000D03*
D22*
X137160000Y-78000000D03*
D18*
X104920000Y-89300000D03*
D19*
X115080000Y-89300000D03*
D14*
X145740000Y-80000000D03*
X145740000Y-127000000D03*
D23*
X78140000Y-86000000D03*
D16*
X75600000Y-86000000D03*
D15*
X84455000Y-118975000D03*
D16*
X81915000Y-118975000D03*
D17*
X79375000Y-118975000D03*
D15*
X97070000Y-118950000D03*
D16*
X94530000Y-118950000D03*
D17*
X91990000Y-118950000D03*
D14*
X78740000Y-127000000D03*
D18*
X104920000Y-99500000D03*
D19*
X115080000Y-99500000D03*
D18*
X104920000Y-110500000D03*
D19*
X115080000Y-110500000D03*
D23*
X95505290Y-104315290D03*
D17*
X95505290Y-101775290D03*
X95505290Y-99235290D03*
X95505290Y-96695290D03*
X95505290Y-94155290D03*
X95505290Y-91615290D03*
X95505290Y-89075290D03*
X95505290Y-86535290D03*
D15*
X84400000Y-113600000D03*
D16*
X81860000Y-113600000D03*
D17*
X79320000Y-113600000D03*
D25*
X144000000Y-111888000D03*
X144000000Y-119000000D03*
D26*
X120500000Y-80000000D03*
X130500000Y-80000000D03*
D27*
X87444000Y-127000000D03*
X94556000Y-127000000D03*
D28*
X144000000Y-91000000D03*
X144000000Y-101000000D03*
D25*
X79200000Y-96500000D03*
X79200000Y-103612000D03*
D27*
X97388000Y-79000000D03*
X104500000Y-79000000D03*
M02*
